%TF.GenerationSoftware,KiCad,Pcbnew,8.0.4*%
%TF.CreationDate,2024-09-21T16:19:46-07:00*%
%TF.ProjectId,solder_challenge_555,736f6c64-6572-45f6-9368-616c6c656e67,rev?*%
%TF.SameCoordinates,Original*%
%TF.FileFunction,Copper,L1,Top*%
%TF.FilePolarity,Positive*%
%FSLAX46Y46*%
G04 Gerber Fmt 4.6, Leading zero omitted, Abs format (unit mm)*
G04 Created by KiCad (PCBNEW 8.0.4) date 2024-09-21 16:19:46*
%MOMM*%
%LPD*%
G01*
G04 APERTURE LIST*
G04 Aperture macros list*
%AMRoundRect*
0 Rectangle with rounded corners*
0 $1 Rounding radius*
0 $2 $3 $4 $5 $6 $7 $8 $9 X,Y pos of 4 corners*
0 Add a 4 corners polygon primitive as box body*
4,1,4,$2,$3,$4,$5,$6,$7,$8,$9,$2,$3,0*
0 Add four circle primitives for the rounded corners*
1,1,$1+$1,$2,$3*
1,1,$1+$1,$4,$5*
1,1,$1+$1,$6,$7*
1,1,$1+$1,$8,$9*
0 Add four rect primitives between the rounded corners*
20,1,$1+$1,$2,$3,$4,$5,0*
20,1,$1+$1,$4,$5,$6,$7,0*
20,1,$1+$1,$6,$7,$8,$9,0*
20,1,$1+$1,$8,$9,$2,$3,0*%
G04 Aperture macros list end*
%TA.AperFunction,ComponentPad*%
%ADD10C,1.400000*%
%TD*%
%TA.AperFunction,ComponentPad*%
%ADD11O,1.400000X1.400000*%
%TD*%
%TA.AperFunction,ComponentPad*%
%ADD12C,1.600000*%
%TD*%
%TA.AperFunction,SMDPad,CuDef*%
%ADD13RoundRect,0.160000X-0.197500X-0.160000X0.197500X-0.160000X0.197500X0.160000X-0.197500X0.160000X0*%
%TD*%
%TA.AperFunction,SMDPad,CuDef*%
%ADD14RoundRect,0.250000X-0.475000X0.337500X-0.475000X-0.337500X0.475000X-0.337500X0.475000X0.337500X0*%
%TD*%
%TA.AperFunction,SMDPad,CuDef*%
%ADD15RoundRect,0.250001X0.462499X0.624999X-0.462499X0.624999X-0.462499X-0.624999X0.462499X-0.624999X0*%
%TD*%
%TA.AperFunction,SMDPad,CuDef*%
%ADD16RoundRect,0.250000X0.337500X0.475000X-0.337500X0.475000X-0.337500X-0.475000X0.337500X-0.475000X0*%
%TD*%
%TA.AperFunction,SMDPad,CuDef*%
%ADD17RoundRect,0.250000X-0.350000X-0.450000X0.350000X-0.450000X0.350000X0.450000X-0.350000X0.450000X0*%
%TD*%
%TA.AperFunction,SMDPad,CuDef*%
%ADD18RoundRect,0.237500X-0.250000X-0.237500X0.250000X-0.237500X0.250000X0.237500X-0.250000X0.237500X0*%
%TD*%
%TA.AperFunction,SMDPad,CuDef*%
%ADD19RoundRect,0.155000X0.212500X0.155000X-0.212500X0.155000X-0.212500X-0.155000X0.212500X-0.155000X0*%
%TD*%
%TA.AperFunction,SMDPad,CuDef*%
%ADD20RoundRect,0.250000X-0.337500X-0.475000X0.337500X-0.475000X0.337500X0.475000X-0.337500X0.475000X0*%
%TD*%
%TA.AperFunction,SMDPad,CuDef*%
%ADD21RoundRect,0.250000X0.325000X0.450000X-0.325000X0.450000X-0.325000X-0.450000X0.325000X-0.450000X0*%
%TD*%
%TA.AperFunction,SMDPad,CuDef*%
%ADD22RoundRect,0.250000X-0.400000X-0.625000X0.400000X-0.625000X0.400000X0.625000X-0.400000X0.625000X0*%
%TD*%
%TA.AperFunction,SMDPad,CuDef*%
%ADD23RoundRect,0.150000X-0.825000X-0.150000X0.825000X-0.150000X0.825000X0.150000X-0.825000X0.150000X0*%
%TD*%
%TA.AperFunction,ComponentPad*%
%ADD24R,1.800000X1.800000*%
%TD*%
%TA.AperFunction,ComponentPad*%
%ADD25C,1.800000*%
%TD*%
%TA.AperFunction,SMDPad,CuDef*%
%ADD26RoundRect,0.250000X-0.412500X-0.650000X0.412500X-0.650000X0.412500X0.650000X-0.412500X0.650000X0*%
%TD*%
%TA.AperFunction,ComponentPad*%
%ADD27R,1.700000X1.700000*%
%TD*%
%TA.AperFunction,ComponentPad*%
%ADD28O,1.700000X1.700000*%
%TD*%
%TA.AperFunction,ComponentPad*%
%ADD29C,2.000000*%
%TD*%
%TA.AperFunction,ComponentPad*%
%ADD30R,2.400000X1.600000*%
%TD*%
%TA.AperFunction,ComponentPad*%
%ADD31O,2.400000X1.600000*%
%TD*%
%TA.AperFunction,ViaPad*%
%ADD32C,0.800000*%
%TD*%
%TA.AperFunction,Conductor*%
%ADD33C,0.250000*%
%TD*%
G04 APERTURE END LIST*
D10*
%TO.P,R3,1*%
%TO.N,Net-(D4-K)*%
X131920000Y-52230000D03*
D11*
%TO.P,R3,2*%
%TO.N,Net-(D1-A)*%
X134460000Y-52230000D03*
%TD*%
D12*
%TO.P,C1,1*%
%TO.N,Net-(U1-THR)*%
X116890000Y-50100000D03*
%TO.P,C1,2*%
%TO.N,GND*%
X121890000Y-50100000D03*
%TD*%
D13*
%TO.P,R10,1*%
%TO.N,unconnected-(R10-Pad1)*%
X136500000Y-40835000D03*
%TO.P,R10,2*%
%TO.N,unconnected-(R10-Pad2)*%
X137695000Y-40835000D03*
%TD*%
D14*
%TO.P,R5,1*%
%TO.N,VCC*%
X144075000Y-49875000D03*
%TO.P,R5,2*%
%TO.N,/smt_555/7*%
X144075000Y-51950000D03*
%TD*%
D15*
%TO.P,D3,1,K*%
%TO.N,/smt_555/3*%
X156807500Y-39970000D03*
%TO.P,D3,2,A*%
%TO.N,Net-(D3-A)*%
X153832500Y-39970000D03*
%TD*%
D16*
%TO.P,R4,1*%
%TO.N,/smt_555/7*%
X141537500Y-52025000D03*
%TO.P,R4,2*%
%TO.N,Net-(R11-Pad1)*%
X139462500Y-52025000D03*
%TD*%
D17*
%TO.P,R8,1*%
%TO.N,unconnected-(R8-Pad1)*%
X136895000Y-43810000D03*
%TO.P,R8,2*%
%TO.N,unconnected-(R8-Pad2)*%
X138895000Y-43810000D03*
%TD*%
D18*
%TO.P,R9,1*%
%TO.N,unconnected-(R9-Pad1)*%
X136770000Y-42085000D03*
%TO.P,R9,2*%
%TO.N,unconnected-(R9-Pad2)*%
X138595000Y-42085000D03*
%TD*%
D19*
%TO.P,R11,1*%
%TO.N,Net-(R11-Pad1)*%
X137585000Y-50225000D03*
%TO.P,R11,2*%
%TO.N,/smt_555/2*%
X136450000Y-50225000D03*
%TD*%
D10*
%TO.P,R1,1*%
%TO.N,VCC*%
X125040000Y-54340000D03*
D11*
%TO.P,R1,2*%
%TO.N,Net-(U1-DIS)*%
X122500000Y-54340000D03*
%TD*%
D20*
%TO.P,R12,1*%
%TO.N,VCC*%
X147787500Y-40050000D03*
%TO.P,R12,2*%
%TO.N,Net-(D3-A)*%
X149862500Y-40050000D03*
%TD*%
D21*
%TO.P,D2,1,K*%
%TO.N,GND*%
X155632500Y-50420000D03*
%TO.P,D2,2,A*%
%TO.N,Net-(D2-A)*%
X153582500Y-50420000D03*
%TD*%
D16*
%TO.P,C4,1*%
%TO.N,/smt_555/5*%
X144312500Y-61350000D03*
%TO.P,C4,2*%
%TO.N,GND*%
X142237500Y-61350000D03*
%TD*%
D20*
%TO.P,R6,1*%
%TO.N,/smt_555/3*%
X147082500Y-50480000D03*
%TO.P,R6,2*%
%TO.N,Net-(D2-A)*%
X149157500Y-50480000D03*
%TD*%
D22*
%TO.P,R7,1*%
%TO.N,unconnected-(R7-Pad1)*%
X136920000Y-45910000D03*
%TO.P,R7,2*%
%TO.N,unconnected-(R7-Pad2)*%
X140020000Y-45910000D03*
%TD*%
D12*
%TO.P,C2,1*%
%TO.N,Net-(U1-CV)*%
X124450000Y-49700000D03*
%TO.P,C2,2*%
%TO.N,GND*%
X124450000Y-52200000D03*
%TD*%
D10*
%TO.P,R2,1*%
%TO.N,Net-(U1-DIS)*%
X119400000Y-54490000D03*
D11*
%TO.P,R2,2*%
%TO.N,Net-(U1-THR)*%
X116860000Y-54490000D03*
%TD*%
D23*
%TO.P,U2,1,GND*%
%TO.N,GND*%
X138100000Y-54045000D03*
%TO.P,U2,2,TR*%
%TO.N,/smt_555/2*%
X138100000Y-55315000D03*
%TO.P,U2,3,Q*%
%TO.N,/smt_555/3*%
X138100000Y-56585000D03*
%TO.P,U2,4,R*%
%TO.N,VCC*%
X138100000Y-57855000D03*
%TO.P,U2,5,CV*%
%TO.N,/smt_555/5*%
X143050000Y-57855000D03*
%TO.P,U2,6,THR*%
%TO.N,/smt_555/2*%
X143050000Y-56585000D03*
%TO.P,U2,7,DIS*%
%TO.N,/smt_555/7*%
X143050000Y-55315000D03*
%TO.P,U2,8,VCC*%
%TO.N,VCC*%
X143050000Y-54045000D03*
%TD*%
D24*
%TO.P,D4,1,K*%
%TO.N,Net-(D4-K)*%
X129960000Y-47260000D03*
D25*
%TO.P,D4,2,A*%
%TO.N,Net-(D4-A)*%
X127420000Y-47260000D03*
%TD*%
D24*
%TO.P,D1,1,K*%
%TO.N,GND*%
X132270000Y-47240000D03*
D25*
%TO.P,D1,2,A*%
%TO.N,Net-(D1-A)*%
X134810000Y-47240000D03*
%TD*%
D10*
%TO.P,R13,1*%
%TO.N,VCC*%
X127090000Y-52380000D03*
D11*
%TO.P,R13,2*%
%TO.N,Net-(D4-A)*%
X129630000Y-52380000D03*
%TD*%
D26*
%TO.P,C3,1*%
%TO.N,/smt_555/2*%
X136612500Y-61250000D03*
%TO.P,C3,2*%
%TO.N,GND*%
X139737500Y-61250000D03*
%TD*%
D27*
%TO.P,J2,1,Pin_1*%
%TO.N,VCC*%
X136950000Y-39240000D03*
D28*
%TO.P,J2,2,Pin_2*%
%TO.N,unconnected-(J2-Pin_2-Pad2)*%
X139490000Y-39240000D03*
%TO.P,J2,3,Pin_3*%
%TO.N,unconnected-(J2-Pin_3-Pad3)*%
X142030000Y-39240000D03*
%TO.P,J2,4,Pin_4*%
%TO.N,GND*%
X144570000Y-39240000D03*
%TD*%
D25*
%TO.P,J1,6,Shield*%
%TO.N,unconnected-(J1-Shield-Pad6)*%
X124895000Y-61090000D03*
D29*
X124745000Y-57290000D03*
X117295000Y-57290000D03*
D25*
X117145000Y-61090000D03*
%TD*%
D30*
%TO.P,U1,1,GND*%
%TO.N,GND*%
X117190000Y-39430000D03*
D31*
%TO.P,U1,2,TR*%
%TO.N,Net-(U1-THR)*%
X117190000Y-41970000D03*
%TO.P,U1,3,Q*%
%TO.N,Net-(D4-K)*%
X117190000Y-44510000D03*
%TO.P,U1,4,R*%
%TO.N,VCC*%
X117190000Y-47050000D03*
%TO.P,U1,5,CV*%
%TO.N,Net-(U1-CV)*%
X124810000Y-47050000D03*
%TO.P,U1,6,THR*%
%TO.N,Net-(U1-THR)*%
X124810000Y-44510000D03*
%TO.P,U1,7,DIS*%
%TO.N,Net-(U1-DIS)*%
X124810000Y-41970000D03*
%TO.P,U1,8,VCC*%
%TO.N,VCC*%
X124810000Y-39430000D03*
%TD*%
D32*
%TO.N,GND*%
X137475000Y-52750000D03*
X156020000Y-48770000D03*
X120430000Y-55900000D03*
X141050000Y-61300000D03*
%TO.N,VCC*%
X146575000Y-39250000D03*
X121429949Y-55889691D03*
X142600000Y-49850000D03*
X139700000Y-57775000D03*
X144400000Y-53350000D03*
%TO.N,/smt_555/7*%
X145510000Y-50950000D03*
%TO.N,/smt_555/3*%
X136540000Y-57340000D03*
X145520000Y-48780000D03*
X155280000Y-40550000D03*
%TD*%
D33*
%TO.N,GND*%
X139737500Y-61250000D02*
X141000000Y-61250000D01*
X138100000Y-53375000D02*
X137475000Y-52750000D01*
X138100000Y-54045000D02*
X138100000Y-53375000D01*
X155632500Y-49157500D02*
X155632500Y-50420000D01*
X142237500Y-61350000D02*
X141100000Y-61350000D01*
X141100000Y-61350000D02*
X141050000Y-61300000D01*
X141000000Y-61250000D02*
X141050000Y-61300000D01*
X156020000Y-48770000D02*
X155632500Y-49157500D01*
%TO.N,/smt_555/2*%
X135750000Y-60387500D02*
X136612500Y-61250000D01*
X138200000Y-55370000D02*
X137945000Y-55370000D01*
X135750000Y-57070000D02*
X135750000Y-60387500D01*
X136025000Y-55315000D02*
X136450000Y-54890000D01*
X136450000Y-54890000D02*
X136450000Y-50225000D01*
X139890000Y-55315000D02*
X141160000Y-56585000D01*
X138100000Y-55315000D02*
X139890000Y-55315000D01*
X136025000Y-55315000D02*
X136025000Y-56795000D01*
X136025000Y-56795000D02*
X135750000Y-57070000D01*
X138100000Y-55315000D02*
X136025000Y-55315000D01*
X141160000Y-56585000D02*
X143050000Y-56585000D01*
%TO.N,/smt_555/5*%
X144312500Y-59117500D02*
X144312500Y-61350000D01*
X143050000Y-57855000D02*
X144312500Y-59117500D01*
%TO.N,Net-(D1-A)*%
X134645000Y-47135000D02*
X134645000Y-52045000D01*
X134540000Y-47030000D02*
X134645000Y-47135000D01*
X134645000Y-52045000D02*
X134460000Y-52230000D01*
%TO.N,Net-(D2-A)*%
X153210000Y-50575000D02*
X153335000Y-50450000D01*
X149157500Y-50480000D02*
X149252500Y-50575000D01*
X149252500Y-50575000D02*
X153210000Y-50575000D01*
%TO.N,VCC*%
X143450000Y-49875000D02*
X144075000Y-49875000D01*
X147375000Y-40050000D02*
X146575000Y-39250000D01*
X147787500Y-40050000D02*
X147375000Y-40050000D01*
X143705000Y-54045000D02*
X144400000Y-53350000D01*
X138100000Y-57855000D02*
X139620000Y-57855000D01*
X139620000Y-57855000D02*
X139700000Y-57775000D01*
X143050000Y-54045000D02*
X143705000Y-54045000D01*
X142600000Y-49850000D02*
X143450000Y-49875000D01*
%TO.N,/smt_555/7*%
X141550000Y-55300000D02*
X143035000Y-55300000D01*
X144075000Y-51950000D02*
X144000000Y-52025000D01*
X145510000Y-50950000D02*
X144972500Y-51487500D01*
X143035000Y-55300000D02*
X143050000Y-55315000D01*
X141537500Y-52025000D02*
X141550000Y-52037500D01*
X144972500Y-51487500D02*
X144175000Y-51487500D01*
X141550000Y-52037500D02*
X141550000Y-55300000D01*
X144000000Y-52025000D02*
X141537500Y-52025000D01*
%TO.N,/smt_555/3*%
X137295000Y-56585000D02*
X138100000Y-56585000D01*
X136540000Y-57340000D02*
X137295000Y-56585000D01*
X155280000Y-40550000D02*
X156227500Y-40550000D01*
X147082500Y-50342500D02*
X145520000Y-48780000D01*
X156227500Y-40550000D02*
X156807500Y-39970000D01*
X147082500Y-50480000D02*
X147082500Y-50342500D01*
%TO.N,Net-(D3-A)*%
X149862500Y-40050000D02*
X154210000Y-40050000D01*
X154210000Y-40050000D02*
X154300000Y-39960000D01*
%TO.N,Net-(R11-Pad1)*%
X137585000Y-50225000D02*
X137662500Y-50225000D01*
X137662500Y-50225000D02*
X139462500Y-52025000D01*
%TO.N,Net-(U1-THR)*%
X122270000Y-41970000D02*
X124810000Y-44510000D01*
X117190000Y-41970000D02*
X122270000Y-41970000D01*
%TO.N,Net-(D4-K)*%
X131570000Y-52230000D02*
X131920000Y-52230000D01*
X118800000Y-44510000D02*
X117190000Y-44510000D01*
X129710000Y-50370000D02*
X131570000Y-52230000D01*
X122870000Y-45860000D02*
X120150000Y-45860000D01*
X127585000Y-49985000D02*
X125930000Y-48330000D01*
X123190000Y-48330000D02*
X122870000Y-48010000D01*
X129960000Y-47260000D02*
X129710000Y-47510000D01*
X129960000Y-47610000D02*
X127585000Y-49985000D01*
X120150000Y-45860000D02*
X118800000Y-44510000D01*
X125930000Y-48330000D02*
X123190000Y-48330000D01*
X129710000Y-47510000D02*
X129710000Y-50370000D01*
X122870000Y-48010000D02*
X122870000Y-45860000D01*
X129960000Y-47260000D02*
X129960000Y-47610000D01*
%TD*%
M02*
