%TF.GenerationSoftware,KiCad,Pcbnew,8.0.2*%
%TF.CreationDate,2024-09-30T00:20:34-04:00*%
%TF.ProjectId,solder_challenge_555,736f6c64-6572-45f6-9368-616c6c656e67,rev?*%
%TF.SameCoordinates,Original*%
%TF.FileFunction,Soldermask,Top*%
%TF.FilePolarity,Negative*%
%FSLAX46Y46*%
G04 Gerber Fmt 4.6, Leading zero omitted, Abs format (unit mm)*
G04 Created by KiCad (PCBNEW 8.0.2) date 2024-09-30 00:20:34*
%MOMM*%
%LPD*%
G01*
G04 APERTURE LIST*
G04 Aperture macros list*
%AMRoundRect*
0 Rectangle with rounded corners*
0 $1 Rounding radius*
0 $2 $3 $4 $5 $6 $7 $8 $9 X,Y pos of 4 corners*
0 Add a 4 corners polygon primitive as box body*
4,1,4,$2,$3,$4,$5,$6,$7,$8,$9,$2,$3,0*
0 Add four circle primitives for the rounded corners*
1,1,$1+$1,$2,$3*
1,1,$1+$1,$4,$5*
1,1,$1+$1,$6,$7*
1,1,$1+$1,$8,$9*
0 Add four rect primitives between the rounded corners*
20,1,$1+$1,$2,$3,$4,$5,0*
20,1,$1+$1,$4,$5,$6,$7,0*
20,1,$1+$1,$6,$7,$8,$9,0*
20,1,$1+$1,$8,$9,$2,$3,0*%
G04 Aperture macros list end*
%ADD10C,1.400000*%
%ADD11O,1.400000X1.400000*%
%ADD12C,1.600000*%
%ADD13RoundRect,0.160000X-0.197500X-0.160000X0.197500X-0.160000X0.197500X0.160000X-0.197500X0.160000X0*%
%ADD14RoundRect,0.250000X-0.475000X0.337500X-0.475000X-0.337500X0.475000X-0.337500X0.475000X0.337500X0*%
%ADD15RoundRect,0.250001X0.462499X0.624999X-0.462499X0.624999X-0.462499X-0.624999X0.462499X-0.624999X0*%
%ADD16RoundRect,0.250000X0.337500X0.475000X-0.337500X0.475000X-0.337500X-0.475000X0.337500X-0.475000X0*%
%ADD17R,2.400000X1.600000*%
%ADD18O,2.400000X1.600000*%
%ADD19RoundRect,0.250000X-0.350000X-0.450000X0.350000X-0.450000X0.350000X0.450000X-0.350000X0.450000X0*%
%ADD20RoundRect,0.237500X-0.250000X-0.237500X0.250000X-0.237500X0.250000X0.237500X-0.250000X0.237500X0*%
%ADD21RoundRect,0.155000X0.212500X0.155000X-0.212500X0.155000X-0.212500X-0.155000X0.212500X-0.155000X0*%
%ADD22RoundRect,0.250000X-0.337500X-0.475000X0.337500X-0.475000X0.337500X0.475000X-0.337500X0.475000X0*%
%ADD23RoundRect,0.250000X0.325000X0.450000X-0.325000X0.450000X-0.325000X-0.450000X0.325000X-0.450000X0*%
%ADD24RoundRect,0.250000X-0.400000X-0.625000X0.400000X-0.625000X0.400000X0.625000X-0.400000X0.625000X0*%
%ADD25RoundRect,0.150000X-0.825000X-0.150000X0.825000X-0.150000X0.825000X0.150000X-0.825000X0.150000X0*%
%ADD26R,1.800000X1.800000*%
%ADD27C,1.800000*%
%ADD28RoundRect,0.250000X-0.412500X-0.650000X0.412500X-0.650000X0.412500X0.650000X-0.412500X0.650000X0*%
%ADD29R,1.700000X1.700000*%
%ADD30O,1.700000X1.700000*%
%ADD31C,0.800000*%
%ADD32C,2.000000*%
G04 APERTURE END LIST*
D10*
%TO.C,R3*%
X131920000Y-52230000D03*
D11*
X134460000Y-52230000D03*
%TD*%
D12*
%TO.C,C1*%
X116890000Y-50100000D03*
X121890000Y-50100000D03*
%TD*%
D13*
%TO.C,R10*%
X136500000Y-40835000D03*
X137695000Y-40835000D03*
%TD*%
D14*
%TO.C,R5*%
X144075000Y-49875000D03*
X144075000Y-51950000D03*
%TD*%
D15*
%TO.C,D3*%
X156807500Y-39970000D03*
X153832500Y-39970000D03*
%TD*%
D16*
%TO.C,R4*%
X141537500Y-52025000D03*
X139462500Y-52025000D03*
%TD*%
D17*
%TO.C,U1*%
X117190000Y-39430000D03*
D18*
X117190000Y-41970000D03*
X117190000Y-44510000D03*
X117190000Y-47050000D03*
X124810000Y-47050000D03*
X124810000Y-44510000D03*
X124810000Y-41970000D03*
X124810000Y-39430000D03*
%TD*%
D19*
%TO.C,R8*%
X136895000Y-43810000D03*
X138895000Y-43810000D03*
%TD*%
D20*
%TO.C,R9*%
X136770000Y-42085000D03*
X138595000Y-42085000D03*
%TD*%
D21*
%TO.C,R11*%
X137585000Y-50225000D03*
X136450000Y-50225000D03*
%TD*%
D10*
%TO.C,R1*%
X125040000Y-54340000D03*
D11*
X122500000Y-54340000D03*
%TD*%
D22*
%TO.C,R12*%
X147787500Y-40050000D03*
X149862500Y-40050000D03*
%TD*%
D23*
%TO.C,D2*%
X155632500Y-50420000D03*
X153582500Y-50420000D03*
%TD*%
D16*
%TO.C,C4*%
X144312500Y-61350000D03*
X142237500Y-61350000D03*
%TD*%
D22*
%TO.C,R6*%
X147082500Y-50480000D03*
X149157500Y-50480000D03*
%TD*%
D24*
%TO.C,R7*%
X136920000Y-45910000D03*
X140020000Y-45910000D03*
%TD*%
D12*
%TO.C,C2*%
X124450000Y-49700000D03*
X124450000Y-52200000D03*
%TD*%
D10*
%TO.C,R2*%
X119400000Y-54490000D03*
D11*
X116860000Y-54490000D03*
%TD*%
D25*
%TO.C,U2*%
X138100000Y-54045000D03*
X138100000Y-55315000D03*
X138100000Y-56585000D03*
X138100000Y-57855000D03*
X143050000Y-57855000D03*
X143050000Y-56585000D03*
X143050000Y-55315000D03*
X143050000Y-54045000D03*
%TD*%
D26*
%TO.C,D4*%
X129960000Y-47260000D03*
D27*
X127420000Y-47260000D03*
%TD*%
D26*
%TO.C,D1*%
X132270000Y-47240000D03*
D27*
X134810000Y-47240000D03*
%TD*%
D10*
%TO.C,R13*%
X127090000Y-52380000D03*
D11*
X129630000Y-52380000D03*
%TD*%
D28*
%TO.C,C3*%
X136612500Y-61250000D03*
X139737500Y-61250000D03*
%TD*%
D29*
%TO.C,J2*%
X136950000Y-39240000D03*
D30*
X139490000Y-39240000D03*
X142030000Y-39240000D03*
X144570000Y-39240000D03*
%TD*%
D31*
%TO.C,J1*%
X123520000Y-58340000D03*
X118520000Y-58340000D03*
D27*
X124895000Y-61090000D03*
D32*
X124745000Y-57290000D03*
X117295000Y-57290000D03*
D27*
X117145000Y-61090000D03*
%TD*%
M02*
