%TF.GenerationSoftware,KiCad,Pcbnew,8.0.2*%
%TF.CreationDate,2024-09-30T00:20:34-04:00*%
%TF.ProjectId,solder_challenge_555,736f6c64-6572-45f6-9368-616c6c656e67,rev?*%
%TF.SameCoordinates,Original*%
%TF.FileFunction,Copper,L4,Bot*%
%TF.FilePolarity,Positive*%
%FSLAX46Y46*%
G04 Gerber Fmt 4.6, Leading zero omitted, Abs format (unit mm)*
G04 Created by KiCad (PCBNEW 8.0.2) date 2024-09-30 00:20:34*
%MOMM*%
%LPD*%
G01*
G04 APERTURE LIST*
%TA.AperFunction,ComponentPad*%
%ADD10C,1.400000*%
%TD*%
%TA.AperFunction,ComponentPad*%
%ADD11O,1.400000X1.400000*%
%TD*%
%TA.AperFunction,ComponentPad*%
%ADD12C,1.600000*%
%TD*%
%TA.AperFunction,ComponentPad*%
%ADD13R,2.400000X1.600000*%
%TD*%
%TA.AperFunction,ComponentPad*%
%ADD14O,2.400000X1.600000*%
%TD*%
%TA.AperFunction,ComponentPad*%
%ADD15R,1.800000X1.800000*%
%TD*%
%TA.AperFunction,ComponentPad*%
%ADD16C,1.800000*%
%TD*%
%TA.AperFunction,ComponentPad*%
%ADD17R,1.700000X1.700000*%
%TD*%
%TA.AperFunction,ComponentPad*%
%ADD18O,1.700000X1.700000*%
%TD*%
%TA.AperFunction,SMDPad,CuDef*%
%ADD19R,0.450000X1.300000*%
%TD*%
%TA.AperFunction,ComponentPad*%
%ADD20C,2.000000*%
%TD*%
%TA.AperFunction,ViaPad*%
%ADD21C,0.800000*%
%TD*%
%TA.AperFunction,Conductor*%
%ADD22C,0.250000*%
%TD*%
G04 APERTURE END LIST*
D10*
%TO.P,R3,1*%
%TO.N,Net-(D4-K)*%
X131920000Y-52230000D03*
D11*
%TO.P,R3,2*%
%TO.N,Net-(D1-A)*%
X134460000Y-52230000D03*
%TD*%
D12*
%TO.P,C1,1*%
%TO.N,Net-(U1-THR)*%
X116890000Y-50100000D03*
%TO.P,C1,2*%
%TO.N,GND*%
X121890000Y-50100000D03*
%TD*%
D13*
%TO.P,U1,1,GND*%
%TO.N,GND*%
X117190000Y-39430000D03*
D14*
%TO.P,U1,2,TR*%
%TO.N,Net-(U1-THR)*%
X117190000Y-41970000D03*
%TO.P,U1,3,Q*%
%TO.N,Net-(D4-K)*%
X117190000Y-44510000D03*
%TO.P,U1,4,R*%
%TO.N,VCC*%
X117190000Y-47050000D03*
%TO.P,U1,5,CV*%
%TO.N,Net-(U1-CV)*%
X124810000Y-47050000D03*
%TO.P,U1,6,THR*%
%TO.N,Net-(U1-THR)*%
X124810000Y-44510000D03*
%TO.P,U1,7,DIS*%
%TO.N,Net-(U1-DIS)*%
X124810000Y-41970000D03*
%TO.P,U1,8,VCC*%
%TO.N,VCC*%
X124810000Y-39430000D03*
%TD*%
D10*
%TO.P,R1,1*%
%TO.N,VCC*%
X125040000Y-54340000D03*
D11*
%TO.P,R1,2*%
%TO.N,Net-(U1-DIS)*%
X122500000Y-54340000D03*
%TD*%
D12*
%TO.P,C2,1*%
%TO.N,Net-(U1-CV)*%
X124450000Y-49700000D03*
%TO.P,C2,2*%
%TO.N,GND*%
X124450000Y-52200000D03*
%TD*%
D10*
%TO.P,R2,1*%
%TO.N,Net-(U1-DIS)*%
X119400000Y-54490000D03*
D11*
%TO.P,R2,2*%
%TO.N,Net-(U1-THR)*%
X116860000Y-54490000D03*
%TD*%
D15*
%TO.P,D4,1,K*%
%TO.N,Net-(D4-K)*%
X129960000Y-47260000D03*
D16*
%TO.P,D4,2,A*%
%TO.N,Net-(D4-A)*%
X127420000Y-47260000D03*
%TD*%
D15*
%TO.P,D1,1,K*%
%TO.N,GND*%
X132270000Y-47240000D03*
D16*
%TO.P,D1,2,A*%
%TO.N,Net-(D1-A)*%
X134810000Y-47240000D03*
%TD*%
D10*
%TO.P,R13,1*%
%TO.N,VCC*%
X127090000Y-52380000D03*
D11*
%TO.P,R13,2*%
%TO.N,Net-(D4-A)*%
X129630000Y-52380000D03*
%TD*%
D17*
%TO.P,J2,1,Pin_1*%
%TO.N,VCC*%
X136950000Y-39240000D03*
D18*
%TO.P,J2,2,Pin_2*%
%TO.N,unconnected-(J2-Pin_2-Pad2)*%
X139490000Y-39240000D03*
%TO.P,J2,3,Pin_3*%
%TO.N,unconnected-(J2-Pin_3-Pad3)*%
X142030000Y-39240000D03*
%TO.P,J2,4,Pin_4*%
%TO.N,GND*%
X144570000Y-39240000D03*
%TD*%
D19*
%TO.P,J1,1,VBUS*%
%TO.N,VCC*%
X122320000Y-57240000D03*
%TO.P,J1,2,D-*%
%TO.N,unconnected-(J1-D--Pad2)*%
X121670000Y-57240000D03*
%TO.P,J1,3,D+*%
%TO.N,unconnected-(J1-D+-Pad3)*%
X121020000Y-57240000D03*
%TO.P,J1,4,ID*%
%TO.N,unconnected-(J1-ID-Pad4)*%
X120370000Y-57240000D03*
%TO.P,J1,5,GND*%
%TO.N,GND*%
X119720000Y-57240000D03*
D16*
%TO.P,J1,6,Shield*%
%TO.N,unconnected-(J1-Shield-Pad6)*%
X124895000Y-61090000D03*
D20*
X124745000Y-57290000D03*
X117295000Y-57290000D03*
D16*
X117145000Y-61090000D03*
%TD*%
D21*
%TO.N,GND*%
X137475000Y-52750000D03*
X156020000Y-48770000D03*
X120430000Y-55900000D03*
X141050000Y-61300000D03*
%TO.N,VCC*%
X146575000Y-39250000D03*
X121429949Y-55889691D03*
X142600000Y-49850000D03*
X139700000Y-57775000D03*
X144400000Y-53350000D03*
%TO.N,/smt_555/7*%
X145510000Y-50950000D03*
%TO.N,/smt_555/3*%
X136540000Y-57340000D03*
X145520000Y-48780000D03*
X155280000Y-40550000D03*
%TD*%
D22*
%TO.N,*%
X119365000Y-66685000D02*
X119365000Y-66615000D01*
%TO.N,GND*%
X120430000Y-55900000D02*
X120190000Y-55900000D01*
X119720000Y-56370000D02*
X119720000Y-57240000D01*
X120190000Y-55900000D02*
X119720000Y-56370000D01*
%TO.N,VCC*%
X121844691Y-55889691D02*
X122320000Y-56365000D01*
X121429949Y-55889691D02*
X121844691Y-55889691D01*
X122320000Y-56365000D02*
X122320000Y-57240000D01*
%TO.N,/smt_555/3*%
X136540000Y-55540000D02*
X138390000Y-53690000D01*
X155280000Y-40550000D02*
X153315000Y-40550000D01*
X153315000Y-40550000D02*
X152915000Y-40950000D01*
X136540000Y-57340000D02*
X136540000Y-55540000D01*
X146930000Y-40680000D02*
X145040000Y-40680000D01*
X145520000Y-48780000D02*
X145512500Y-48787500D01*
X147200000Y-40950000D02*
X146930000Y-40680000D01*
X152915000Y-40950000D02*
X147200000Y-40950000D01*
X138390000Y-48860000D02*
X138525000Y-48725000D01*
X144725000Y-48700000D02*
X144812500Y-48787500D01*
X145512500Y-48787500D02*
X144812500Y-48787500D01*
X138390000Y-53690000D02*
X138390000Y-48860000D01*
X145040000Y-40680000D02*
X144725000Y-40995000D01*
X144750000Y-48725000D02*
X144812500Y-48787500D01*
X144725000Y-40995000D02*
X144725000Y-48700000D01*
X138525000Y-48725000D02*
X144750000Y-48725000D01*
%TO.N,Net-(D4-A)*%
X127420000Y-47260000D02*
X127420000Y-49485000D01*
X129630000Y-51695000D02*
X129630000Y-52380000D01*
X127420000Y-49485000D02*
X129630000Y-51695000D01*
%TO.N,Net-(U1-THR)*%
X117190000Y-41970000D02*
X118110000Y-41970000D01*
X118960000Y-47950000D02*
X116800000Y-50110000D01*
X116800000Y-54430000D02*
X116860000Y-54490000D01*
X118960000Y-42820000D02*
X118960000Y-47950000D01*
X116800000Y-50110000D02*
X116800000Y-54430000D01*
X118110000Y-41970000D02*
X118960000Y-42820000D01*
%TO.N,Net-(U1-CV)*%
X124810000Y-49340000D02*
X124450000Y-49700000D01*
X124810000Y-47050000D02*
X124810000Y-49340000D01*
%TO.N,Net-(U1-DIS)*%
X121570000Y-41970000D02*
X119890000Y-43650000D01*
X119400000Y-54490000D02*
X119550000Y-54340000D01*
X122500000Y-53270000D02*
X122500000Y-54340000D01*
X119550000Y-54340000D02*
X122500000Y-54340000D01*
X119340000Y-50110000D02*
X122500000Y-53270000D01*
X119890000Y-49560000D02*
X119340000Y-50110000D01*
X119890000Y-43650000D02*
X119890000Y-49560000D01*
X124810000Y-41970000D02*
X121570000Y-41970000D01*
%TD*%
M02*
