%TF.GenerationSoftware,KiCad,Pcbnew,8.0.4*%
%TF.CreationDate,2024-09-21T16:19:46-07:00*%
%TF.ProjectId,solder_challenge_555,736f6c64-6572-45f6-9368-616c6c656e67,rev?*%
%TF.SameCoordinates,Original*%
%TF.FileFunction,Copper,L2,Inr*%
%TF.FilePolarity,Positive*%
%FSLAX46Y46*%
G04 Gerber Fmt 4.6, Leading zero omitted, Abs format (unit mm)*
G04 Created by KiCad (PCBNEW 8.0.4) date 2024-09-21 16:19:46*
%MOMM*%
%LPD*%
G01*
G04 APERTURE LIST*
%TA.AperFunction,ComponentPad*%
%ADD10C,1.400000*%
%TD*%
%TA.AperFunction,ComponentPad*%
%ADD11O,1.400000X1.400000*%
%TD*%
%TA.AperFunction,ComponentPad*%
%ADD12C,1.600000*%
%TD*%
%TA.AperFunction,ComponentPad*%
%ADD13R,1.800000X1.800000*%
%TD*%
%TA.AperFunction,ComponentPad*%
%ADD14C,1.800000*%
%TD*%
%TA.AperFunction,ComponentPad*%
%ADD15R,1.700000X1.700000*%
%TD*%
%TA.AperFunction,ComponentPad*%
%ADD16O,1.700000X1.700000*%
%TD*%
%TA.AperFunction,ComponentPad*%
%ADD17C,2.000000*%
%TD*%
%TA.AperFunction,ComponentPad*%
%ADD18R,2.400000X1.600000*%
%TD*%
%TA.AperFunction,ComponentPad*%
%ADD19O,2.400000X1.600000*%
%TD*%
%TA.AperFunction,ViaPad*%
%ADD20C,0.800000*%
%TD*%
G04 APERTURE END LIST*
D10*
%TO.N,Net-(D4-K)*%
%TO.C,R3*%
X131920000Y-52230000D03*
D11*
%TO.N,Net-(D1-A)*%
X134460000Y-52230000D03*
%TD*%
D12*
%TO.N,Net-(U1-THR)*%
%TO.C,C1*%
X116890000Y-50100000D03*
%TO.N,GND*%
X121890000Y-50100000D03*
%TD*%
D10*
%TO.N,VCC*%
%TO.C,R1*%
X125040000Y-54340000D03*
D11*
%TO.N,Net-(U1-DIS)*%
X122500000Y-54340000D03*
%TD*%
D12*
%TO.N,Net-(U1-CV)*%
%TO.C,C2*%
X124450000Y-49700000D03*
%TO.N,GND*%
X124450000Y-52200000D03*
%TD*%
D10*
%TO.N,Net-(U1-DIS)*%
%TO.C,R2*%
X119400000Y-54490000D03*
D11*
%TO.N,Net-(U1-THR)*%
X116860000Y-54490000D03*
%TD*%
D13*
%TO.N,Net-(D4-K)*%
%TO.C,D4*%
X129960000Y-47260000D03*
D14*
%TO.N,Net-(D4-A)*%
X127420000Y-47260000D03*
%TD*%
D13*
%TO.N,GND*%
%TO.C,D1*%
X132270000Y-47240000D03*
D14*
%TO.N,Net-(D1-A)*%
X134810000Y-47240000D03*
%TD*%
D10*
%TO.N,VCC*%
%TO.C,R13*%
X127090000Y-52380000D03*
D11*
%TO.N,Net-(D4-A)*%
X129630000Y-52380000D03*
%TD*%
D15*
%TO.N,VCC*%
%TO.C,J2*%
X136950000Y-39240000D03*
D16*
%TO.N,unconnected-(J2-Pin_2-Pad2)*%
X139490000Y-39240000D03*
%TO.N,unconnected-(J2-Pin_3-Pad3)*%
X142030000Y-39240000D03*
%TO.N,GND*%
X144570000Y-39240000D03*
%TD*%
D14*
%TO.N,unconnected-(J1-Shield-Pad6)*%
%TO.C,J1*%
X124895000Y-61090000D03*
D17*
X124745000Y-57290000D03*
X117295000Y-57290000D03*
D14*
X117145000Y-61090000D03*
%TD*%
D18*
%TO.N,GND*%
%TO.C,U1*%
X117190000Y-39430000D03*
D19*
%TO.N,Net-(U1-THR)*%
X117190000Y-41970000D03*
%TO.N,Net-(D4-K)*%
X117190000Y-44510000D03*
%TO.N,VCC*%
X117190000Y-47050000D03*
%TO.N,Net-(U1-CV)*%
X124810000Y-47050000D03*
%TO.N,Net-(U1-THR)*%
X124810000Y-44510000D03*
%TO.N,Net-(U1-DIS)*%
X124810000Y-41970000D03*
%TO.N,VCC*%
X124810000Y-39430000D03*
%TD*%
D20*
%TO.N,GND*%
X137475000Y-52750000D03*
X156020000Y-48770000D03*
X120430000Y-55900000D03*
X141050000Y-61300000D03*
%TO.N,VCC*%
X146575000Y-39250000D03*
X121429949Y-55889691D03*
X142600000Y-49850000D03*
X139700000Y-57775000D03*
X144400000Y-53350000D03*
%TO.N,/smt_555/7*%
X145510000Y-50950000D03*
%TO.N,/smt_555/3*%
X136540000Y-57340000D03*
X145520000Y-48780000D03*
X155280000Y-40550000D03*
%TD*%
%TA.AperFunction,Conductor*%
%TO.N,VCC*%
G36*
X157754620Y-37509230D02*
G01*
X157777817Y-37510278D01*
X157789222Y-37511908D01*
X157797536Y-37513095D01*
X157811256Y-37515856D01*
X157812126Y-37516083D01*
X157813319Y-37516340D01*
X157814534Y-37516553D01*
X157815766Y-37516728D01*
X157817004Y-37516869D01*
X157819475Y-37517060D01*
X157821883Y-37517158D01*
X157821933Y-37517158D01*
X157822820Y-37517195D01*
X157851866Y-37521866D01*
X157860018Y-37524196D01*
X157861491Y-37524617D01*
X157864047Y-37525390D01*
X157864749Y-37525596D01*
X157864770Y-37525603D01*
X157866170Y-37526015D01*
X157867516Y-37526381D01*
X157867560Y-37526392D01*
X157868795Y-37526704D01*
X157869166Y-37526790D01*
X157869433Y-37526865D01*
X157869995Y-37527007D01*
X157869991Y-37527022D01*
X157880453Y-37529968D01*
X157881832Y-37530427D01*
X157881835Y-37530429D01*
X157897705Y-37535719D01*
X157906274Y-37538575D01*
X157918013Y-37543162D01*
X157919536Y-37543849D01*
X157920528Y-37544263D01*
X157921520Y-37544650D01*
X157922512Y-37545006D01*
X157923504Y-37545327D01*
X157923508Y-37545328D01*
X157923520Y-37545332D01*
X157924467Y-37545600D01*
X157924496Y-37545609D01*
X157925116Y-37545759D01*
X157925479Y-37545847D01*
X157926497Y-37546069D01*
X157939318Y-37549590D01*
X157945331Y-37551595D01*
X157952844Y-37554099D01*
X157969077Y-37560821D01*
X157977068Y-37564817D01*
X157977076Y-37564825D01*
X157977078Y-37564823D01*
X157992946Y-37572758D01*
X157992954Y-37572762D01*
X158008830Y-37580699D01*
X158009851Y-37581195D01*
X158009877Y-37581207D01*
X158011462Y-37581942D01*
X158026459Y-37590401D01*
X158026545Y-37590267D01*
X158028642Y-37591604D01*
X158028654Y-37591611D01*
X158028657Y-37591613D01*
X158030327Y-37592606D01*
X158032120Y-37593598D01*
X158034006Y-37594590D01*
X158034029Y-37594602D01*
X158034906Y-37595063D01*
X158034893Y-37595086D01*
X158041792Y-37598889D01*
X158045396Y-37601052D01*
X158051151Y-37604506D01*
X158051152Y-37604506D01*
X158064395Y-37612449D01*
X158064393Y-37612451D01*
X158064407Y-37612456D01*
X158070489Y-37616105D01*
X158084127Y-37625588D01*
X158085818Y-37626941D01*
X158093396Y-37633653D01*
X158093456Y-37633591D01*
X158095962Y-37635940D01*
X158096731Y-37636626D01*
X158097443Y-37637233D01*
X158097469Y-37637254D01*
X158098214Y-37637859D01*
X158098967Y-37638437D01*
X158099736Y-37638992D01*
X158100528Y-37639528D01*
X158100545Y-37639538D01*
X158102132Y-37640613D01*
X158102071Y-37640702D01*
X158110783Y-37646913D01*
X158117313Y-37652137D01*
X158117315Y-37652138D01*
X158121842Y-37655759D01*
X158121588Y-37656076D01*
X158134011Y-37666189D01*
X158141114Y-37673293D01*
X158141121Y-37673300D01*
X158141122Y-37673302D01*
X158151703Y-37683884D01*
X158151706Y-37683887D01*
X158162288Y-37694470D01*
X158162813Y-37694967D01*
X158162820Y-37694973D01*
X158163874Y-37695971D01*
X158163794Y-37696054D01*
X158176257Y-37709288D01*
X158178099Y-37711590D01*
X158184332Y-37720338D01*
X158184423Y-37720277D01*
X158186014Y-37722633D01*
X158186567Y-37723398D01*
X158187156Y-37724167D01*
X158187707Y-37724845D01*
X158187750Y-37724897D01*
X158188274Y-37725512D01*
X158188402Y-37725662D01*
X158189036Y-37726372D01*
X158189048Y-37726384D01*
X158189058Y-37726396D01*
X158190520Y-37727956D01*
X158190537Y-37727973D01*
X158191429Y-37728925D01*
X158191367Y-37728982D01*
X158198053Y-37736537D01*
X158206722Y-37747374D01*
X158206395Y-37747634D01*
X158218360Y-37764488D01*
X158218488Y-37764414D01*
X158219656Y-37766421D01*
X158220163Y-37767257D01*
X158220651Y-37768022D01*
X158221143Y-37768751D01*
X158221247Y-37768896D01*
X158221526Y-37769320D01*
X158222217Y-37770345D01*
X158222205Y-37770352D01*
X158226931Y-37777529D01*
X158231065Y-37784418D01*
X158231068Y-37784428D01*
X158231070Y-37784427D01*
X158231071Y-37784428D01*
X158239009Y-37797657D01*
X158239010Y-37797658D01*
X158242436Y-37803367D01*
X158242128Y-37803551D01*
X158248016Y-37813031D01*
X158254882Y-37826762D01*
X158262822Y-37842640D01*
X158262833Y-37842662D01*
X158266254Y-37849506D01*
X158270755Y-37858512D01*
X158278024Y-37873049D01*
X158278708Y-37874417D01*
X158280362Y-37877542D01*
X158279934Y-37877768D01*
X158291850Y-37908035D01*
X158291933Y-37908014D01*
X158292106Y-37908686D01*
X158292182Y-37908878D01*
X158292375Y-37909727D01*
X158292377Y-37909733D01*
X158292617Y-37910565D01*
X158292899Y-37911392D01*
X158292904Y-37911405D01*
X158293219Y-37912227D01*
X158293576Y-37913084D01*
X158294132Y-37914343D01*
X158297531Y-37922896D01*
X158297749Y-37923510D01*
X158300810Y-37935220D01*
X158302005Y-37938956D01*
X158304987Y-37950021D01*
X158305173Y-37950865D01*
X158305656Y-37952942D01*
X158305938Y-37954030D01*
X158306224Y-37955027D01*
X158306552Y-37956045D01*
X158306557Y-37956059D01*
X158306744Y-37956573D01*
X158306855Y-37956876D01*
X158309577Y-37965263D01*
X158313094Y-37977574D01*
X158313097Y-37977584D01*
X158313096Y-37977584D01*
X158318381Y-37996066D01*
X158318385Y-37996098D01*
X158318390Y-37996097D01*
X158323680Y-38014616D01*
X158323681Y-38014619D01*
X158323682Y-38014622D01*
X158326648Y-38025006D01*
X158330168Y-38041513D01*
X158332096Y-38054999D01*
X158332978Y-38063029D01*
X158333104Y-38064667D01*
X158333260Y-38065958D01*
X158333265Y-38065990D01*
X158333496Y-38067314D01*
X158333635Y-38067904D01*
X158333658Y-38068103D01*
X158333849Y-38069037D01*
X158333799Y-38069047D01*
X158333804Y-38069073D01*
X158333770Y-38069078D01*
X158336906Y-38096197D01*
X158336906Y-39319507D01*
X158336426Y-39330409D01*
X158335914Y-39336206D01*
X158335806Y-39337967D01*
X158335744Y-39339680D01*
X158335734Y-39341462D01*
X158335789Y-39343231D01*
X158335922Y-39345034D01*
X158335927Y-39345087D01*
X158336146Y-39346903D01*
X158336148Y-39346919D01*
X158336218Y-39347327D01*
X158336307Y-39348013D01*
X158336365Y-39348411D01*
X158336359Y-39348411D01*
X158337461Y-39356874D01*
X158339549Y-39379865D01*
X158340030Y-39385157D01*
X158342550Y-39412847D01*
X158342447Y-39412856D01*
X158343529Y-39426447D01*
X158343538Y-39428175D01*
X158343587Y-39429932D01*
X158343683Y-39431658D01*
X158343841Y-39433357D01*
X158344071Y-39434954D01*
X158344179Y-39435564D01*
X158345543Y-39445818D01*
X158347483Y-39467173D01*
X158347483Y-39467178D01*
X158347484Y-39467178D01*
X158350659Y-39502138D01*
X158350322Y-39502168D01*
X158351308Y-39512390D01*
X158351439Y-39512387D01*
X158351519Y-39515541D01*
X158351615Y-39517508D01*
X158351771Y-39519451D01*
X158352004Y-39521409D01*
X158352334Y-39523401D01*
X158352496Y-39524136D01*
X158352529Y-39524412D01*
X158352638Y-39524975D01*
X158352598Y-39524982D01*
X158355335Y-39547511D01*
X158355344Y-39547860D01*
X158355383Y-39550412D01*
X158355417Y-39557131D01*
X158355417Y-39557134D01*
X158355418Y-39557136D01*
X158359881Y-39580948D01*
X158363354Y-39599473D01*
X158371297Y-39641837D01*
X158375137Y-39661360D01*
X158375373Y-39662595D01*
X158377128Y-39672063D01*
X158377360Y-39673353D01*
X158379230Y-39684136D01*
X158379235Y-39684165D01*
X158381211Y-39695579D01*
X158383198Y-39706305D01*
X158387156Y-39726431D01*
X158395095Y-39766122D01*
X158396202Y-39771113D01*
X158397469Y-39776124D01*
X158399272Y-39782989D01*
X158402575Y-39802515D01*
X158402596Y-39802513D01*
X158402673Y-39803097D01*
X158402954Y-39804753D01*
X158403039Y-39805838D01*
X158408331Y-39845525D01*
X158413625Y-39885206D01*
X158413626Y-39885222D01*
X158413627Y-39885222D01*
X158418161Y-39919238D01*
X158418981Y-39927482D01*
X158419144Y-39929961D01*
X158419407Y-39932576D01*
X158419746Y-39935212D01*
X158420593Y-39940490D01*
X158421572Y-39945782D01*
X158422235Y-39949280D01*
X158424211Y-39965514D01*
X158424270Y-39966598D01*
X158424438Y-39968660D01*
X158424440Y-39968681D01*
X158424701Y-39970808D01*
X158424956Y-39972455D01*
X158425042Y-39973007D01*
X158425884Y-39977464D01*
X158425887Y-39977476D01*
X158426814Y-39981915D01*
X158426931Y-39982481D01*
X158427123Y-39983428D01*
X158429512Y-40003507D01*
X158429620Y-40006446D01*
X158429621Y-40006472D01*
X158429622Y-40006483D01*
X158429765Y-40008833D01*
X158429766Y-40008840D01*
X158429958Y-40011150D01*
X158430479Y-40015674D01*
X158431161Y-40020184D01*
X158431951Y-40024597D01*
X158432874Y-40029278D01*
X158434052Y-40035032D01*
X158435324Y-40042358D01*
X158440089Y-40075717D01*
X158440089Y-40075718D01*
X158445379Y-40112756D01*
X158450671Y-40149778D01*
X158450673Y-40149788D01*
X158450675Y-40149802D01*
X158451930Y-40156181D01*
X158452481Y-40158982D01*
X158452752Y-40160411D01*
X158453340Y-40163603D01*
X158453667Y-40165463D01*
X158454085Y-40167950D01*
X158454502Y-40170611D01*
X158454699Y-40171962D01*
X158455548Y-40182585D01*
X158455607Y-40182581D01*
X158455964Y-40186836D01*
X158461261Y-40221239D01*
X158461263Y-40221254D01*
X158466551Y-40255630D01*
X158471847Y-40290035D01*
X158472308Y-40292411D01*
X158472257Y-40292420D01*
X158473765Y-40300503D01*
X158473840Y-40301041D01*
X158474119Y-40303172D01*
X158474492Y-40306237D01*
X158475567Y-40314960D01*
X158476259Y-40319585D01*
X158477138Y-40324428D01*
X158477405Y-40325830D01*
X158478227Y-40330665D01*
X158478516Y-40332596D01*
X158478879Y-40335209D01*
X158479207Y-40337772D01*
X158479347Y-40338907D01*
X158479763Y-40342417D01*
X158479787Y-40342618D01*
X158480189Y-40345924D01*
X158480298Y-40346815D01*
X158480860Y-40350843D01*
X158481553Y-40354847D01*
X158482171Y-40357829D01*
X158483061Y-40362593D01*
X158485078Y-40374698D01*
X158487724Y-40390573D01*
X158492894Y-40421582D01*
X158493016Y-40422310D01*
X158493017Y-40422324D01*
X158493018Y-40422324D01*
X158497161Y-40447187D01*
X158498308Y-40454066D01*
X158503604Y-40485824D01*
X158503606Y-40485838D01*
X158508891Y-40517554D01*
X158509270Y-40519455D01*
X158509209Y-40519466D01*
X158509214Y-40519491D01*
X158509191Y-40519494D01*
X158510779Y-40528242D01*
X158510922Y-40529323D01*
X158511125Y-40530938D01*
X158511546Y-40534480D01*
X158512046Y-40538571D01*
X158512442Y-40541303D01*
X158512616Y-40542502D01*
X158512944Y-40544353D01*
X158512947Y-40544368D01*
X158513312Y-40546122D01*
X158514092Y-40549260D01*
X158514008Y-40549280D01*
X158516954Y-40563774D01*
X158517340Y-40566648D01*
X158517908Y-40570523D01*
X158518601Y-40574458D01*
X158519346Y-40578039D01*
X158519318Y-40578044D01*
X158520051Y-40581564D01*
X158520422Y-40583598D01*
X158523782Y-40602069D01*
X158525275Y-40613043D01*
X158527418Y-40636630D01*
X158530416Y-40669623D01*
X158530313Y-40669632D01*
X158531395Y-40683216D01*
X158531404Y-40684945D01*
X158531453Y-40686702D01*
X158531549Y-40688428D01*
X158531707Y-40690127D01*
X158531940Y-40691740D01*
X158532198Y-40693208D01*
X158533454Y-40702337D01*
X158535348Y-40721291D01*
X158535349Y-40721291D01*
X158535350Y-40721302D01*
X158536026Y-40728059D01*
X158537998Y-40747761D01*
X158538000Y-40747784D01*
X158541212Y-40779939D01*
X158540900Y-40779970D01*
X158541982Y-40789733D01*
X158542030Y-40791411D01*
X158542128Y-40793194D01*
X158542286Y-40794993D01*
X158542519Y-40796817D01*
X158542673Y-40797708D01*
X158543862Y-40806455D01*
X158546299Y-40830854D01*
X158546127Y-40830871D01*
X158547136Y-40842972D01*
X158547222Y-40842970D01*
X158547270Y-40844512D01*
X158547271Y-40844525D01*
X158547320Y-40846072D01*
X158547415Y-40847600D01*
X158547573Y-40849112D01*
X158547574Y-40849121D01*
X158547811Y-40850634D01*
X158548012Y-40851702D01*
X158549380Y-40860873D01*
X158551218Y-40877410D01*
X158551223Y-40877430D01*
X158551278Y-40877943D01*
X158551879Y-40883347D01*
X158551858Y-40883349D01*
X158553591Y-40899477D01*
X158555021Y-40908633D01*
X158556506Y-40927766D01*
X158556506Y-41447036D01*
X158549578Y-41487486D01*
X158549588Y-41487489D01*
X158549578Y-41487522D01*
X158549639Y-41487542D01*
X158549486Y-41488022D01*
X158549439Y-41488300D01*
X158549041Y-41489426D01*
X158548905Y-41489908D01*
X158548903Y-41489917D01*
X158548828Y-41490261D01*
X158548461Y-41491931D01*
X158548327Y-41491901D01*
X158544947Y-41504767D01*
X158543294Y-41509733D01*
X158542928Y-41510817D01*
X158542893Y-41510919D01*
X158528812Y-41539409D01*
X158528186Y-41540348D01*
X158527412Y-41541510D01*
X158527396Y-41541534D01*
X158524611Y-41545707D01*
X158524581Y-41545687D01*
X158522182Y-41549217D01*
X158521570Y-41550069D01*
X158500942Y-41571943D01*
X158501063Y-41572070D01*
X158500774Y-41572344D01*
X158500842Y-41572422D01*
X158499083Y-41573950D01*
X158496814Y-41576303D01*
X158496711Y-41576203D01*
X158492275Y-41580730D01*
X158492279Y-41580734D01*
X158492264Y-41580749D01*
X158492291Y-41580777D01*
X158491195Y-41581834D01*
X158491057Y-41581972D01*
X158489648Y-41583502D01*
X158489205Y-41583093D01*
X158466294Y-41601230D01*
X158450480Y-41617484D01*
X158445377Y-41620887D01*
X158437442Y-41626178D01*
X158429504Y-41631470D01*
X158428865Y-41631895D01*
X158427401Y-41632871D01*
X158398694Y-41647027D01*
X158398565Y-41647071D01*
X158397765Y-41647341D01*
X158394404Y-41648462D01*
X158389819Y-41649991D01*
X158381881Y-41652637D01*
X158379459Y-41653444D01*
X158374643Y-41655049D01*
X158370538Y-41656287D01*
X158370540Y-41656293D01*
X158368484Y-41656926D01*
X158368477Y-41656929D01*
X158368130Y-41657036D01*
X158368121Y-41657039D01*
X158366176Y-41657639D01*
X158366009Y-41657099D01*
X158329414Y-41663221D01*
X156066759Y-41663221D01*
X156057032Y-41663328D01*
X156057003Y-41663328D01*
X156056984Y-41663329D01*
X156050419Y-41663508D01*
X156047283Y-41663594D01*
X156028970Y-41664184D01*
X156027142Y-41664229D01*
X156019734Y-41664358D01*
X156017008Y-41664376D01*
X156010232Y-41664345D01*
X156006519Y-41664272D01*
X156000323Y-41664057D01*
X155995868Y-41663821D01*
X155987414Y-41663220D01*
X155905402Y-41660574D01*
X155905402Y-41660575D01*
X155823383Y-41657929D01*
X155741359Y-41655283D01*
X155656692Y-41652637D01*
X155600696Y-41650887D01*
X155534304Y-41629118D01*
X155490221Y-41574911D01*
X155482442Y-41505476D01*
X155513438Y-41442858D01*
X155554133Y-41413669D01*
X155662333Y-41365494D01*
X155732730Y-41334151D01*
X155885871Y-41222888D01*
X156012533Y-41082216D01*
X156107179Y-40918284D01*
X156165674Y-40738256D01*
X156185460Y-40550000D01*
X156165674Y-40361744D01*
X156107179Y-40181716D01*
X156012533Y-40017784D01*
X155885871Y-39877112D01*
X155882996Y-39875023D01*
X155732734Y-39765851D01*
X155732729Y-39765848D01*
X155559807Y-39688857D01*
X155559802Y-39688855D01*
X155414001Y-39657865D01*
X155374646Y-39649500D01*
X155185354Y-39649500D01*
X155152897Y-39656398D01*
X155000197Y-39688855D01*
X155000192Y-39688857D01*
X154827270Y-39765848D01*
X154827265Y-39765851D01*
X154674129Y-39877111D01*
X154547466Y-40017785D01*
X154452821Y-40181715D01*
X154452818Y-40181722D01*
X154397868Y-40350843D01*
X154394326Y-40361744D01*
X154374540Y-40550000D01*
X154394326Y-40738256D01*
X154394327Y-40738259D01*
X154452818Y-40918277D01*
X154452821Y-40918284D01*
X154547467Y-41082216D01*
X154652472Y-41198835D01*
X154674129Y-41222888D01*
X154827265Y-41334148D01*
X154827266Y-41334148D01*
X154827270Y-41334151D01*
X154958990Y-41392797D01*
X155012227Y-41438047D01*
X155032548Y-41504896D01*
X155013503Y-41572120D01*
X154961137Y-41618375D01*
X154905014Y-41630025D01*
X154866074Y-41628913D01*
X154859848Y-41628579D01*
X154855201Y-41628211D01*
X154851905Y-41627951D01*
X154840655Y-41627294D01*
X154836026Y-41627103D01*
X154829205Y-41626823D01*
X154817681Y-41626510D01*
X154817649Y-41626509D01*
X154817627Y-41626509D01*
X154809702Y-41626411D01*
X154794075Y-41626218D01*
X154771927Y-41626180D01*
X154768703Y-41626132D01*
X154675083Y-41623533D01*
X154675082Y-41623532D01*
X154675081Y-41623532D01*
X154671976Y-41623446D01*
X154581554Y-41620934D01*
X154578121Y-41620791D01*
X154489926Y-41615892D01*
X154484580Y-41615595D01*
X154386688Y-41610303D01*
X154386687Y-41610302D01*
X154288791Y-41605011D01*
X154190986Y-41599723D01*
X154190898Y-41599719D01*
X154090354Y-41594427D01*
X154090353Y-41594426D01*
X153989814Y-41589136D01*
X153989813Y-41589135D01*
X153917371Y-41585323D01*
X153889270Y-41583844D01*
X153889187Y-41583839D01*
X153792736Y-41578893D01*
X153786083Y-41578552D01*
X153786082Y-41578551D01*
X153685196Y-41573379D01*
X153682895Y-41573261D01*
X153577064Y-41567969D01*
X153471233Y-41562677D01*
X153365471Y-41557388D01*
X153365398Y-41557385D01*
X153329464Y-41555632D01*
X153258290Y-41552159D01*
X153255560Y-41551995D01*
X153229573Y-41550151D01*
X153202719Y-41548457D01*
X153202682Y-41548455D01*
X153202680Y-41548455D01*
X153189275Y-41547779D01*
X153188284Y-41547740D01*
X153175785Y-41547255D01*
X153162203Y-41546920D01*
X153151180Y-41546825D01*
X153145735Y-41546659D01*
X153047898Y-41541510D01*
X153047897Y-41541510D01*
X152846809Y-41530926D01*
X152846809Y-41530920D01*
X152846634Y-41530916D01*
X152749529Y-41525668D01*
X152748320Y-41525596D01*
X152746616Y-41525487D01*
X152736911Y-41524865D01*
X152724667Y-41524435D01*
X152700452Y-41523989D01*
X152699380Y-41523965D01*
X152697080Y-41523902D01*
X152688989Y-41523683D01*
X152686190Y-41523575D01*
X152677485Y-41523141D01*
X152673039Y-41522839D01*
X152665234Y-41522168D01*
X152660869Y-41521715D01*
X152658758Y-41521458D01*
X152655263Y-41520982D01*
X152651030Y-41520344D01*
X152650918Y-41520327D01*
X152645079Y-41519441D01*
X152642254Y-41519092D01*
X152639112Y-41518705D01*
X152627169Y-41517655D01*
X152627165Y-41517654D01*
X152627156Y-41517654D01*
X152615156Y-41517040D01*
X152603118Y-41516706D01*
X152603070Y-41516705D01*
X152603066Y-41516705D01*
X152579433Y-41516267D01*
X152577514Y-41516217D01*
X152573485Y-41516079D01*
X152567522Y-41515876D01*
X152564308Y-41515724D01*
X152553139Y-41515051D01*
X152458090Y-41512482D01*
X152452375Y-41512195D01*
X152443350Y-41511533D01*
X152436751Y-41511169D01*
X152431421Y-41510875D01*
X152419514Y-41510405D01*
X152417216Y-41510344D01*
X152407586Y-41510089D01*
X152383795Y-41509800D01*
X152361575Y-41509761D01*
X152358355Y-41509713D01*
X152264733Y-41507113D01*
X152264732Y-41507113D01*
X152169482Y-41504467D01*
X152074233Y-41501821D01*
X152074233Y-41501819D01*
X152074135Y-41501818D01*
X151981628Y-41499176D01*
X151889018Y-41496530D01*
X151796483Y-41493886D01*
X151796379Y-41493883D01*
X151709532Y-41491328D01*
X151703405Y-41490996D01*
X151697679Y-41490543D01*
X151695406Y-41490363D01*
X151684247Y-41489709D01*
X151672880Y-41489238D01*
X151671249Y-41489193D01*
X151661478Y-41488923D01*
X151658638Y-41488886D01*
X151638747Y-41488632D01*
X151618187Y-41488595D01*
X151614769Y-41488541D01*
X151526542Y-41485946D01*
X151436693Y-41483303D01*
X151436655Y-41483290D01*
X151436584Y-41483300D01*
X151349273Y-41480654D01*
X151345755Y-41480547D01*
X151264985Y-41478100D01*
X151258953Y-41477770D01*
X151250957Y-41477136D01*
X151239762Y-41476479D01*
X151236012Y-41476322D01*
X151228520Y-41476009D01*
X151217312Y-41475693D01*
X151217310Y-41475692D01*
X151217276Y-41475692D01*
X151195407Y-41475404D01*
X151189700Y-41475392D01*
X151174648Y-41475363D01*
X151174523Y-41475363D01*
X145332611Y-41475363D01*
X145320983Y-41480013D01*
X145314161Y-41482512D01*
X145314137Y-41482520D01*
X145312142Y-41483166D01*
X145310107Y-41483806D01*
X145309343Y-41484074D01*
X145309334Y-41484077D01*
X145309330Y-41484079D01*
X145309137Y-41484156D01*
X145308590Y-41484376D01*
X145307904Y-41484702D01*
X145307895Y-41484707D01*
X145305690Y-41485967D01*
X145299642Y-41489203D01*
X145294720Y-41491664D01*
X145284334Y-41496026D01*
X145284415Y-41496233D01*
X145281165Y-41497510D01*
X145280449Y-41497822D01*
X145279707Y-41498177D01*
X145278932Y-41498581D01*
X145278237Y-41498972D01*
X145277481Y-41499432D01*
X145276817Y-41499867D01*
X145276117Y-41500365D01*
X145275503Y-41500838D01*
X145274545Y-41501613D01*
X145271007Y-41504369D01*
X145267580Y-41506939D01*
X145263822Y-41509759D01*
X145253238Y-41517696D01*
X145253233Y-41517699D01*
X145247275Y-41522168D01*
X145243680Y-41524865D01*
X145242653Y-41525635D01*
X145242651Y-41525636D01*
X145237362Y-41529602D01*
X145232070Y-41533571D01*
X145221486Y-41541508D01*
X145221481Y-41541511D01*
X145212663Y-41548125D01*
X145206798Y-41552203D01*
X145206803Y-41552210D01*
X145205797Y-41552899D01*
X145205389Y-41553184D01*
X145205298Y-41553242D01*
X145204591Y-41553727D01*
X145203838Y-41554280D01*
X145203037Y-41554911D01*
X145202177Y-41555639D01*
X145201299Y-41556435D01*
X145200841Y-41556879D01*
X145200335Y-41557370D01*
X145200315Y-41557389D01*
X145198161Y-41559609D01*
X145196456Y-41561095D01*
X145196533Y-41561172D01*
X145189738Y-41567966D01*
X145189737Y-41567967D01*
X145179153Y-41578550D01*
X145179142Y-41578561D01*
X145175705Y-41581997D01*
X145167365Y-41589608D01*
X145165055Y-41591530D01*
X145164300Y-41592229D01*
X145163594Y-41592943D01*
X145162910Y-41593694D01*
X145162295Y-41594411D01*
X145161649Y-41595205D01*
X145161002Y-41596028D01*
X145158369Y-41599260D01*
X145157995Y-41599703D01*
X145154250Y-41604698D01*
X145148231Y-41611975D01*
X145148276Y-41612013D01*
X145146577Y-41613993D01*
X145146081Y-41614598D01*
X145145570Y-41615254D01*
X145145098Y-41615892D01*
X145144593Y-41616614D01*
X145144083Y-41617387D01*
X145143594Y-41618176D01*
X145143104Y-41619015D01*
X145142801Y-41619567D01*
X145140524Y-41623527D01*
X145138736Y-41626509D01*
X145134174Y-41634114D01*
X145127823Y-41644699D01*
X145126238Y-41647341D01*
X145126236Y-41647343D01*
X145118296Y-41660575D01*
X145109202Y-41675732D01*
X145109055Y-41675644D01*
X145099058Y-41690596D01*
X145098110Y-41691781D01*
X145097461Y-41692654D01*
X145096866Y-41693526D01*
X145096862Y-41693531D01*
X145096305Y-41694437D01*
X145096304Y-41694439D01*
X145095792Y-41695382D01*
X145095035Y-41697027D01*
X145090947Y-41705104D01*
X145089541Y-41707646D01*
X145088521Y-41709585D01*
X145086571Y-41713445D01*
X145078623Y-41729345D01*
X145078616Y-41729359D01*
X145070673Y-41745243D01*
X145065217Y-41756156D01*
X145058378Y-41768123D01*
X145057771Y-41769058D01*
X145057172Y-41770044D01*
X145056615Y-41771032D01*
X145056114Y-41772013D01*
X145056106Y-41772029D01*
X145055674Y-41773004D01*
X145055669Y-41773017D01*
X145055305Y-41774013D01*
X145055157Y-41774509D01*
X145054827Y-41775821D01*
X145052239Y-41784675D01*
X145050574Y-41789673D01*
X145045828Y-41801767D01*
X145045448Y-41802602D01*
X145045447Y-41802603D01*
X145045047Y-41803653D01*
X145044873Y-41804194D01*
X145044707Y-41804783D01*
X145044566Y-41805379D01*
X145044530Y-41805570D01*
X145044468Y-41805795D01*
X145043963Y-41807931D01*
X145043888Y-41807913D01*
X145040083Y-41821802D01*
X145040223Y-41821849D01*
X145039422Y-41824247D01*
X145039421Y-41824251D01*
X145039156Y-41825273D01*
X145038819Y-41827015D01*
X145034947Y-41840578D01*
X145035111Y-41840625D01*
X145028348Y-41864298D01*
X145023057Y-41882818D01*
X145023057Y-41882820D01*
X145019533Y-41895155D01*
X145016846Y-41903444D01*
X145016526Y-41904324D01*
X145016194Y-41905353D01*
X145015896Y-41906396D01*
X145015635Y-41907401D01*
X145015080Y-41909783D01*
X145014775Y-41911131D01*
X145012948Y-41917884D01*
X145013031Y-41917908D01*
X145012476Y-41919854D01*
X145007181Y-41941037D01*
X145001897Y-41962184D01*
X145001895Y-41962194D01*
X144996604Y-41983361D01*
X144992405Y-42000161D01*
X144992186Y-42001036D01*
X144991370Y-42004128D01*
X144990439Y-42007482D01*
X144990075Y-42008949D01*
X144989734Y-42010477D01*
X144989348Y-42012432D01*
X144987248Y-42020151D01*
X144987398Y-42020189D01*
X144982068Y-42041512D01*
X144980428Y-42047443D01*
X144979966Y-42048962D01*
X144979965Y-42048967D01*
X144979735Y-42050076D01*
X144979732Y-42050092D01*
X144979574Y-42051277D01*
X144979477Y-42052522D01*
X144979450Y-42053230D01*
X144979367Y-42053926D01*
X144979287Y-42054961D01*
X144979245Y-42054957D01*
X144978341Y-42062610D01*
X144978684Y-42062649D01*
X144975438Y-42091830D01*
X144975439Y-42091831D01*
X144975438Y-42091840D01*
X144972793Y-42115652D01*
X144971145Y-42130464D01*
X144971130Y-42130607D01*
X144969172Y-42141958D01*
X144969315Y-42141988D01*
X144968615Y-42145424D01*
X144968361Y-42146899D01*
X144968143Y-42148418D01*
X144967969Y-42149894D01*
X144967830Y-42151367D01*
X144967639Y-42154353D01*
X144967486Y-42158960D01*
X144967419Y-42158957D01*
X144966788Y-42169682D01*
X144965878Y-42177868D01*
X144963597Y-42191458D01*
X144963323Y-42192671D01*
X144963068Y-42193994D01*
X144962850Y-42195340D01*
X144962678Y-42196649D01*
X144962539Y-42197990D01*
X144962347Y-42200807D01*
X144962248Y-42203841D01*
X144962212Y-42207178D01*
X144962207Y-42210988D01*
X144962207Y-47043036D01*
X144961936Y-47051224D01*
X144961882Y-47052040D01*
X144961774Y-47053534D01*
X144961213Y-47060684D01*
X144961108Y-47062668D01*
X144961043Y-47064673D01*
X144961033Y-47066617D01*
X144961090Y-47068638D01*
X144961223Y-47070606D01*
X144961450Y-47072621D01*
X144961539Y-47073166D01*
X144962728Y-47082828D01*
X144964853Y-47108313D01*
X144964853Y-47108316D01*
X144967836Y-47144100D01*
X144967792Y-47144103D01*
X144968825Y-47157535D01*
X144968842Y-47161041D01*
X144968893Y-47163073D01*
X144968988Y-47164998D01*
X144969145Y-47166837D01*
X144969148Y-47166861D01*
X144969382Y-47168618D01*
X144969696Y-47170516D01*
X144969636Y-47170525D01*
X144969637Y-47170527D01*
X144969597Y-47170532D01*
X144969501Y-47170548D01*
X144971471Y-47188362D01*
X144971540Y-47191080D01*
X144971635Y-47193039D01*
X144971791Y-47194970D01*
X144972029Y-47196963D01*
X144972030Y-47196970D01*
X144972355Y-47198937D01*
X144972462Y-47199487D01*
X144973203Y-47203176D01*
X144978081Y-47230020D01*
X144983367Y-47259096D01*
X144983373Y-47259129D01*
X144983380Y-47259161D01*
X144983693Y-47260661D01*
X144983653Y-47260669D01*
X144983655Y-47260680D01*
X144983649Y-47260680D01*
X144985242Y-47269058D01*
X144985405Y-47270171D01*
X144985609Y-47271623D01*
X144986008Y-47274593D01*
X144986527Y-47278336D01*
X144987090Y-47281804D01*
X144987426Y-47283535D01*
X144987782Y-47285125D01*
X144987976Y-47285866D01*
X144989597Y-47292899D01*
X144993955Y-47314692D01*
X144999246Y-47341150D01*
X144999248Y-47341159D01*
X144999670Y-47342806D01*
X145001985Y-47353979D01*
X145002440Y-47356830D01*
X145002971Y-47360154D01*
X145003657Y-47363755D01*
X145004066Y-47365632D01*
X145004537Y-47367609D01*
X145005762Y-47372063D01*
X145009442Y-47394264D01*
X145009730Y-47394239D01*
X145010055Y-47397922D01*
X145010314Y-47399745D01*
X145010658Y-47401564D01*
X145011051Y-47403276D01*
X145011502Y-47404994D01*
X145011591Y-47405295D01*
X145011630Y-47405483D01*
X145011972Y-47406782D01*
X145011908Y-47406798D01*
X145013679Y-47415178D01*
X145013920Y-47415125D01*
X145015118Y-47420521D01*
X145015119Y-47420523D01*
X145016992Y-47428954D01*
X145018458Y-47435551D01*
X145020239Y-47446733D01*
X145020400Y-47446713D01*
X145020861Y-47450272D01*
X145021108Y-47451805D01*
X145021388Y-47453280D01*
X145021699Y-47454724D01*
X145022055Y-47456215D01*
X145022866Y-47459230D01*
X145023757Y-47462197D01*
X145025694Y-47468133D01*
X145033427Y-47491331D01*
X145033831Y-47492565D01*
X145034358Y-47494203D01*
X145034863Y-47495812D01*
X145035617Y-47498273D01*
X145035695Y-47498530D01*
X145037604Y-47504855D01*
X145038334Y-47507170D01*
X145038598Y-47508006D01*
X145039590Y-47510936D01*
X145040582Y-47513556D01*
X145041078Y-47514721D01*
X145041087Y-47514740D01*
X145041213Y-47515008D01*
X145041518Y-47515754D01*
X145042003Y-47516892D01*
X145041987Y-47516898D01*
X145046066Y-47526859D01*
X145047251Y-47530241D01*
X145047775Y-47531769D01*
X145049508Y-47536929D01*
X145057449Y-47558108D01*
X145065383Y-47579268D01*
X145072560Y-47598404D01*
X145074012Y-47602493D01*
X145075309Y-47606357D01*
X145076312Y-47609270D01*
X145077277Y-47611979D01*
X145078283Y-47614678D01*
X145079284Y-47617205D01*
X145080258Y-47619486D01*
X145080311Y-47619597D01*
X145082134Y-47623650D01*
X145087081Y-47635195D01*
X145091452Y-47647575D01*
X145091591Y-47647532D01*
X145092172Y-47649385D01*
X145092174Y-47649390D01*
X145092563Y-47650629D01*
X145092995Y-47651860D01*
X145093482Y-47653076D01*
X145094034Y-47654268D01*
X145094664Y-47655430D01*
X145094668Y-47655436D01*
X145094672Y-47655443D01*
X145095386Y-47656557D01*
X145096412Y-47658060D01*
X145096247Y-47658172D01*
X145104293Y-47671351D01*
X145104338Y-47671327D01*
X145104817Y-47672209D01*
X145104984Y-47672482D01*
X145105225Y-47672959D01*
X145105959Y-47674311D01*
X145107389Y-47676737D01*
X145112919Y-47687381D01*
X145112954Y-47687365D01*
X145113459Y-47688420D01*
X145113477Y-47688455D01*
X145113502Y-47688511D01*
X145114023Y-47689599D01*
X145114570Y-47690654D01*
X145115149Y-47691665D01*
X145115164Y-47691690D01*
X145115811Y-47692695D01*
X145116544Y-47693703D01*
X145116634Y-47693812D01*
X145116686Y-47693887D01*
X145117709Y-47695204D01*
X145117662Y-47695240D01*
X145117690Y-47695279D01*
X145117668Y-47695294D01*
X145128225Y-47710434D01*
X145128877Y-47711555D01*
X145128885Y-47711567D01*
X145139468Y-47727443D01*
X145139471Y-47727447D01*
X145139470Y-47727447D01*
X145150051Y-47743317D01*
X145150053Y-47743320D01*
X145160636Y-47759194D01*
X145171212Y-47775058D01*
X145171232Y-47775086D01*
X145173823Y-47778324D01*
X145200330Y-47842970D01*
X145187679Y-47911685D01*
X145139885Y-47962652D01*
X145127431Y-47969063D01*
X145067267Y-47995850D01*
X145067265Y-47995851D01*
X144914129Y-48107111D01*
X144787466Y-48247785D01*
X144692821Y-48411715D01*
X144692818Y-48411722D01*
X144637575Y-48581744D01*
X144634326Y-48591744D01*
X144614540Y-48780000D01*
X144634326Y-48968256D01*
X144634327Y-48968259D01*
X144692818Y-49148277D01*
X144692821Y-49148284D01*
X144787467Y-49312216D01*
X144891752Y-49428036D01*
X144914129Y-49452888D01*
X145067265Y-49564148D01*
X145067270Y-49564151D01*
X145240192Y-49641142D01*
X145240197Y-49641144D01*
X145425354Y-49680500D01*
X145425355Y-49680500D01*
X145614644Y-49680500D01*
X145614646Y-49680500D01*
X145799803Y-49641144D01*
X145972730Y-49564151D01*
X146125871Y-49452888D01*
X146252533Y-49312216D01*
X146347179Y-49148284D01*
X146405674Y-48968256D01*
X146425460Y-48780000D01*
X146405674Y-48591744D01*
X146347179Y-48411716D01*
X146252533Y-48247784D01*
X146160957Y-48146079D01*
X146130728Y-48083089D01*
X146139353Y-48013753D01*
X146184095Y-47960088D01*
X146250747Y-47939130D01*
X146253108Y-47939108D01*
X146298347Y-47939108D01*
X146369783Y-47939108D01*
X146441221Y-47939108D01*
X146515304Y-47939108D01*
X146589385Y-47939108D01*
X146663469Y-47939108D01*
X146740199Y-47939108D01*
X146816928Y-47939108D01*
X146893657Y-47939108D01*
X146973033Y-47939108D01*
X147052409Y-47939108D01*
X147131786Y-47939108D01*
X147213805Y-47939108D01*
X147295825Y-47939108D01*
X147380492Y-47939108D01*
X147465160Y-47939108D01*
X147549823Y-47939108D01*
X147637138Y-47939108D01*
X147724452Y-47939108D01*
X147811763Y-47939108D01*
X147901721Y-47939108D01*
X147991042Y-47939108D01*
X147992272Y-47939114D01*
X147993490Y-47939126D01*
X148001827Y-47939209D01*
X148003393Y-47939236D01*
X148013467Y-47939478D01*
X148013640Y-47939482D01*
X148033334Y-47940034D01*
X148035629Y-47940099D01*
X148035631Y-47940099D01*
X148035666Y-47940100D01*
X148046895Y-47940271D01*
X148058280Y-47940224D01*
X148069850Y-47939868D01*
X148079454Y-47939248D01*
X148083850Y-47939044D01*
X148174239Y-47936463D01*
X148266845Y-47933817D01*
X148359351Y-47931174D01*
X148359447Y-47931199D01*
X148359447Y-47931172D01*
X148454696Y-47928526D01*
X148542020Y-47926102D01*
X148549952Y-47925882D01*
X148549953Y-47925882D01*
X148552434Y-47925699D01*
X148560820Y-47925083D01*
X148562847Y-47924953D01*
X148572900Y-47924399D01*
X148574705Y-47924314D01*
X148584890Y-47923912D01*
X148586360Y-47923863D01*
X148596705Y-47923590D01*
X148598446Y-47923556D01*
X148620911Y-47923282D01*
X148621868Y-47923276D01*
X148645198Y-47923236D01*
X148743095Y-47920591D01*
X148840991Y-47917945D01*
X148840991Y-47917946D01*
X148841044Y-47917943D01*
X148941531Y-47915300D01*
X149042072Y-47912654D01*
X149141628Y-47910035D01*
X149142617Y-47910009D01*
X149142619Y-47910008D01*
X149245803Y-47907363D01*
X149348991Y-47904718D01*
X149360837Y-47903915D01*
X149362894Y-47903792D01*
X149373905Y-47903232D01*
X149375647Y-47903156D01*
X149386999Y-47902743D01*
X149388392Y-47902700D01*
X149399893Y-47902419D01*
X149401318Y-47902394D01*
X149425764Y-47902120D01*
X149426913Y-47902113D01*
X149452178Y-47902072D01*
X149558009Y-47899428D01*
X149663841Y-47896782D01*
X149769521Y-47891497D01*
X149769674Y-47891534D01*
X149769672Y-47891490D01*
X149878154Y-47886198D01*
X149898591Y-47885201D01*
X149986633Y-47880906D01*
X150095115Y-47875614D01*
X150206237Y-47870323D01*
X150233557Y-47868412D01*
X150234482Y-47868351D01*
X150261153Y-47866724D01*
X150262473Y-47866652D01*
X150275071Y-47866038D01*
X150276236Y-47865987D01*
X150288858Y-47865513D01*
X150290345Y-47865467D01*
X150302587Y-47865171D01*
X150304449Y-47865141D01*
X150317363Y-47865031D01*
X150431133Y-47859740D01*
X150544898Y-47854448D01*
X150658668Y-47849156D01*
X150775085Y-47843864D01*
X150891502Y-47838572D01*
X151007800Y-47833286D01*
X151007923Y-47833316D01*
X151007922Y-47833281D01*
X151126983Y-47827989D01*
X151127010Y-47827987D01*
X151127015Y-47827987D01*
X151156303Y-47826075D01*
X151157162Y-47826022D01*
X151185525Y-47824406D01*
X151187448Y-47824312D01*
X151215261Y-47823192D01*
X151217348Y-47823127D01*
X151230383Y-47822833D01*
X151231921Y-47822809D01*
X151246043Y-47822697D01*
X151365104Y-47817405D01*
X151484168Y-47812113D01*
X151600585Y-47806821D01*
X151717002Y-47801530D01*
X151833419Y-47796238D01*
X151947189Y-47790946D01*
X152060958Y-47785654D01*
X152090175Y-47783717D01*
X152090372Y-47783704D01*
X152118259Y-47782050D01*
X152119343Y-47781991D01*
X152132430Y-47781362D01*
X152133382Y-47781321D01*
X152146247Y-47780841D01*
X152147600Y-47780800D01*
X152159956Y-47780502D01*
X152161661Y-47780473D01*
X152174728Y-47780362D01*
X152285850Y-47775070D01*
X152396976Y-47769779D01*
X152505454Y-47764488D01*
X152613937Y-47759196D01*
X152626373Y-47758505D01*
X152629249Y-47758380D01*
X152640896Y-47758020D01*
X152642529Y-47757981D01*
X152669169Y-47757542D01*
X152682744Y-47757206D01*
X152696165Y-47756591D01*
X152709399Y-47755542D01*
X152709413Y-47755540D01*
X152709418Y-47755540D01*
X152715927Y-47754807D01*
X152715926Y-47754807D01*
X152715936Y-47754806D01*
X152722415Y-47753904D01*
X152727306Y-47753222D01*
X152730476Y-47752823D01*
X152731875Y-47752665D01*
X152733415Y-47752491D01*
X152737417Y-47752106D01*
X152746604Y-47751376D01*
X152750655Y-47751122D01*
X152760691Y-47750658D01*
X152763202Y-47750569D01*
X152774919Y-47750275D01*
X152775762Y-47750257D01*
X152802037Y-47749810D01*
X152815235Y-47749382D01*
X152826153Y-47748735D01*
X152830344Y-47748559D01*
X152934078Y-47745966D01*
X152946964Y-47745149D01*
X152948737Y-47745050D01*
X152959476Y-47744530D01*
X152960621Y-47744475D01*
X152962224Y-47744408D01*
X152974026Y-47743993D01*
X152975390Y-47743953D01*
X152987252Y-47743669D01*
X152988774Y-47743642D01*
X153013460Y-47743368D01*
X153014573Y-47743361D01*
X153039912Y-47743321D01*
X153143096Y-47740675D01*
X153246284Y-47738031D01*
X153349471Y-47735385D01*
X153450015Y-47732740D01*
X153550559Y-47730094D01*
X153651103Y-47727449D01*
X153748996Y-47724803D01*
X153759929Y-47724008D01*
X153762106Y-47723871D01*
X153772369Y-47723319D01*
X153774071Y-47723241D01*
X153784857Y-47722830D01*
X153786225Y-47722786D01*
X153797081Y-47722509D01*
X153798783Y-47722479D01*
X153822072Y-47722206D01*
X153823156Y-47722198D01*
X153846889Y-47722158D01*
X153942142Y-47719512D01*
X154037391Y-47716867D01*
X154132689Y-47714221D01*
X154225246Y-47711577D01*
X154226016Y-47711555D01*
X154317851Y-47708931D01*
X154328760Y-47708130D01*
X154330820Y-47707999D01*
X154340690Y-47707453D01*
X154342496Y-47707367D01*
X154352751Y-47706959D01*
X154354134Y-47706913D01*
X154364338Y-47706637D01*
X154365989Y-47706605D01*
X154387642Y-47706333D01*
X154388652Y-47706326D01*
X154410229Y-47706286D01*
X154410462Y-47706286D01*
X155611804Y-47706286D01*
X155678843Y-47725971D01*
X155724598Y-47778775D01*
X155734542Y-47847933D01*
X155705517Y-47911489D01*
X155662240Y-47943565D01*
X155567270Y-47985848D01*
X155567265Y-47985851D01*
X155414129Y-48097111D01*
X155287466Y-48237785D01*
X155192821Y-48401715D01*
X155192818Y-48401722D01*
X155138326Y-48569432D01*
X155134326Y-48581744D01*
X155114540Y-48770000D01*
X155134326Y-48958256D01*
X155134327Y-48958259D01*
X155192818Y-49138277D01*
X155192821Y-49138284D01*
X155287467Y-49302216D01*
X155380737Y-49405802D01*
X155414129Y-49442888D01*
X155567265Y-49554148D01*
X155567270Y-49554151D01*
X155740192Y-49631142D01*
X155740197Y-49631144D01*
X155925354Y-49670500D01*
X155925355Y-49670500D01*
X156114644Y-49670500D01*
X156114646Y-49670500D01*
X156299803Y-49631144D01*
X156472730Y-49554151D01*
X156625871Y-49442888D01*
X156752533Y-49302216D01*
X156847179Y-49138284D01*
X156905674Y-48958256D01*
X156925460Y-48770000D01*
X156905674Y-48581744D01*
X156847179Y-48401716D01*
X156752533Y-48237784D01*
X156625871Y-48097112D01*
X156625870Y-48097111D01*
X156472734Y-47985851D01*
X156472729Y-47985848D01*
X156377760Y-47943565D01*
X156324523Y-47898315D01*
X156304202Y-47831466D01*
X156323247Y-47764242D01*
X156375614Y-47717987D01*
X156428196Y-47706286D01*
X157165799Y-47706286D01*
X157205009Y-47712648D01*
X157206217Y-47713051D01*
X157218101Y-47717819D01*
X157218118Y-47717781D01*
X157219704Y-47718462D01*
X157219970Y-47718569D01*
X157220135Y-47718646D01*
X157220148Y-47718653D01*
X157220563Y-47718831D01*
X157220646Y-47718867D01*
X157220654Y-47718870D01*
X157221121Y-47719034D01*
X157221140Y-47719041D01*
X157221637Y-47719182D01*
X157222133Y-47719291D01*
X157222135Y-47719291D01*
X157223717Y-47719639D01*
X157223679Y-47719809D01*
X157236540Y-47723157D01*
X157239986Y-47724306D01*
X157290433Y-47756498D01*
X157290447Y-47756485D01*
X157290515Y-47756550D01*
X157290932Y-47756817D01*
X157292444Y-47758419D01*
X157292730Y-47758696D01*
X157293220Y-47759088D01*
X157303409Y-47768211D01*
X157307598Y-47772400D01*
X157307599Y-47772400D01*
X157307628Y-47772429D01*
X157312874Y-47777671D01*
X157312908Y-47777733D01*
X157312922Y-47777720D01*
X157318189Y-47782988D01*
X157323467Y-47788262D01*
X157323490Y-47788305D01*
X157323500Y-47788296D01*
X157327638Y-47792434D01*
X157335431Y-47801307D01*
X157335570Y-47801192D01*
X157337256Y-47803215D01*
X157337809Y-47803847D01*
X157337841Y-47803917D01*
X157338188Y-47804333D01*
X157338131Y-47804380D01*
X157338219Y-47804480D01*
X157338580Y-47804949D01*
X157338387Y-47805097D01*
X157367133Y-47867265D01*
X157368480Y-47885490D01*
X157368480Y-51766254D01*
X157348795Y-51833293D01*
X157295991Y-51879048D01*
X157288767Y-51880703D01*
X157257743Y-51899816D01*
X157257498Y-51899898D01*
X157257347Y-51899948D01*
X157252627Y-51901521D01*
X157213422Y-51907882D01*
X146105243Y-51907882D01*
X146038204Y-51888197D01*
X145992449Y-51835393D01*
X145982505Y-51766235D01*
X146011530Y-51702679D01*
X146032358Y-51683564D01*
X146095064Y-51638005D01*
X146115871Y-51622888D01*
X146242533Y-51482216D01*
X146337179Y-51318284D01*
X146395674Y-51138256D01*
X146415460Y-50950000D01*
X146395674Y-50761744D01*
X146337179Y-50581716D01*
X146242533Y-50417784D01*
X146115871Y-50277112D01*
X146115870Y-50277111D01*
X145962734Y-50165851D01*
X145962729Y-50165848D01*
X145789807Y-50088857D01*
X145789802Y-50088855D01*
X145644001Y-50057865D01*
X145604646Y-50049500D01*
X145415354Y-50049500D01*
X145382897Y-50056398D01*
X145230197Y-50088855D01*
X145230192Y-50088857D01*
X145057270Y-50165848D01*
X145057265Y-50165851D01*
X144904129Y-50277111D01*
X144777466Y-50417785D01*
X144682821Y-50581715D01*
X144682818Y-50581722D01*
X144624327Y-50761740D01*
X144624326Y-50761744D01*
X144604540Y-50950000D01*
X144624326Y-51138256D01*
X144624327Y-51138259D01*
X144682818Y-51318277D01*
X144682821Y-51318284D01*
X144777467Y-51482216D01*
X144879303Y-51595316D01*
X144904129Y-51622888D01*
X145057265Y-51734148D01*
X145057270Y-51734151D01*
X145230192Y-51811142D01*
X145230197Y-51811144D01*
X145293055Y-51824505D01*
X145354537Y-51857697D01*
X145388313Y-51918860D01*
X145383661Y-51988575D01*
X145342056Y-52044707D01*
X145312507Y-52061250D01*
X145310459Y-52062052D01*
X145309467Y-52062484D01*
X145309461Y-52062486D01*
X145308465Y-52062975D01*
X145307492Y-52063517D01*
X145307452Y-52063541D01*
X145306481Y-52064157D01*
X145306480Y-52064158D01*
X145305487Y-52064877D01*
X145304938Y-52065303D01*
X145297849Y-52070399D01*
X145287635Y-52077210D01*
X145287624Y-52077218D01*
X145267446Y-52090670D01*
X145267324Y-52090487D01*
X145260342Y-52095185D01*
X145260429Y-52095328D01*
X145257878Y-52096871D01*
X145257113Y-52097378D01*
X145257107Y-52097382D01*
X145256434Y-52097886D01*
X145254730Y-52099404D01*
X145254665Y-52099331D01*
X145254401Y-52099548D01*
X145254343Y-52099477D01*
X145247071Y-52105183D01*
X145247191Y-52105333D01*
X145242656Y-52108960D01*
X145242654Y-52108962D01*
X145229425Y-52119545D01*
X145216194Y-52130127D01*
X145216193Y-52130129D01*
X145202964Y-52140713D01*
X145195855Y-52146399D01*
X145188369Y-52151773D01*
X145188444Y-52151882D01*
X145185828Y-52153678D01*
X145184838Y-52154401D01*
X145183940Y-52155094D01*
X145182995Y-52155857D01*
X145182120Y-52156593D01*
X145181269Y-52157335D01*
X145180467Y-52158057D01*
X145178935Y-52159489D01*
X145177619Y-52160768D01*
X145176387Y-52161995D01*
X145165920Y-52172464D01*
X145159875Y-52178509D01*
X145151226Y-52186320D01*
X145151233Y-52186328D01*
X145150956Y-52186564D01*
X145150527Y-52186953D01*
X145150059Y-52187334D01*
X145149284Y-52187998D01*
X145148579Y-52188641D01*
X145147843Y-52189368D01*
X145147154Y-52190111D01*
X145146476Y-52190926D01*
X145146170Y-52191328D01*
X145144663Y-52193439D01*
X145144597Y-52193391D01*
X145140553Y-52198880D01*
X145130338Y-52211650D01*
X145130032Y-52211405D01*
X145120976Y-52222719D01*
X145120071Y-52223644D01*
X145118618Y-52225193D01*
X145117950Y-52225943D01*
X145117294Y-52226711D01*
X145116695Y-52227449D01*
X145116120Y-52228200D01*
X145115575Y-52228953D01*
X145115007Y-52229793D01*
X145114519Y-52230566D01*
X145113989Y-52231465D01*
X145113635Y-52232107D01*
X145111429Y-52235937D01*
X145105072Y-52246535D01*
X145105066Y-52246546D01*
X145097129Y-52259775D01*
X145097128Y-52259774D01*
X145089194Y-52273000D01*
X145089191Y-52273005D01*
X145085786Y-52278678D01*
X145081249Y-52286240D01*
X145080170Y-52288198D01*
X145080098Y-52288158D01*
X145080097Y-52288162D01*
X145080008Y-52288108D01*
X145079923Y-52288062D01*
X145076466Y-52293595D01*
X145076739Y-52293759D01*
X145069648Y-52305575D01*
X145063385Y-52315006D01*
X145062384Y-52316373D01*
X145061705Y-52317343D01*
X145061062Y-52318301D01*
X145060421Y-52319302D01*
X145059816Y-52320297D01*
X145059242Y-52321294D01*
X145058760Y-52322194D01*
X145058304Y-52323123D01*
X145057953Y-52323933D01*
X145057949Y-52323941D01*
X145056684Y-52327439D01*
X145056546Y-52327389D01*
X145053475Y-52335086D01*
X145053774Y-52335209D01*
X145052154Y-52339142D01*
X145046861Y-52355026D01*
X145046860Y-52355027D01*
X145041570Y-52370899D01*
X145036279Y-52386771D01*
X145036280Y-52386772D01*
X145030990Y-52402646D01*
X145030986Y-52402658D01*
X145027276Y-52413787D01*
X145025306Y-52419115D01*
X145025318Y-52419120D01*
X145025316Y-52419123D01*
X145025350Y-52419136D01*
X145024819Y-52420522D01*
X145024474Y-52421492D01*
X145024168Y-52422494D01*
X145023911Y-52423484D01*
X145023695Y-52424486D01*
X145023522Y-52425471D01*
X145023379Y-52426484D01*
X145023275Y-52427426D01*
X145023022Y-52430496D01*
X145022748Y-52430473D01*
X145019453Y-52452010D01*
X145018620Y-52455224D01*
X145018405Y-52456229D01*
X145018230Y-52457212D01*
X145018085Y-52458241D01*
X145017979Y-52459204D01*
X145017898Y-52460191D01*
X145017799Y-52462178D01*
X145017768Y-52463913D01*
X145017764Y-52464168D01*
X145017759Y-52466152D01*
X145017759Y-52466315D01*
X145017759Y-56434284D01*
X145017753Y-56435511D01*
X145017658Y-56445113D01*
X145017630Y-56446788D01*
X145017392Y-56456956D01*
X145017381Y-56457391D01*
X145016767Y-56480187D01*
X145016595Y-56491938D01*
X145016642Y-56503732D01*
X145016999Y-56515612D01*
X145017758Y-56527503D01*
X145018550Y-56538306D01*
X145018694Y-56540545D01*
X145019232Y-56550305D01*
X145019324Y-56552241D01*
X145019726Y-56562429D01*
X145019779Y-56564044D01*
X145020049Y-56574265D01*
X145020083Y-56576024D01*
X145020355Y-56598291D01*
X145020364Y-56599591D01*
X145020404Y-56622765D01*
X145023052Y-56718006D01*
X145023052Y-56718010D01*
X145025697Y-56813255D01*
X145028341Y-56908412D01*
X145028342Y-56908507D01*
X145028344Y-56908507D01*
X145030990Y-57006402D01*
X145033637Y-57104300D01*
X145033637Y-57104302D01*
X145036283Y-57202196D01*
X145036285Y-57202283D01*
X145038929Y-57302740D01*
X145039734Y-57314523D01*
X145039854Y-57316510D01*
X145040414Y-57327249D01*
X145040494Y-57329034D01*
X145040901Y-57339828D01*
X145040949Y-57341357D01*
X145041222Y-57352125D01*
X145041254Y-57353826D01*
X145041527Y-57377295D01*
X145041535Y-57378529D01*
X145041576Y-57403279D01*
X145044223Y-57503819D01*
X145046869Y-57604359D01*
X145049516Y-57702255D01*
X145052161Y-57800152D01*
X145054809Y-57898049D01*
X145054810Y-57898092D01*
X145057454Y-57993298D01*
X145060101Y-58088549D01*
X145060102Y-58088556D01*
X145060893Y-58099344D01*
X145061038Y-58101594D01*
X145061579Y-58111423D01*
X145061670Y-58113347D01*
X145062069Y-58123455D01*
X145062121Y-58125050D01*
X145062392Y-58135242D01*
X145062427Y-58137031D01*
X145062698Y-58159334D01*
X145062707Y-58160626D01*
X145062747Y-58183806D01*
X145063536Y-58194549D01*
X145063681Y-58196801D01*
X145064227Y-58206700D01*
X145064319Y-58208643D01*
X145064716Y-58218711D01*
X145064768Y-58220301D01*
X145065039Y-58230493D01*
X145065074Y-58232283D01*
X145065345Y-58254588D01*
X145065354Y-58255875D01*
X145065395Y-58279049D01*
X145065395Y-62407486D01*
X145062987Y-62431804D01*
X145062749Y-62432990D01*
X145062747Y-62433003D01*
X145062747Y-62433005D01*
X145060108Y-62446206D01*
X145060100Y-62446244D01*
X145059471Y-62449385D01*
X145056347Y-62461364D01*
X145056350Y-62461365D01*
X145056312Y-62461498D01*
X145055882Y-62463151D01*
X145055669Y-62463807D01*
X145055454Y-62464582D01*
X145055278Y-62465337D01*
X145055142Y-62466060D01*
X145054688Y-62469145D01*
X145054354Y-62469095D01*
X145046682Y-62498962D01*
X145046789Y-62499002D01*
X145046416Y-62499999D01*
X145046341Y-62500293D01*
X145046002Y-62501108D01*
X145044918Y-62504011D01*
X145044748Y-62503947D01*
X145039533Y-62516476D01*
X145036289Y-62522967D01*
X145032321Y-62530907D01*
X145031005Y-62533539D01*
X145030999Y-62533551D01*
X145025707Y-62544136D01*
X145024844Y-62545862D01*
X145019059Y-62555912D01*
X145019142Y-62555963D01*
X145017582Y-62558528D01*
X145017161Y-62559276D01*
X145016777Y-62560013D01*
X145016427Y-62560743D01*
X145015582Y-62562679D01*
X145007090Y-62578589D01*
X145007137Y-62578618D01*
X145006567Y-62579568D01*
X145006450Y-62579789D01*
X145006230Y-62580133D01*
X145006203Y-62580175D01*
X145005837Y-62580829D01*
X145005526Y-62581481D01*
X145005516Y-62581503D01*
X145005243Y-62582188D01*
X145004501Y-62584262D01*
X145004320Y-62584197D01*
X144998397Y-62598766D01*
X144998158Y-62599244D01*
X144968448Y-62636515D01*
X144968928Y-62637057D01*
X144966681Y-62639046D01*
X144966679Y-62639048D01*
X144966174Y-62639543D01*
X144966173Y-62639545D01*
X144965946Y-62639790D01*
X144965707Y-62640070D01*
X144965054Y-62640878D01*
X144956383Y-62650507D01*
X144951631Y-62655260D01*
X144948987Y-62657904D01*
X144941049Y-62665842D01*
X144933112Y-62673779D01*
X144933101Y-62673790D01*
X144933100Y-62673789D01*
X144925192Y-62681700D01*
X144925163Y-62681729D01*
X144922735Y-62684156D01*
X144898873Y-62702784D01*
X144896833Y-62704007D01*
X144895309Y-62704998D01*
X144875012Y-62715654D01*
X144873320Y-62716350D01*
X144872711Y-62716621D01*
X144872193Y-62716876D01*
X144872155Y-62716896D01*
X144871646Y-62717177D01*
X144870096Y-62718093D01*
X144870053Y-62718021D01*
X144861890Y-62722614D01*
X144859053Y-62724033D01*
X144859025Y-62724047D01*
X144848458Y-62729329D01*
X144848450Y-62729333D01*
X144837853Y-62734629D01*
X144827273Y-62739919D01*
X144818272Y-62744418D01*
X144792911Y-62753799D01*
X144786112Y-62755499D01*
X144779936Y-62756778D01*
X144779954Y-62756869D01*
X144777084Y-62757436D01*
X144777080Y-62757436D01*
X144777075Y-62757438D01*
X144776657Y-62757545D01*
X144776649Y-62757547D01*
X144774365Y-62758132D01*
X144774349Y-62758071D01*
X144766649Y-62759979D01*
X144759948Y-62761320D01*
X144735616Y-62763731D01*
X135496577Y-62763731D01*
X135457297Y-62756728D01*
X135457189Y-62757054D01*
X135457141Y-62757216D01*
X135457135Y-62757214D01*
X135457116Y-62757274D01*
X135455258Y-62756655D01*
X135454526Y-62756437D01*
X135453968Y-62756304D01*
X135453789Y-62756262D01*
X135453782Y-62756260D01*
X135453766Y-62756257D01*
X135453048Y-62756122D01*
X135450189Y-62755703D01*
X135450213Y-62755536D01*
X135437815Y-62753305D01*
X135437356Y-62753191D01*
X135437361Y-62753168D01*
X135437171Y-62753145D01*
X135436949Y-62753089D01*
X135427200Y-62750042D01*
X135427149Y-62750196D01*
X135424812Y-62749407D01*
X135424581Y-62749346D01*
X135424573Y-62749344D01*
X135424561Y-62749341D01*
X135424548Y-62749338D01*
X135422028Y-62748777D01*
X135422233Y-62747856D01*
X135374665Y-62726633D01*
X135374321Y-62727113D01*
X135371869Y-62725353D01*
X135371817Y-62725318D01*
X135371375Y-62725032D01*
X135371355Y-62725020D01*
X135370859Y-62724737D01*
X135369791Y-62724176D01*
X135358681Y-62717579D01*
X135358618Y-62717537D01*
X135352504Y-62713461D01*
X135344568Y-62708170D01*
X135344268Y-62707970D01*
X135334786Y-62700883D01*
X135334779Y-62700894D01*
X135334293Y-62700515D01*
X135333584Y-62699985D01*
X135333160Y-62699631D01*
X135332666Y-62699246D01*
X135332661Y-62699242D01*
X135332433Y-62699078D01*
X135332174Y-62698892D01*
X135332172Y-62698891D01*
X135332165Y-62698886D01*
X135331669Y-62698565D01*
X135331173Y-62698283D01*
X135331164Y-62698278D01*
X135330107Y-62697723D01*
X135319014Y-62691135D01*
X135314438Y-62688085D01*
X135278775Y-62650885D01*
X135278408Y-62651123D01*
X135277457Y-62649655D01*
X135277448Y-62649638D01*
X135277127Y-62649142D01*
X135276771Y-62648646D01*
X135276655Y-62648497D01*
X135276377Y-62648140D01*
X135276025Y-62647719D01*
X135275498Y-62647013D01*
X135275119Y-62646528D01*
X135275129Y-62646520D01*
X135268044Y-62637040D01*
X135267842Y-62636737D01*
X135259207Y-62623782D01*
X135251973Y-62612930D01*
X135251966Y-62612920D01*
X135246687Y-62604999D01*
X135241390Y-62597054D01*
X135241385Y-62597046D01*
X135237858Y-62591755D01*
X135219227Y-62545347D01*
X135219169Y-62545361D01*
X135219150Y-62545282D01*
X135219097Y-62545293D01*
X135218985Y-62544742D01*
X135218940Y-62544630D01*
X135218793Y-62543804D01*
X135218790Y-62543783D01*
X135218736Y-62543517D01*
X135218666Y-62543255D01*
X135218578Y-62542997D01*
X135217916Y-62541055D01*
X135214933Y-62530899D01*
X135214929Y-62530901D01*
X135213342Y-62524554D01*
X135209640Y-62494479D01*
X135209640Y-61300000D01*
X140144540Y-61300000D01*
X140164326Y-61488256D01*
X140164327Y-61488259D01*
X140222818Y-61668277D01*
X140222821Y-61668284D01*
X140317467Y-61832216D01*
X140444129Y-61972888D01*
X140597265Y-62084148D01*
X140597270Y-62084151D01*
X140770192Y-62161142D01*
X140770197Y-62161144D01*
X140955354Y-62200500D01*
X140955355Y-62200500D01*
X141144644Y-62200500D01*
X141144646Y-62200500D01*
X141329803Y-62161144D01*
X141502730Y-62084151D01*
X141655871Y-61972888D01*
X141782533Y-61832216D01*
X141877179Y-61668284D01*
X141935674Y-61488256D01*
X141955460Y-61300000D01*
X141935674Y-61111744D01*
X141877179Y-60931716D01*
X141782533Y-60767784D01*
X141655871Y-60627112D01*
X141585187Y-60575757D01*
X141502734Y-60515851D01*
X141502729Y-60515848D01*
X141329807Y-60438857D01*
X141329802Y-60438855D01*
X141184001Y-60407865D01*
X141144646Y-60399500D01*
X140955354Y-60399500D01*
X140922897Y-60406398D01*
X140770197Y-60438855D01*
X140770192Y-60438857D01*
X140597270Y-60515848D01*
X140597265Y-60515851D01*
X140444129Y-60627111D01*
X140317466Y-60767785D01*
X140222821Y-60931715D01*
X140222818Y-60931722D01*
X140171393Y-61089993D01*
X140164326Y-61111744D01*
X140144540Y-61300000D01*
X135209640Y-61300000D01*
X135209640Y-58689184D01*
X135209590Y-58683761D01*
X135209531Y-58677360D01*
X135209268Y-58665754D01*
X135208667Y-58643601D01*
X135208636Y-58642133D01*
X135208492Y-58632529D01*
X135208480Y-58630335D01*
X135208516Y-58621550D01*
X135208571Y-58618369D01*
X135208818Y-58610340D01*
X135209008Y-58606340D01*
X135209640Y-58596548D01*
X135211363Y-58536244D01*
X135212285Y-58503947D01*
X135212285Y-58503946D01*
X135214837Y-58414622D01*
X135215195Y-58408095D01*
X135216874Y-58387529D01*
X135218568Y-58363716D01*
X135219245Y-58351810D01*
X135219767Y-58339904D01*
X135219927Y-58334245D01*
X135220103Y-58328027D01*
X135220156Y-58322684D01*
X135220191Y-58319108D01*
X135220398Y-58313093D01*
X135255581Y-57716529D01*
X135255648Y-57715476D01*
X135256544Y-57702258D01*
X135281106Y-57340000D01*
X135634540Y-57340000D01*
X135654326Y-57528256D01*
X135654327Y-57528259D01*
X135712818Y-57708277D01*
X135712821Y-57708284D01*
X135807467Y-57872216D01*
X135897432Y-57972132D01*
X135934129Y-58012888D01*
X136087265Y-58124148D01*
X136087270Y-58124151D01*
X136260192Y-58201142D01*
X136260197Y-58201144D01*
X136445354Y-58240500D01*
X136445355Y-58240500D01*
X136634644Y-58240500D01*
X136634646Y-58240500D01*
X136819803Y-58201144D01*
X136992730Y-58124151D01*
X137145871Y-58012888D01*
X137272533Y-57872216D01*
X137367179Y-57708284D01*
X137425674Y-57528256D01*
X137445460Y-57340000D01*
X137425674Y-57151744D01*
X137367179Y-56971716D01*
X137272533Y-56807784D01*
X137145871Y-56667112D01*
X137145870Y-56667111D01*
X136992734Y-56555851D01*
X136992729Y-56555848D01*
X136819807Y-56478857D01*
X136819802Y-56478855D01*
X136661053Y-56445113D01*
X136634646Y-56439500D01*
X136445354Y-56439500D01*
X136418947Y-56445113D01*
X136260197Y-56478855D01*
X136260192Y-56478857D01*
X136087270Y-56555848D01*
X136087265Y-56555851D01*
X135934129Y-56667111D01*
X135807466Y-56807785D01*
X135712821Y-56971715D01*
X135712818Y-56971722D01*
X135654327Y-57151740D01*
X135654326Y-57151744D01*
X135634540Y-57340000D01*
X135281106Y-57340000D01*
X135292971Y-57165006D01*
X135293001Y-57164596D01*
X135347801Y-56439500D01*
X135365735Y-56202208D01*
X135365745Y-56202070D01*
X135373044Y-56106904D01*
X135397618Y-55786511D01*
X135405559Y-55674866D01*
X135424280Y-55411680D01*
X135426790Y-55367785D01*
X135443507Y-55075443D01*
X135449631Y-54921240D01*
X135453058Y-54775967D01*
X135453637Y-54639381D01*
X135451239Y-54511259D01*
X135445617Y-54391385D01*
X135441520Y-54334474D01*
X135436523Y-54279542D01*
X135430595Y-54226564D01*
X135423707Y-54175512D01*
X135415826Y-54126360D01*
X135406922Y-54079079D01*
X135396964Y-54033643D01*
X135385921Y-53990025D01*
X135373761Y-53948197D01*
X135360454Y-53908133D01*
X135360451Y-53908123D01*
X135346497Y-53871143D01*
X135345969Y-53869743D01*
X135330279Y-53832939D01*
X135313357Y-53797692D01*
X135295175Y-53763976D01*
X135295166Y-53763961D01*
X135295163Y-53763955D01*
X135285282Y-53747608D01*
X135275707Y-53731765D01*
X135254924Y-53701030D01*
X135238390Y-53679142D01*
X135232804Y-53671747D01*
X135219896Y-53656438D01*
X135209309Y-53643881D01*
X135209301Y-53643872D01*
X135209290Y-53643860D01*
X135184422Y-53617412D01*
X135184419Y-53617409D01*
X135158130Y-53592328D01*
X135158127Y-53592325D01*
X135158114Y-53592313D01*
X135130355Y-53568554D01*
X135101120Y-53546109D01*
X135100458Y-53545653D01*
X135070372Y-53524944D01*
X135038130Y-53505064D01*
X135038097Y-53505045D01*
X135034953Y-53503310D01*
X134985769Y-53453685D01*
X134971222Y-53385346D01*
X134995930Y-53319991D01*
X135029585Y-53289319D01*
X135186562Y-53192124D01*
X135350981Y-53042236D01*
X135485058Y-52864689D01*
X135542167Y-52750000D01*
X136569540Y-52750000D01*
X136589326Y-52938256D01*
X136589327Y-52938259D01*
X136647818Y-53118277D01*
X136647821Y-53118284D01*
X136742467Y-53282216D01*
X136866467Y-53419932D01*
X136869129Y-53422888D01*
X137022265Y-53534148D01*
X137022270Y-53534151D01*
X137195192Y-53611142D01*
X137195197Y-53611144D01*
X137380354Y-53650500D01*
X137380355Y-53650500D01*
X137569644Y-53650500D01*
X137569646Y-53650500D01*
X137754803Y-53611144D01*
X137927730Y-53534151D01*
X138080871Y-53422888D01*
X138207533Y-53282216D01*
X138302179Y-53118284D01*
X138360674Y-52938256D01*
X138380460Y-52750000D01*
X138360674Y-52561744D01*
X138303822Y-52386772D01*
X138302181Y-52381722D01*
X138302180Y-52381721D01*
X138302179Y-52381716D01*
X138207533Y-52217784D01*
X138080871Y-52077112D01*
X138074548Y-52072518D01*
X137927734Y-51965851D01*
X137927729Y-51965848D01*
X137754807Y-51888857D01*
X137754802Y-51888855D01*
X137608210Y-51857697D01*
X137569646Y-51849500D01*
X137380354Y-51849500D01*
X137347897Y-51856398D01*
X137195197Y-51888855D01*
X137195192Y-51888857D01*
X137022270Y-51965848D01*
X137022265Y-51965851D01*
X136869129Y-52077111D01*
X136742466Y-52217785D01*
X136647821Y-52381715D01*
X136647818Y-52381722D01*
X136589327Y-52561740D01*
X136589326Y-52561744D01*
X136569540Y-52750000D01*
X135542167Y-52750000D01*
X135584229Y-52665528D01*
X135645115Y-52451536D01*
X135665643Y-52230000D01*
X135661689Y-52187334D01*
X135645115Y-52008464D01*
X135645114Y-52008462D01*
X135643637Y-52003272D01*
X135584229Y-51794472D01*
X135581414Y-51788818D01*
X135485061Y-51595316D01*
X135485056Y-51595308D01*
X135350979Y-51417761D01*
X135186562Y-51267876D01*
X135186560Y-51267874D01*
X134997404Y-51150754D01*
X134997398Y-51150752D01*
X134789940Y-51070382D01*
X134571243Y-51029500D01*
X134348757Y-51029500D01*
X134130060Y-51070382D01*
X134053486Y-51100047D01*
X133922601Y-51150752D01*
X133922595Y-51150754D01*
X133733439Y-51267874D01*
X133733437Y-51267876D01*
X133569020Y-51417761D01*
X133434943Y-51595308D01*
X133434938Y-51595316D01*
X133335775Y-51794461D01*
X133335769Y-51794476D01*
X133309266Y-51887627D01*
X133271987Y-51946721D01*
X133208677Y-51976278D01*
X133139438Y-51966916D01*
X133086251Y-51921606D01*
X133070734Y-51887627D01*
X133055872Y-51835393D01*
X133044229Y-51794472D01*
X133041414Y-51788818D01*
X132945061Y-51595316D01*
X132945056Y-51595308D01*
X132810979Y-51417761D01*
X132646562Y-51267876D01*
X132646560Y-51267874D01*
X132457404Y-51150754D01*
X132457398Y-51150752D01*
X132249940Y-51070382D01*
X132031243Y-51029500D01*
X131808757Y-51029500D01*
X131590060Y-51070382D01*
X131513486Y-51100047D01*
X131382601Y-51150752D01*
X131382595Y-51150754D01*
X131193439Y-51267874D01*
X131193437Y-51267876D01*
X131029020Y-51417761D01*
X130894943Y-51595308D01*
X130894938Y-51595316D01*
X130843875Y-51697866D01*
X130796372Y-51749103D01*
X130728709Y-51766524D01*
X130662369Y-51744598D01*
X130633921Y-51717321D01*
X130520979Y-51567761D01*
X130356562Y-51417876D01*
X130356560Y-51417874D01*
X130167404Y-51300754D01*
X130167398Y-51300752D01*
X129959940Y-51220382D01*
X129741243Y-51179500D01*
X129518757Y-51179500D01*
X129300060Y-51220382D01*
X129177469Y-51267874D01*
X129092601Y-51300752D01*
X129092595Y-51300754D01*
X128903439Y-51417874D01*
X128903437Y-51417876D01*
X128739020Y-51567761D01*
X128604943Y-51745308D01*
X128604938Y-51745316D01*
X128505775Y-51944461D01*
X128505770Y-51944474D01*
X128479006Y-52038540D01*
X128441726Y-52097633D01*
X128378417Y-52127190D01*
X128309177Y-52117828D01*
X128255991Y-52072518D01*
X128240473Y-52038538D01*
X128213760Y-51944650D01*
X128114635Y-51745580D01*
X128114630Y-51745572D01*
X128098860Y-51724690D01*
X127443553Y-52379999D01*
X127443553Y-52380000D01*
X128098861Y-53035308D01*
X128114631Y-53014425D01*
X128114633Y-53014422D01*
X128213760Y-52815349D01*
X128240473Y-52721461D01*
X128277752Y-52662367D01*
X128341061Y-52632809D01*
X128410301Y-52642170D01*
X128463488Y-52687480D01*
X128479006Y-52721459D01*
X128505770Y-52815525D01*
X128505775Y-52815538D01*
X128604938Y-53014683D01*
X128604943Y-53014691D01*
X128741991Y-53196172D01*
X128766683Y-53261534D01*
X128752118Y-53329868D01*
X128702920Y-53379481D01*
X128639050Y-53394835D01*
X127978552Y-53373589D01*
X127946358Y-53425004D01*
X127883147Y-53454773D01*
X127813877Y-53445643D01*
X127776379Y-53419932D01*
X127090001Y-52733553D01*
X127090000Y-52733553D01*
X126436672Y-53386879D01*
X126542634Y-53452489D01*
X126589269Y-53504517D01*
X126600373Y-53573499D01*
X126572420Y-53637533D01*
X126550136Y-53658311D01*
X126542620Y-53663759D01*
X126532604Y-53671351D01*
X126522773Y-53679142D01*
X126513043Y-53687207D01*
X126503410Y-53695559D01*
X126493936Y-53704152D01*
X126484569Y-53713040D01*
X126475330Y-53722211D01*
X126466211Y-53731681D01*
X126457221Y-53741447D01*
X126448408Y-53751467D01*
X126448387Y-53751491D01*
X126448387Y-53751492D01*
X126439741Y-53761791D01*
X126432811Y-53770444D01*
X126431268Y-53772371D01*
X126423048Y-53783139D01*
X126414982Y-53794233D01*
X126407127Y-53805592D01*
X126399506Y-53817180D01*
X126399495Y-53817198D01*
X126392070Y-53829089D01*
X126389797Y-53832928D01*
X126384851Y-53841279D01*
X126377876Y-53853710D01*
X126371111Y-53866454D01*
X126368760Y-53871143D01*
X126321111Y-53922244D01*
X126253399Y-53939473D01*
X126187121Y-53917358D01*
X126146918Y-53870826D01*
X126064637Y-53705584D01*
X126064630Y-53705572D01*
X126048860Y-53684690D01*
X125393553Y-54339999D01*
X125393553Y-54340000D01*
X126048861Y-54995308D01*
X126058929Y-54981977D01*
X126115039Y-54940342D01*
X126184751Y-54935652D01*
X126245932Y-54969396D01*
X126279157Y-55030860D01*
X126281860Y-55058996D01*
X126279952Y-55162262D01*
X126278919Y-55289348D01*
X126279622Y-55412916D01*
X126279623Y-55412951D01*
X126281813Y-55533584D01*
X126285244Y-55651737D01*
X126287243Y-55704038D01*
X126289671Y-55767589D01*
X126294833Y-55881218D01*
X126306415Y-56106904D01*
X126312812Y-56219519D01*
X126319981Y-56332860D01*
X126335504Y-56564378D01*
X126336904Y-56584419D01*
X126321939Y-56652667D01*
X126272452Y-56701990D01*
X126204154Y-56716729D01*
X126138730Y-56692204D01*
X126099649Y-56642871D01*
X126086878Y-56613757D01*
X126069173Y-56573393D01*
X126068843Y-56572888D01*
X125933166Y-56365217D01*
X125853996Y-56279216D01*
X125764744Y-56182262D01*
X125568509Y-56029526D01*
X125568507Y-56029525D01*
X125568506Y-56029524D01*
X125349811Y-55911172D01*
X125349802Y-55911169D01*
X125114616Y-55830429D01*
X124869335Y-55789500D01*
X124620665Y-55789500D01*
X124375383Y-55830429D01*
X124140197Y-55911169D01*
X124140188Y-55911172D01*
X123921493Y-56029524D01*
X123725257Y-56182261D01*
X123556833Y-56365217D01*
X123420826Y-56573393D01*
X123320936Y-56801118D01*
X123259892Y-57042175D01*
X123259890Y-57042187D01*
X123239357Y-57289994D01*
X123239357Y-57290005D01*
X123259891Y-57537817D01*
X123280739Y-57620144D01*
X123278114Y-57689964D01*
X123238158Y-57747282D01*
X123216841Y-57759905D01*
X123217246Y-57760663D01*
X123211877Y-57763532D01*
X123105328Y-57834725D01*
X123014726Y-57925327D01*
X123014723Y-57925331D01*
X122943538Y-58031866D01*
X122943533Y-58031875D01*
X122894499Y-58150255D01*
X122894497Y-58150261D01*
X122869500Y-58275928D01*
X122869500Y-58275931D01*
X122869500Y-58404069D01*
X122869500Y-58404071D01*
X122869499Y-58404071D01*
X122894497Y-58529738D01*
X122894499Y-58529744D01*
X122943533Y-58648124D01*
X122943538Y-58648133D01*
X123014723Y-58754668D01*
X123014726Y-58754672D01*
X123105327Y-58845273D01*
X123105331Y-58845276D01*
X123211866Y-58916461D01*
X123211872Y-58916464D01*
X123211873Y-58916465D01*
X123330256Y-58965501D01*
X123330260Y-58965501D01*
X123330261Y-58965502D01*
X123455928Y-58990500D01*
X123455931Y-58990500D01*
X123584071Y-58990500D01*
X123668615Y-58973682D01*
X123709744Y-58965501D01*
X123828127Y-58916465D01*
X123934669Y-58845276D01*
X124025276Y-58754669D01*
X124040323Y-58732150D01*
X124093933Y-58687347D01*
X124163258Y-58678638D01*
X124183687Y-58683761D01*
X124324640Y-58732150D01*
X124375386Y-58749571D01*
X124620665Y-58790500D01*
X124869335Y-58790500D01*
X125114614Y-58749571D01*
X125349810Y-58668828D01*
X125568509Y-58550474D01*
X125764744Y-58397738D01*
X125933164Y-58214785D01*
X126069173Y-58006607D01*
X126158628Y-57802669D01*
X126203583Y-57749185D01*
X126270319Y-57728495D01*
X126337647Y-57747169D01*
X126384190Y-57799280D01*
X126396151Y-57849674D01*
X126398342Y-57946434D01*
X126398362Y-57947519D01*
X126400745Y-58119135D01*
X126400755Y-58120233D01*
X126401661Y-58300195D01*
X126401662Y-58300227D01*
X126402456Y-58310957D01*
X126402596Y-58313101D01*
X126403138Y-58322684D01*
X126403232Y-58324616D01*
X126403626Y-58334245D01*
X126403683Y-58335896D01*
X126403951Y-58345611D01*
X126403988Y-58347461D01*
X126404257Y-58368718D01*
X126404267Y-58370064D01*
X126404308Y-58392823D01*
X126404308Y-60453019D01*
X126384623Y-60520058D01*
X126331819Y-60565813D01*
X126262661Y-60575757D01*
X126199105Y-60546732D01*
X126166752Y-60502830D01*
X126130923Y-60421149D01*
X126003983Y-60226852D01*
X126003980Y-60226849D01*
X126003979Y-60226847D01*
X125846784Y-60056087D01*
X125846779Y-60056083D01*
X125846777Y-60056081D01*
X125663634Y-59913535D01*
X125663628Y-59913531D01*
X125459504Y-59803064D01*
X125459495Y-59803061D01*
X125239984Y-59727702D01*
X125068282Y-59699050D01*
X125011049Y-59689500D01*
X124778951Y-59689500D01*
X124733164Y-59697140D01*
X124550015Y-59727702D01*
X124330504Y-59803061D01*
X124330495Y-59803064D01*
X124126371Y-59913531D01*
X124126365Y-59913535D01*
X123943222Y-60056081D01*
X123943219Y-60056084D01*
X123786016Y-60226852D01*
X123659075Y-60421151D01*
X123565842Y-60633699D01*
X123508866Y-60858691D01*
X123508864Y-60858702D01*
X123489700Y-61089993D01*
X123489700Y-61090006D01*
X123508864Y-61321297D01*
X123508866Y-61321308D01*
X123565842Y-61546300D01*
X123659075Y-61758848D01*
X123786016Y-61953147D01*
X123786019Y-61953151D01*
X123786021Y-61953153D01*
X123943216Y-62123913D01*
X123943219Y-62123915D01*
X123943222Y-62123918D01*
X124126365Y-62266464D01*
X124126371Y-62266468D01*
X124126374Y-62266470D01*
X124330497Y-62376936D01*
X124419486Y-62407486D01*
X124550015Y-62452297D01*
X124550017Y-62452297D01*
X124550019Y-62452298D01*
X124778951Y-62490500D01*
X124778952Y-62490500D01*
X125011048Y-62490500D01*
X125011049Y-62490500D01*
X125239981Y-62452298D01*
X125459503Y-62376936D01*
X125663626Y-62266470D01*
X125846784Y-62123913D01*
X126003979Y-61953153D01*
X126130924Y-61758849D01*
X126166752Y-61677170D01*
X126211708Y-61623684D01*
X126278444Y-61602994D01*
X126345772Y-61621669D01*
X126392315Y-61673779D01*
X126404308Y-61726980D01*
X126404308Y-62448880D01*
X126404350Y-62450327D01*
X126402715Y-62474308D01*
X126401662Y-62480627D01*
X126401661Y-62480636D01*
X126400366Y-62488404D01*
X126398839Y-62496066D01*
X126398127Y-62499129D01*
X126398014Y-62499721D01*
X126397861Y-62500822D01*
X126397672Y-62502533D01*
X126397624Y-62502527D01*
X126397620Y-62502560D01*
X126397343Y-62502521D01*
X126392222Y-62526713D01*
X126392417Y-62526774D01*
X126392486Y-62526793D01*
X126392485Y-62526795D01*
X126392552Y-62526816D01*
X126391930Y-62528813D01*
X126391733Y-62529533D01*
X126391720Y-62529585D01*
X126391555Y-62530353D01*
X126391551Y-62530377D01*
X126391408Y-62531246D01*
X126391053Y-62534129D01*
X126390629Y-62534076D01*
X126383080Y-62565455D01*
X126377852Y-62578528D01*
X126372560Y-62591757D01*
X126372559Y-62591760D01*
X126367267Y-62604985D01*
X126367268Y-62604986D01*
X126363073Y-62615474D01*
X126362040Y-62617924D01*
X126362045Y-62617926D01*
X126361084Y-62620228D01*
X126360357Y-62622179D01*
X126349774Y-62643256D01*
X126350035Y-62643415D01*
X126348551Y-62645850D01*
X126348135Y-62646588D01*
X126347747Y-62647335D01*
X126347406Y-62648046D01*
X126347076Y-62648803D01*
X126345804Y-62652041D01*
X126345616Y-62651967D01*
X126341289Y-62662235D01*
X126340863Y-62663089D01*
X126340808Y-62663198D01*
X126336734Y-62671345D01*
X126326166Y-62688584D01*
X126326212Y-62688616D01*
X126325687Y-62689366D01*
X126325577Y-62689547D01*
X126325290Y-62689935D01*
X126324770Y-62690678D01*
X126324235Y-62691490D01*
X126323971Y-62691916D01*
X126323517Y-62692578D01*
X126323339Y-62692850D01*
X126323334Y-62692847D01*
X126317884Y-62700819D01*
X126315099Y-62704535D01*
X126314752Y-62704998D01*
X126314367Y-62705511D01*
X126314348Y-62705536D01*
X126306798Y-62715603D01*
X126301130Y-62722461D01*
X126301175Y-62722500D01*
X126299546Y-62724419D01*
X126299155Y-62724911D01*
X126298657Y-62725468D01*
X126298306Y-62725882D01*
X126298295Y-62725873D01*
X126289865Y-62735310D01*
X126286140Y-62739036D01*
X126282603Y-62742573D01*
X126274665Y-62750511D01*
X126266728Y-62758448D01*
X126266727Y-62758447D01*
X126250118Y-62775057D01*
X126240705Y-62783423D01*
X126240766Y-62783497D01*
X126239406Y-62784611D01*
X126239120Y-62784822D01*
X126238976Y-62784936D01*
X126238972Y-62784931D01*
X126231849Y-62790196D01*
X126231910Y-62790282D01*
X126229364Y-62792071D01*
X126208618Y-62803720D01*
X126208635Y-62803755D01*
X126208105Y-62804008D01*
X126207592Y-62804297D01*
X126206618Y-62804721D01*
X126205877Y-62805075D01*
X126205125Y-62805467D01*
X126204397Y-62805878D01*
X126201857Y-62807420D01*
X126201812Y-62807347D01*
X126191787Y-62813110D01*
X126190059Y-62813975D01*
X126189999Y-62814005D01*
X126179415Y-62819296D01*
X126168831Y-62824587D01*
X126168829Y-62824588D01*
X126168828Y-62824588D01*
X126158986Y-62829507D01*
X126158987Y-62829508D01*
X126158973Y-62829515D01*
X126141338Y-62838330D01*
X126110235Y-62849003D01*
X126100059Y-62851039D01*
X126100039Y-62851044D01*
X126086810Y-62853689D01*
X126086795Y-62853692D01*
X126086794Y-62853691D01*
X126072420Y-62856569D01*
X126048079Y-62858982D01*
X123258389Y-62858982D01*
X122993846Y-62864272D01*
X122993817Y-62864273D01*
X122324421Y-62877503D01*
X122324416Y-62877503D01*
X121385291Y-62896022D01*
X121385201Y-62896023D01*
X121385150Y-62896025D01*
X120310942Y-62919836D01*
X119236734Y-62943648D01*
X118748027Y-62954660D01*
X118297709Y-62964807D01*
X118297096Y-62964819D01*
X117921160Y-62971428D01*
X117763112Y-62974491D01*
X117628006Y-62978046D01*
X117570214Y-62979779D01*
X117569654Y-62979795D01*
X117518577Y-62981095D01*
X117517796Y-62981112D01*
X117436732Y-62982664D01*
X117435732Y-62982679D01*
X117384482Y-62983247D01*
X117383613Y-62983254D01*
X117364178Y-62983333D01*
X117363728Y-62983335D01*
X117363229Y-62983336D01*
X115676636Y-62983336D01*
X115637328Y-62976346D01*
X115637294Y-62976450D01*
X115637185Y-62976815D01*
X115637174Y-62976811D01*
X115637155Y-62976869D01*
X115635334Y-62976264D01*
X115635276Y-62976247D01*
X115634588Y-62976042D01*
X115634565Y-62976036D01*
X115634552Y-62976033D01*
X115633880Y-62975873D01*
X115633834Y-62975863D01*
X115633116Y-62975727D01*
X115633112Y-62975726D01*
X115633110Y-62975726D01*
X115632367Y-62975617D01*
X115632362Y-62975616D01*
X115630252Y-62975307D01*
X115630278Y-62975128D01*
X115617687Y-62972863D01*
X115617227Y-62972748D01*
X115617227Y-62972746D01*
X115617215Y-62972745D01*
X115606647Y-62970102D01*
X115606647Y-62970101D01*
X115600838Y-62968649D01*
X115573582Y-62958300D01*
X115572335Y-62957649D01*
X115571802Y-62957387D01*
X115571211Y-62957125D01*
X115571207Y-62957123D01*
X115570602Y-62956874D01*
X115570589Y-62956869D01*
X115569411Y-62956384D01*
X115569437Y-62956319D01*
X115560971Y-62952556D01*
X115556640Y-62950391D01*
X115548414Y-62945830D01*
X115548398Y-62945858D01*
X115546845Y-62944944D01*
X115546507Y-62944757D01*
X115546267Y-62944624D01*
X115545713Y-62944342D01*
X115545177Y-62944102D01*
X115543317Y-62943269D01*
X115543421Y-62943036D01*
X115524519Y-62932991D01*
X115516696Y-62927777D01*
X115516601Y-62927714D01*
X115516315Y-62927523D01*
X115506912Y-62920489D01*
X115506905Y-62920499D01*
X115506449Y-62920143D01*
X115505724Y-62919601D01*
X115505297Y-62919245D01*
X115504792Y-62918851D01*
X115504787Y-62918847D01*
X115504559Y-62918683D01*
X115504300Y-62918497D01*
X115504257Y-62918468D01*
X115503815Y-62918182D01*
X115503810Y-62918179D01*
X115503800Y-62918173D01*
X115503795Y-62918170D01*
X115503299Y-62917887D01*
X115503291Y-62917883D01*
X115503275Y-62917874D01*
X115502260Y-62917341D01*
X115491140Y-62910740D01*
X115485942Y-62907276D01*
X115469226Y-62893918D01*
X115460850Y-62885947D01*
X115455183Y-62882145D01*
X115455141Y-62882103D01*
X115435480Y-62855416D01*
X115435013Y-62855682D01*
X115433706Y-62853384D01*
X115433703Y-62853379D01*
X115433696Y-62853367D01*
X115433375Y-62852871D01*
X115433019Y-62852375D01*
X115432891Y-62852211D01*
X115432628Y-62851873D01*
X115432266Y-62851440D01*
X115431729Y-62850721D01*
X115431367Y-62850257D01*
X115431376Y-62850249D01*
X115424225Y-62840674D01*
X115424089Y-62840470D01*
X115418797Y-62832533D01*
X115413506Y-62824595D01*
X115408214Y-62816658D01*
X115402922Y-62808722D01*
X115400946Y-62805757D01*
X115383778Y-62764700D01*
X115383365Y-62764811D01*
X115383360Y-62764794D01*
X115383312Y-62764806D01*
X115382906Y-62763093D01*
X115382848Y-62762877D01*
X115382845Y-62762870D01*
X115382843Y-62762860D01*
X115382756Y-62762602D01*
X115382752Y-62762593D01*
X115382058Y-62760534D01*
X115382216Y-62760480D01*
X115379135Y-62750615D01*
X115379110Y-62750513D01*
X115376464Y-62739929D01*
X115374873Y-62733568D01*
X115371172Y-62703497D01*
X115371172Y-61089993D01*
X115739700Y-61089993D01*
X115739700Y-61090006D01*
X115758864Y-61321297D01*
X115758866Y-61321308D01*
X115815842Y-61546300D01*
X115909075Y-61758848D01*
X116036016Y-61953147D01*
X116036019Y-61953151D01*
X116036021Y-61953153D01*
X116193216Y-62123913D01*
X116193219Y-62123915D01*
X116193222Y-62123918D01*
X116376365Y-62266464D01*
X116376371Y-62266468D01*
X116376374Y-62266470D01*
X116580497Y-62376936D01*
X116669486Y-62407486D01*
X116800015Y-62452297D01*
X116800017Y-62452297D01*
X116800019Y-62452298D01*
X117028951Y-62490500D01*
X117028952Y-62490500D01*
X117261048Y-62490500D01*
X117261049Y-62490500D01*
X117489981Y-62452298D01*
X117709503Y-62376936D01*
X117913626Y-62266470D01*
X118096784Y-62123913D01*
X118253979Y-61953153D01*
X118380924Y-61758849D01*
X118474157Y-61546300D01*
X118531134Y-61321305D01*
X118531135Y-61321297D01*
X118550300Y-61090006D01*
X118550300Y-61089993D01*
X118531135Y-60858702D01*
X118531133Y-60858691D01*
X118474157Y-60633699D01*
X118380924Y-60421151D01*
X118253983Y-60226852D01*
X118253980Y-60226849D01*
X118253979Y-60226847D01*
X118096784Y-60056087D01*
X118096779Y-60056083D01*
X118096777Y-60056081D01*
X117913634Y-59913535D01*
X117913628Y-59913531D01*
X117709504Y-59803064D01*
X117709495Y-59803061D01*
X117489984Y-59727702D01*
X117318282Y-59699050D01*
X117261049Y-59689500D01*
X117028951Y-59689500D01*
X116983164Y-59697140D01*
X116800015Y-59727702D01*
X116580504Y-59803061D01*
X116580495Y-59803064D01*
X116376371Y-59913531D01*
X116376365Y-59913535D01*
X116193222Y-60056081D01*
X116193219Y-60056084D01*
X116036016Y-60226852D01*
X115909075Y-60421151D01*
X115815842Y-60633699D01*
X115758866Y-60858691D01*
X115758864Y-60858702D01*
X115739700Y-61089993D01*
X115371172Y-61089993D01*
X115371172Y-60750267D01*
X115371172Y-60750258D01*
X115371064Y-60739344D01*
X115370800Y-60728430D01*
X115370199Y-60707289D01*
X115370168Y-60705893D01*
X115370028Y-60696904D01*
X115370015Y-60694469D01*
X115370048Y-60686515D01*
X115370113Y-60683021D01*
X115370339Y-60676094D01*
X115370569Y-60671610D01*
X115371172Y-60662945D01*
X115373818Y-60575630D01*
X115376464Y-60488318D01*
X115377503Y-60453019D01*
X115379110Y-60398362D01*
X115379110Y-60398361D01*
X115381756Y-60308403D01*
X115382612Y-60279299D01*
X115384321Y-60221198D01*
X115384602Y-60215737D01*
X115385275Y-60206655D01*
X115385931Y-60195048D01*
X115386401Y-60183566D01*
X115386717Y-60172145D01*
X115387006Y-60149242D01*
X115387044Y-60127474D01*
X115387095Y-60124158D01*
X115389693Y-60033238D01*
X115392341Y-59940585D01*
X115394985Y-59845385D01*
X115396014Y-59808337D01*
X115397631Y-59750134D01*
X115400277Y-59652237D01*
X115402922Y-59554341D01*
X115405486Y-59459473D01*
X115405800Y-59453410D01*
X115407511Y-59431062D01*
X115409206Y-59406175D01*
X115409883Y-59393762D01*
X115410405Y-59381287D01*
X115410741Y-59368688D01*
X115410835Y-59358588D01*
X115411001Y-59353225D01*
X115416152Y-59255363D01*
X115421447Y-59154740D01*
X115426735Y-59051634D01*
X115431152Y-58965500D01*
X115432027Y-58948447D01*
X115437318Y-58842613D01*
X115442610Y-58736780D01*
X115447836Y-58632238D01*
X115447993Y-58629648D01*
X115449358Y-58610435D01*
X115449845Y-58603577D01*
X115451540Y-58576705D01*
X115452216Y-58563301D01*
X115452738Y-58549834D01*
X115453074Y-58536244D01*
X115453171Y-58524960D01*
X115453312Y-58520022D01*
X115458485Y-58413986D01*
X115463776Y-58305506D01*
X115469068Y-58194382D01*
X115474360Y-58083256D01*
X115479651Y-57972132D01*
X115484943Y-57858361D01*
X115490182Y-57745709D01*
X115490307Y-57743497D01*
X115492178Y-57715238D01*
X115493873Y-57686382D01*
X115494550Y-57671985D01*
X115495072Y-57657526D01*
X115495408Y-57642943D01*
X115495507Y-57630479D01*
X115495630Y-57625881D01*
X115500818Y-57511755D01*
X115506055Y-57396535D01*
X115506185Y-57394187D01*
X115508053Y-57365573D01*
X115509748Y-57335807D01*
X115510947Y-57306042D01*
X115511022Y-57302737D01*
X115511283Y-57291184D01*
X115511383Y-57278552D01*
X115511501Y-57274027D01*
X115516693Y-57157215D01*
X115521044Y-57059323D01*
X115521985Y-57038153D01*
X115527276Y-56916445D01*
X115532568Y-56794737D01*
X115537860Y-56673029D01*
X115542598Y-56564044D01*
X115543151Y-56551322D01*
X115543151Y-56551321D01*
X115548443Y-56429613D01*
X115553735Y-56307905D01*
X115553847Y-56293874D01*
X115553871Y-56292238D01*
X115554164Y-56279216D01*
X115554233Y-56277048D01*
X115554586Y-56268277D01*
X115555351Y-56249282D01*
X115555444Y-56247381D01*
X115557055Y-56219082D01*
X115557111Y-56218183D01*
X115559024Y-56188878D01*
X115559319Y-56182261D01*
X115564318Y-56069783D01*
X115569610Y-55950720D01*
X115569625Y-55950720D01*
X115569615Y-55950601D01*
X115574847Y-55835486D01*
X115574977Y-55833150D01*
X115576844Y-55804950D01*
X115578539Y-55776094D01*
X115579216Y-55761697D01*
X115579738Y-55747238D01*
X115580074Y-55732655D01*
X115580174Y-55720181D01*
X115580298Y-55715570D01*
X115582149Y-55674866D01*
X115585485Y-55601467D01*
X115590776Y-55487698D01*
X115594253Y-55412951D01*
X115596062Y-55374063D01*
X115596068Y-55373927D01*
X115601360Y-55262802D01*
X115603059Y-55227111D01*
X115605147Y-55183248D01*
X115627997Y-55117223D01*
X115682917Y-55074031D01*
X115752470Y-55067387D01*
X115814574Y-55099401D01*
X115831424Y-55120161D01*
X115831487Y-55120114D01*
X115832833Y-55121897D01*
X115834430Y-55123864D01*
X115834936Y-55124681D01*
X115969020Y-55302238D01*
X116133437Y-55452123D01*
X116133439Y-55452125D01*
X116322595Y-55569245D01*
X116322596Y-55569245D01*
X116322599Y-55569247D01*
X116530060Y-55649618D01*
X116665127Y-55674866D01*
X116727407Y-55706534D01*
X116762680Y-55766847D01*
X116759746Y-55836655D01*
X116719537Y-55893795D01*
X116692159Y-55910308D01*
X116690193Y-55911170D01*
X116471493Y-56029524D01*
X116275257Y-56182261D01*
X116106833Y-56365217D01*
X115970826Y-56573393D01*
X115870936Y-56801118D01*
X115809892Y-57042175D01*
X115809890Y-57042187D01*
X115789357Y-57289994D01*
X115789357Y-57290005D01*
X115809890Y-57537812D01*
X115809892Y-57537824D01*
X115870936Y-57778881D01*
X115970826Y-58006606D01*
X116106833Y-58214782D01*
X116106836Y-58214785D01*
X116275256Y-58397738D01*
X116471491Y-58550474D01*
X116690190Y-58668828D01*
X116925386Y-58749571D01*
X117170665Y-58790500D01*
X117419335Y-58790500D01*
X117664614Y-58749571D01*
X117856312Y-58683761D01*
X117926111Y-58680611D01*
X117986532Y-58715697D01*
X117999676Y-58732150D01*
X118014721Y-58754666D01*
X118014726Y-58754672D01*
X118105327Y-58845273D01*
X118105331Y-58845276D01*
X118211866Y-58916461D01*
X118211872Y-58916464D01*
X118211873Y-58916465D01*
X118330256Y-58965501D01*
X118330260Y-58965501D01*
X118330261Y-58965502D01*
X118455928Y-58990500D01*
X118455931Y-58990500D01*
X118584071Y-58990500D01*
X118668615Y-58973682D01*
X118709744Y-58965501D01*
X118828127Y-58916465D01*
X118934669Y-58845276D01*
X119025276Y-58754669D01*
X119096465Y-58648127D01*
X119145501Y-58529744D01*
X119168401Y-58414622D01*
X119170500Y-58404071D01*
X119170500Y-58275928D01*
X119145502Y-58150261D01*
X119145501Y-58150260D01*
X119145501Y-58150256D01*
X119096465Y-58031873D01*
X119096464Y-58031872D01*
X119096461Y-58031866D01*
X119025276Y-57925331D01*
X119025273Y-57925327D01*
X118934672Y-57834726D01*
X118934668Y-57834723D01*
X118828133Y-57763538D01*
X118822757Y-57760665D01*
X118823867Y-57758586D01*
X118777595Y-57721281D01*
X118755544Y-57654982D01*
X118759261Y-57620141D01*
X118780106Y-57537829D01*
X118780107Y-57537824D01*
X118780108Y-57537821D01*
X118780109Y-57537812D01*
X118800643Y-57290005D01*
X118800643Y-57289994D01*
X118780109Y-57042187D01*
X118780107Y-57042175D01*
X118719063Y-56801118D01*
X118619173Y-56573393D01*
X118483166Y-56365217D01*
X118403996Y-56279216D01*
X118314744Y-56182262D01*
X118118509Y-56029526D01*
X118118507Y-56029525D01*
X118118506Y-56029524D01*
X117899811Y-55911172D01*
X117899802Y-55911169D01*
X117664616Y-55830429D01*
X117446920Y-55794103D01*
X117384034Y-55763653D01*
X117347595Y-55704038D01*
X117349170Y-55634186D01*
X117388259Y-55576274D01*
X117402052Y-55566367D01*
X117443829Y-55540500D01*
X117586562Y-55452124D01*
X117750981Y-55302236D01*
X117885058Y-55124689D01*
X117984229Y-54925528D01*
X118010734Y-54832371D01*
X118048013Y-54773278D01*
X118111323Y-54743721D01*
X118180562Y-54753083D01*
X118233749Y-54798393D01*
X118249266Y-54832372D01*
X118275769Y-54925523D01*
X118275775Y-54925538D01*
X118374938Y-55124683D01*
X118374943Y-55124691D01*
X118509020Y-55302238D01*
X118673437Y-55452123D01*
X118673439Y-55452125D01*
X118862595Y-55569245D01*
X118862596Y-55569245D01*
X118862599Y-55569247D01*
X119070060Y-55649618D01*
X119288757Y-55690500D01*
X119288759Y-55690500D01*
X119408843Y-55690500D01*
X119475882Y-55710185D01*
X119521637Y-55762989D01*
X119532163Y-55827460D01*
X119524540Y-55900000D01*
X119544326Y-56088256D01*
X119544327Y-56088259D01*
X119602818Y-56268277D01*
X119602821Y-56268284D01*
X119697467Y-56432216D01*
X119783264Y-56527503D01*
X119824129Y-56572888D01*
X119977265Y-56684148D01*
X119977270Y-56684151D01*
X120150192Y-56761142D01*
X120150197Y-56761144D01*
X120335354Y-56800500D01*
X120335355Y-56800500D01*
X120524644Y-56800500D01*
X120524646Y-56800500D01*
X120709803Y-56761144D01*
X120882730Y-56684151D01*
X121035871Y-56572888D01*
X121162533Y-56432216D01*
X121257179Y-56268284D01*
X121315674Y-56088256D01*
X121335460Y-55900000D01*
X121315674Y-55711744D01*
X121257179Y-55531716D01*
X121162533Y-55367784D01*
X121035871Y-55227112D01*
X121035870Y-55227111D01*
X120882734Y-55115851D01*
X120882729Y-55115848D01*
X120709807Y-55038857D01*
X120709802Y-55038855D01*
X120634206Y-55022787D01*
X120572724Y-54989594D01*
X120538948Y-54928431D01*
X120540720Y-54867564D01*
X120585115Y-54711536D01*
X120605643Y-54490000D01*
X120585115Y-54268464D01*
X120524229Y-54054472D01*
X120524224Y-54054461D01*
X120425061Y-53855316D01*
X120425056Y-53855308D01*
X120290979Y-53677761D01*
X120126562Y-53527876D01*
X120126560Y-53527874D01*
X119937404Y-53410754D01*
X119937398Y-53410752D01*
X119729940Y-53330382D01*
X119511243Y-53289500D01*
X119288757Y-53289500D01*
X119070060Y-53330382D01*
X119019392Y-53350011D01*
X118862601Y-53410752D01*
X118862595Y-53410754D01*
X118673439Y-53527874D01*
X118673437Y-53527876D01*
X118509020Y-53677761D01*
X118374943Y-53855308D01*
X118374938Y-53855316D01*
X118275775Y-54054461D01*
X118275769Y-54054476D01*
X118249266Y-54147627D01*
X118211987Y-54206721D01*
X118148677Y-54236278D01*
X118079438Y-54226916D01*
X118026251Y-54181606D01*
X118010734Y-54147627D01*
X117984230Y-54054476D01*
X117984229Y-54054472D01*
X117984224Y-54054461D01*
X117885061Y-53855316D01*
X117885056Y-53855308D01*
X117750979Y-53677761D01*
X117586562Y-53527876D01*
X117586560Y-53527874D01*
X117397404Y-53410754D01*
X117397398Y-53410752D01*
X117189940Y-53330382D01*
X116971243Y-53289500D01*
X116748757Y-53289500D01*
X116530060Y-53330382D01*
X116479392Y-53350011D01*
X116322601Y-53410752D01*
X116322595Y-53410754D01*
X116133439Y-53527874D01*
X116133437Y-53527876D01*
X115969020Y-53677762D01*
X115895623Y-53774955D01*
X115839514Y-53816591D01*
X115769802Y-53821282D01*
X115708620Y-53787540D01*
X115675393Y-53726076D01*
X115672715Y-53696865D01*
X115672797Y-53693819D01*
X115675443Y-53595923D01*
X115675453Y-53595923D01*
X115675445Y-53595833D01*
X115678089Y-53500674D01*
X115680735Y-53405422D01*
X115680746Y-53405422D01*
X115680737Y-53405329D01*
X115683299Y-53315634D01*
X115683587Y-53310022D01*
X115684254Y-53301026D01*
X115684910Y-53289420D01*
X115685380Y-53277937D01*
X115685696Y-53266517D01*
X115685985Y-53243614D01*
X115686023Y-53221846D01*
X115686074Y-53218530D01*
X115688669Y-53127715D01*
X115688672Y-53127611D01*
X115693964Y-52947695D01*
X115696607Y-52857845D01*
X115696610Y-52857738D01*
X115697042Y-52843476D01*
X115699162Y-52773468D01*
X115699498Y-52767384D01*
X115700129Y-52759509D01*
X115700785Y-52748595D01*
X115701255Y-52737681D01*
X115701570Y-52726767D01*
X115701860Y-52704939D01*
X115701901Y-52683110D01*
X115701901Y-52595798D01*
X115701901Y-52511131D01*
X115701901Y-52426464D01*
X115701901Y-52344443D01*
X115701901Y-52262422D01*
X115701901Y-52180400D01*
X115701901Y-52101026D01*
X115701901Y-52021651D01*
X115701901Y-51942276D01*
X115701901Y-51865546D01*
X115701901Y-51788818D01*
X115701901Y-51712088D01*
X115701901Y-51638005D01*
X115701901Y-51563922D01*
X115701901Y-51492484D01*
X115701901Y-51421047D01*
X115701901Y-51349610D01*
X115701901Y-51280818D01*
X115701901Y-51212027D01*
X115701901Y-51143235D01*
X115701901Y-51077090D01*
X115701901Y-51050450D01*
X115721586Y-50983411D01*
X115774390Y-50937656D01*
X115843548Y-50927712D01*
X115907104Y-50956737D01*
X115913582Y-50962769D01*
X116050858Y-51100045D01*
X116050861Y-51100047D01*
X116237266Y-51230568D01*
X116443504Y-51326739D01*
X116663308Y-51385635D01*
X116825230Y-51399801D01*
X116889998Y-51405468D01*
X116890000Y-51405468D01*
X116890002Y-51405468D01*
X116946673Y-51400509D01*
X117116692Y-51385635D01*
X117336496Y-51326739D01*
X117542734Y-51230568D01*
X117729139Y-51100047D01*
X117890047Y-50939139D01*
X118020568Y-50752734D01*
X118116739Y-50546496D01*
X118175635Y-50326692D01*
X118195468Y-50100000D01*
X118175635Y-49873308D01*
X118116739Y-49653504D01*
X118020568Y-49447266D01*
X117919002Y-49302214D01*
X117890045Y-49260858D01*
X117729141Y-49099954D01*
X117542734Y-48969432D01*
X117542732Y-48969431D01*
X117336497Y-48873261D01*
X117336488Y-48873258D01*
X117116697Y-48814366D01*
X117116693Y-48814365D01*
X117116692Y-48814365D01*
X117116691Y-48814364D01*
X117116686Y-48814364D01*
X116890002Y-48794532D01*
X116889998Y-48794532D01*
X116663313Y-48814364D01*
X116663302Y-48814366D01*
X116443511Y-48873258D01*
X116443502Y-48873261D01*
X116237267Y-48969431D01*
X116237265Y-48969432D01*
X116050858Y-49099954D01*
X115913582Y-49237231D01*
X115852259Y-49270716D01*
X115782567Y-49265732D01*
X115726634Y-49223860D01*
X115702217Y-49158396D01*
X115701901Y-49149550D01*
X115701901Y-48815537D01*
X115701907Y-48814308D01*
X115701919Y-48813084D01*
X115702002Y-48804751D01*
X115702029Y-48803187D01*
X115702273Y-48793031D01*
X115702893Y-48770914D01*
X115703064Y-48759684D01*
X115703017Y-48748300D01*
X115702661Y-48736730D01*
X115702041Y-48727125D01*
X115701837Y-48722713D01*
X115701371Y-48706411D01*
X115699255Y-48632339D01*
X115698045Y-48589992D01*
X115696610Y-48539734D01*
X115696607Y-48539637D01*
X115696254Y-48526938D01*
X115693964Y-48444484D01*
X115691318Y-48349234D01*
X115688672Y-48253984D01*
X115687879Y-48243067D01*
X115687737Y-48240821D01*
X115687692Y-48239992D01*
X115687193Y-48230703D01*
X115687104Y-48228767D01*
X115686702Y-48218216D01*
X115686652Y-48216649D01*
X115686377Y-48205854D01*
X115686348Y-48204218D01*
X115686075Y-48180904D01*
X115686067Y-48179822D01*
X115686026Y-48156088D01*
X115684111Y-48085255D01*
X115701977Y-48017710D01*
X115753526Y-47970545D01*
X115822390Y-47958736D01*
X115886707Y-47986033D01*
X115895747Y-47994225D01*
X115943104Y-48041582D01*
X116108650Y-48161859D01*
X116290968Y-48254755D01*
X116485582Y-48317990D01*
X116687683Y-48350000D01*
X116940000Y-48350000D01*
X116940000Y-47365686D01*
X116944394Y-47370080D01*
X117035606Y-47422741D01*
X117137339Y-47450000D01*
X117242661Y-47450000D01*
X117344394Y-47422741D01*
X117435606Y-47370080D01*
X117440000Y-47365686D01*
X117440000Y-48350000D01*
X117692317Y-48350000D01*
X117894417Y-48317990D01*
X118089031Y-48254755D01*
X118271349Y-48161859D01*
X118436894Y-48041582D01*
X118436895Y-48041582D01*
X118581582Y-47896895D01*
X118581582Y-47896894D01*
X118701859Y-47731349D01*
X118794755Y-47549029D01*
X118857990Y-47354413D01*
X118866609Y-47300000D01*
X117505686Y-47300000D01*
X117510080Y-47295606D01*
X117562741Y-47204394D01*
X117590000Y-47102661D01*
X117590000Y-46997339D01*
X117562741Y-46895606D01*
X117510080Y-46804394D01*
X117505686Y-46800000D01*
X118866609Y-46800000D01*
X118857990Y-46745586D01*
X118794755Y-46550970D01*
X118701859Y-46368650D01*
X118581582Y-46203105D01*
X118581582Y-46203104D01*
X118436895Y-46058417D01*
X118271349Y-45938140D01*
X118178370Y-45890765D01*
X118127574Y-45842790D01*
X118110779Y-45774969D01*
X118133316Y-45708835D01*
X118178370Y-45669795D01*
X118203878Y-45656798D01*
X118271610Y-45622287D01*
X118292770Y-45606913D01*
X118437213Y-45501971D01*
X118437215Y-45501968D01*
X118437219Y-45501966D01*
X118581966Y-45357219D01*
X118581968Y-45357215D01*
X118581971Y-45357213D01*
X118638015Y-45280074D01*
X118702287Y-45191610D01*
X118795220Y-45009219D01*
X118858477Y-44814534D01*
X118890500Y-44612352D01*
X118890500Y-44407648D01*
X118858477Y-44205466D01*
X118795220Y-44010781D01*
X118795218Y-44010778D01*
X118795218Y-44010776D01*
X118761503Y-43944607D01*
X118702287Y-43828390D01*
X118683190Y-43802105D01*
X118581971Y-43662786D01*
X118437213Y-43518028D01*
X118271614Y-43397715D01*
X118265006Y-43394348D01*
X118178917Y-43350483D01*
X118128123Y-43302511D01*
X118111328Y-43234690D01*
X118133865Y-43168555D01*
X118178917Y-43129516D01*
X118271610Y-43082287D01*
X118353057Y-43023113D01*
X118437213Y-42961971D01*
X118437215Y-42961968D01*
X118437219Y-42961966D01*
X118581966Y-42817219D01*
X118581968Y-42817215D01*
X118581971Y-42817213D01*
X118637226Y-42741160D01*
X118702287Y-42651610D01*
X118795220Y-42469219D01*
X118858477Y-42274534D01*
X118890500Y-42072352D01*
X118890500Y-41867648D01*
X118883788Y-41825273D01*
X118858477Y-41665465D01*
X118820458Y-41548455D01*
X118795220Y-41470781D01*
X118795218Y-41470778D01*
X118795218Y-41470776D01*
X118755485Y-41392797D01*
X118702287Y-41288390D01*
X118656758Y-41225724D01*
X118581971Y-41122786D01*
X118437219Y-40978034D01*
X118400930Y-40951669D01*
X118358264Y-40896339D01*
X118352285Y-40826726D01*
X118384890Y-40764931D01*
X118445728Y-40730573D01*
X118460562Y-40728060D01*
X118497483Y-40724091D01*
X118554197Y-40702938D01*
X118632331Y-40673796D01*
X118747546Y-40587546D01*
X118833796Y-40472331D01*
X118884091Y-40337483D01*
X118890500Y-40277873D01*
X118890499Y-38582128D01*
X118884091Y-38522517D01*
X118833796Y-38387669D01*
X118833795Y-38387668D01*
X118833793Y-38387664D01*
X118747547Y-38272455D01*
X118747544Y-38272452D01*
X118632335Y-38186206D01*
X118632328Y-38186202D01*
X118497482Y-38135908D01*
X118497483Y-38135908D01*
X118437883Y-38129501D01*
X118437881Y-38129500D01*
X118437873Y-38129500D01*
X118437865Y-38129500D01*
X118105526Y-38129500D01*
X118038487Y-38109815D01*
X117992732Y-38057011D01*
X117982788Y-37987853D01*
X118011813Y-37924297D01*
X118070591Y-37886523D01*
X118103084Y-37881524D01*
X118196922Y-37879677D01*
X119138838Y-37861156D01*
X120215692Y-37839990D01*
X121292546Y-37818823D01*
X122234419Y-37800302D01*
X122234532Y-37800300D01*
X122613148Y-37793688D01*
X122771360Y-37790628D01*
X122906504Y-37787073D01*
X122964868Y-37785326D01*
X123016319Y-37784024D01*
X123016963Y-37784009D01*
X123099315Y-37782449D01*
X123099971Y-37782439D01*
X123152459Y-37781867D01*
X123153272Y-37781862D01*
X123172492Y-37781785D01*
X123173483Y-37781782D01*
X123173974Y-37781781D01*
X126161498Y-37781781D01*
X126189292Y-37785442D01*
X126189391Y-37785000D01*
X126191995Y-37785577D01*
X126192022Y-37785585D01*
X126192558Y-37785680D01*
X126192564Y-37785680D01*
X126195236Y-37786155D01*
X126195212Y-37786288D01*
X126204588Y-37788075D01*
X126211164Y-37789719D01*
X126211163Y-37789719D01*
X126212916Y-37790157D01*
X126215322Y-37790758D01*
X126221412Y-37792551D01*
X126221435Y-37792478D01*
X126223612Y-37793128D01*
X126223613Y-37793129D01*
X126224044Y-37793258D01*
X126224462Y-37793365D01*
X126224468Y-37793366D01*
X126225360Y-37793595D01*
X126241233Y-37799006D01*
X126241252Y-37798953D01*
X126241286Y-37798965D01*
X126241312Y-37798899D01*
X126243216Y-37799643D01*
X126243245Y-37799656D01*
X126243741Y-37799831D01*
X126243752Y-37799834D01*
X126245506Y-37800453D01*
X126273063Y-37814228D01*
X126279954Y-37818823D01*
X126287891Y-37824115D01*
X126291859Y-37826760D01*
X126298672Y-37831302D01*
X126303758Y-37834993D01*
X126303802Y-37834935D01*
X126305476Y-37836166D01*
X126305480Y-37836169D01*
X126306122Y-37836641D01*
X126306779Y-37837098D01*
X126307440Y-37837535D01*
X126308093Y-37837949D01*
X126308726Y-37838336D01*
X126309879Y-37839041D01*
X126309755Y-37839242D01*
X126336450Y-37861423D01*
X126336924Y-37860977D01*
X126338842Y-37863008D01*
X126338855Y-37863023D01*
X126339137Y-37863296D01*
X126339141Y-37863299D01*
X126341242Y-37865334D01*
X126341144Y-37865434D01*
X126345520Y-37869723D01*
X126345556Y-37869689D01*
X126346722Y-37870892D01*
X126346738Y-37870909D01*
X126346877Y-37871045D01*
X126347021Y-37871171D01*
X126347027Y-37871175D01*
X126347039Y-37871186D01*
X126348110Y-37872054D01*
X126357680Y-37880675D01*
X126359327Y-37882322D01*
X126359328Y-37882323D01*
X126361217Y-37884212D01*
X126376717Y-37903116D01*
X126378726Y-37906129D01*
X126380494Y-37908781D01*
X126381684Y-37910565D01*
X126381865Y-37910837D01*
X126396326Y-37940403D01*
X126399010Y-37948454D01*
X126399011Y-37948460D01*
X126399012Y-37948460D01*
X126399015Y-37948469D01*
X126400558Y-37953100D01*
X126400587Y-37953185D01*
X126406950Y-37992397D01*
X126406950Y-38489110D01*
X126387265Y-38556149D01*
X126334461Y-38601904D01*
X126265303Y-38611848D01*
X126201747Y-38582823D01*
X126195269Y-38576791D01*
X126056895Y-38438417D01*
X125891349Y-38318140D01*
X125709031Y-38225244D01*
X125514417Y-38162009D01*
X125312317Y-38130000D01*
X125060000Y-38130000D01*
X125060000Y-39114314D01*
X125055606Y-39109920D01*
X124964394Y-39057259D01*
X124862661Y-39030000D01*
X124757339Y-39030000D01*
X124655606Y-39057259D01*
X124564394Y-39109920D01*
X124560000Y-39114314D01*
X124560000Y-38130000D01*
X124307683Y-38130000D01*
X124105582Y-38162009D01*
X123910968Y-38225244D01*
X123728650Y-38318140D01*
X123563105Y-38438417D01*
X123563104Y-38438417D01*
X123418417Y-38583104D01*
X123418417Y-38583105D01*
X123298140Y-38748650D01*
X123205244Y-38930970D01*
X123142009Y-39125586D01*
X123133391Y-39180000D01*
X124494314Y-39180000D01*
X124489920Y-39184394D01*
X124437259Y-39275606D01*
X124410000Y-39377339D01*
X124410000Y-39482661D01*
X124437259Y-39584394D01*
X124489920Y-39675606D01*
X124494314Y-39680000D01*
X123133391Y-39680000D01*
X123142009Y-39734413D01*
X123205244Y-39929029D01*
X123298140Y-40111349D01*
X123418417Y-40276894D01*
X123418417Y-40276895D01*
X123563104Y-40421582D01*
X123728652Y-40541861D01*
X123821628Y-40589234D01*
X123872425Y-40637208D01*
X123889220Y-40705029D01*
X123866683Y-40771164D01*
X123821630Y-40810203D01*
X123728388Y-40857713D01*
X123562786Y-40978028D01*
X123418028Y-41122786D01*
X123297715Y-41288386D01*
X123204781Y-41470776D01*
X123141522Y-41665465D01*
X123109500Y-41867648D01*
X123109500Y-42072351D01*
X123141522Y-42274534D01*
X123204781Y-42469223D01*
X123297715Y-42651613D01*
X123418028Y-42817213D01*
X123562786Y-42961971D01*
X123647031Y-43023177D01*
X123728390Y-43082287D01*
X123819840Y-43128883D01*
X123821080Y-43129515D01*
X123871876Y-43177490D01*
X123888671Y-43245311D01*
X123866134Y-43311446D01*
X123821080Y-43350485D01*
X123728386Y-43397715D01*
X123562786Y-43518028D01*
X123418028Y-43662786D01*
X123297715Y-43828386D01*
X123204781Y-44010776D01*
X123141522Y-44205465D01*
X123109500Y-44407648D01*
X123109500Y-44612351D01*
X123141522Y-44814534D01*
X123204781Y-45009223D01*
X123297715Y-45191613D01*
X123418028Y-45357213D01*
X123562786Y-45501971D01*
X123714120Y-45611919D01*
X123728390Y-45622287D01*
X123796122Y-45656798D01*
X123821080Y-45669515D01*
X123871876Y-45717490D01*
X123888671Y-45785311D01*
X123866134Y-45851446D01*
X123821080Y-45890485D01*
X123728386Y-45937715D01*
X123562786Y-46058028D01*
X123418028Y-46202786D01*
X123297715Y-46368386D01*
X123204781Y-46550776D01*
X123141522Y-46745465D01*
X123109500Y-46947648D01*
X123109500Y-47152352D01*
X123112382Y-47170548D01*
X123141522Y-47354534D01*
X123204781Y-47549223D01*
X123260237Y-47658060D01*
X123293991Y-47724306D01*
X123297715Y-47731613D01*
X123418028Y-47897213D01*
X123562786Y-48041971D01*
X123674526Y-48123153D01*
X123728390Y-48162287D01*
X123910781Y-48255220D01*
X123941614Y-48265238D01*
X123999290Y-48304675D01*
X124026489Y-48369033D01*
X124014575Y-48437880D01*
X123967331Y-48489356D01*
X123955702Y-48495551D01*
X123797267Y-48569431D01*
X123797265Y-48569432D01*
X123610858Y-48699954D01*
X123449954Y-48860858D01*
X123319432Y-49047265D01*
X123319431Y-49047267D01*
X123223261Y-49253502D01*
X123223259Y-49253509D01*
X123198438Y-49346142D01*
X123162072Y-49405802D01*
X123099225Y-49436331D01*
X123029850Y-49428036D01*
X122977090Y-49385172D01*
X122890047Y-49260861D01*
X122890046Y-49260860D01*
X122890044Y-49260857D01*
X122729141Y-49099954D01*
X122542734Y-48969432D01*
X122542732Y-48969431D01*
X122336497Y-48873261D01*
X122336488Y-48873258D01*
X122116697Y-48814366D01*
X122116693Y-48814365D01*
X122116692Y-48814365D01*
X122116691Y-48814364D01*
X122116686Y-48814364D01*
X121890002Y-48794532D01*
X121889998Y-48794532D01*
X121663313Y-48814364D01*
X121663302Y-48814366D01*
X121443511Y-48873258D01*
X121443502Y-48873261D01*
X121237267Y-48969431D01*
X121237265Y-48969432D01*
X121050858Y-49099954D01*
X120889954Y-49260858D01*
X120759432Y-49447265D01*
X120759431Y-49447267D01*
X120663261Y-49653502D01*
X120663258Y-49653511D01*
X120604366Y-49873302D01*
X120604364Y-49873313D01*
X120584532Y-50099998D01*
X120584532Y-50100001D01*
X120604364Y-50326686D01*
X120604366Y-50326697D01*
X120663258Y-50546488D01*
X120663261Y-50546497D01*
X120759431Y-50752732D01*
X120759432Y-50752734D01*
X120889954Y-50939141D01*
X121050858Y-51100045D01*
X121050861Y-51100047D01*
X121237266Y-51230568D01*
X121443504Y-51326739D01*
X121663308Y-51385635D01*
X121825230Y-51399801D01*
X121889998Y-51405468D01*
X121890000Y-51405468D01*
X121890002Y-51405468D01*
X121946673Y-51400509D01*
X122116692Y-51385635D01*
X122336496Y-51326739D01*
X122542734Y-51230568D01*
X122729139Y-51100047D01*
X122890047Y-50939139D01*
X123020568Y-50752734D01*
X123116739Y-50546496D01*
X123141561Y-50453857D01*
X123177926Y-50394198D01*
X123240772Y-50363668D01*
X123310148Y-50371962D01*
X123362909Y-50414827D01*
X123442056Y-50527861D01*
X123449955Y-50539142D01*
X123610858Y-50700045D01*
X123610861Y-50700047D01*
X123797266Y-50830568D01*
X123812387Y-50837619D01*
X123864825Y-50883791D01*
X123883976Y-50950985D01*
X123863760Y-51017866D01*
X123812387Y-51062380D01*
X123797266Y-51069432D01*
X123797264Y-51069433D01*
X123610858Y-51199954D01*
X123449954Y-51360858D01*
X123319432Y-51547265D01*
X123319431Y-51547267D01*
X123223261Y-51753502D01*
X123223258Y-51753511D01*
X123164366Y-51973302D01*
X123164364Y-51973313D01*
X123144532Y-52199998D01*
X123144532Y-52200001D01*
X123164364Y-52426686D01*
X123164366Y-52426697D01*
X123223258Y-52646488D01*
X123223261Y-52646497D01*
X123319431Y-52852732D01*
X123319432Y-52852734D01*
X123449954Y-53039141D01*
X123610858Y-53200045D01*
X123610861Y-53200047D01*
X123797266Y-53330568D01*
X124003504Y-53426739D01*
X124007053Y-53427689D01*
X124010725Y-53428674D01*
X124070387Y-53465036D01*
X124100919Y-53527882D01*
X124092627Y-53597258D01*
X124077592Y-53623176D01*
X124015368Y-53705575D01*
X123916239Y-53904651D01*
X123916237Y-53904655D01*
X123889525Y-53998540D01*
X123852246Y-54057633D01*
X123788936Y-54087190D01*
X123719697Y-54077828D01*
X123666510Y-54032518D01*
X123650994Y-53998541D01*
X123624229Y-53904472D01*
X123624224Y-53904461D01*
X123525061Y-53705316D01*
X123525056Y-53705308D01*
X123390979Y-53527761D01*
X123226562Y-53377876D01*
X123226560Y-53377874D01*
X123037404Y-53260754D01*
X123037398Y-53260752D01*
X122998263Y-53245591D01*
X122829940Y-53180382D01*
X122611243Y-53139500D01*
X122388757Y-53139500D01*
X122170060Y-53180382D01*
X122038864Y-53231207D01*
X121962601Y-53260752D01*
X121962595Y-53260754D01*
X121773439Y-53377874D01*
X121773437Y-53377876D01*
X121609020Y-53527761D01*
X121474943Y-53705308D01*
X121474938Y-53705316D01*
X121375775Y-53904461D01*
X121375769Y-53904476D01*
X121314885Y-54118462D01*
X121314884Y-54118464D01*
X121294357Y-54339999D01*
X121294357Y-54340000D01*
X121314884Y-54561535D01*
X121314885Y-54561537D01*
X121375769Y-54775523D01*
X121375775Y-54775538D01*
X121474938Y-54974683D01*
X121474943Y-54974691D01*
X121609020Y-55152238D01*
X121773437Y-55302123D01*
X121773439Y-55302125D01*
X121962595Y-55419245D01*
X121962596Y-55419245D01*
X121962599Y-55419247D01*
X122170060Y-55499618D01*
X122388757Y-55540500D01*
X122388759Y-55540500D01*
X122611241Y-55540500D01*
X122611243Y-55540500D01*
X122829940Y-55499618D01*
X123037401Y-55419247D01*
X123154280Y-55346879D01*
X124386672Y-55346879D01*
X124386672Y-55346880D01*
X124502821Y-55418797D01*
X124502822Y-55418798D01*
X124710195Y-55499134D01*
X124928807Y-55540000D01*
X125151193Y-55540000D01*
X125369809Y-55499133D01*
X125577168Y-55418801D01*
X125577181Y-55418795D01*
X125693326Y-55346879D01*
X125040001Y-54693553D01*
X125040000Y-54693553D01*
X124386672Y-55346879D01*
X123154280Y-55346879D01*
X123226562Y-55302124D01*
X123390981Y-55152236D01*
X123525058Y-54974689D01*
X123624229Y-54775528D01*
X123650995Y-54681455D01*
X123688272Y-54622367D01*
X123751581Y-54592809D01*
X123820821Y-54602171D01*
X123874007Y-54647480D01*
X123889525Y-54681460D01*
X123916236Y-54775342D01*
X123916239Y-54775348D01*
X124015369Y-54974428D01*
X124031137Y-54995308D01*
X124031138Y-54995308D01*
X124690000Y-54336446D01*
X124690000Y-54386078D01*
X124713852Y-54475095D01*
X124759930Y-54554905D01*
X124825095Y-54620070D01*
X124904905Y-54666148D01*
X124993922Y-54690000D01*
X125086078Y-54690000D01*
X125175095Y-54666148D01*
X125254905Y-54620070D01*
X125320070Y-54554905D01*
X125366148Y-54475095D01*
X125390000Y-54386078D01*
X125390000Y-54293922D01*
X125366148Y-54204905D01*
X125320070Y-54125095D01*
X125254905Y-54059930D01*
X125175095Y-54013852D01*
X125086078Y-53990000D01*
X125036446Y-53990000D01*
X125693327Y-53333119D01*
X125577178Y-53261202D01*
X125577177Y-53261201D01*
X125502189Y-53232151D01*
X125446787Y-53189578D01*
X125423197Y-53123811D01*
X125438908Y-53055731D01*
X125447197Y-53043753D01*
X125446942Y-53043574D01*
X125520685Y-52938256D01*
X125580568Y-52852734D01*
X125676739Y-52646496D01*
X125677655Y-52643076D01*
X125678470Y-52641739D01*
X125678593Y-52641402D01*
X125678660Y-52641426D01*
X125714016Y-52583414D01*
X125776861Y-52552880D01*
X125846237Y-52561170D01*
X125900118Y-52605652D01*
X125916699Y-52641228D01*
X125966240Y-52815350D01*
X126065369Y-53014428D01*
X126081137Y-53035308D01*
X126081138Y-53035308D01*
X126736447Y-52380000D01*
X126690369Y-52333922D01*
X126740000Y-52333922D01*
X126740000Y-52426078D01*
X126763852Y-52515095D01*
X126809930Y-52594905D01*
X126875095Y-52660070D01*
X126954905Y-52706148D01*
X127043922Y-52730000D01*
X127136078Y-52730000D01*
X127225095Y-52706148D01*
X127304905Y-52660070D01*
X127370070Y-52594905D01*
X127416148Y-52515095D01*
X127440000Y-52426078D01*
X127440000Y-52333922D01*
X127416148Y-52244905D01*
X127370070Y-52165095D01*
X127304905Y-52099930D01*
X127225095Y-52053852D01*
X127136078Y-52030000D01*
X127043922Y-52030000D01*
X126954905Y-52053852D01*
X126875095Y-52099930D01*
X126809930Y-52165095D01*
X126763852Y-52244905D01*
X126740000Y-52333922D01*
X126690369Y-52333922D01*
X126081138Y-51724691D01*
X126081137Y-51724691D01*
X126065368Y-51745574D01*
X125966239Y-51944651D01*
X125964168Y-51949998D01*
X125962990Y-51949541D01*
X125929087Y-52003272D01*
X125865774Y-52032823D01*
X125796535Y-52023454D01*
X125743353Y-51978139D01*
X125727334Y-51942329D01*
X125721781Y-51921606D01*
X125676739Y-51753504D01*
X125580568Y-51547266D01*
X125458630Y-51373119D01*
X126436671Y-51373119D01*
X127090000Y-52026447D01*
X127090001Y-52026447D01*
X127743327Y-51373119D01*
X127627178Y-51301202D01*
X127627177Y-51301201D01*
X127419804Y-51220865D01*
X127201193Y-51180000D01*
X126978807Y-51180000D01*
X126760195Y-51220865D01*
X126552824Y-51301200D01*
X126552823Y-51301201D01*
X126436671Y-51373119D01*
X125458630Y-51373119D01*
X125450047Y-51360861D01*
X125450045Y-51360858D01*
X125289141Y-51199954D01*
X125102734Y-51069432D01*
X125087614Y-51062381D01*
X125035176Y-51016211D01*
X125016023Y-50949018D01*
X125036238Y-50882136D01*
X125087614Y-50837618D01*
X125102734Y-50830568D01*
X125289139Y-50700047D01*
X125450047Y-50539139D01*
X125580568Y-50352734D01*
X125676739Y-50146496D01*
X125735635Y-49926692D01*
X125755468Y-49700000D01*
X125735635Y-49473308D01*
X125681351Y-49270716D01*
X125676741Y-49253511D01*
X125676738Y-49253502D01*
X125627674Y-49148284D01*
X125580568Y-49047266D01*
X125482839Y-48907693D01*
X125450045Y-48860858D01*
X125289141Y-48699954D01*
X125149672Y-48602298D01*
X125112220Y-48576074D01*
X125068596Y-48521499D01*
X125061402Y-48452000D01*
X125092924Y-48389645D01*
X125153154Y-48354231D01*
X125183344Y-48350500D01*
X125312351Y-48350500D01*
X125312352Y-48350500D01*
X125514534Y-48318477D01*
X125709219Y-48255220D01*
X125891610Y-48162287D01*
X126057219Y-48041966D01*
X126070674Y-48028510D01*
X126131992Y-47995027D01*
X126201684Y-48000009D01*
X126257619Y-48041879D01*
X126262163Y-48048370D01*
X126294007Y-48097112D01*
X126311021Y-48123153D01*
X126468216Y-48293913D01*
X126468219Y-48293915D01*
X126468222Y-48293918D01*
X126651365Y-48436464D01*
X126651371Y-48436468D01*
X126651374Y-48436470D01*
X126855497Y-48546936D01*
X126921023Y-48569431D01*
X127075015Y-48622297D01*
X127075017Y-48622297D01*
X127075019Y-48622298D01*
X127303951Y-48660500D01*
X127303952Y-48660500D01*
X127536048Y-48660500D01*
X127536049Y-48660500D01*
X127764981Y-48622298D01*
X127984503Y-48546936D01*
X128188626Y-48436470D01*
X128220423Y-48411722D01*
X128258184Y-48382331D01*
X128371784Y-48293913D01*
X128380130Y-48284846D01*
X128440010Y-48248854D01*
X128509849Y-48250949D01*
X128567468Y-48290469D01*
X128587544Y-48325491D01*
X128616203Y-48402330D01*
X128616206Y-48402335D01*
X128702452Y-48517544D01*
X128702455Y-48517547D01*
X128817664Y-48603793D01*
X128817671Y-48603797D01*
X128952517Y-48654091D01*
X128952516Y-48654091D01*
X128959444Y-48654835D01*
X129012127Y-48660500D01*
X130907872Y-48660499D01*
X130967483Y-48654091D01*
X131098478Y-48605232D01*
X131168169Y-48600249D01*
X131185144Y-48605233D01*
X131262517Y-48634091D01*
X131262516Y-48634091D01*
X131269444Y-48634835D01*
X131322127Y-48640500D01*
X133217872Y-48640499D01*
X133277483Y-48634091D01*
X133412331Y-48583796D01*
X133527546Y-48497546D01*
X133613796Y-48382331D01*
X133625855Y-48350000D01*
X133642455Y-48305493D01*
X133684326Y-48249559D01*
X133749790Y-48225141D01*
X133818063Y-48239992D01*
X133849866Y-48264843D01*
X133852297Y-48267483D01*
X133858215Y-48273912D01*
X133858222Y-48273918D01*
X134041365Y-48416464D01*
X134041371Y-48416468D01*
X134041374Y-48416470D01*
X134245497Y-48526936D01*
X134303761Y-48546938D01*
X134465015Y-48602297D01*
X134465017Y-48602297D01*
X134465019Y-48602298D01*
X134693951Y-48640500D01*
X134693952Y-48640500D01*
X134926048Y-48640500D01*
X134926049Y-48640500D01*
X135154981Y-48602298D01*
X135374503Y-48526936D01*
X135578626Y-48416470D01*
X135584727Y-48411722D01*
X135704528Y-48318477D01*
X135761784Y-48273913D01*
X135918979Y-48103153D01*
X136045924Y-47908849D01*
X136139157Y-47696300D01*
X136196134Y-47471305D01*
X136197135Y-47459230D01*
X136215300Y-47240006D01*
X136215300Y-47239993D01*
X136196135Y-47008702D01*
X136196133Y-47008691D01*
X136139157Y-46783699D01*
X136045924Y-46571151D01*
X135918983Y-46376852D01*
X135918980Y-46376849D01*
X135918979Y-46376847D01*
X135761784Y-46206087D01*
X135761779Y-46206083D01*
X135761777Y-46206081D01*
X135578634Y-46063535D01*
X135578623Y-46063528D01*
X135477934Y-46009038D01*
X135428343Y-45959818D01*
X135413235Y-45891602D01*
X135437405Y-45826046D01*
X135441481Y-45820853D01*
X135442835Y-45819222D01*
X135449715Y-45810287D01*
X135456284Y-45801091D01*
X135462545Y-45791628D01*
X135468501Y-45781897D01*
X135474156Y-45771894D01*
X135479512Y-45761615D01*
X135489438Y-45740278D01*
X135498395Y-45717917D01*
X135506406Y-45694503D01*
X135513495Y-45670003D01*
X135519685Y-45644387D01*
X135524998Y-45617624D01*
X135529460Y-45589683D01*
X135533091Y-45560532D01*
X135535917Y-45530141D01*
X135537959Y-45498479D01*
X135539242Y-45465515D01*
X135539788Y-45431217D01*
X135538765Y-45358498D01*
X135535075Y-45280074D01*
X135532476Y-45243071D01*
X135529159Y-45195836D01*
X135521473Y-45105637D01*
X135501682Y-44906783D01*
X135501672Y-44906681D01*
X135450459Y-44428598D01*
X135450360Y-44427626D01*
X135423089Y-44146483D01*
X135422920Y-44144576D01*
X135397919Y-43833666D01*
X135397753Y-43831318D01*
X135377165Y-43488075D01*
X135377067Y-43486170D01*
X135369153Y-43302484D01*
X135369105Y-43301207D01*
X135363132Y-43109031D01*
X135363082Y-43106717D01*
X135362049Y-43023113D01*
X135357981Y-42693900D01*
X135357976Y-42691729D01*
X135359370Y-42472251D01*
X135359386Y-42470886D01*
X135363744Y-42241329D01*
X135363779Y-42239968D01*
X135371342Y-42000853D01*
X135371393Y-41999504D01*
X135382411Y-41750489D01*
X135382489Y-41748975D01*
X135382701Y-41745243D01*
X135397211Y-41489940D01*
X135397284Y-41488765D01*
X135415525Y-41225724D01*
X135416870Y-41214189D01*
X135416932Y-41213809D01*
X135416942Y-41213758D01*
X135417758Y-41208793D01*
X135419070Y-41198835D01*
X135420010Y-41188815D01*
X135420641Y-41178702D01*
X135421023Y-41168465D01*
X135421219Y-41158072D01*
X135421302Y-41136699D01*
X135421302Y-41054678D01*
X135421302Y-40972657D01*
X135421261Y-40952813D01*
X135420971Y-40932970D01*
X135420970Y-40932932D01*
X135420657Y-40923087D01*
X135420467Y-40919079D01*
X135420185Y-40913126D01*
X135419529Y-40903204D01*
X135418767Y-40894544D01*
X135418568Y-40891951D01*
X135418194Y-40886336D01*
X135413366Y-40813907D01*
X135413130Y-40811218D01*
X135412592Y-40805065D01*
X135412405Y-40802666D01*
X135411859Y-40794640D01*
X135411748Y-40792799D01*
X135410719Y-40773227D01*
X135409645Y-40753259D01*
X135408952Y-40743694D01*
X135408075Y-40734532D01*
X135407325Y-40726814D01*
X135407094Y-40724121D01*
X135406585Y-40717304D01*
X135406438Y-40715052D01*
X135405429Y-40697158D01*
X135405419Y-40696982D01*
X135404354Y-40677605D01*
X135403662Y-40667720D01*
X135402784Y-40657803D01*
X135402781Y-40657768D01*
X135402023Y-40649255D01*
X135401825Y-40646761D01*
X135401323Y-40639408D01*
X135401195Y-40637208D01*
X135400829Y-40629814D01*
X135400754Y-40628025D01*
X135400502Y-40620486D01*
X135400450Y-40618377D01*
X135400189Y-40601276D01*
X135400176Y-40599679D01*
X135400174Y-40598964D01*
X135400136Y-40581074D01*
X135400136Y-40504344D01*
X135400136Y-40427615D01*
X135400136Y-40353532D01*
X135400136Y-40331642D01*
X135419821Y-40264603D01*
X135472625Y-40218848D01*
X135541783Y-40208904D01*
X135605339Y-40237929D01*
X135640318Y-40288310D01*
X135656644Y-40332084D01*
X135656649Y-40332093D01*
X135742809Y-40447187D01*
X135742812Y-40447190D01*
X135857906Y-40533350D01*
X135857913Y-40533354D01*
X135992620Y-40583596D01*
X135992627Y-40583598D01*
X136052155Y-40589999D01*
X136052172Y-40590000D01*
X136700000Y-40590000D01*
X136700000Y-39673012D01*
X136757007Y-39705925D01*
X136884174Y-39740000D01*
X137015826Y-39740000D01*
X137142993Y-39705925D01*
X137200000Y-39673012D01*
X137200000Y-40590000D01*
X137847828Y-40590000D01*
X137847844Y-40589999D01*
X137907372Y-40583598D01*
X137907379Y-40583596D01*
X138042086Y-40533354D01*
X138042093Y-40533350D01*
X138157187Y-40447190D01*
X138157190Y-40447187D01*
X138243350Y-40332093D01*
X138243354Y-40332086D01*
X138292422Y-40200529D01*
X138334293Y-40144595D01*
X138399757Y-40120178D01*
X138468030Y-40135030D01*
X138496285Y-40156181D01*
X138618599Y-40278495D01*
X138694501Y-40331642D01*
X138812165Y-40414032D01*
X138812167Y-40414033D01*
X138812170Y-40414035D01*
X139026337Y-40513903D01*
X139026343Y-40513904D01*
X139026344Y-40513905D01*
X139079852Y-40528242D01*
X139254592Y-40575063D01*
X139425319Y-40590000D01*
X139489999Y-40595659D01*
X139490000Y-40595659D01*
X139490001Y-40595659D01*
X139554681Y-40590000D01*
X139725408Y-40575063D01*
X139953663Y-40513903D01*
X140167830Y-40414035D01*
X140361401Y-40278495D01*
X140528495Y-40111401D01*
X140658425Y-39925842D01*
X140713002Y-39882217D01*
X140782500Y-39875023D01*
X140844855Y-39906546D01*
X140861575Y-39925842D01*
X140991500Y-40111395D01*
X140991505Y-40111401D01*
X141158599Y-40278495D01*
X141234501Y-40331642D01*
X141352165Y-40414032D01*
X141352167Y-40414033D01*
X141352170Y-40414035D01*
X141566337Y-40513903D01*
X141566343Y-40513904D01*
X141566344Y-40513905D01*
X141619852Y-40528242D01*
X141794592Y-40575063D01*
X141965319Y-40590000D01*
X142029999Y-40595659D01*
X142030000Y-40595659D01*
X142030001Y-40595659D01*
X142094681Y-40590000D01*
X142265408Y-40575063D01*
X142493663Y-40513903D01*
X142707830Y-40414035D01*
X142901401Y-40278495D01*
X143068495Y-40111401D01*
X143198425Y-39925842D01*
X143253002Y-39882217D01*
X143322500Y-39875023D01*
X143384855Y-39906546D01*
X143401575Y-39925842D01*
X143531500Y-40111395D01*
X143531505Y-40111401D01*
X143698599Y-40278495D01*
X143774501Y-40331642D01*
X143892165Y-40414032D01*
X143892167Y-40414033D01*
X143892170Y-40414035D01*
X144106337Y-40513903D01*
X144106343Y-40513904D01*
X144106344Y-40513905D01*
X144159852Y-40528242D01*
X144334592Y-40575063D01*
X144505319Y-40590000D01*
X144569999Y-40595659D01*
X144570000Y-40595659D01*
X144570001Y-40595659D01*
X144634681Y-40590000D01*
X144805408Y-40575063D01*
X145033663Y-40513903D01*
X145247830Y-40414035D01*
X145441401Y-40278495D01*
X145608495Y-40111401D01*
X145744035Y-39917830D01*
X145843903Y-39703663D01*
X145905063Y-39475408D01*
X145925659Y-39240000D01*
X145905063Y-39004592D01*
X145843903Y-38776337D01*
X145744035Y-38562171D01*
X145739819Y-38556149D01*
X145608494Y-38368597D01*
X145441402Y-38201506D01*
X145441401Y-38201505D01*
X145318082Y-38115156D01*
X145258594Y-38073502D01*
X145214971Y-38018926D01*
X145207778Y-37949427D01*
X145239300Y-37887073D01*
X145299530Y-37851659D01*
X145329719Y-37847928D01*
X145372318Y-37847928D01*
X145462276Y-37847928D01*
X145552232Y-37847928D01*
X145642190Y-37847928D01*
X145732147Y-37847928D01*
X145822105Y-37847928D01*
X145912061Y-37847928D01*
X145999374Y-37847928D01*
X146086688Y-37847928D01*
X146174001Y-37847928D01*
X146261314Y-37847928D01*
X146348626Y-37847928D01*
X146435939Y-37847928D01*
X146523252Y-37847928D01*
X146610566Y-37847928D01*
X146697879Y-37847928D01*
X146785192Y-37847928D01*
X146872505Y-37847928D01*
X146959817Y-37847928D01*
X147044484Y-37847928D01*
X147129150Y-37847928D01*
X147213817Y-37847928D01*
X147298484Y-37847928D01*
X147383151Y-37847928D01*
X147467819Y-37847928D01*
X147552482Y-37847928D01*
X147637149Y-37847928D01*
X147721816Y-37847928D01*
X147806484Y-37847928D01*
X147891151Y-37847928D01*
X147975818Y-37847928D01*
X148057838Y-37847928D01*
X148139858Y-37847928D01*
X148221877Y-37847928D01*
X148303897Y-37847928D01*
X148385917Y-37847928D01*
X148467937Y-37847928D01*
X148579063Y-37847928D01*
X148690185Y-37847928D01*
X148803958Y-37847928D01*
X148917728Y-37847928D01*
X149031501Y-37847928D01*
X149147918Y-37847928D01*
X149264335Y-37847928D01*
X149383395Y-37847928D01*
X149502456Y-37847928D01*
X149620803Y-37847928D01*
X149622273Y-37847937D01*
X149623787Y-37847954D01*
X149652523Y-37848296D01*
X149653105Y-37848305D01*
X149677819Y-37848808D01*
X149683354Y-37848921D01*
X149689826Y-37848993D01*
X149698440Y-37849091D01*
X149698452Y-37849090D01*
X149698456Y-37849091D01*
X149702434Y-37849078D01*
X149713421Y-37849045D01*
X149728340Y-37848688D01*
X149741459Y-37848018D01*
X149744999Y-37847889D01*
X149864940Y-37845283D01*
X149986648Y-37842637D01*
X150111003Y-37839991D01*
X150235359Y-37837345D01*
X150249529Y-37836520D01*
X150251221Y-37836434D01*
X150264520Y-37835860D01*
X150266682Y-37835786D01*
X150295517Y-37835055D01*
X150297513Y-37835021D01*
X150327614Y-37834744D01*
X150328420Y-37834740D01*
X150359714Y-37834699D01*
X150486713Y-37832053D01*
X150613712Y-37829408D01*
X150740711Y-37826762D01*
X150870357Y-37824116D01*
X151000003Y-37818824D01*
X151132297Y-37813533D01*
X151264587Y-37808241D01*
X151296383Y-37806322D01*
X151297290Y-37806272D01*
X151328797Y-37804651D01*
X151330694Y-37804568D01*
X151362262Y-37803437D01*
X151364101Y-37803385D01*
X151379281Y-37803082D01*
X151380711Y-37803063D01*
X151396880Y-37802949D01*
X151531814Y-37797658D01*
X151666751Y-37792366D01*
X151734220Y-37789720D01*
X151801688Y-37787074D01*
X151801688Y-37787075D01*
X151801753Y-37787071D01*
X151939273Y-37781783D01*
X152076854Y-37776491D01*
X152214348Y-37771202D01*
X152214438Y-37771225D01*
X152214438Y-37771199D01*
X152214439Y-37771199D01*
X152354671Y-37765908D01*
X152389753Y-37763977D01*
X152390324Y-37763947D01*
X152423922Y-37762311D01*
X152425611Y-37762242D01*
X152458699Y-37761102D01*
X152460486Y-37761053D01*
X152476521Y-37760747D01*
X152477785Y-37760730D01*
X152494899Y-37760616D01*
X152635127Y-37755324D01*
X152670419Y-37753404D01*
X152671168Y-37753365D01*
X152705855Y-37751719D01*
X152707372Y-37751658D01*
X152737313Y-37750653D01*
X152741361Y-37750518D01*
X152743162Y-37750470D01*
X152759555Y-37750162D01*
X152760782Y-37750146D01*
X152777999Y-37750033D01*
X152920875Y-37744741D01*
X153066394Y-37739449D01*
X153211917Y-37734158D01*
X153355603Y-37728932D01*
X153359240Y-37728854D01*
X153376175Y-37728747D01*
X153394728Y-37728411D01*
X153431521Y-37727212D01*
X153468314Y-37725517D01*
X153505603Y-37723574D01*
X153533904Y-37721785D01*
X153542834Y-37721222D01*
X153542861Y-37721220D01*
X153542894Y-37721218D01*
X153579458Y-37718629D01*
X153579879Y-37718600D01*
X153597409Y-37717491D01*
X153598741Y-37717415D01*
X153615485Y-37716556D01*
X153617518Y-37716469D01*
X153632360Y-37715960D01*
X153633691Y-37715915D01*
X153636317Y-37715853D01*
X153653770Y-37715637D01*
X153653787Y-37715636D01*
X153653792Y-37715636D01*
X153706628Y-37712805D01*
X153801819Y-37707705D01*
X153801937Y-37707733D01*
X153801936Y-37707699D01*
X153952750Y-37699762D01*
X154103565Y-37691824D01*
X154246443Y-37684304D01*
X154254380Y-37683887D01*
X154254398Y-37683885D01*
X154407840Y-37675949D01*
X154561191Y-37668017D01*
X154561299Y-37668043D01*
X154561298Y-37668012D01*
X154717399Y-37660074D01*
X154873504Y-37652137D01*
X155029605Y-37644199D01*
X155188358Y-37636262D01*
X155347110Y-37628324D01*
X155505863Y-37620387D01*
X155667259Y-37612449D01*
X155828655Y-37604512D01*
X155989954Y-37596578D01*
X155990052Y-37596602D01*
X155990051Y-37596574D01*
X156021280Y-37595063D01*
X156154090Y-37588637D01*
X156317749Y-37580717D01*
X156318532Y-37580682D01*
X156357945Y-37579100D01*
X156358579Y-37579076D01*
X156399157Y-37577723D01*
X156440538Y-37575863D01*
X156461338Y-37574514D01*
X156480942Y-37572865D01*
X156483403Y-37572683D01*
X156648860Y-37562179D01*
X156815426Y-37551602D01*
X156815549Y-37551630D01*
X156815547Y-37551595D01*
X156984882Y-37541012D01*
X157154216Y-37530429D01*
X157154236Y-37530427D01*
X157154241Y-37530427D01*
X157160746Y-37529878D01*
X157194832Y-37527007D01*
X157196972Y-37526846D01*
X157237217Y-37524189D01*
X157238554Y-37524109D01*
X157280049Y-37521886D01*
X157280697Y-37521854D01*
X157323547Y-37519845D01*
X157491722Y-37509495D01*
X157499338Y-37509262D01*
X157752184Y-37509262D01*
X157752842Y-37509243D01*
X157753196Y-37509233D01*
X157753240Y-37509229D01*
X157753881Y-37509197D01*
X157754111Y-37509207D01*
X157754619Y-37509193D01*
X157754620Y-37509230D01*
G37*
%TD.AperFunction*%
%TD*%
M02*
