M48
; DRILL file {KiCad 8.0.2} date 2024-09-30T00:20:35-0400
; FORMAT={-:-/ absolute / inch / decimal}
; #@! TF.CreationDate,2024-09-30T00:20:35-04:00
; #@! TF.GenerationSoftware,Kicad,Pcbnew,8.0.2
; #@! TF.FileFunction,Plated,1,4,PTH
FMAT,2
INCH
; #@! TA.AperFunction,Plated,PTH,ViaDrill
T1C0.0157
; #@! TA.AperFunction,Plated,PTH,ComponentDrill
T2C0.0276
; #@! TA.AperFunction,Plated,PTH,ComponentDrill
T3C0.0315
; #@! TA.AperFunction,Plated,PTH,ComponentDrill
T4C0.0354
; #@! TA.AperFunction,Plated,PTH,ComponentDrill
T5C0.0394
; #@! TA.AperFunction,Plated,PTH,ComponentDrill
T6C0.0472
; #@! TA.AperFunction,Plated,PTH,ComponentDrill
T7C0.0551
%
G90
G05
T1
X4.7413Y-2.2008
X4.7807Y-2.2004
X5.3756Y-2.2575
X5.4124Y-2.0768
X5.5Y-2.2746
X5.5531Y-2.4134
X5.6142Y-1.9626
X5.685Y-2.1004
X5.7287Y-2.0059
X5.7291Y-1.9205
X5.7707Y-1.5453
X6.1134Y-1.5965
X6.1425Y-1.9201
T2
X4.6008Y-2.1453
X4.7008Y-2.1453
X4.8228Y-2.1394
X4.9228Y-2.1394
X5.0035Y-2.0622
X5.1035Y-2.0622
X5.1937Y-2.0563
X5.2937Y-2.0563
T3
X4.602Y-1.9724
X4.6138Y-1.5524
X4.6138Y-1.6524
X4.6138Y-1.7524
X4.6138Y-1.8524
X4.7988Y-1.9724
X4.8996Y-1.9567
X4.8996Y-2.0551
X4.9138Y-1.5524
X4.9138Y-1.6524
X4.9138Y-1.7524
X4.9138Y-1.8524
T4
X5.0165Y-1.8606
X5.1165Y-1.8606
X5.2075Y-1.8598
X5.3075Y-1.8598
T5
X5.3917Y-1.5449
X5.4917Y-1.5449
X5.5917Y-1.5449
X5.6917Y-1.5449
T6
X4.612Y-2.4051
X4.9171Y-2.4051
T7
X4.6179Y-2.2555
X4.9112Y-2.2555
M30
