%TF.GenerationSoftware,KiCad,Pcbnew,8.0.2*%
%TF.CreationDate,2024-09-30T00:20:34-04:00*%
%TF.ProjectId,solder_challenge_555,736f6c64-6572-45f6-9368-616c6c656e67,rev?*%
%TF.SameCoordinates,Original*%
%TF.FileFunction,Soldermask,Bot*%
%TF.FilePolarity,Negative*%
%FSLAX46Y46*%
G04 Gerber Fmt 4.6, Leading zero omitted, Abs format (unit mm)*
G04 Created by KiCad (PCBNEW 8.0.2) date 2024-09-30 00:20:34*
%MOMM*%
%LPD*%
G01*
G04 APERTURE LIST*
%ADD10C,1.400000*%
%ADD11O,1.400000X1.400000*%
%ADD12C,1.600000*%
%ADD13R,2.400000X1.600000*%
%ADD14O,2.400000X1.600000*%
%ADD15R,1.800000X1.800000*%
%ADD16C,1.800000*%
%ADD17R,1.700000X1.700000*%
%ADD18O,1.700000X1.700000*%
%ADD19C,0.800000*%
%ADD20R,0.450000X1.300000*%
%ADD21C,2.000000*%
G04 APERTURE END LIST*
D10*
%TO.C,R3*%
X131920000Y-52230000D03*
D11*
X134460000Y-52230000D03*
%TD*%
D12*
%TO.C,C1*%
X116890000Y-50100000D03*
X121890000Y-50100000D03*
%TD*%
D13*
%TO.C,U1*%
X117190000Y-39430000D03*
D14*
X117190000Y-41970000D03*
X117190000Y-44510000D03*
X117190000Y-47050000D03*
X124810000Y-47050000D03*
X124810000Y-44510000D03*
X124810000Y-41970000D03*
X124810000Y-39430000D03*
%TD*%
D10*
%TO.C,R1*%
X125040000Y-54340000D03*
D11*
X122500000Y-54340000D03*
%TD*%
D12*
%TO.C,C2*%
X124450000Y-49700000D03*
X124450000Y-52200000D03*
%TD*%
D10*
%TO.C,R2*%
X119400000Y-54490000D03*
D11*
X116860000Y-54490000D03*
%TD*%
D15*
%TO.C,D4*%
X129960000Y-47260000D03*
D16*
X127420000Y-47260000D03*
%TD*%
D15*
%TO.C,D1*%
X132270000Y-47240000D03*
D16*
X134810000Y-47240000D03*
%TD*%
D10*
%TO.C,R13*%
X127090000Y-52380000D03*
D11*
X129630000Y-52380000D03*
%TD*%
D17*
%TO.C,J2*%
X136950000Y-39240000D03*
D18*
X139490000Y-39240000D03*
X142030000Y-39240000D03*
X144570000Y-39240000D03*
%TD*%
D19*
%TO.C,J1*%
X123520000Y-58340000D03*
X118520000Y-58340000D03*
D20*
X122320000Y-57240000D03*
X121670000Y-57240000D03*
X121020000Y-57240000D03*
X120370000Y-57240000D03*
X119720000Y-57240000D03*
D16*
X124895000Y-61090000D03*
D21*
X124745000Y-57290000D03*
X117295000Y-57290000D03*
D16*
X117145000Y-61090000D03*
%TD*%
M02*
