<?xml version="1.0" encoding="UTF-8"?>
<svg id="Layer_3" data-name="Layer 3" xmlns="http://www.w3.org/2000/svg" viewBox="0 0 164.494596 97.092847">
  <defs>
    <style>
      .cls-1 {
        fill: #fff;
      }
    </style>
  </defs>
  <path d="M86.456505,45.872303c.000882-.012782,.001763-.025564,.002645-.038346,.001634-.000045,.003268-.000091,.004902-.000136,.001804,.026406,.003609,.052812,.005638,.082516,.017591-.000577,.038003,.002698,.043394-.002113,.022269-.019872,.049828-.013269,.073678-.008044,.088089,.019298,.171056,.001185,.254767-.013444,.02801-.004895,.055888-.01023,.083526-.016049,.039456-.008309,.078759-.015216,.112059-.035278,.019271-.011611,.048557-.015949,.07424-.021581,.051449-.011283,.103517-.021207,.159487-.032533-.008088-.005946-.01428-.0105-.025739-.018925,.060224-.008789,.115742-.016891,.174654-.025489,.001936-.031642,.003743-.062587,.005737-.093525,.014113-.21896,.025756-.437931,.016634-.657194-.007603-.182763-.014182-.36555-.01983-.548347-.000876-.028355,.005657-.056821,.009072-.088054,.055464,.011663,.104106,.021418,.152221,.032291,.014858,.003358,.028231,.009836,.042381,.014751,.012797,.004444,.025124,.010303,.038704,.012763,.052701,.009546,.103924,.020343,.145852,.046552,.011705,.007317,.028588,.010653,.051684,.018871,.001982,.040235,.004278,.086844,.006574,.133453,.022162-.038011-.002581-.079611,.021178-.116534,.003875,.000191,.00775,.000382,.011625,.000573,.004021,.057704,.01,.115383,.011524,.173119,.001584,.060018-.001455,.12009-.001883,.180141-.000418,.058597-.000091,.117196-.004242,.176332-.00535-.056358-.012824-.112668-.015458-.169087-.00268-.057409-.000592-.114925-.000592-.172395-.005053-.000017-.010105-.000034-.015157-.000051-.000226,.073947-.001349,.1479-.000428,.221841,.000924,.074224,.003884,.148437,.005952,.222654-.004377,.000115-.008753,.000229-.013129,.000344-.004542-.043975-.009084-.087951-.013625-.131926-.002982-.000185-.005964-.00037-.008946-.000555-.001098,.00975-.003523,.019529-.003097,.029247,.009542,.217947,.003003,.435776-.008934,.653582-.00096,.017506-.00352,.033191,.022217,.048814,.03255,.019758,.046134,.027507,.087489,.018533,.004778-.001037,.010138-.000785,.019611-.001429-.005486,.007934-.009533,.013786-.015056,.021773,.018861,.003607,.03703,.007081,.061812,.01182,0,.016313-.002364,.033107,.00097,.04934,.001739,.008466,.013514,.015942,.021167,.024316-.017254,.026184-.029315,.054686-.076079,.068493-.040252,.011884-.076224,.030732-.119132,.048602v.334666c.037895-.106191,.019915-.214834,.029408-.322195l.012496,.000175c0,.053162-.000528,.106328,.000123,.159487,.000994,.081209,.002526,.162417,.004575,.243616,.000294,.011647-.003069,.020313-.021142,.021756-.108198,.008644-.216298,.018162-.324761,.024798-.048973,.002997-.077072-.012476-.09204-.044916-.020473-.044369-.030341-.089589-.026223-.136753,.006328-.072459,.008467-.145096,.01202-.217667,.000478-.009763-.001163-.019575-.002156-.034294-.083672,.001859-.158869,.025559-.238685,.029442-.079107,.003848-.15775,.012123-.236685,.017873-.080685,.005877-.161501,.010883-.242215,.016571-.07863,.005541-.157204,.011461-.240789,.01758-.00086,.011184-.002303,.021941-.00242,.032704-.001462,.134003-.002591,.268008-.004139,.40201-.000459,.039759-.036803,.071571-.092699,.086133-.029385,.007655-.057274,.01503-.088622,.006192-.004441-.001252-.01044-.000012-.01569,.0003-.080785,.004793-.161466,.011857-.242385,.013577-.045867,.000975-.092797-.004606-.137993-.011303-.038346-.005682-.048864-.032177-.058333-.054011-.008073-.018616-.009148-.039823-.006326-.0594,.025393-.17619,.015152-.352896,.018643-.529416,.001782-.09011,.009401-.180159,.013657-.270252,.001654-.035009,.000214-.070091,.002088-.105091,.005558-.103819,.013387-.207586,.017834-.311425,.004661-.108837,.00987-.217753,.008564-.326598-.001522-.1269,.018879-.252447,.036661-.378278,.008393-.059391,.015645-.118859,.023844-.181582,.005636,.028186,.010696,.05349,.015755,.078795,.003512-.00018,.007024-.000361,.010535-.000541,.001496-.009577,.002807-.019169,.004547-.028725,.001345-.007387-.000657-.018059,.005529-.021524,.03092-.01732,.021016-.040335,.021429-.06187,.000597-.031108,.016404-.046601,.0586-.059449,.069822-.02126,.143266-.032074,.217737-.042255,.028632-.003914,.066848-.001582,.087255-.02795,.035149,.023966,.062704,.00176,.093195-.007483,.010113,.004837,.019354,.01172,.030614,.014201,.040229,.008864,.05077,.031221,.050907,.055702,.000428,.076351,.003355,.152941-.003965,.22901-.011647,.121033-.040422,.241221-.041269,.362842-.0004,.057557,.007215,.115212,.004541,.172674-.006524,.140159-.017486,.280216-.025477,.420347-.002782,.048782-.000302,.097715-.003429,.14648-.003992,.06225-.011363,.124394-.016993,.186596-.001795,.01983-.002681,.0397-.003983,.059551l.007798,.000212Z"/>
  <path class="cls-1" d="M91.694596,44.515641c-.014374,.008522-.028749,.017043-.043122,.025566l.001651-.000951"/>
  <path d="M87.930874,44.62423v.075646c-.020182-.025497-.008013-.051353,0-.075646Z"/>
  <path d="M92.653742,46.140099c-.006916,.007183-.019014,.015422-.017826,.022271,.003846,.022175-.019294,.031919-.037588,.042432-.068215,.039203-.139912,.075103-.224042,.096627-.106573,.027266-.212974,.054929-.320366,.080574-.107332,.025632-.215536,.049571-.32395,.072932-.027214,.005866-.056555,.00842-.085159,.009525-.193742,.007495-.386086,.002795-.575948-.029323-.155366-.026281-.287765-.079096-.396884-.159453-.076705-.056488-.150747-.114713-.22594-.172184-.015972-.012209-.031978-.024144-.063207-.015018,.022411,.040134,.045124,.079159,.065933,.118665,.013573,.02577,.027951,.051783,.03502,.07857,.003916,.014839-.00646,.031488-.011478,.051672-.045811,.004842-.094275,.013605-.142757,.013646-.026514,.000023-.053013-.014886-.065761-.034797-.013908-.021722-.027059-.043677-.040889-.065422-.029836-.046916-.060484-.093588-.089542-.140729-.01015-.016468-.026353-.021263-.050847-.021079-.167583,.001247-.32896-.023848-.490718-.051599-.069646-.011947-.140867-.019642-.212276-.026628l.010519-.228816c.057834,.001631,.115833,.001784,.17335,.005591,.048148,.003185,.095089,.0143,.143027,.020039,.063173,.007562,.126793,.013332,.197951,.020671-.008682-.014715-.012521-.022868-.018096-.030401-.043635-.05899-.086645-.118219-.131671-.176699-.094366-.12256-.185158-.246039-.258466-.375785-.042645-.075473-.099283-.147158-.1502-.220357-.004144-.005957-.012738-.010428-.021862-.01764-.048806,.082177-.093694,.161564-.11866,.245787-.005156,.017396-.017113,.033825-.025936,.050697-.003675-.000934-.007352-.00187-.011029-.002806,.041765-.109825,.083536-.219646,.125125-.329502,.000262-.000692-.001782-.002093-.003166-.00271-.001289-.000576-.003138-.000545-.008618-.001349-.003856,.007357-.008861,.01494-.011839,.022886-.055305,.147648-.110278,.295356-.16575,.442973-.002635,.007015-.008293,.01349-.012907,.020199,.00368-.04195,.00736-.083902,.01104-.125851-.038768,.068173-.052855,.139793-.067032,.210954-.014401,.072265-.0571,.141634-.050349,.220834,.123364,.007342,.243458,.015311,.363755,.021338,.013742,.000687,.027557,.000742,.041332,.001131l-.010519,.228816c-.039514-.003867-.079068-.007583-.118486-.011522-.074968-.007492-.150571-.012111-.226023-.017017-.04786-.003115-.095968-.004398-.146608-.006621-.030601,.088261-.060277,.173841-.089949,.25942,.003434,.000596,.00687,.001193,.010303,.001792,.019523-.050443,.038436-.101005,.058995-.151245,.005093-.012451,.015521-.023856,.023495-.035741l.000039-.000096c-.019971,.065855-.037134,.1322-.060686,.197432-.024429,.067667-.055585,.134158-.082657,.201384-.009136,.022689-.014095,.046171-.022326,.069058-.003545,.009855-.010557,.01911-.020513,.036555-.008934-.016167-.012902-.023348-.018986-.034359-.009116,.011569-.015633,.019841-.029126,.036973-.006696-.012015-.011258-.020202-.016185-.02904-.010534,.005931-.014204,.00812-.018057,.010137-.006849,.003592-.014009,.010303-.020695,.010106-.057082-.001678-.114575-.002259-.17097-.007873-.052525-.005228-.068718-.020243-.078085-.055961-.008-.030505-.021457-.060712-.024006-.091389-.001914-.023016,.004315-.047961,.016097-.069651,.072154-.132807,.103767-.273245,.162996-.408412,.007064-.01612-.000262-.025651-.019328-.034481-.032738-.015163-.053233-.036312-.062061-.063492-.01312-.040396-.02835-.080463-.044945-.127026,.042204,.004733,.074905,.008402,.11117,.012471,.007349-.007261,.016224-.016029,.025809-.025498,.019624,.007438,.037837,.014336,.063181,.023939,.00828-.038397,.01459-.072673,.023202-.106668,.026792-.105761,.051286-.211874,.082758-.316976,.026727-.089247,.059385-.177751,.093946-.26573,.046898-.119389,.098863-.237675,.163823-.353249,.0266-.047328,.039297-.098409,.059361-.150493,.053907-.014414,.107963-.001058,.169445,.018651,.006813-.001608,.021595-.005098,.032284-.007624,.063619,.031237,.123867,.060819,.184888,.090779,.006896-.010791,.013109-.020511,.019398-.030352,.032129,.009307,.014945,.026947,.01939,.040069,.010858,.001115,.026307-.000402,.031159,.003867,.009274,.008159,.014976,.019338,.017367,.029795,.00152,.006626-.005628,.014204-.008869,.021361-.009058,.020005-.004881,.03509,.023757,.047904,.054423,.024356,.086516,.06177,.094529,.105105,.015259,.082509,.069454,.153532,.125143,.22468,.006782,.008667,.011507,.018109,.016867,.027308-.022655-.019025-.045453-.038181-.073871-.06205,.003026,.01071,.003169,.016193,.006094,.02083,.071526,.113328,.149248,.224981,.213619,.34022,.079467,.14227,.179701,.277646,.270159,.416249,.019185,.029395,.022354,.030306,.087405,.021644-.005104-.026294-.007762-.053376-.015907-.079641-.034784-.112143-.028176-.223583,.00944-.334536,.042134-.12428,.09616-.245963,.172251-.362474,.04766-.072976,.100644-.143709,.179009-.204068,.028843-.022214,.051589-.048184,.077953-.071996,.102514-.0926,.233596-.162495,.373591-.225295,.142578-.063956,.287861-.124619,.443956-.171662,.08122-.024478,.164528-.036924,.252475-.015894,.046835,.011198,.083663,.032681,.121611,.053106,.033734,.018158,.066285,.037372,.104057,.058785v.029981c-.019162,.003112-.040949,.01202-.055717,.008127-.065199-.017176-.120247,.002627-.176787,.018405-.023304,.006504-.045513,.014891-.068222,.022422,.014375-.008522,.02875-.017043,.043122-.025565-.153091,.04105-.294879,.095727-.425688,.164956,.019935-.004271,.03987-.00854,.059805-.012811-.042004,.021364-.083744,.042979-.126061,.064039-.127781,.063588-.228962,.143986-.318411,.233228-.185176,.184743-.286399,.391469-.343058,.610545-.001911,.007386-.00423,.014932-.003903,.022349,.003011,.06809-.019961,.136603,.006916,.204351,.002246,.005664,.000296,.012124-.00271,.018265-.029691-.081718-.036153-.164593-.021034-.247784,.006465-.03557,.023682-.070144,.03404-.105447,.012985-.044268,.02405-.088808,.035801-.133297,.000672-.000501,.001159-.001053,.001854-.001546,.000049-.001214,.000101-.002427,.00015-.003641,.004816-.009743,.009694-.01944,.014585-.029131-.004445-.000469-.00889-.000939-.013335-.001406-.000418,.010179-.000832,.020358-.00125,.030536-.000449,.000905-.00091,.001802-.001356,.002707-.000218,.000827-.00043,.001652-.000648,.002479-.03683,.027424-.039929,.064618-.055933,.097711-.039382,.081438-.052204,.167575-.050593,.251645,.002417,.126098,.040422,.248248,.171042,.346452,.101126,.076026,.216462,.138538,.35723,.17404,.056853,.014338,.118836,.021089,.179375,.025749,.115099,.008864,.230606,.004336,.345739-.003337,.137905-.009188,.267045-.041776,.397167-.07163,.087079-.019976,.173848-.040596,.264026-.06169q-.027352-.01064-.068982-.001263c-.023376,.005257-.046781,.010459-.071251,.013633,.117029-.033244,.234058-.066487,.350843-.099664,.000163,.001247,.000713,.005438,.00175,.013356,.044167-.015404,.087538-.029242,.129044-.045378,.040601-.015786,.039769-.016815,.090009-.009611,.026843,.029818,.045637,.061682,.049914,.097229,.003397,.028239-.00278,.054781-.025928,.078821Z"/>
  <path d="M93.845841,45.577966c-.013005,.003723-.026128,.007264-.038981,.011224-.011258,.003469-.021856,.009965-.03336,.010739-.095243,.006409-.154858,.047535-.206259,.098187-.016199,.015962-.035037,.031491-.056773,.043708-.037855,.021276-.049981,.051636-.064115,.080826-.006418,.013254-.00022,.029343-.000547,.044137-.00049,.022096-.002342,.044183-.002375,.066275-.000026,.0172-.000491,.034654,.003339,.051549,.008275,.036498,.019184,.072709,.029016,.109037-.003464,.000663-.006928,.001327-.010392,.00199l-.032742-.060317c-.003918,.000656-.007835,.001312-.011753,.001968,.002904,.021622,.001686,.043998,.00958,.064706,.015857,.041603-.000508,.084074,.012703,.126116,.006532,.020792-.028307,.032279-.054893,.040607-.026,.008145-.052576,.015406-.082684,.024155,.005328,.016684,.010355,.03092,.014354,.045293,.00632,.022709-.017276,.046973-.047759,.042548-.03917-.005685-.074515,.003619-.111514,.005263-.018337,.000815-.030907-.001248-.042788-.010585-.018177-.014285-.036893-.022747-.069258-.018105-.032476,.004658-.059743-.009184-.071286-.031818-.013731-.026926-.026859-.054163-.036522-.08189-.025393-.072855-.050144-.145847-.072578-.219162-.025481-.08327-.041368-.167314-.046211-.252713-.005595-.098674-.018258-.197161-.028432-.295701-.01224-.118552-.02486-.237085-.037756-.355603-.008143-.074845-.018608-.149583-.025309-.224487-.009153-.102323-.016561-.204732-.023013-.307156-.002989-.047464-.003675-.095076-.0022-.142573,.001197-.038565,.007177-.077058,.011139-.116619,.056107-.005019,.020838-.038363,.033276-.058937,.008159,.003046,.015164,.005661,.029647,.011068-.002483-.033069-.004704-.062661-.006925-.092252,.003519-.000563,.007037-.001125,.010557-.001688,.007673,.013295,.015346,.026591,.023019,.039886,.003304-.000445,.006609-.000891,.009913-.001337v-.044655c.003984-.00049,.007968-.000979,.011952-.001469,.008157,.021346,.016313,.042693,.024469,.064039,.003612,.000465,.007225,.000929,.010839,.001394,.018955-.031416,.037911-.062832,.057385-.095106,.025021-.000588,.016329,.018257,.02798,.026797,.02426-.018251,.05378-.022002,.088567-.019616,.048272,.00331,.097073,.002741,.145565,.004784,.013957,.000588,.028084,.003601,.041315,.007022,.016836,.004352,.032801,.014556,.049213,.01463,.040546,.000182,.046868,.016045,.055659,.03911,.026581,.069744,.023397,.141412,.034684,.212064,.012905,.080774,.021335,.161899,.031028,.242911,.008493,.070982,.018272,.141946,.023113,.213061,.002595,.038119-.003983,.076541-.006516,.114823-.000413,.006249-.002358,.012524-.001832,.018715,.004976,.058521,.010335,.117026,.016113,.181439,.067637-.033909,.135212-.060199,.188689-.096475,.070383-.047744,.147138-.092584,.198495-.152688,.00536-.006274,.013291-.011722,.021153-.016701,.046559-.029489,.093505-.058685,.140216-.088058,.090763-.057076,.181889-.11388,.272002-.171447,.04624-.02954,.091796-.059694,.135435-.091059,.030623-.02201,.064199-.026729,.103683-.010268,.037326,.015561,.039375,.015486,.074049-.006249,.057545-.036071,.114898-.072288,.172387-.108402,.026365-.016562,.039055-.019479,.065818-.003843,.041051,.023983,.078324,.051151,.116023,.077768,.012685,.008957,.032286,.021806,.029854,.030272-.003032,.010553-.026213,.017988-.039565,.027527-.024844,.01775-.048871,.036048-.074968,.0554,.047689,.024961,.124564,.012262,.146299,.062106,.015352-.002089,.02909-.003959,.04816-.006555,.003334,.015355,.01555,.032887,.007706,.042768-.023187,.029212-.00252,.055515,.001958,.08706-.065273,.047529-.131201,.098465-.201977,.145927-.039857,.026728-.088325,.0472-.131714,.071518-.023774,.013325-.047385,.027428-.066994,.04356-.046788,.03849-.099524,.071354-.163334,.095898-.04876,.018755-.05959,.055824-.028505,.089422,.021394,.023124,.040955,.047196,.064595,.069158,.038758,.036007,.046534,.076986,.050305,.12001,.00215,.024541,.009957,.049539,.021506,.072833,.019918,.040177,.04626,.078805,.067162,.118772,.034978,.066883,.067239,.134447,.101869,.201419,.010292,.019905,.025404,.038586,.037066,.058182,.025272,.04246,.0481,.085655,.074989,.127607,.028445,.044378,.061329,.085936,.119807,.117389,.030915,.016627,.054382,.037138,.096015,.044282,.014283,.002451,.033433,.025056,.030361,.035674-.007728,.026713,.012673,.046694,.028126,.064956,.018621,.022006,.02503,.045734,.038638,.068154,.011173,.01841-.00243,.025529-.023643,.029619-.010146,.001956-.021643,.001803-.032285,.001021-.026908-.001975-.046245,.003403-.052843,.02317-.005436,.016287-.027367,.015283-.042572,.022045-.037408,.016638-.070959,.003254-.106266,.002748-.035893-.000515-.071935,.003446-.107801,.00274-.026436-.00052-.045788-.011838-.061312-.027179-.103715-.102503-.19899-.20835-.275353-.322146-.028137-.04193-.063965-.081441-.090649-.123763-.0346-.054879-.063949-.111362-.094875-.167336-.054854-.099281-.109471-.198626-.163555-.298109-.01398-.025714-.023853-.052548-.039051-.077876-.007742-.012902-.02276-.032917-.035123-.033144-.019146-.000351-.045244,.01035-.057009,.021925-.02775,.027301-.048783,.057882-.072557,.087155-.000024,.000018,.002224-.000933,.002224-.000933-.040566,.008383-.071546,.022726-.072293,.055867Z"/>
  <path d="M91.824252,47.07513c.020418,.016268,.040836,.032536,.064314,.051241,.044196-.035239,.022689-.088401,.065911-.128126,.010549,.013328,.022273,.022511,.025115,.033009,.004638,.017128,.020962-.009378,.027888,.006389,.008872,.020195,.03345,.016752,.057184,.013873,.021521-.002611,.044116-.002486,.065966-.001147,.120233,.007369,.227873,.049238,.343437,.069785,.03753,.006673,.065753,.024948,.069839,.056885,.003654,.028564,.009997,.057059,.010989,.085664,.00147,.042377-.00167,.084829-.00113,.127238,.000579,.045407,.037124,.080763,.06898,.115399,.039782,.043255,.073113,.087269,.095971,.137223,.018964,.041441,.051679,.079385,.077174,.119272,.009464,.014807,.014884,.031004,.023662,.046084,.009633,.016551,.018154,.034054,.032109,.048532,.074602,.0774,.106404,.167345,.139633,.256834,.003852,.010373,.000961,.019367,.021417,.022327,.007854,.001137,.014759,.016114,.017266,.025491,.012656,.047332,.058142,.079802,.095161,.115894,.005144,.005015,.023787,.007152,.032262,.004284,.008568-.0029,.015564-.013215,.017572-.021075,.016057-.062817,.02597-.126725,.047212-.188522,.022126-.064374,.029566-.128476,.028164-.194489-.000801-.037746,.010612-.075679,.017334-.113449,.004035-.022678,.010131-.045152,.014427-.067808,.015166-.079974,.035869-.159688,.043299-.240066,.008157-.088247,.017713-.175774,.042669-.262492,.007074-.024579,.000098-.051479-.001434-.077282-.003489-.058742,.016613-.114625,.03519-.170897,.005107-.015468,.005729-.032778,.002366-.048538-.007793-.036521-.010754-.072707,.005254-.108046,.005991-.013226,.018859-.024748,.029874-.038666,.031392,.017482,.057146,.031825,.085539,.047637,.009329-.008612,.01673-.015446,.024552-.022668,.002338,.000162,.007672-.00058,.008981,.000787,.0189,.019739,.047861,.020792,.076328,.024221,.015515,.001869,.034236,.004443,.044537,.011942,.034799,.025333,.064107,.054937,.100111,.079171,.027955,.018815,.060761,.035254,.095004,.047035,.056965,.019598,.117183,.033955,.175266,.051877,.024382,.007524,.039148,.021939,.053846,.039718,.043849,.05304,.02872,.108445,.024435,.164317-.002898,.037785,.000206,.075804-.001695,.113654-.002524,.050258-.005861,.100541-.011402,.150659-.014441,.130646-.030781,.261178-.045333,.391817-.007085,.063609-.009135,.127578-.018407,.190988-.010627,.072689-.025097,.145135-.040853,.217334-.02339,.107176-.033763,.215039-.034871,.323393-.00095,.092815,.00104,.185644,.001248,.278468,.000036,.015953-.002336,.031909-.015505,.048033-.0031-.020619-.006199-.041238-.01016-.06759-.00723,.008752-.01241,.012184-.012753,.015864-.004708,.050321-.065997,.061664-.108026,.086155-.00466,.002715-.011687,.005573-.016943,.004997-.051872-.005674-.095242,.016127-.142437,.024669-.084201,.015241-.09979,.0398-.072486,.095445-.032941,.006704-.066061,.013118-.098914,.020211-.04511,.009739-.085435,.006406-.118388-.02114-.008166-.006826-.017858-.012663-.026965-.018861-.02691-.018316-.054897-.028279-.09458-.020729-.05508,.010478-.105194,.000615-.144564-.032458-.039253-.032976-.079504-.0653-.119157-.098015-.039848-.032877-.076427-.068331-.119976-.098243-.061002-.041899-.111687-.089277-.157625-.140046-.011441-.012645-.022569-.025882-.036932-.036575-.094241-.070163-.156683-.155784-.219056-.241741-.019971-.027522-.046239-.052544-.074022-.083628-.025587,.035961-.03073,.068758-.038381,.100825-.028986,.12149-.056654,.243154-.086233,.364564-.015341,.062969-.032766,.125683-.050889,.188253-.015287,.052778-.017272,.049748-.085259,.061937-.044997,.008066-.088925,.004317-.132975,.004024-.019549-.00013-.039752-.012229-.058083-.020748-.010044-.004668-.01573-.014201-.025253-.019796-.028236-.016588-.050324-.011619-.054771,.015234-.003765,.022745-.012515,.026405-.040956,.014108,.00634-.013284,.01226-.02569,.017467-.0366-.029121-.013076-.055791-.026686-.084401-.037481-.034821-.01314-.052107-.033452-.052694-.065613-.014096,.005077-.023809,.008575-.03755,.013524-.016133-.015656-.032716-.031749-.050207-.048721-.007464,.004338-.016751,.009735-.034548,.020078-.001275-.02246-.001314-.039683-.003437-.056763-.003381-.027226,.017064-.05749-.020652-.080904-.006119-.003799-.002599-.017345-.001298-.026206,.004669-.031796,.009115-.063656,.015982-.095213,.004536-.020846-.01148-.05065,.038028-.0548,.006904-.023654,.020608-.047508,.01935-.070923-.00296-.055121,.004616-.108848,.02105-.162279,.000894-.002909,.000496-.006036,.000698-.009061,.003641,.004095,.007281,.008191,.01362,.015325,.010074-.045281,.019-.088061,.029219-.130672,.012928-.053904,.027502-.107594,.040278-.161518,.014582-.061545,.028927-.123137,.041639-.184903,.017945-.087193,.035434-.174459,.050359-.261952,.002945-.017264-.002156-.037038-.011166-.053351-.037402-.067713-.07488-.135566-.118065-.201305-.024923-.037939-.040166-.07594-.043569-.117723-.004419-.05428-.019103-.108832,.018486-.164005,.034628,.011574,.076824,.007217,.107831,.030211,.005245,.00389,.019516,.001121,.029617,.001429l-.001855-.000846c.005432,.01158,.010865,.02316,.016297,.034741,.00322-.000518,.00644-.001036,.00966-.001555v-.0237s-.001209,.000868-.001209,.000868Z"/>
  <path d="M90.23387,48.628559c.121068-.081325,.228909-.171075,.327276-.267424,.074373-.072847,.148207-.146022,.224432-.217802,.083905-.079012,.123483-.169749,.120686-.268144-.002333-.082044-.018811-.163893-.029927-.245762-.004528-.033351-.011144-.066556-.017338-.099773-.010164-.054502-.026397-.107207-.057422-.158248-.045121-.074231-.064775-.153463-.062732-.235344,.001049-.042059,.000184-.084143,.000184-.127082,.036726,.007298,.071414,.013649,.105555,.02133,.009336,.002101,.019868,.006821,.025029,.012668,.041123,.046584,.092277,.088892,.10796,.146163,.031469,.114913,.065757,.229407,.09675,.344388,.025354,.094064,.053653,.188049,.050078,.284914-.002512,.068054-.009176,.135529-.021332,.203419-.008958,.050028-.031839,.096648-.041222,.145988-.019787,.104046-.085124,.194772-.170299,.276105-.090752,.086657-.189609,.168762-.287311,.25131-.055604,.046978-.112513,.0937-.174987,.135507-.102016,.068268-.204449,.137533-.3407,.168595-.06883,.015691-.136594,.034823-.206644,.046452-.068325,.011343-.140169,.015473-.206499-.006527-.070768-.023472-.13999-.047342-.196804-.091069-.148266-.114116-.229461-.250158-.264032-.404015-.017541-.07807-.036478-.155968-.053748-.229534-.051683,.005021-.102553,.012719-.153745,.014159-.051144,.00144-.102601-.003529-.153941-.005366-.014399-.000516-.028892-.000224-.043308,.000253-.179042,.005927-.358249,.009993-.537065,.018526-.170548,.008138-.340688,.020947-.511004,.031725-.087866,.00556-.175726,.011168-.268533,.017068-.002773,.016923-.006538,.029978-.00681,.043072-.003337,.160348,.004917,.320205,.037012,.479094,.010617,.052562,.019114,.10536,.028382,.15807,.005477,.031152-.016035,.047961-.057725,.048361-.025646,.000245-.051225,.00391-.076847,.005953-.079471,.006336-.158807,.015933-.238472,.017806-.054922,.001291-.11069-.006472-.16533-.013417-.030425-.003867-.049737-.021809-.055623-.044298-.015977-.061043-.046227-.119502-.049464-.183024-.005355-.105078-.018051-.209939-.02624-.314951-.011152-.143006-.015515-.286426-.032562-.429029-.030819-.257807-.014604-.515251-.002584-.772918,.001547-.03316-.004752-.066532-.007738-.099791-.001092-.012166-.003931-.024262-.004573-.03643-.002347-.044487,.024666-.06923,.084519-.073155,.085272-.005592,.168858-.0006,.252914,.015624,.068711,.013262,.140574,.014743,.21278,.004946,.163599-.022197,.326428-.048937,.493866-.052276,.023903-.000477,.047484-.008987,.071271-.013618,.081347-.01584,.162388-.032632,.244185-.04708,.066168-.011688,.132716-.022042,.196621,.009292,.016175,.007931,.038787,.009048,.058731,.012337,.061963,.010219,.124622,.018411,.18596,.030346,.063335,.012324,.125705,.027508,.187959,.042653,.028759,.006996,.056153,.01703,.084321,.025401,.024037,.007144,.048296,.013879,.08046,.023085,.007725,.008677,.014171,.023231-.000102,.040734-.00559,.006855-.009106,.021887-.004175,.024967,.025393,.015864,.020176,.038056,.016744,.055177-.007386,.036841-.019199,.074115-.038123,.108527-.021542,.039173-.078246,.041842-.125185,.048762-.070463,.010388-.14217,.016946-.213739,.022235-.08791,.006497-.176125,.012108-.264382,.014369-.172545,.004421-.345211,.006251-.517827,.009156-.002063,.000035-.004467-.000393-.006137,.000233-.068894,.025824-.144166,.007513-.215385,.017079-.002024,.000272-.004104,.000314-.006154,.000487-.094431,.007964-.100633,.011708-.102558,.080066-.003437,.122037-.005449,.2441-.007005,.36616-.000245,.01918,.00504,.038398,.008148,.060278,.01757,0,.029574,.000612,.041434-.000091,.180805-.01073,.36176-.020307,.542329-.032902,.151823-.010591,.303121-.025237,.454804-.037012,.044176-.003429,.089365-.010473,.130771,.012214,.011705,.006414,.036712,.010517,.046837,.00566,.047229-.022654,.083798,.002543,.124007,.011102,.020341,.004329,.038867,.018529,.062023,.003413,.004782-.003122,.022244-.002697,.023105-.000971,.014853,.029779,.063289,.007466,.085962,.031447,.008995,.009513,.045609,.004735,.076545,.00696,.011919,.010274,.024767,.021347,.045621,.039321,.007431-.019602,.013935-.031523,.016337-.04388,.039308-.202227,.079072-.404411,.116496-.60683,.013942-.075408,.021412-.151459,.033281-.227093,.005387-.034331,.014298-.06836,.021772-.103278,.011058,0,.017629-.001431,.022021,.00025,.017855,.006838,.023759-.01767,.048693-.006003,.048494,.022691,.108366,.034083,.140029,.072583,.011484,.013964,.006993,.034807,.011546,.052262,.010842,.041561,.02266,.082983,.034275,.124432,.00161,.005745,.003746,.011483,.006593,.016952,.018809,.036125,.015948,.04501-.018489,.082246-.007446,.008051-.006967,.020101-.010203,.030298-.053774,.169422-.078382,.342443-.115398,.513923-.030387,.14077-.045124,.281549,.006631,.422038,.032922,.089367,.084432,.171345,.157726,.246617,.073796,.075787,.175794,.086433,.28682,.068309l.329945-.12873Z"/>
</svg>