<?xml version="1.0" encoding="UTF-8"?>
<svg id="Layer_3" data-name="Layer 3" xmlns="http://www.w3.org/2000/svg" viewBox="0 0 164.49 97.09">
  <defs>
    <style>
      .cls-1 {
        fill: #fff;
      }
    </style>
  </defs>
  <path d="M94.1,65.45c.06,0,.12,0,.18-.01,0,0,0-.02,0-.02-.12,0-.25-.02-.38-.03,0-.08-.01-.18,0-.2,.09-.1,.06-.23,.04-.34-.09-.41,0-.8,.06-1.19,.02-.13,.05-.26,.07-.39,.04-.18,.07-.37,.16-.52,.05-.09,.07-.23,.1-.35,.05-.24,.1-.48,.15-.74,.03,.04,.05,.07,.09,.12,.04-.28,.08-.54,.12-.81,.15,0,.29-.02,.44-.03,1.02-.07,2.04-.12,3.06-.08,.85,.04,1.7,.07,2.55,.09,.13,0,.26-.03,.41-.04-.05-.26-.1-.48-.15-.71-.02-.07-.05-.13-.07-.2-.02-.06-.05-.12-.06-.18-.04-.25-.09-.48-.22-.68-.03-.05-.05-.13-.09-.24-.19,0-.4-.02-.62-.03,.18-.1,.37,.01,.54-.1,0-.02,0-.04,0-.05-.27-.02-.54-.05-.81-.05-.28,0-.56,0-.84,0-.27,0-.55,0-.82,.02,.26,.02,.52,.06,.79,.07,.27,.01,.53,0,.8,0,0,.02,0,.05,0,.07-.34,0-.69,0-1.03,0-.35,0-.69-.02-1.04-.03,0,.02,0,.04,0,.06,.2,.02,.41,.04,.61,.06,0,.01,0,.03,0,.04-.05,0-.09,.02-.14,.01-1.01-.04-2.03-.01-3.04,.04-.08,0-.15,.02-.23-.1-.09-.15-.13-.21-.09-.41,0-.02,0-.05,0-.09-.04,.03-.06,.04-.1,.07-.02-.09-.03-.17-.06-.29-.08,0-.15,.01-.23,0-.04,0-.07-.06-.11-.1-.12,.08-.25,.14-.32,.35-.06,.19-.14,.35-.23,.55h-1.56c.49-.18,1-.09,1.5-.14v-.06c-.25,0-.5,0-.74,0-.38,0-.76-.01-1.13-.02-.05,0-.09,.01-.1,.1-.04,.5-.08,1.01-.12,1.51-.01,.23,.06,.36,.21,.43,.21,.1,.42,.14,.64,.12,.34-.03,.68-.04,1.01-.06,.05,0,.09,0,.16,.01,0,.39-.12,.74-.14,1.11-.02,.37-.06,.73-.08,1.1-.03,.38-.05,.75-.08,1.13-.03,.37-.05,.73-.08,1.12-.05,0-.1,.01-.15,.01-.62,0-1.25,.01-1.87,.02-.19,0-.33,.17-.4,.43-.04,.14-.07,.27-.03,.41,0,.02,0,.05,0,.07-.02,.38-.06,.75-.06,1.13,0,.21,.02,.43,.05,.64,.03,.18,.15,.23,.25,.27,.09,.04,.19,.04,.28,.03,.82-.12,1.64-.07,2.46-.09,.42,0,.84-.04,1.26-.06,.16,0,.33,0,.49,0,.48-.03,.97-.06,1.45-.08,.51-.02,1.01-.05,1.52-.04,.59,0,1.17-.09,1.76-.17,.28-.04,.55-.07,.85-.11-.13-.03-.25-.05-.37-.07,0-.02,0-.03,0-.05,.04,0,.09-.01,.13-.02,.03,0,.08,0,.1-.03,.08-.14,.19-.1,.29-.1,.14,0,.22-.08,.28-.27,.1-.32,.15-.67,.2-1.01,.02-.13,0-.31,.13-.41-.11-.16,0-.29,.03-.43-.02-.05-.05-.09-.07-.14-.04-.19-.15-.24-.26-.24-.36,0-.71-.02-1.07,.02-.56,.05-1.12,.19-1.69,.19-.27,0-.54-.03-.8-.02-.65,.03-1.3,.08-1.96,.12-.23,.01-.45,0-.68,.02-.29,.02-.58,.05-.87,.08-.09,0-.18,.01-.28,.02v-.04Z"/>
  <path class="cls-1" d="M100.42,41.08c-.04,.07-.08,.13-.12,.2,0,0,0,0,0,0"/>
  <path d="M99.91,58.59h-.35c.12,.09,.24,.04,.35,0Z"/>
  <path d="M92.86,36.61s-.07,.09-.1,.08c-.1-.02-.15,.09-.2,.17-.18,.32-.35,.65-.45,1.04-.13,.5-.26,.99-.37,1.49-.12,.5-.23,1-.34,1.51-.03,.13-.04,.26-.04,.4-.03,.9-.01,1.8,.14,2.68,.12,.72,.37,1.34,.74,1.85,.26,.36,.53,.7,.8,1.05,.06,.07,.11,.15,.07,.29-.19-.1-.37-.21-.55-.31-.12-.06-.24-.13-.37-.16-.07-.02-.15,.03-.24,.05-.02,.21-.06,.44-.06,.66,0,.12,.07,.25,.16,.31,.1,.06,.2,.13,.3,.19,.22,.14,.44,.28,.65,.42,.08,.05,.1,.12,.1,.24,0,.78,.11,1.53,.24,2.28,.06,.32,.09,.66,.12,.99l1.06-.05c0-.27,0-.54-.03-.81-.01-.22-.07-.44-.09-.67-.04-.29-.06-.59-.1-.92,.07,.04,.11,.06,.14,.08,.27,.2,.55,.4,.82,.61,.57,.44,1.14,.86,1.75,1.2,.35,.2,.68,.46,1.03,.7,.03,.02,.05,.06,.08,.1-.38,.23-.75,.44-1.14,.55-.08,.02-.16,.08-.24,.12,0,.02,0,.03,.01,.05,.51-.19,1.02-.39,1.53-.58,0,0,0,0,.01,.01,0,0,0,.01,0,.04-.03,.02-.07,.04-.11,.06-.69,.26-1.37,.51-2.06,.77-.03,.01-.06,.04-.09,.06,.2-.02,.39-.03,.59-.05-.32,.18-.65,.25-.98,.31-.34,.07-.66,.27-1.03,.23-.03-.57-.07-1.13-.1-1.69,0-.06,0-.13,0-.19l-1.06,.05c.02,.18,.04,.37,.05,.55,.03,.35,.06,.7,.08,1.05,.01,.22,.02,.45,.03,.68-.41,.14-.81,.28-1.21,.42,0-.02,0-.03,0-.05,.23-.09,.47-.18,.7-.27,.06-.02,.11-.07,.17-.11h0c-.31,.09-.62,.17-.92,.28-.31,.11-.62,.26-.94,.38-.11,.04-.21,.07-.32,.1-.05,.02-.09,.05-.17,.1,.08,.04,.11,.06,.16,.09-.05,.04-.09,.07-.17,.14,.06,.03,.09,.05,.14,.08-.03,.05-.04,.07-.05,.08-.02,.03-.05,.07-.05,.1,0,.27,.01,.53,.04,.8,.02,.24,.09,.32,.26,.36,.14,.04,.28,.1,.43,.11,.11,0,.22-.02,.32-.07,.62-.34,1.27-.48,1.9-.76,.08-.03,.12,0,.16,.09,.07,.15,.17,.25,.3,.29,.19,.06,.37,.13,.59,.21-.02-.2-.04-.35-.06-.52,.03-.03,.07-.08,.12-.12-.03-.09-.07-.18-.11-.29,.18-.04,.34-.07,.5-.11,.49-.12,.99-.24,1.48-.39,.42-.12,.83-.28,1.24-.44,.56-.22,1.11-.46,1.64-.76,.22-.12,.46-.18,.7-.28,.07-.25,0-.5-.09-.79,0-.03,.02-.1,.04-.15-.15-.3-.28-.58-.42-.86,.05-.03,.1-.06,.14-.09-.04-.15-.13-.07-.19-.09,0-.05,0-.12-.02-.15-.04-.04-.09-.07-.14-.08-.03,0-.07,.03-.1,.04-.09,.04-.16,.02-.22-.11-.11-.25-.29-.4-.49-.44-.38-.07-.71-.32-1.05-.58-.04-.03-.08-.05-.13-.08,.09,.11,.18,.21,.29,.34-.05-.01-.08-.01-.1-.03-.53-.33-1.05-.69-1.58-.99-.66-.37-1.29-.84-1.94-1.26-.14-.09-.14-.1-.1-.41,.12,.02,.25,.04,.37,.07,.52,.16,1.04,.13,1.56-.04,.58-.2,1.14-.45,1.69-.8,.34-.22,.67-.47,.95-.83,.1-.13,.22-.24,.34-.36,.43-.48,.76-1.09,1.05-1.74,.3-.66,.58-1.34,.8-2.07,.11-.38,.17-.77,.07-1.17-.05-.22-.15-.39-.25-.57-.08-.16-.17-.31-.27-.48h-.14c-.01,.09-.06,.19-.04,.26,.08,.3-.01,.56-.09,.82-.03,.11-.07,.21-.1,.32,.04-.07,.08-.13,.12-.2-.19,.71-.45,1.37-.77,1.98,.02-.09,.04-.19,.06-.28-.1,.2-.2,.39-.3,.59-.3,.59-.67,1.07-1.09,1.48-.86,.86-1.82,1.33-2.84,1.6-.03,0-.07,.02-.1,.02-.32-.01-.64,.09-.95-.03-.03-.01-.06,0-.08,.01,.38,.14,.77,.17,1.15,.1,.17-.03,.33-.11,.49-.16,.21-.06,.41-.11,.62-.17,0,0,0,0,0,0,0,0,.01,0,.02,0,.05-.02,.09-.05,.14-.07,0,.02,0,.04,0,.06-.05,0-.09,0-.14,0,0,0,0,0-.01,0,0,0,0,0-.01,0-.13,.17-.3,.19-.45,.26-.38,.18-.78,.24-1.17,.24-.59-.01-1.16-.19-1.61-.8-.35-.47-.64-1.01-.81-1.66-.07-.26-.1-.55-.12-.83-.04-.54-.02-1.07,.02-1.61,.04-.64,.19-1.24,.33-1.85,.09-.41,.19-.81,.29-1.23q.05,.13,0,.32c-.02,.11-.05,.22-.06,.33,.15-.54,.31-1.09,.46-1.63,0,0-.03,0-.06,0,.07-.21,.14-.41,.21-.6,.07-.19,.08-.19,.04-.42-.14-.12-.29-.21-.45-.23-.13-.02-.25,.01-.37,.12Z"/>
  <path d="M95.47,31.07c-.02,.06-.03,.12-.05,.18-.02,.05-.05,.1-.05,.16-.03,.44-.22,.72-.46,.96-.07,.08-.15,.16-.2,.26-.1,.18-.24,.23-.38,.3-.06,.03-.14,0-.21,0-.1,0-.21,.01-.31,.01-.08,0-.16,0-.24-.02-.17-.04-.34-.09-.51-.14,0,.02,0,.03,0,.05l.28,.15s0,.04,0,.05c-.1-.01-.2,0-.3-.04-.19-.07-.39,0-.59-.06-.1-.03-.15,.13-.19,.26-.04,.12-.07,.24-.11,.38-.08-.02-.14-.05-.21-.07-.11-.03-.22,.08-.2,.22,.03,.18-.02,.35-.02,.52,0,.09,0,.14,.05,.2,.07,.08,.11,.17,.08,.32-.02,.15,.04,.28,.15,.33,.13,.06,.25,.12,.38,.17,.34,.12,.68,.23,1.02,.34,.39,.12,.78,.19,1.18,.22,.46,.03,.92,.08,1.38,.13,.55,.06,1.1,.12,1.65,.18,.35,.04,.7,.09,1.04,.12,.48,.04,.95,.08,1.43,.11,.22,.01,.44,.02,.66,.01,.18,0,.36-.03,.54-.05,.02-.26,.18-.1,.27-.15-.01-.04-.03-.07-.05-.14,.15,.01,.29,.02,.43,.03,0-.02,0-.03,0-.05-.06-.04-.12-.07-.19-.11,0-.02,0-.03,0-.05h.21s0-.04,0-.06c-.1-.04-.2-.08-.3-.11,0-.02,0-.03,0-.05,.15-.09,.29-.18,.44-.27,0-.12-.08-.08-.12-.13,.08-.11,.1-.25,.09-.41-.02-.22-.01-.45-.02-.68,0-.06-.02-.13-.03-.19-.02-.08-.07-.15-.07-.23,0-.19-.07-.22-.18-.26-.32-.12-.66-.11-.99-.16-.38-.06-.75-.1-1.13-.14-.33-.04-.66-.09-.99-.11-.18-.01-.36,.02-.53,.03-.03,0-.06,.01-.09,0-.27-.02-.54-.05-.84-.07,.16-.31,.28-.63,.45-.88,.22-.33,.43-.68,.71-.92,.03-.02,.05-.06,.08-.1,.14-.22,.27-.44,.41-.65,.27-.42,.53-.85,.8-1.27,.14-.22,.28-.43,.42-.63,.1-.14,.12-.3,.05-.48-.07-.17-.07-.18,.03-.34,.17-.27,.34-.53,.5-.8,.08-.12,.09-.18,.02-.31-.11-.19-.24-.36-.36-.54-.04-.06-.1-.15-.14-.14-.05,.01-.08,.12-.13,.18-.08,.12-.17,.23-.26,.35-.12-.22-.06-.58-.29-.68,0-.07,.02-.14,.03-.22-.07-.02-.15-.07-.2-.04-.14,.11-.26,.01-.41,0-.22,.3-.46,.61-.68,.94-.12,.19-.22,.41-.33,.61-.06,.11-.13,.22-.2,.31-.18,.22-.33,.46-.45,.76-.09,.23-.26,.28-.42,.13-.11-.1-.22-.19-.32-.3-.17-.18-.36-.22-.56-.23-.11-.01-.23-.05-.34-.1-.19-.09-.37-.22-.55-.31-.31-.16-.63-.31-.94-.47-.09-.05-.18-.12-.27-.17-.2-.12-.4-.22-.59-.35-.21-.13-.4-.29-.55-.56-.08-.14-.17-.25-.21-.45-.01-.07-.12-.16-.17-.14-.12,.04-.22-.06-.3-.13-.1-.09-.21-.12-.32-.18-.09-.05-.12,.01-.14,.11,0,.05,0,.1,0,.15,0,.13-.02,.22-.11,.25-.08,.03-.07,.13-.1,.2-.08,.17-.02,.33-.01,.49,0,.17-.02,.33-.01,.5,0,.12,.06,.21,.13,.29,.48,.48,.97,.93,1.5,1.28,.2,.13,.38,.3,.58,.42,.26,.16,.52,.3,.78,.44,.46,.26,.92,.51,1.39,.76,.12,.07,.24,.11,.36,.18,.06,.04,.15,.11,.15,.16,0,.09-.05,.21-.1,.27-.13,.13-.27,.23-.41,.34,0,0,0-.01,0-.01-.04,.19-.11,.33-.26,.34Z"/>
  <path d="M88.51,40.47c-.08-.1-.15-.19-.24-.3,.16-.21,.41-.11,.6-.31-.06-.05-.1-.1-.15-.12-.08-.02,.04-.1-.03-.13-.09-.04-.08-.16-.06-.27,.01-.1,.01-.21,0-.31-.03-.56-.23-1.06-.32-1.6-.03-.17-.12-.31-.26-.33-.13-.02-.27-.05-.4-.05-.2,0-.39,0-.59,0-.21,0-.38-.17-.54-.32-.2-.19-.41-.34-.64-.45-.19-.09-.37-.24-.56-.36-.07-.04-.14-.07-.21-.11-.08-.04-.16-.08-.23-.15-.36-.35-.78-.5-1.2-.65-.05-.02-.09,0-.1-.1,0-.04-.07-.07-.12-.08-.22-.06-.37-.27-.54-.44-.02-.02-.03-.11-.02-.15,.01-.04,.06-.07,.1-.08,.29-.07,.59-.12,.88-.22,.3-.1,.6-.14,.91-.13,.18,0,.35-.05,.53-.08,.11-.02,.21-.05,.32-.07,.37-.07,.74-.17,1.12-.2,.41-.04,.82-.08,1.22-.2,.11-.03,.24,0,.36,0,.27,.02,.53-.08,.8-.16,.07-.02,.15-.03,.23-.01,.17,.04,.34,.05,.5-.02,.06-.03,.12-.09,.18-.14-.08-.15-.15-.27-.22-.4,.04-.04,.07-.08,.11-.11,0-.01,0-.04,0-.04-.09-.09-.1-.22-.11-.36,0-.07-.02-.16-.06-.21-.12-.16-.26-.3-.37-.47-.09-.13-.16-.28-.22-.44-.09-.27-.16-.55-.24-.82-.04-.11-.1-.18-.18-.25-.25-.2-.5-.13-.76-.11-.18,.01-.35,0-.53,0-.23,.01-.47,.03-.7,.05-.61,.07-1.22,.14-1.82,.21-.3,.03-.59,.04-.89,.09-.34,.05-.68,.12-1.01,.19-.5,.11-1,.16-1.5,.16-.43,0-.86,0-1.3,0-.07,0-.15,.01-.22,.07,.1,.01,.19,.03,.31,.05-.04,.03-.06,.06-.07,.06-.23,.02-.29,.31-.4,.5-.01,.02-.03,.05-.02,.08,.03,.24-.08,.44-.11,.66-.07,.39-.19,.46-.44,.34-.03,.15-.06,.31-.09,.46-.05,.21-.03,.4,.1,.55,.03,.04,.06,.08,.09,.13,.09,.13,.13,.26,.1,.44-.05,.26,0,.49,.15,.67,.15,.18,.3,.37,.46,.55,.15,.19,.32,.36,.46,.56,.19,.28,.42,.52,.65,.73,.06,.05,.12,.11,.17,.17,.33,.44,.72,.73,1.12,1.02,.13,.09,.24,.22,.39,.34-.17,.12-.32,.14-.47,.18-.57,.13-1.13,.26-1.7,.4-.29,.07-.58,.15-.88,.24-.25,.07-.23,.08-.29,.4-.04,.21-.02,.41-.02,.62,0,.09,.06,.18,.1,.27,.02,.05,.07,.07,.09,.12,.08,.13,.05,.23-.07,.25-.11,.02-.12,.06-.07,.19,.06-.03,.12-.06,.17-.08,.06,.14,.12,.26,.17,.39,.06,.16,.16,.24,.31,.25-.02,.07-.04,.11-.06,.17,.07,.08,.15,.15,.23,.23-.02,.03-.05,.08-.09,.16,.1,0,.18,0,.26,.02,.13,.02,.27-.08,.38,.1,.02,.03,.08,.01,.12,0,.15-.02,.3-.04,.44-.07,.1-.02,.24,.05,.26-.18,.11-.03,.22-.1,.33-.09,.26,.01,.51-.02,.76-.1,.01,0,.03,0,.04,0-.02-.02-.04-.03-.07-.06,.21-.05,.41-.09,.61-.14,.25-.06,.5-.13,.75-.19,.29-.07,.57-.13,.86-.19,.41-.08,.81-.16,1.22-.23,.08-.01,.17,.01,.25,.05,.32,.17,.63,.35,.94,.55,.18,.12,.35,.19,.55,.2,.25,.02,.51,.09,.76-.09-.05-.16-.03-.36-.14-.5-.02-.02,0-.09,0-.14h0c-.05-.02-.11-.04-.16-.07,0-.01,0-.03,0-.04h.11Z"/>
  <path d="M81.28,47.87c.38-.56,.8-1.07,1.24-1.52,.34-.35,.68-.69,1.01-1.04,.37-.39,.79-.57,1.25-.56,.38,.01,.76,.09,1.14,.14,.16,.02,.31,.05,.46,.08,.25,.05,.5,.12,.74,.27,.35,.21,.71,.3,1.1,.29,.2,0,.39,0,.59,0-.03-.17-.06-.33-.1-.49,0-.04-.03-.09-.06-.12-.22-.19-.41-.43-.68-.5-.53-.15-1.07-.31-1.6-.45-.44-.12-.88-.25-1.33-.23-.32,.01-.63,.04-.95,.1-.23,.04-.45,.15-.68,.19-.48,.09-.91,.4-1.28,.79-.4,.42-.79,.88-1.17,1.34-.22,.26-.44,.52-.63,.81-.32,.47-.64,.95-.78,1.59-.07,.32-.16,.64-.22,.96-.05,.32-.07,.65,.03,.96,.11,.33,.22,.65,.42,.92,.53,.69,1.16,1.07,1.88,1.23,.36,.08,.73,.17,1.07,.25-.02,.24-.06,.48-.07,.72,0,.24,.02,.48,.02,.72,0,.07,0,.13,0,.2-.03,.83-.05,1.67-.09,2.5-.04,.79-.1,1.59-.15,2.38-.03,.41-.05,.82-.08,1.25-.08,.01-.14,.03-.2,.03-.75,.02-1.49-.02-2.23-.17-.24-.05-.49-.09-.74-.13-.14-.03-.22,.07-.23,.27,0,.12-.02,.24-.03,.36-.03,.37-.07,.74-.08,1.11,0,.26,.03,.52,.06,.77,.02,.14,.1,.23,.21,.26,.28,.07,.56,.22,.85,.23,.49,.02,.98,.08,1.47,.12,.67,.05,1.33,.07,2,.15,1.2,.14,2.4,.07,3.6,.01,.15,0,.31,.02,.46,.04,.06,0,.11,.02,.17,.02,.21,.01,.32-.11,.34-.39,.03-.4,0-.79-.07-1.18-.06-.32-.07-.65-.02-.99,.1-.76,.23-1.52,.24-2.3,0-.11,.04-.22,.06-.33,.07-.38,.15-.76,.22-1.14,.05-.31,.1-.62-.04-.91-.04-.08-.04-.18-.06-.27-.05-.29-.09-.58-.14-.87-.06-.29-.13-.58-.2-.87-.03-.13-.08-.26-.12-.39-.03-.11-.06-.22-.11-.37-.04-.04-.11-.07-.19,0-.03,.03-.1,.04-.12,.02-.07-.12-.18-.09-.26-.08-.17,.03-.34,.09-.51,.18-.18,.1-.19,.36-.23,.58-.05,.33-.08,.66-.1,.99-.03,.41-.06,.82-.07,1.23-.02,.8-.03,1.61-.04,2.41,0,0,0,.02,0,.03-.12,.32-.03,.67-.08,1,0,0,0,.02,0,.03-.04,.44-.05,.47-.37,.48-.57,.02-1.14,.03-1.7,.03-.09,0-.18-.02-.28-.04,0-.08,0-.14,0-.19,.05-.84,.09-1.68,.15-2.52,.05-.71,.12-1.41,.17-2.12,.02-.21,.05-.42-.06-.61-.03-.05-.05-.17-.03-.22,.11-.22-.01-.39-.05-.58-.02-.09-.09-.18-.02-.29,.01-.02,.01-.1,0-.11-.14-.07-.03-.29-.15-.4-.04-.04-.02-.21-.03-.36-.05-.06-.1-.12-.18-.21,.09-.03,.15-.06,.2-.08,.94-.18,1.88-.37,2.82-.54,.35-.06,.7-.1,1.06-.15,.16-.03,.32-.07,.48-.1,0-.05,0-.08,0-.1-.03-.08,.08-.11,.03-.23-.11-.23-.16-.5-.34-.65-.06-.05-.16-.03-.24-.05-.19-.05-.39-.11-.58-.16-.03,0-.05-.02-.08-.03-.17-.09-.21-.07-.38,.09-.04,.03-.09,.03-.14,.05-.79,.25-1.59,.36-2.39,.54-.66,.14-1.31,.21-1.96-.03-.42-.15-.8-.39-1.15-.73-.35-.34-.4-.82-.32-1.33"/>
</svg>