<?xml version="1.0" encoding="UTF-8"?>
<svg id="Layer_1" data-name="Layer 1" xmlns="http://www.w3.org/2000/svg" viewBox="0 0 163.49 96.09">
  <defs>
    <style>
      .cls-1 {
        fill: #231f20;
      }
    </style>
  </defs>
  <path class="cls-1" d="M48.12,54.08l.34-.12c.07,0,.13,0,.2,0,1.95,0,3.79,0,5.52,0,1.73,0,3.35,.01,4.85,.03,1.51,.01,2.91,.03,4.19,.04,1.29,.02,2.46,.04,3.53,.06,1.07,.02,2.02,.05,2.87,.08s1.58,.06,2.21,.09c.63,.03,1.14,.07,1.55,.11,.41,.04,.7,.08,.89,.13,.14,.03,.27,.08,.4,.14,.12,.06,.24,.13,.35,.21,.11,.08,.2,.17,.29,.28,.09,.1,.17,.22,.24,.35s.13,.27,.19,.42c.05,.15,.1,.31,.13,.49,.04,.17,.06,.36,.08,.56,.02,.2,.03,.41,.03,.62,0,.51,0,1.05,0,1.62s-.01,1.17-.02,1.81c0,.63-.02,1.3-.03,2-.01,.7-.03,1.43-.04,2.19s-.04,1.55-.06,2.38c-.02,.82-.04,1.68-.07,2.57-.03,.89-.05,1.81-.08,2.76-.03,.95-.06,1.94-.1,2.95-.03,1.02-.07,2-.1,2.95-.03,.95-.06,1.87-.08,2.76-.03,.89-.05,1.74-.07,2.57-.02,.82-.04,1.62-.06,2.38-.02,.76-.03,1.49-.04,2.19s-.02,1.36-.03,2c0,.63-.01,1.24-.02,1.81,0,.57,0,1.11,0,1.62,0,.13,0,.25,.03,.37s.04,.22,.08,.32c.04,.1,.08,.19,.13,.27,.05,.08,.12,.15,.19,.22,.07,.06,.15,.12,.24,.17,.09,.05,.19,.09,.29,.12,.11,.03,.22,.06,.35,.07s.26,.02,.4,.02c.12,0,.24,0,.37,0,.13,0,.27,0,.42,0,.15,0,.3,0,.46-.02s.33-.01,.51-.02c.18,0,.36-.02,.55-.03s.39-.02,.6-.03c.21-.01,.42-.03,.64-.04,.22-.01,.45-.03,.69-.05,.24-.02,.47-.03,.69-.05,.22-.01,.44-.03,.64-.04,.21-.01,.41-.02,.6-.03,.19-.01,.38-.02,.55-.03s.35-.02,.51-.02c.16,0,.32-.01,.46-.02,.15,0,.29,0,.42,0,.13,0,.26,0,.37,0,.11,0,.23,0,.35,0,.12,0,.26,0,.39,0,.14,0,.28,0,.43,.02s.31,.01,.47,.02,.34,.02,.52,.03,.36,.02,.56,.03,.39,.03,.6,.04c.21,.01,.42,.03,.64,.05,.22,.02,.43,.03,.64,.05,.2,.01,.4,.03,.59,.04,.19,.01,.37,.02,.55,.03,.18,.01,.35,.02,.51,.03,.16,0,.32,.02,.46,.02,.15,0,.29,.01,.42,.02,.13,0,.26,0,.38,0,.12,0,.23,0,.34,0,.18,0,.36,0,.52-.02,0,0,.01,0,.02,0,0,0,.01,0,.02,0,.13,.02,.28,.02,.43,.02,.1,0,.22,0,.34,0,.12,0,.24,0,.38,0,.13,0,.27,0,.42-.02s.3-.01,.46-.02c.16,0,.33-.02,.5-.03,.17-.01,.36-.02,.54-.03,.19-.01,.38-.03,.59-.04,.2-.01,.41-.03,.63-.05,.22-.02,.42-.03,.63-.05,.2-.01,.4-.03,.59-.04s.37-.02,.54-.03,.34-.02,.5-.03c.16,0,.31-.02,.46-.02s.29-.01,.42-.02c.13,0,.26,0,.38,0,.12,0,.23,0,.34,0,.13,0,.27,0,.41,0,.14,0,.29,0,.45,.01,.16,0,.32,.01,.5,.02s.35,.02,.54,.03,.38,.03,.58,.04c.2,.02,.41,.03,.62,.05s.44,.04,.67,.06,.47,.05,.71,.07c.24,.03,.48,.05,.71,.07,.23,.02,.45,.04,.66,.06s.42,.04,.62,.05c.2,.02,.39,.03,.57,.04,.18,.01,.36,.02,.53,.03s.33,.02,.48,.02c.15,0,.3,.01,.44,.01s.27,0,.39,0c.15,0,.29-.01,.42-.03,.13-.02,.25-.05,.36-.1s.21-.1,.31-.16c.09-.06,.18-.14,.25-.22,.07-.08,.14-.18,.19-.29,.06-.11,.1-.22,.14-.35,.04-.13,.06-.26,.08-.41s.03-.31,.03-.48c0-.51,0-1.05,0-1.62s0-1.17-.02-1.81c0-.63-.02-1.3-.03-2-.01-.7-.03-1.43-.04-2.19-.02-.76-.03-1.55-.05-2.38s-.04-1.68-.06-2.57-.05-1.81-.08-2.76c-.03-.95-.06-1.94-.09-2.95-.03-1.02-.06-2-.09-2.95-.03-.95-.05-1.87-.08-2.76-.02-.89-.04-1.74-.06-2.57-.02-.82-.04-1.62-.05-2.38-.02-.76-.03-1.49-.04-2.19-.01-.7-.02-1.36-.03-2,0-.63-.01-1.24-.02-1.81,0-.57,0-1.11,0-1.62,0-.18,.02-.35,.05-.51,.03-.16,.09-.31,.16-.46s.16-.28,.26-.4,.23-.24,.36-.34c.14-.1,.29-.2,.47-.28s.36-.16,.57-.23c.21-.07,.43-.12,.68-.17s.5-.09,.78-.11c.1-.01,.25-.02,.44-.03,.19,0,.43-.02,.7-.03,.28,0,.6-.02,.96-.02,.36,0,.77-.01,1.22-.02,.45,0,.94-.01,1.48-.01,.54,0,1.12,0,1.74-.01s1.29,0,2,0,1.46,0,2.26,0c.43,0,.89,0,1.38,0,.49,0,1,0,1.54,.01,.54,0,1.11,.01,1.7,.02,.59,0,1.22,.02,1.87,.03s1.33,.02,2.03,.04,1.43,.03,2.19,.05c.76,.02,1.54,.04,2.36,.05,.81,.02,1.65,.04,2.52,.06,.87,.02,1.71,.04,2.52,.06,.81,.02,1.6,.04,2.35,.06,.76,.02,1.48,.03,2.19,.05,.7,.01,1.37,.03,2.02,.04,.65,.01,1.26,.02,1.86,.03s1.15,.02,1.69,.02c.54,0,1.04,0,1.52,.01,.48,0,.93,0,1.36,0,.13,0,.25,0,.36-.01,.11,0,.22-.02,.32-.04,.1-.02,.19-.04,.27-.06s.15-.05,.22-.09c.06-.03,.12-.07,.17-.11s.09-.09,.12-.14c.03-.05,.06-.11,.07-.16,.02-.06,.02-.12,.02-.19,0-.1,0-.21,0-.32,0-.11,0-.24,0-.36,0-.13,0-.26-.01-.4,0-.14-.01-.29-.02-.44,0-.15-.01-.31-.02-.48,0-.17-.02-.34-.03-.52,0-.18-.02-.37-.03-.56-.01-.19-.02-.39-.03-.6-.01-.21-.02-.4-.04-.6-.01-.19-.02-.38-.03-.56s-.02-.35-.03-.52-.01-.33-.02-.48c0-.15-.01-.3-.02-.44s0-.27-.01-.4c0-.13,0-.25,0-.36,0-.11,0-.22,0-.32,0-.1,0-.2,0-.3,0-.11,0-.22,0-.34s0-.24,.01-.37,.01-.27,.02-.41c0-.14,.02-.29,.03-.44,0-.15,.02-.31,.03-.48,.01-.17,.02-.34,.04-.51,.01-.18,.03-.36,.04-.55,.02-.19,.03-.37,.04-.55,.01-.18,.03-.35,.04-.51,.01-.17,.02-.33,.03-.48s.02-.3,.03-.44c0-.14,.01-.28,.02-.41,0-.13,.01-.26,.01-.38,0-.12,0-.23,0-.34,0-.11,0-.21,0-.31,0-.09,0-.17-.02-.25s-.04-.15-.07-.22c-.03-.07-.07-.13-.12-.19-.05-.06-.11-.11-.17-.15s-.14-.08-.22-.12c-.08-.03-.17-.06-.27-.08-.1-.02-.2-.04-.32-.05-.11-.01-.23-.02-.36-.02-.6,0-1.23,0-1.91,0s-1.39,.02-2.14,.03c-.75,.01-1.54,.03-2.36,.05s-1.69,.04-2.59,.07c-.9,.03-1.84,.05-2.82,.09-.98,.03-1.99,.07-3.05,.1-1.05,.04-2.15,.08-3.28,.12-1.13,.04-2.3,.09-3.5,.14-1.21,.05-2.37,.1-3.5,.14-1.13,.04-2.22,.09-3.28,.12-1.05,.04-2.07,.07-3.05,.1-.98,.03-1.92,.06-2.82,.09-.9,.03-1.77,.05-2.59,.07s-1.61,.03-2.36,.05c-.75,.01-1.46,.02-2.14,.03s-1.31,0-1.91,0c-.18,0-.35-.02-.5-.07-.16-.05-.3-.12-.44-.22-.13-.1-.26-.22-.37-.36-.11-.14-.21-.31-.3-.5-.09-.19-.17-.41-.23-.65s-.12-.5-.17-.79-.08-.6-.1-.93c-.02-.34-.03-.7-.03-1.08V19.37c0-.31,0-.6,.02-.88,.02-.28,.04-.54,.07-.78,.03-.24,.07-.47,.12-.68s.1-.4,.16-.58c.06-.18,.13-.34,.21-.48,.08-.14,.16-.27,.25-.38,.09-.11,.19-.21,.3-.28s.22-.14,.35-.19c.02-.01,.07-.02,.15-.03s.18-.02,.3-.03c.13,0,.28-.02,.46-.03,.18,0,.38-.02,.61-.03,.23,0,.48-.02,.76-.02,.28,0,.58-.02,.91-.02,.33,0,.69-.01,1.07-.02,.38,0,.79-.01,1.22-.02h.68s.68-.02,.68-.02h.68s.68-.02,.68-.02h.68s.68-.02,.68-.02h.68s.68-.02,.68-.02c.56-.01,1.14-.02,1.75-.02,.61,0,1.26,0,1.93,0,.67,0,1.37,0,2.1,.02,.73,0,1.49,.02,2.28,.04,.79,.02,1.61,.04,2.46,.06,.85,.02,1.73,.05,2.63,.08,.91,.03,1.84,.07,2.81,.1,.97,.04,1.96,.08,2.98,.12,1.1,.05,2.16,.1,3.18,.14s2,.09,2.95,.12c.94,.04,1.85,.07,2.72,.1,.87,.03,1.69,.06,2.48,.09s1.54,.05,2.25,.07,1.39,.03,2.02,.05,1.23,.02,1.79,.03c.56,0,1.08,0,1.56,0,.13,0,.25,0,.36-.02,.11-.01,.22-.03,.32-.06,.1-.03,.19-.06,.27-.1,.08-.04,.15-.09,.22-.14,.06-.05,.12-.11,.17-.18s.09-.14,.12-.22c.03-.08,.06-.17,.07-.26,.02-.09,.02-.19,.02-.3,0-.13,0-.28-.01-.45,0-.17-.02-.35-.04-.56-.02-.21-.04-.43-.07-.67-.03-.24-.06-.51-.1-.79s-.08-.58-.12-.9-.1-.66-.15-1.02c-.06-.36-.12-.74-.18-1.13s-.13-.81-.21-1.25c-.03-.31-.06-.61-.09-.9s-.05-.57-.07-.84-.04-.53-.06-.78c-.02-.25-.03-.49-.04-.72s-.02-.45-.03-.66c0-.21-.01-.41-.02-.6,0-.19,0-.37,0-.55,0-.17,0-.33,.01-.49-.03-.2-.07-.39-.13-.57-.06-.18-.13-.34-.21-.49-.08-.15-.18-.28-.28-.4-.11-.12-.23-.23-.36-.32-.13-.09-.28-.17-.44-.24-.16-.07-.33-.12-.51-.16-.18-.04-.38-.06-.59-.07-.21-.01-.43,0-.66,0-1.73,.1-3.42,.2-5.07,.29s-3.26,.17-4.84,.25-3.11,.15-4.61,.22c-1.5,.07-2.96,.13-4.38,.19-1.42,.06-2.81,.11-4.15,.15-1.35,.05-2.65,.08-3.92,.12-1.27,.03-2.5,.06-3.69,.08s-2.35,.04-3.46,.05c-.83,.01-1.66,.02-2.51,.03s-1.7,.01-2.56,.02c-.86,0-1.73,0-2.61,0-.88,0-1.77,0-2.67,0-.9,0-1.8,0-2.72-.01-.92,0-1.84-.01-2.77-.02-.93,0-1.87-.02-2.82-.03-.95-.01-1.91-.03-2.88-.05-.73-.02-1.43-.03-2.07-.05-.65-.01-1.25-.03-1.82-.04-.56-.01-1.08-.02-1.56-.03-.48-.01-.91-.02-1.3-.03-.39,0-.74-.02-1.05-.02s-.57-.01-.79-.02c0,0-.01,0-.02,0-.02-.01-.03-.03-.05-.05-.08-.06-.17-.12-.27-.16-.1-.05-.21-.09-.33-.12-.12-.03-.25-.05-.39-.07s-.29-.02-.45-.02c-.11,0-.23,0-.35,0-.12,0-.26,0-.4,0-.14,0-.28,0-.44,.02s-.31,.01-.48,.02c-.17,0-.34,.02-.52,.03-.18,.01-.37,.02-.56,.03s-.4,.03-.6,.04c-.21,.01-.42,.03-.65,.05-.22,.02-.44,.03-.65,.05-.21,.01-.41,.03-.6,.04s-.38,.02-.56,.03c-.18,.01-.35,.02-.52,.03-.17,0-.33,.02-.48,.02s-.3,.01-.44,.02c-.14,0-.27,0-.4,0-.12,0-.24,0-.35,0-.12,0-.24,0-.37,0-.13,0-.27,0-.41,0-.14,0-.3,0-.45-.02s-.32-.01-.49-.02c-.17,0-.35-.02-.53-.03-.18-.01-.38-.02-.57-.03-.2-.01-.4-.03-.61-.04-.21-.01-.43-.03-.66-.05-.23-.02-.44-.03-.66-.05-.21-.01-.42-.03-.61-.04-.2-.01-.39-.02-.57-.03s-.36-.02-.53-.03-.34-.02-.49-.02c-.16,0-.31-.01-.45-.02-.14,0-.28,0-.41,0-.13,0-.25,0-.37,0-.14,0-.28,0-.4,.02-.12,.01-.24,.04-.35,.06-.11,.03-.2,.06-.29,.11-.09,.04-.17,.09-.24,.15-.07,.06-.13,.12-.19,.19-.05,.07-.1,.15-.13,.23-.04,.08-.06,.18-.08,.27-.02,.1-.03,.2-.03,.32,0,.47,0,.98,0,1.51,0,.53,.01,1.1,.02,1.69s.02,1.22,.03,1.87c.01,.65,.03,1.34,.04,2.05,.02,.71,.04,1.46,.06,2.23,.02,.77,.04,1.58,.07,2.41s.05,1.7,.08,2.59c.03,.89,.06,1.82,.1,2.77,.03,.95,.07,1.88,.1,2.77,.03,.89,.06,1.76,.08,2.59,.03,.83,.05,1.64,.07,2.41,.02,.77,.04,1.52,.06,2.23,.02,.71,.03,1.4,.04,2.05,.01,.65,.02,1.28,.03,1.87,0,.59,.01,1.16,.02,1.69,0,.53,0,1.04,0,1.51,0,.21,0,.41-.03,.59-.02,.19-.04,.36-.08,.53-.04,.16-.08,.32-.13,.46-.05,.14-.12,.28-.19,.4s-.15,.23-.24,.33c-.09,.1-.19,.19-.29,.27-.11,.08-.22,.14-.35,.2s-.26,.1-.4,.13c-.18,.05-.48,.1-.89,.14-.41,.04-.93,.09-1.56,.12-.63,.04-1.38,.07-2.23,.1-.86,.03-1.82,.06-2.9,.09s-2.27,.05-3.57,.07-2.72,.03-4.24,.05c-1.53,.01-3.16,.02-4.91,.03-1.75,0-3.78,.08-5.76,.08l-1.7-.31c-.85-.03-1.59-.07-2.21-.1-.62-.04-1.12-.08-1.51-.12-.39-.04-.66-.09-.81-.14-.13-.03-.25-.08-.36-.12s-.22-.11-.32-.17c-.1-.06-.19-.14-.27-.22s-.15-.17-.22-.26-.12-.2-.17-.31-.09-.23-.12-.36c-.03-.13-.06-.26-.07-.4-.02-.14-.02-.29-.02-.45,0-.48,0-1,0-1.55,0-.55,.01-1.12,.03-1.73,.01-.61,.03-1.24,.04-1.91,.02-.67,.04-1.37,.06-2.1s.05-1.49,.08-2.28c.03-.79,.06-1.61,.1-2.46,.03-.85,.07-1.73,.11-2.64,.04-.91,.08-1.85,.13-2.83s.09-1.92,.13-2.83,.08-1.79,.11-2.64c.03-.85,.07-1.67,.1-2.46,.03-.79,.05-1.55,.08-2.28,.02-.73,.04-1.43,.06-2.1,.02-.67,.03-1.31,.04-1.91,.01-.61,.02-1.18,.03-1.73,0-.55,0-1.06,0-1.55,0-.1,0-.2-.03-.29-.02-.09-.04-.17-.08-.25-.04-.08-.08-.15-.13-.21-.05-.06-.12-.12-.19-.17-.07-.05-.15-.1-.24-.13-.09-.04-.19-.07-.29-.1s-.22-.04-.35-.06c-.12-.01-.26-.02-.4-.02-.11,0-.23,0-.36,0-.13,0-.26,0-.4,0-.14,0-.29,0-.45,.02-.16,0-.32,.01-.49,.02s-.35,.02-.54,.03-.38,.02-.59,.03c-.2,.01-.41,.03-.63,.04-.22,.01-.45,.03-.68,.05-.23,.02-.46,.03-.68,.05-.22,.01-.43,.03-.63,.04s-.4,.02-.59,.03-.37,.02-.54,.03-.34,.02-.49,.02c-.16,0-.31,.01-.45,.02-.14,0-.28,0-.4,0-.13,0-.25,0-.36,0-.12,0-.24,0-.37,0-.13,0-.27,0-.41,0-.15,0-.3,0-.46-.02-.16,0-.32-.01-.5-.02-.17,0-.35-.02-.54-.03-.19-.01-22.14,.42-22.34,.41-.2-.01-.41-.03-.62-.04-.21-.01-.44-.03-.66-.05-.23-.02-.45-.03-.66-.05-.21-.01-.42-.03-.62-.04s-.39-.02-.57-.03c-.18-.01-.36-.02-.53-.03-.17,0-.33-.02-.49-.02-.15,0-.3-.01-.44-.02-.14,0-.27,0-.4,0-.13,0-.24,0-.35,0-.15,0-.3,0-.43,.02-.14,.02-.26,.04-.38,.07-.12,.03-.22,.07-.32,.12-.1,.05-.18,.1-.26,.16-.08,.06-.14,.13-.2,.21-.06,.08-.11,.16-.14,.26-.04,.09-.07,.19-.09,.3-.02,.11-.03,.22-.03,.35,0,.65,0,1.35,.01,2.09s.02,1.51,.04,2.33,.04,1.68,.06,2.58c.02,.9,.05,1.84,.09,2.82,.03,.98,.07,2.01,.11,3.07,.04,1.06,.08,2.17,.13,3.32s.1,2.34,.16,3.56c.06,1.23,.12,2.5,.18,3.81s.13,2.58,.18,3.81c.06,1.23,.11,2.42,.16,3.56,.05,1.15,.09,2.25,.13,3.32s.08,2.09,.11,3.07c.03,.98,.06,1.92,.08,2.83s.04,1.76,.06,2.58c.02,.82,.03,1.6,.04,2.33,0,.74,.01,1.43,.01,2.09s0,1.28-.01,1.98c0,.7-.02,1.44-.04,2.21-.02,.78-.04,1.59-.06,2.45s-.05,1.75-.08,2.68c-.03,.93-.07,1.9-.11,2.91s-.09,2.06-.13,3.15c-.05,1.09-.1,2.21-.16,3.38-.06,1.17-.12,2.37-.18,3.61-.06,1.24-.13,2.45-.18,3.61-.06,1.17-.11,2.29-.16,3.38-.05,1.09-.09,2.14-.13,3.15-.04,1.01-.08,1.98-.11,2.91-.03,.93-.06,1.83-.09,2.68-.02,.85-.04,1.67-.06,2.45-.02,.78-.03,1.51-.04,2.21s-.01,1.36-.01,1.98c0,.13,0,.25,.03,.37,.02,.11,.05,.22,.09,.32,.04,.1,.09,.19,.14,.27s.13,.15,.2,.22c.08,.06,.16,.12,.26,.17,.1,.05,.2,.09,.32,.12,.12,.03,.24,.06,.38,.07,.13,.02,.28,.02,.43,.02,.11,0,.23,0,.35,0,.12,0,.26,0,.39,0,.14,0,.28,0,.43-.02,.15,0,.31-.01,.47-.02,.16,0,.34-.02,.52-.03s.36-.02,.56-.03,.39-.03,.6-.04c.21-.01,.42-.03,.64-.05,.22-.02,.43-.03,.64-.05,.21-.01,.4-.03,.6-.04s.38-.02,.56-.03c.18-.01,22.11-.47,22.28-.48,.17,0,.32-.02,.47-.02,.15,0,.3-.01,.43-.02,.14,0,.27,0,.39,0,.12,0,.24,0,.35,0,.12,0,.24,0,.37,0,.13,0,.27,0,.42,0,.15,0,.3,0,.46,.02,.16,0,.33,.01,.51,.02s.36,.02,.55,.03c.19,.01,.39,.02,.59,.03,.21,.01,.42,.03,.64,.04,.22,.01,.45,.03,.68,.05,.23,.02,.46,.03,.68,.05,.22,.01,.43,.03,.64,.04,.21,.01,.4,.02,.59,.03,.19,.01,.37,.02,.55,.03s.34,.02,.51,.02c.16,0,.32,.01,.46,.02,.15,0,.29,0,.42,0,.13,0,.26,0,.37,0,.15,0,.3-.01,.43-.03s.26-.06,.38-.1c.12-.05,.22-.1,.32-.17,.1-.07,.18-.15,.26-.24,.08-.09,.14-.2,.2-.31s.11-.24,.14-.38,.07-.29,.09-.45c.02-.16,.03-.34,.03-.52,0-.5,0-1.02,0-1.58s0-1.15-.02-1.77-.02-1.27-.03-1.96c-.01-.68-.03-1.4-.04-2.15s-.03-1.53-.05-2.34c-.02-.81-.04-1.65-.06-2.52-.02-.87-.05-1.78-.08-2.71s-.06-1.9-.09-2.9c-.03-1-.06-1.97-.09-2.9-.03-.94-.05-1.84-.08-2.71-.02-.87-.04-1.71-.06-2.52-.02-.81-.04-1.59-.05-2.34s-.03-1.46-.04-2.15c-.01-.68-.02-1.34-.03-1.96,0-.62-.01-1.21-.02-1.77,0-.56,0-1.09,0-1.58,0-.22,0-.43,.03-.62,.02-.2,.04-.38,.08-.56,.03-.17,.08-.34,.13-.49,.05-.15,.11-.29,.18-.42,.07-.13,.14-.24,.23-.35,.08-.1,.18-.2,.28-.28,.1-.08,.21-.15,.33-.21,.12-.06,.25-.1,.38-.14,.19-.04,.49-.09,.9-.13,.41-.04,.93-.08,1.56-.11,.63-.03,1.37-.06,2.22-.09"/>
</svg>