<?xml version="1.0" encoding="UTF-8"?>
<svg id="Layer_1" data-name="Layer 1" xmlns="http://www.w3.org/2000/svg" viewBox="0 0 141.7323 95.849046">
  <defs>
    <style>
      .cls-1 {
        fill: #231f20;
      }
    </style>
  </defs>
  <path class="cls-1" d="M141.718384,14.120225c-.009216-.167664-.023132-.354431-.041626-.560181-.018494-.205811-.041626-.430603-.069397-.6745-.02771-.243896-.06012-.506775-.097107-.788757s-.078613-.583008-.124878-.903076-.097168-.659241-.152649-1.017395c-.055542-.358154-.115662-.735413-.18042-1.131653s-.134155-.811584-.20813-1.245911c-.031067-.31012-.059692-.610413-.085999-.900818s-.050293-.570984-.071899-.841675-.040894-.531555-.0578-.782532c-.016968-.250977-.031616-.492126-.043884-.723389s-.022278-.452637-.029907-.664185c-.00769-.211487-.013-.413147-.016052-.604919-.002991-.191772-.003723-.373718-.002136-.545715,.001587-.172058,.005432-.334229,.011597-.486511-.031006-.203003-.074707-.392334-.131042-.567871-.056396-.175537-.125427-.337341-.207214-.485352-.081726-.148071-.176208-.282349-.283325-.402954-.107178-.120544-.22699-.227356-.359558-.320374-.132568-.093079-.277832-.172424-.435852-.237976-.157959-.065552-.328674-.117371-.512085-.155457-.183472-.038025-.379639-.062378-.588501-.072937-.208923-.010559-.430542-.007385-.664917,.009521-1.726929,.101501-3.41571,.197388-5.066345,.287659s-3.263123,.174866-4.837463,.253845-3.110535,.152344-4.608521,.220032c-1.498047,.067688-2.957886,.129761-4.379517,.186218-1.421692,.056396-2.805237,.107178-4.150513,.152283-1.345337,.045166-2.652466,.084595-3.921448,.118469-1.268921,.033813-2.499695,.061951-3.692261,.084473s-2.346924,.039368-3.463135,.050598c-.826599,.011353-1.662109,.020935-2.506409,.028748s-1.69751,.013794-2.559509,.018066c-.862,.004211-1.732849,.006714-2.612549,.007385-.8797,.000732-1.76825-.000366-2.665588-.003174-.8974-.002869-1.80365-.007507-2.71875-.013855-.915039-.006348-1.838989-.014526-2.771729-.024414-.9328-.009888-1.87439-.021545-2.824829-.034912-.950439-.013428-1.909729-.028625-2.87793-.045532-.73407-.016907-1.425354-.032776-2.073853-.047607-.648438-.014771-1.254089-.028503-1.816895-.041199-.562866-.012695-1.082886-.024353-1.560059-.034912-.477234-.010559-.911621-.020081-1.303223-.028564-.391602-.008423-.740356-.015869-1.046387-.022217s-.569214-.011597-.789673-.015869c-.007996-.000183-.013794-.000305-.021729-.000427-.016602-.014343-.028503-.032227-.046082-.045837-.0802-.062073-.17041-.116394-.27063-.162903-.10022-.04657-.210449-.085388-.33075-.116394-.120239-.031067-.250549-.054382-.390869-.069885s-.290649-.023315-.450989-.023315c-.111023,0-.229004,.001099-.353882,.003174-.124878,.002136-.256714,.00531-.395508,.009521-.138733,.004272-.284485,.009521-.437134,.015869s-.312195,.013733-.47876,.022217c-.166504,.008484-.339966,.018005-.520386,.028564-.180359,.010559-.367737,.022217-.562012,.034912s-.395508,.026428-.603638,.041199c-.208191,.014832-.423279,.030701-.645264,.047607-.222046,.016907-.437134,.032776-.645325,.047607-.20813,.014771-.409363,.028503-.603638,.041199s-.381653,.024353-.562012,.034912c-.18042,.010559-.353882,.020081-.520386,.028564-.166565,.008484-.326111,.015869-.47876,.022217s-.298401,.011597-.437134,.015869c-.138794,.004211-.27063,.007385-.395508,.009521-.124878,.002075-.242859,.003174-.353882,.003174-.117188,0-.241089-.001099-.371765-.003174-.130676-.002136-.268127-.00531-.412292-.009521-.144165-.004272-.295105-.009521-.452759-.015869s-.322021-.013733-.493164-.022217c-.171204-.008484-.34906-.018005-.533691-.028564-.184692-.010559-.376038-.022217-.574219-.034912-.19812-.012695-.403015-.026428-.614624-.041199-.211609-.014832-.429993-.030701-.65509-.047607-.225281-.016907-.443848-.032776-.655579-.047607-.211731-.014771-.416748-.028503-.61499-.041199-.198181-.012695-.389648-.024353-.574341-.034912s-.36261-.020081-.533752-.028564-.33551-.015869-.493164-.022217c-.157593-.006348-.308472-.011597-.452515-.015869-.144104-.004211-.281433-.007385-.411987-.009521-.130493-.002075-.254272-.003174-.371338-.003174-.142029,0-.275146,.00708-.399353,.021179-.124207,.01416-.239502,.035278-.345947,.063538-.106445,.028198-.203918,.063477-.292603,.105835-.088623,.042297-.168396,.091675-.239258,.148132-.070923,.056396-.132935,.119873-.186035,.190369-.053162,.070496-.097412,.148071-.132812,.232605-.035461,.084595-.062012,.176208-.079712,.274902-.0177,.098633-.026489,.204346-.026489,.317078,0,.473755,.002075,.977478,.006348,1.511169,.004211,.533691,.010559,1.097351,.019043,1.690979s.019104,1.217224,.031799,1.870728c.012756,.653564,.027588,1.337036,.044556,2.050537,.016968,.71344,.036011,1.456848,.057251,2.230225,.021179,.773315,.044495,1.576599,.069946,2.409851s.052979,1.696472,.082703,2.5896c.029663,.893127,.061462,1.816162,.095398,2.769165,.033752,.953308,.06543,1.876587,.095032,2.769897,.029541,.893311,.057068,1.756653,.082458,2.589966,.025452,.833374,.048767,1.636719,.069946,2.410095,.02124,.773315,.040344,1.516724,.057312,2.230164,.017029,.713379,.031921,1.396851,.044678,2.050293,.012817,.653503,.023438,1.277039,.031982,1.870544,.008545,.593567,.014954,1.157166,.019226,1.690857,.004272,.53363,.006409,1.037292,.006409,1.511047,0,.208862-.00885,.406738-.026611,.593628-.0177,.18689-.044312,.362854-.079773,.527893-.035461,.164978-.079773,.319031-.132996,.462097-.053162,.143127-.115234,.275269-.186157,.396484s-.150757,.231506-.23938,.330872c-.088684,.099365-.186218,.187805-.292603,.265259-.106384,.077515-.221619,.144104-.345764,.199768s-.257141,.100403-.398987,.134216c-.184998,.050781-.481812,.098389-.890442,.142761-.408569,.044434-.928955,.085693-1.561157,.123779-.632202,.038025-1.37616,.072937-2.231934,.104675-.855713,.031738-1.823242,.060242-2.902588,.085632s-2.270447,.047607-3.573364,.06665-2.71759,.034912-4.24408,.047546c-1.526489,.012695-3.164795,.022217-4.914795,.028564-1.750061,.006348-3.611938,.009521-5.585571,.009521-2.016907,0-3.917358-.003174-5.701477-.009521-1.784058-.006348-3.451721-.015869-5.002991-.028564-1.55127-.012634-2.986084-.028503-4.304504-.047546s17.128235-.04126,16.042664-.06665-2.054688-.053894-2.90741-.085632-1.588928-.06665-2.208801-.104675c-.619812-.038086-1.123169-.079346-1.510071-.123779-.386963-.044373-.65741-.09198-.811462-.142761-.129517-.033813-.250916-.075378-.364258-.124695s-.218567-.106384-.315674-.171204c-.097168-.064819-.186218-.13739-.267151-.217712s-.153809-.168396-.218567-.264221-.121399-.199402-.169983-.310791-.08905-.23053-.12146-.357483c-.032349-.126892-.056641-.261597-.072815-.404114-.016235-.142517-.024292-.292786-.024292-.450867,0-.484863,.002869-1.000305,.008667-1.546204,.005798-.545959,.014465-1.122375,.026001-1.72937,.011597-.606995,.026062-1.244446,.043396-1.912476,.017334-.667969,.037537-1.366455,.060669-2.095459s.049194-1.488525,.078064-2.278503c.028931-.790039,.06073-1.610474,.095398-2.461487,.034729-.850952,.072327-1.732422,.112793-2.644348,.040466-.911987,.083801-1.85437,.130066-2.827271s.089661-1.915283,.130127-2.827148,.078064-1.793274,.112732-2.644104c.034729-.850891,.066528-1.671265,.095398-2.461182,.028931-.789856,.054932-1.549255,.078064-2.278137,.023132-.728943,.043396-1.427368,.06073-2.095276,.017334-.667969,.031799-1.30542,.043335-1.912415,.011597-.606934,.020264-1.183472,.026062-1.729492,.005737-.546082,.008667-1.061646,.008667-1.546753,0-.101501-.00885-.196716-.026611-.285522-.0177-.088806-.044312-.171326-.079773-.247437-.035461-.076172-.079834-.145935-.132996-.209412-.053223-.063416-.115295-.120544-.186218-.171326-.070923-.05072-.150696-.095154-.23938-.13324-.088623-.038086-.186157-.069763-.292542-.095154s-.22168-.044434-.345764-.057129c-.124146-.012695-.257141-.019043-.398987-.019043-.111023,0-.229736,.001099-.356201,.003174-.126465,.002136-.26062,.00531-.402527,.009521-.141846,.004272-.291443,.009521-.448792,.015869-.157288,.006348-.322266,.013733-.494995,.022217s-.353149,.018005-.54126,.028564-.383911,.022217-.587463,.034912c-.203491,.012695-.414734,.026428-.633606,.041199-.218933,.014832-.445496,.030701-.67981,.047607-.234436,.016907-.461182,.032776-.680176,.047607-.218994,.014771-.430237,.028503-.633789,.041199s-.399353,.024353-.587463,.034912-.36853,.020081-.541199,.028564-.337585,.015869-.494873,.022217c-.157227,.006348-.306763,.011597-.448608,.015869-.141785,.004211-.27594,.007385-.402344,.009521-.126404,.002075-.245117,.003174-.35614,.003174-.11731,0-.241516-.001099-.37262-.003174-.131104-.002136-.269165-.00531-.414124-.009521-.14502-.004272-.296936-.009521-.45575-.015869-.158875-.006348-.324585-.013733-.497314-.022217-.172668-.008484-.352295-.018005-.538879-.028564-.186523-.010559-.380005-.022217-.580383-.034912-.200439-.012695-.407776-.026428-.622009-.041199-.214294-.014832-.435425-.030701-.663574-.047607-.228271-.016907-.449219-.032776-.662842-.047607-.213562-.014771-.419861-.028503-.618774-.041199s-.390503-.024353-.574768-.034912c-.184204-.010559-.361145-.020081-.530762-.028564-.169556-.008484-.331787-.015869-.486755-.022217-.154907-.006348-.302551-.011597-.44281-.015869-.14032-.004211-.273254-.007385-.398926-.009521-.12561-.002075-.243958-.003174-.35498-.003174-.154297,0-.298889,.007812-.433838,.023315-.13501,.015503-.260315,.038818-.375977,.069885-.115601,.031006-.221619,.069824-.317993,.116394-.096375,.046509-.183105,.10083-.260132,.162903-.077087,.062073-.144531,.131897-.202332,.209412-.0578,.077576-.105957,.162842-.14447,.25592-.038513,.093018-.067383,.193848-.08667,.302368-.019226,.108521-.02887,.224792-.02887,.348755,0,.654358,.004028,1.34967,.012146,2.08606s.020264,1.513855,.036438,2.332336,.036438,1.677979,.060669,2.578613c.024292,.900574,.052673,1.842224,.085022,2.82489,.03241,.982727,.068787,2.00647,.109314,3.071289,.040466,1.06488,.084961,2.170776,.133545,3.317749s.101196,2.335022,.157837,3.564148c.056702,1.229126,.117371,2.499329,.182129,3.810608s.125488,2.581543,.182129,3.81073c.056702,1.229187,.109314,2.417297,.157898,3.564392,.048523,1.147034,.093079,2.253052,.133545,3.317993s.076904,2.088867,.109314,3.071655c.032349,.982788,.060669,1.9245,.084961,2.825134s.044556,1.760254,.06073,2.578674c.016174,.818481,.02832,1.595886,.036438,2.332153,.008057,.736267,.012146,1.431458,.012146,2.08551,0,.620605-.004089,1.280029-.012146,1.978394-.008118,.698425-.020264,1.43573-.036438,2.211914-.016174,.776245-.036438,1.591431-.06073,2.445496s-.052612,1.747131-.084961,2.679077c-.03241,.931946-.068848,1.902893-.109314,2.91272s-.085022,2.058655-.133545,3.146423c-.048584,1.087769-.101196,2.214478-.157898,3.380127-.056641,1.165649-.117371,2.3703-.182129,3.613953-.064758,1.243591-.125427,2.448242-.182129,3.613953-.056641,1.16571-.109253,2.29248-.157837,3.380249-.048584,1.08783-.093079,2.136658-.133545,3.146606-.040527,1.009888-.076904,1.980835-.109314,2.912842-.032349,.932007-.06073,1.825073-.085022,2.679138-.024231,.854126-.044495,1.66925-.060669,2.445435-.016174,.776245-.02832,1.513489-.036438,2.211792s-.012146,1.357605-.012146,1.978027c0,.129883,.009644,.251587,.02887,.365173,.019287,.113586,.048157,.219055,.08667,.316345,.038513,.097351,.08667,.186523,.14447,.267578s.125244,.153992,.202332,.218811c.077026,.064819,.163757,.121521,.260132,.170105,.096375,.048645,.202393,.089111,.317993,.12146,.115662,.03241,.240967,.056702,.375977,.072876,.134949,.016174,.279541,.024292,.433838,.024292,.111023,0,.22876-.001099,.353271-.003174,.124451-.002136,.255737-.00531,.393677-.009521,.138-.004272,.282715-.009521,.434143-.015869,.151489-.006348,.309692-.013733,.47467-.022217,.164917-.008484,.33667-.018005,.515137-.028564s.363708-.022217,.555664-.034912,.390747-.026428,.596252-.041199c.205505-.014832,.417725-.030701,.63678-.047607,.218872-.016907,.43103-.032776,.636414-.047607,.205444-.014771,.404114-.028503,.596069-.041199s.377136-.024353,.555664-.034912c.178467-.010559,.35022-.020081,.515198-.028564,.165039-.008484,.323303-.015869,.474792-.022217,.15155-.006348,.296326-.011597,.434326-.015869,.138-.004211,.269287-.007385,.39386-.009521,.124512-.002075,.242249-.003174,.353271-.003174,.117126,0,.241577,.001099,.373291,.003174,.131775,.002136,.270874,.00531,.417358,.009521,.146423,.004272,.300171,.009521,.461304,.015869,.161072,.006348,.329529,.013733,.50531,.022217s.358887,.018005,.549316,.028564c.190491,.010559,.388245,.022217,.593384,.034912,.205078,.012695,.417542,.026428,.637329,.041199,.219788,.014832,.446899,.030701,.681396,.047607,.234253,.016907,.461243,.032776,.680908,.047607,.219604,.014771,.431946,.028503,.637024,.041199,.205017,.012695,.40271,.024353,.59314,.034912,.190369,.010559,.373474,.020081,.549255,.028564s.344238,.015869,.505371,.022217c.161194,.006348,.315002,.011597,.461548,.015869,.146484,.004211,.285706,.007385,.417603,.009521,.131897,.002075,.25647,.003174,.373779,.003174,.153992,0,.298401-.011658,.433228-.034912s.260071-.058167,.375671-.104675c.115601-.04657,.221619-.104736,.317993-.1745,.096375-.069824,.183167-.151245,.260315-.244324,.077087-.093018,.144653-.197693,.202515-.314026s.10614-.244324,.144714-.383911,.067566-.290771,.086853-.453613c.019348-.162903,.028992-.337341,.028992-.523499,0-.496155-.001953-1.023743-.005798-1.582703s-.009644-1.149353-.017334-1.771118-.017334-1.274963-.028931-1.959534c-.011536-.684509-.025024-1.400513-.040466-2.147827s-.032776-1.526062-.052063-2.336121c-.019226-.81012-.040466-1.65155-.063599-2.524414-.023132-.872803-.048157-1.777039-.075134-2.712585s-.055908-1.902466-.086731-2.900757c-.031006-.99823-.060059-1.965149-.087158-2.900635-.027039-.935486-.052185-1.8396-.075317-2.712341-.023193-.872742-.044373-1.714111-.06366-2.524048-.019226-.809998-.03656-1.588623-.051941-2.335876s-.028809-1.463135-.040344-2.147705c-.011475-.684509-.021057-1.337708-.028687-1.959534-.00769-.621826-.013428-1.212341-.017212-1.771484-.003845-.559143-.005737-1.086914-.005737-1.583435,0-.21991,.008484-.428284,.025452-.624939,.016968-.196716,.042358-.381775,.076294-.555176,.033936-.173462,.076355-.335266,.127197-.485413,.050903-.150146,.110291-.288696,.178101-.415588,.067871-.126892,.144165-.242188,.229004-.345825,.084778-.103638,.17804-.195618,.279846-.276001,.101746-.080322,.211975-.149109,.33075-.206177,.118713-.057129,.245911-.1026,.381592-.136414,.19104-.044983,.491577-.087158,.901611-.126526,.410034-.039429,.929626-.07605,1.558716-.109863,.629028-.033813,1.367615-.064819,2.215698-.093018s1.805664-.053589,2.872681-.076233c1.067078-.022583-17.404968-.042358-16.118958-.059326s2.68158-.031128,4.186523-.04248c1.505005-.011292,3.119507-.019836,4.843445-.025513s3.557373-.008484,5.500244-.008484c1.948792,0,3.787415,.002808,5.515747,.008484,1.728394,.005676,3.346558,.014221,4.854492,.025513,1.507935,.011353,2.905701,.025513,4.193176,.04248,1.287537,.016968,2.464783,.036743,3.53186,.059326,1.067017,.022644,2.023804,.048035,2.870361,.076233s1.582886,.059204,2.208984,.093018c.626038,.033813,1.141846,.070435,1.547424,.109863,.405518,.039368,.700806,.081543,.885864,.126526,.141846,.033813,.274841,.079285,.398987,.136414,.124084,.057068,.23938,.125854,.345764,.206177,.106384,.080383,.203918,.172363,.292542,.276001,.088684,.103638,.168457,.218933,.23938,.345825s.132996,.265442,.186218,.415588c.053162,.150146,.097534,.311951,.132996,.485413,.035461,.173401,.062012,.358459,.079773,.555176,.0177,.196655,.026611,.405029,.026611,.624939,0,.507629-.002136,1.046936-.006409,1.617981s-.010681,1.173828-.019226,1.808289c-.008545,.634521-.019226,1.30072-.031982,1.998657-.012756,.697998-.027649,1.427612-.044678,2.189026s-.036133,1.554504-.057312,2.379395c-.02124,.824829-.044556,1.681396-.069946,2.569702-.025452,.888245-.052917,1.808289-.08252,2.76001-.029602,.951782-.061279,1.935242-.095032,2.950439-.033875,1.015198-.065674,1.998657-.095398,2.950378-.029663,.951721-.057251,1.871765-.082642,2.760071-.025452,.888245-.048767,1.744812-.070007,2.569702-.021179,.824829-.040283,1.61792-.057251,2.379333-.016907,.761414-.031799,1.491089-.044495,2.189026s-.023315,1.364136-.031799,1.998657c-.008484,.63446-.014832,1.237244-.019104,1.808289-.004211,.571045-.006348,1.110352-.006348,1.617981,0,.129883,.00885,.251587,.02655,.365173s.04425,.219055,.079651,.316345c.0354,.097351,.079712,.186523,.132812,.267578,.053162,.081055,.115173,.153992,.186035,.218811,.070923,.064819,.150635,.121521,.239319,.170105,.088623,.048645,.186157,.089111,.292603,.12146,.106384,.03241,.221741,.056702,.345947,.072876s.257324,.024292,.399353,.024292c.117004,0,.241577-.001099,.373718-.003174,.132141-.002136,.27179-.00531,.419006-.009521,.147217-.004272,.302002-.009521,.464294-.015869s.332153-.013733,.50946-.022217c.177368-.008484,.362305-.018005,.554688-.028564s.392334-.022217,.599792-.034912c.207397-.012695,.422363-.026428,.644836-.041199,.222412-.014832,.452393-.030701,.68988-.047607,.237244-.016907,.467041-.032776,.689392-.047607,.22229-.014771,.437134-.028503,.644531-.041199,.207336-.012695,.407227-.024353,.599548-.034912,.192383-.010559,.377258-.020081,.554626-.028564s.347229-.015869,.509521-.022217c.162354-.006348,.3172-.011597,.464478-.015869,.147339-.004211,.287109-.007385,.419373-.009521,.132263-.002075,.256958-.003174,.374146-.003174,.111023,0,.22876,.001099,.353271,.003174,.124512,.002136,.255798,.00531,.393799,.009521,.138,.004272,.282715,.009521,.434204,.015869s.309753,.013733,.474731,.022217,.336731,.018005,.515198,.028564,.363708,.022217,.555664,.034912,.390686,.026428,.59613,.041199c.205444,.014832,.417664,.030701,.636597,.047607,.218811,.016907,.430481,.032776,.63501,.047607,.20459,.014771,.402039,.028503,.592346,.041199,.190369,.012695,.373596,.024353,.549683,.034912,.176147,.010559,.345154,.020081,.507019,.028564,.161926,.008484,.316711,.015869,.464417,.022217,.147644,.006348,.288208,.011597,.421692,.015869,.133484,.004211,.259827,.007385,.379028,.009521,.119263,.002075,.231384,.003174,.336426,.003174,.184998,0,.358459-.008118,.520386-.024292,.007385-.000732,.013245-.002502,.020569-.003296,.00824,.001038,.014832,.003296,.023132,.004272,.134949,.015503,.27948,.023315,.433655,.023315,.104858,0,.216614-.001099,.335327-.003174,.118713-.002136,.244324-.00531,.376892-.009521,.132507-.004272,.272034-.009521,.418457-.015869s.299744-.013733,.460083-.022217c.160278-.008484,.327576-.018005,.50177-.028564,.174255-.010559,.355408-.022217,.543579-.034912,.18811-.012695,.38324-.026428,.585327-.041199,.202087-.014832,.411133-.030701,.627197-.047607,.21582-.016907,.424744-.032776,.626709-.047607,.201965-.014771,.396973-.028503,.585022-.041199s.369141-.024353,.543335-.034912,.341431-.020081,.50177-.028564c.160278-.008484,.31366-.015869,.460144-.022217s.286011-.011597,.41864-.015869c.132629-.004211,.258362-.007385,.377197-.009521,.118835-.002075,.230713-.003174,.335754-.003174,.129517,0,.266113,.001587,.409912,.004761,.143738,.003174,.294617,.007935,.452576,.014282,.15802,.006348,.32312,.014282,.495361,.023804s.351624,.02063,.538147,.033325,.380188,.026978,.581055,.042847c.200806,.015808,.408752,.033264,.623901,.052307s.437439,.039673,.66687,.06189,.466064,.045959,.709839,.07135c.243652,.025391,.479736,.049194,.708252,.071411,.228577,.022217,.449585,.042786,.663086,.061829s.419495,.036499,.61792,.052368c.198486,.015869,.389465,.030151,.572876,.042847,.183472,.012695,.359375,.023743,.527832,.033264s.329346,.017456,.482849,.023804c.153442,.006348,.299377,.011108,.437866,.014282s.26947,.004761,.393005,.004761c.14801,0,.286804-.010559,.416321-.031738,.129517-.021118,.249756-.052856,.360779-.095154s.21283-.095154,.305298-.15863c.092529-.063416,.175781-.137451,.249817-.222046,.073975-.084595,.138733-.17981,.194275-.285522,.055481-.105774,.101746-.222107,.138733-.348999,.037048-.126892,.064819-.264343,.083313-.412415s.02771-.306702,.02771-.475891c0-.507568-.001892-1.046875-.005737-1.61792s-.009644-1.173828-.017395-1.80835c-.00769-.63446-.017334-1.30072-.02887-1.998657-.011597-.697937-.025085-1.427612-.040466-2.188965-.015442-.761414-.032776-1.554565-.052063-2.379395s-.040466-1.681396-.063599-2.569702-.048218-1.808289-.075195-2.76001c-.026978-.951782-.055847-1.935242-.086731-2.950439-.031006-1.015198-.059998-1.998657-.087097-2.950378-.0271-.951782-.052185-1.871765-.075378-2.760071-.023132-.888306-.044373-1.744873-.063599-2.569702-.019287-.824829-.03656-1.617981-.051941-2.379333-.015381-.761414-.028809-1.491089-.040344-2.189026-.011475-.697937-.021057-1.364136-.028748-1.998657-.007629-.634521-.013367-1.237244-.017212-1.808289-.003784-.571045-.005737-1.110413-.005737-1.617981,0-.180298,.017395-.351135,.052063-.512451,.034668-.161377,.086731-.313171,.156128-.455505s.156128-.275146,.260193-.398499,.225525-.237183,.364258-.341492c.138794-.10437,.294922-.199219,.468384-.284546s.364258-.161194,.572388-.227539c.208191-.066345,.433655-.123169,.676514-.170532s.503052-.085205,.780579-.113586c.104858-.011108,.252869-.021545,.444092-.031372,.191223-.009766,.425537-.01886,.703125-.027283,.277527-.008484,.598267-.016235,.962158-.023254,.363831-.00708,.770935-.013428,1.22113-.019104,.450256-.005676,.943665-.010681,1.480225-.014954,.536621-.004272,1.116394-.007874,1.739319-.010742s1.289001-.005005,1.998291-.00647,1.461731-.002197,2.257324-.002197c.43158,0,.89032,.001465,1.376343,.004333,.485962,.002808,.999207,.00708,1.539612,.012817,.540405,.005676,1.107971,.012756,1.70282,.021301,.594788,.008484,1.216797,.018433,1.865967,.029724s1.325562,.024048,2.029114,.038147,1.434265,.029602,2.192139,.046509c.757935,.016907,1.542969,.035156,2.355225,.05481,.812195,.019653,1.651611,.04071,2.518188,.06311,.866333,.022705,1.7052,.044006,2.516541,.063782,.81134,.019836,1.595154,.038208,2.35144,.055176,.756226,.016968,1.484985,.032471,2.186157,.04657,.701233,.014099,1.374878,.026733,2.020935,.037964,.646118,.01123,1.264648,.021057,1.855652,.02948s1.154419,.015381,1.690308,.020996c.535828,.005615,1.044128,.009766,1.524841,.012573,.480774,.002808,.933899,.00415,1.359436,.00415,.129578,0,.250977-.004211,.364319-.012695,.113342-.008423,.218567-.021118,.315674-.038025,.097168-.016968,.186218-.038086,.267151-.063477s.153809-.054993,.218567-.088806c.064758-.033875,.121399-.071899,.169983-.114197s.08905-.088867,.12146-.139587c.032349-.050781,.056641-.105774,.072815-.164978,.016174-.059265,.024292-.122681,.024292-.190369,0-.101501-.000793-.209534-.002319-.324097-.001526-.114502-.003845-.235535-.006897-.363098-.003113-.127563-.006958-.261597-.011597-.402222-.004639-.140564-.01001-.28772-.016174-.441345-.006165-.153687-.013123-.313843-.020813-.480591-.007751-.166687-.016235-.339966-.025452-.519775-.009277-.179749-.019287-.36615-.03009-.559021-.010803-.192932-.022339-.392334-.034668-.598389-.012512-.205688-.024231-.404907-.035095-.597656-.010864-.192688-.020996-.378967-.030273-.558716s-.017761-.352966-.025452-.519714-.014587-.326965-.020691-.480713c-.006165-.153748-.011475-.300964-.016052-.44165s-.008362-.274841-.011414-.402527c-.003052-.127625-.00531-.248779-.006775-.363342-.001526-.114624-.002258-.222656-.002258-.324219,0-.095703,.000916-.197266,.002869-.304626,.001953-.107422,.004822-.220642,.008667-.339722s.008667-.243958,.014465-.374695,.012512-.267334,.020264-.409729c.00769-.142395,.016357-.290649,.026001-.444702,.009644-.154114,.020203-.314026,.031799-.479797,.011536-.16571,.024109-.337341,.037598-.514771,.013489-.177368,.027954-.360657,.043335-.549744,.015259-.188782,.029602-.371765,.042969-.54895,.013428-.177185,.025879-.348572,.037415-.51416,.011536-.165649,.022156-.325439,.031799-.479431s.018311-.302185,.026062-.44458c.007751-.142456,.014587-.279053,.020386-.409851,.005859-.130859,.010742-.255859,.014648-.375061,.003906-.119263,.006836-.232666,.008789-.340271,.002014-.107666,.002991-.209473,.002991-.305542,0-.090027-.008118-.174561-.024292-.253418s-.040466-.152161-.072876-.219788c-.032349-.067627-.072876-.1297-.121399-.186096-.048584-.056396-.105225-.107178-.169983-.152344s-.137634-.084717-.218567-.118591c-.080994-.033875-.170044-.062134-.267151-.084778-.097168-.022583-.202393-.039551-.315735-.050842-.113281-.011353-.234741-.016968-.364258-.016968-.598267,0-1.234497,.003174-1.908691,.009521s-1.386353,.015869-2.136475,.028503c-.750122,.012695-1.538269,.028564-2.364319,.047607s-1.690125,.04126-2.592163,.06665c-.901978,.02533-1.84198,.053894-2.819885,.085632-.977966,.031738-1.993896,.06665-3.047791,.104675-1.053894,.038086-2.145752,.079346-3.275574,.123718-1.129822,.044434-2.297607,.092041-3.503418,.142761-1.205933,.050781-2.37384,.098389-3.503845,.142761-1.129944,.044434-2.221924,.085693-3.275879,.123779-1.053955,.038025-2.069946,.072937-3.047974,.104675-.977966,.031738-1.917969,.060242-2.820007,.085632-.901978,.025391-1.765991,.047607-2.592041,.06665s-1.614075,.034912-2.364136,.047546c-.750061,.012695-1.462097,.022217-2.136169,.028564s-1.31012,.009521-1.908203,.009521c-.179077,0-.346863-.023926-.503479-.071838-.156555-.047913-.301941-.119812-.436157-.215637-.134155-.095825-.257141-.215576-.368896-.359375-.111816-.143738-.212341-.311523-.301758-.503235-.089355-.191711-.167603-.40741-.234619-.647095s-.122803-.503357-.16748-.791016-.078186-.599304-.100464-.934998c-.022339-.335632-.033508-.695312-.033508-1.078979V19.371262c0-.309998,.00769-.603516,.023071-.880432,.015381-.276978,.038452-.537354,.069275-.781189,.030762-.243896,.069275-.471191,.115479-.681946s.100098-.404968,.161743-.582581c.061646-.177673,.130981-.338806,.208069-.483337,.077087-.144592,.161865-.272583,.254395-.384033,.09259-.111511,.192871-.206421,.300903-.28479s.223755-.140198,.34729-.185486c.024536-.011108,.074524-.021912,.149963-.032349s.176392-.020569,.302795-.030396c.126404-.009766,.278259-.019226,.455627-.028381,.177307-.009094,.380127-.017883,.608337-.026367,.228271-.008423,.481934-.016602,.761108-.024353,.279114-.007812,.583679-.015259,.913696-.0224,.330078-.007141,.685486-.013916,1.066406-.020386,.380859-.00647,.78717-.012573,1.218933-.018372l.675354-.008484,.675354-.008484,.675354-.008423,.675354-.008484,.675354-.008423,.675354-.008484,.675354-.008484,.675354-.008423c.555054-.011108,1.139465-.018738,1.753113-.022888,.613647-.004089,1.256653-.0047,1.928894-.00177,.672302,.002869,1.37384,.009277,2.104736,.019165,.730835,.009949,1.491028,.023315,2.280457,.040283,.789429,.016907,1.608215,.037354,2.456238,.061279,.848083,.023926,1.725403,.051331,2.632019,.082275,.906677,.030945,1.84259,.065369,2.8078,.103333,.965271,.037964,1.959778,.079407,2.983582,.12439,1.097656,.050781,2.15686,.098328,3.17749,.142761s2.002747,.085632,2.946411,.123718c.943604,.038086,1.848694,.072998,2.71521,.104675,.866577,.031738,1.694641,.060303,2.484131,.085693s1.540466,.047546,2.252869,.066589,1.386292,.034912,2.021606,.047607,1.232056,.022217,1.790283,.028564c.558167,.006348,1.07782,.009521,1.558899,.009521,.129517,0,.250977-.006714,.364258-.020081,.113342-.013367,.218567-.033386,.315735-.06012,.097107-.026733,.186157-.060181,.267151-.100342,.080933-.0401,.153809-.086914,.218567-.140503,.064758-.053528,.121399-.11377,.169983-.180725s.08905-.140625,.121399-.221069c.03241-.080383,.056702-.16748,.072876-.261353,.016174-.093811,.024292-.194397,.024292-.301758,0-.129517-.004639-.278137-.013916-.445801Z"/>
</svg>