<?xml version="1.0" encoding="UTF-8"?>
<svg id="Layer_1" xmlns="http://www.w3.org/2000/svg" viewBox="0 0 464.15 464.82">
  <defs>
    <style>
      .cls-1 {
        fill: #fff;
      }
    </style>
  </defs>
  <path d="M192.08,256.75q-15.47-1.3-16.19-16.33c-1.69,0-3.44.01-5.18,0-7.77-.06-10.61-2.81-10.62-10.47-.02-15.83,0-31.66,0-47.5,0-1.81,0-3.61,0-5.7-6.55-.91-15.12,1.63-15.87-8.57-.39-5.29,3.65-7.18,15.51-8.01v-15.75c-7.11,0-14.22.02-21.32,0-6.14-.02-10.17-3.09-10.3-7.76-.13-4.88,4-8.17,10.34-8.23,1.65-.01,3.3,0,4.41,0,1.28-4.72,1.22-10.24,3.96-13.05,2.72-2.79,8.25-2.86,13.01-4.26v-13.58c-4.42-1.17-9.94-1.09-12.75-3.81-2.8-2.71-2.89-8.24-4.36-13.2-5.32-.59-13.81,1.79-14.5-8.44-.35-5.17,3.45-6.9,15.86-8.02,0-7.03-.02-14.13,0-21.24.03-7.48,2.85-10.34,10.18-10.4,3.83-.03,7.67-.03,11.5,0,7.38.05,10.24,2.91,10.31,10.28.02,1.66,0,3.32,0,5.34h16c0-7.06-.02-14.17,0-21.27.03-7.44,2.87-10.33,10.23-10.35,12.32-.03,24.65,0,37.51,0,.85-6.45-1.75-16.09,8.74-15.66,9.21.37,7.34,8.94,7.57,15.67,2.81,0,5.27-.13,7.71.03,4.9.31,8.02,3.4,8.2,8.32.18,4.99.16,10,0,15-.17,5.44-3.37,8.53-8.91,8.62-7.47.12-14.94.03-23.05.03,0,2.6.07,4.86-.01,7.12-.19,5-3.45,8.7-7.7,8.85-4.44.16-8.17-3.65-8.25-8.79-.12-7.48-.03-14.97-.03-22.82h-15.7v31.63c1.63,0,3.09,0,4.54,0,8.64.06,11.14,2.63,11.16,11.44,0,3.5.03,7,0,10.5-.07,7.05-2.99,9.97-10.03,10.06-1.8.02-3.6,0-5.68,0v31.53q14.64,1.95,15.99,15.26c4.54,1.27,9.98,1.29,12.86,4.02,2.72,2.57,2.74,7.99,4.25,13.19,4.68,0,10.61,0,16.53,0,2,0,4.01-.11,6,.04,4.62.35,8.1,3.85,8.07,7.96-.03,4.12-3.54,7.66-8.08,7.96-2.45.16-4.93.03-6.56.03-1.42,4.94-1.48,10.38-4.23,13.23-2.6,2.69-8.02,2.66-12.76,3.98v14.56c6.31.74,14.81-1.67,15.52,8.54.36,5.2-3.52,7-15.53,8v14.47c4.57,1.3,10.01,1.36,12.86,4.1,2.7,2.59,2.68,8.01,4.12,13.13,1.33,0,3.76-.1,6.18.02,4.91.25,8.57,3.79,8.48,8.06-.09,4.29-3.76,7.81-8.66,7.87-10.16.12-20.33.13-30.5,0-5.69-.07-8.76-3.35-8.79-9.24-.08-12.65-.02-25.31-.02-38.45-6.5-.86-16.1,1.71-15.66-8.8.39-9.25,9.08-7.1,15.41-7.67v-47.43h-15.48c-.84,6.21,1.68,14.77-8.53,15.5-5.27.38-7.12-3.6-8.01-15.52h-15.44v15.18q14.65,1.97,16.07,16.2c6.17.87,14.75-1.7,15.5,8.51.39,5.31-3.65,7.2-15.51,8.01v31.76c2.27,0,4.54-.08,6.81.02,5.52.22,8.65,3.27,8.8,8.75.13,4.83.13,9.67,0,14.5-.14,4.97-3.55,8.65-7.82,8.72-4.46.07-7.95-3.73-8.13-8.92-.07-2.14-.01-4.29-.01-6.72ZM191.87,96.67h-15.5v15.41h15.5v-15.41ZM191.77,144.33v-15.56h-15.3v15.56h15.3Z"/>
  <path d="M400.08,368.04v-5.7c0-20.83,0-41.65,0-62.48,0-8.81-2.52-11.38-11.15-11.44-1.46-.01-2.91,0-3.49,0-1.44-4.97-1.49-10.48-4.27-13.23-2.79-2.75-8.3-2.72-13.09-4.04,0-6.86.09-14.34-.03-21.81-.09-5.54-3.19-8.72-8.64-8.89-4.99-.15-10-.16-14.99,0-4.8.17-8.45,3.93-8.31,8.21.13,4.09,3.67,7.44,8.32,7.71,2.43.14,4.87.02,7.65.02,0,7.92-.06,15.22.02,22.52.07,6.38,3.14,9.36,9.59,9.48,2.07.04,4.15,0,6.11,0v31.66h-15.42c-.98-12.01-2.78-15.89-8-15.53-10.21.71-7.79,9.21-8.57,15.87-7.76,0-15.23-.07-22.69.03-5.21.07-9.02,3.58-9.01,8.03,0,4.43,3.82,7.77,9.12,7.93,2.12.06,4.24.01,6.56.01v31.81h-31.71c0-2.66.07-4.81-.01-6.96-.2-5.15-3.78-8.96-8.23-8.82-4.25.13-7.66,3.82-7.72,8.81-.11,10.16-.11,20.33,0,30.49.06,4.9,3.59,8.57,7.88,8.65,4.27.08,7.8-3.58,8.05-8.49.12-2.41.02-4.83.02-7.24h31.7v15.76c-7.94,0-15.58-.11-23.21.04-4.84.1-8.5,3.78-8.45,8.07.05,4.12,3.54,7.74,8.18,7.82,10.49.17,20.99.17,31.49,0,4.9-.07,7.97-3.32,8.27-8.24.15-2.43.03-4.88.03-7.36h15c-1.66-5.42-2.74-11.04-3.73-16.74h-10.9v-47.38h47.38v47.38h-36.48c.99,5.7,2.07,11.32,3.73,16.74h16.72c.95,11.98,2.76,15.89,8,15.53,10.22-.72,7.75-9.25,8.42-14.49,4.98-1.49,10.5-1.59,13.2-4.39,2.71-2.82,2.62-8.35,3.78-12.81,10.86-.65,14.83-2.36,14.71-7.49-.25-10.76-9.24-7.98-15.82-9.06Z"/>
  <path d="M112.07,40.36C111.92,18.22,94.21.57,72.01.43c-10.66-.07-21.33-.07-31.99,0C18.08.58.34,18.13.1,39.98c-.12,11-.11,22,0,32.99.19,18.73,13.66,35.22,32.15,38.4,7.81,1.34,15.91,1.01,23.87,1.44,0-.13.01-.27.02-.4.53,0,1.07,0,1.6,0,.23-5.36-.47-10.73-1.38-16.09-.18,0-.36,0-.54,0-5.66,0-11.33.23-16.98-.05-12.26-.61-22.07-10.09-22.55-22.39-.45-11.64-.41-23.31,0-34.95.42-12.03,9.99-21.75,22.08-22.27,11.63-.5,23.31-.44,34.95-.06,12.47.4,22.18,10.24,22.6,22.85.38,11.31.36,22.65,0,33.96-.39,12.54-10.08,22.19-22.63,22.86-5.63.3-11.29.07-16.94.06.92,5.36,1.61,10.73,1.38,16.09,4.8,0,9.6.03,14.4,0,22.14-.18,39.78-17.86,39.93-40.06.07-10.66.07-21.33,0-31.99Z"/>
  <path d="M112.06,391.92c-.22-21.58-17.86-39.23-39.48-39.48-11-.13-22-.11-32.99,0-21.58.22-39.23,17.86-39.48,39.48-.13,11-.11,22,0,32.99.18,18.75,13.63,35.27,32.09,38.46,7.81,1.35,15.91,1.02,23.87,1.46,0-.14.01-.27.02-.41.44,0,.89,0,1.33,0-.36-5.33-.92-10.62-1.78-15.89-5.67,0-11.34-.12-17-.31-12.02-.41-21.8-9.99-22.3-22.05-.5-11.96-.48-23.98.02-35.95.49-11.64,10.32-21.13,22.23-21.59,11.64-.45,23.31-.42,34.95-.01,12.23.43,21.73,10.19,22.4,22.54.31,5.81.05,11.65.05,17.48,0,5.66.23,11.33-.04,16.98-.6,12.3-10.03,22.09-22.36,22.58-5.98.24-11.97.34-17.96.33.86,5.27,1.42,10.57,1.78,15.89,5.06,0,10.11.05,15.17-.01,21.58-.26,39.23-17.87,39.48-39.49.13-11,.11-22,0-32.99Z"/>
  <path d="M464.01,39.51c-.06-18.43-13.72-34.88-31.95-38.03-7.81-1.35-15.9-1.04-23.87-1.48,0,.14-.01.28-.02.42-5.5,0-11-.05-16.5,0-18.78.2-35.89,13.52-38.39,32.02-1.81,13.44-1.18,27.24-1.14,40.87.06,18.43,13.66,35.44,31.96,37.89,9.76,1.31,19.71,1.34,29.64,1.24-.26-5.3-.82-10.59-1.49-15.95-7.14.06-14.29-.02-21.42-.26-12.3-.4-22.06-10.01-22.56-22.35-.46-11.47-.4-22.98-.06-34.46.38-12.56,10.06-22.38,22.62-22.83,11.47-.42,22.98-.38,34.46,0,12.3.4,21.87,10.02,22.59,22.35.35,5.97.06,11.98.06,17.98.01,0,.03,0,.04,0,0,5.49.21,11-.04,16.48-.58,12.55-10.1,22.38-22.65,22.83-4.34.16-8.69.23-13.04.27.67,5.36,1.23,10.65,1.49,15.95,3.75-.04,7.5-.09,11.23-.1,18.43-.06,35.44-13.66,37.89-31.96,1.8-13.44,1.18-27.24,1.13-40.87Z"/>
  <path d="M16.07,256.7c0,2.69.14,5.16-.03,7.6-.32,4.62-3.82,8.1-7.93,8.09-4.11-.01-7.78-3.52-7.97-8.04-.2-4.82-.12-9.66-.04-14.49.1-6.35,3.18-9.32,9.62-9.44,1.95-.04,3.91,0,6.11,0v-16.01c-2.39,0-4.81.1-7.21-.02-5.22-.27-8.33-3.32-8.5-8.53-.16-4.99-.16-10,0-14.99.17-4.9,3.82-8.54,8.09-8.43,4.28.11,7.64,3.8,7.85,8.69.09,2.16.02,4.32.02,7.28,2.06,0,3.97-.02,5.88,0,7.1.08,10.07,2.96,10.11,9.96.05,7.13.01,14.27.01,22.04,7.42,0,14.52-.02,21.62,0,6.38.02,10.54,3.33,10.36,8.19-.17,4.7-4.17,7.74-10.26,7.8-1.66.02-3.32,0-5.34,0v32c7.04,0,14.14-.02,21.23,0,6.39.02,10.54,3.32,10.37,8.18-.16,4.7-4.16,7.79-10.25,7.81-12.32.03-24.63,0-37.34,0v16.01c2.34,0,4.77-.11,7.19.02,4.89.27,8.53,3.87,8.39,8.14-.13,4.11-3.67,7.62-8.24,7.78-5.16.18-10.33.2-15.49,0-4.9-.19-8.15-3.38-8.2-8.28-.13-15.65-.13-31.31-.01-46.97.04-5.44,3.34-8.47,8.85-8.68,2.14-.08,4.29-.01,6.77-.01v-15.72h-15.68Z"/>
  <path d="M80.08,224.42c7.83,0,14.98-.04,22.12.01,5.95.04,10.03,3.47,9.86,8.19-.17,4.56-4.09,7.71-9.76,7.79-1.82.03-3.65,0-5.84,0v16c7.04,0,14.14-.02,21.24,0,7.46.03,10.33,2.85,10.39,10.19.03,4.33.1,8.66-.02,12.99-.14,4.98-3.49,8.68-7.74,8.79-4.45.12-8.02-3.68-8.22-8.83-.08-2.15-.01-4.3-.01-6.8h-15.75c-.79,6.27,1.67,14.79-8.53,15.52-5.26.38-7.11-3.6-8-15.54-6.09-1-15.51,1.69-15.4-8.41.1-9.61,8.89-7.71,15.44-7.98v-15.94c-2.25,0-4.51.07-6.76-.01-5.77-.2-8.89-3.27-8.98-9.07-.11-7.45-.03-14.91-.03-22.92-7.52,0-14.63.02-21.73,0-6.1-.03-10.15-3.14-10.24-7.81-.1-4.88,4.02-8.13,10.38-8.18,1.64-.01,3.29,0,5.25,0,1.02-6.55-1.74-15.52,8.99-15.82,5.19-.15,6.96,3.94,7.56,15.82,1.86,0,3.77-.02,5.68,0,7.09.08,10.06,2.97,10.11,9.97.05,7.13.01,14.27.01,22.03Z"/>
  <path d="M160.08,352.42c0,12.63,0,24.76,0,36.88,0,8.42-2.66,11.1-10.98,11.12-4.17.01-8.34.13-12.5-.04-5.22-.21-8.31-3.32-8.49-8.54-.15-4.49-.07-9-.03-13.5.07-6.97,3.04-9.85,10.17-9.92,1.79-.02,3.58,0,5.59,0v-16c-1.94,0-3.86.02-5.78,0-6.02-.08-10.07-3.38-9.96-8.11.11-4.72,4.12-7.87,10.18-7.88,12.33-.03,24.66,0,37.79,0,0-1.9,0-3.65,0-5.39,0-16.5,0-33,0-49.5,0-4.53,2-8.35,6.51-8.63,2.73-.17,6.03,1.96,8.28,3.94,1.24,1.09,1.14,4.04,1.15,6.15.1,12.29.05,24.59.05,37.24,6.76.59,15.95-1.62,15.67,8.51-.25,9.29-8.82,7.44-15.67,7.8,0,1.94.01,3.7,0,5.47-.06,7.48-2.85,10.35-10.2,10.39-7,.04-13.99,0-21.8,0Z"/>
  <path d="M303.78,448.05q1.32-15.64,16.97-15.64c1.33,0,2.66,0,3.99,0,8.76.02,11.29,2.52,11.34,11.23,0,1.33,0,2.66,0,4.38h15.69c.99-6.15-1.76-15.11,8.93-15.43,5.25-.16,7,3.89,7.57,15.83,1.85,0,3.76-.02,5.66,0,6.05.06,10.1,3.24,10.13,7.92.02,4.73-4.01,8.06-9.98,8.06-27.46.02-54.93.01-82.39.01-7.99,0-15.98,0-23.97,0-9.1,0-11.57-2.43-11.63-11.44,0-1.31,0-2.62,0-4.56-2.56,0-4.83.07-7.09-.01-5.21-.19-9.03-3.73-8.89-8.15.13-4.27,3.82-7.67,8.72-7.8,4.32-.12,8.65-.05,12.98-.02,7.35.05,10.2,2.92,10.27,10.3.02,1.66,0,3.31,0,5.33h31.7Z"/>
  <path d="M416.08,272.39c-3.18,0-5.68.16-8.15-.04-4.35-.35-7.7-3.76-7.83-7.68-.13-4.1,3.32-7.97,7.81-8.18,5.32-.24,10.66-.23,15.98-.02,4.88.19,7.89,3.42,8.16,8.35.12,2.31.02,4.63.02,7.6,8.03,0,15.8-.12,23.56.04,4.9.1,8.54,3.82,8.42,8.09-.11,4.12-3.64,7.55-8.2,7.83-2.32.14-4.65.02-6.64.02-1.18,4.59-1.06,10.12-3.76,12.95-2.69,2.82-8.21,2.93-13.06,4.4v14.66c7.26,0,14.37-.03,21.48,0,7.31.04,10.16,2.95,10.2,10.37.02,4.33.11,8.66-.03,12.99-.16,4.95-3.65,8.61-7.92,8.61-4.29,0-7.79-3.66-8.02-8.52-.11-2.29-.02-4.59-.02-7.17h-16.01c0,2.17.03,4.13,0,6.08-.1,5.66-3.38,9.61-7.94,9.61-4.58,0-8.02-3.94-8.03-9.51-.04-21.48-.02-42.97-.02-64.45,0-1.8,0-3.6,0-6.04Z"/>
  <path d="M320.09,80.65h-15.76v31.42c6.1,1.03,15.54-1.67,15.43,8.43-.11,9.62-8.9,7.71-15.68,7.99,0,2.36.03,4.32,0,6.28-.1,5.67-3.37,9.62-7.94,9.63-4.59,0-8.02-3.94-8.04-9.52-.05-16.17-.02-32.33-.02-48.5,0-1.8,0-3.6,0-5.96-2.66,0-4.94.08-7.21-.02-4.98-.2-8.67-3.53-8.76-7.79-.1-4.45,3.71-8.12,8.88-8.16,12.81-.09,25.62-.03,39.1-.03,0-2.72-.11-5.16.02-7.58.27-4.89,3.87-8.54,8.14-8.4,4.11.13,7.74,3.67,7.77,8.24.12,15.83.13,31.67,0,47.5-.04,4.65-3.68,8.15-7.8,8.21-4.29.06-7.99-3.6-8.09-8.44-.15-7.64-.04-15.28-.04-23.3Z"/>
  <path d="M304.08,256.83c-18.14-.99-15.48-3.68-16.43-16.41-7.05,0-14.16.02-21.27,0-6.13-.02-10.16-3.1-10.28-7.77-.13-4.88,4-8.21,10.34-8.22,14.49-.02,28.98-.03,43.47,0,7.28.02,10.14,2.97,10.17,10.4.03,6.97,0,13.94,0,21.59,2.55,0,4.81-.07,7.06.01,5.56.21,8.74,3.21,8.9,8.64.15,4.82.14,9.66,0,14.49-.15,5.53-3.24,8.67-8.7,8.83-4.83.14-9.66.14-14.49,0-5.49-.16-8.65-3.29-8.75-8.77-.13-7.48-.03-14.96-.03-22.78Z"/>
  <path d="M175.89,448.12c.61-6.38-1.65-14.5,8.1-15.58,5.33-.59,7.19,3.17,8.48,15.88,4.19,0,8.46,0,12.73,0,8.82,0,17.64-.11,26.46.05,4.88.09,8.52,3.84,8.39,8.11-.13,4.11-3.66,7.76-8.22,7.78-26.46.1-52.92.11-79.38,0-5.3-.02-8.28-3.52-8.35-9.14-.09-7.44-.02-14.89-.02-22.8-2.6,0-4.72.05-6.83-.01-5.3-.16-9.11-3.47-9.14-7.9-.03-4.44,3.77-7.95,8.96-8.07,4.66-.1,9.32-.11,13.98,0,5.79.14,8.92,3.23,9.01,9.02.11,7.45.03,14.91.03,22.66h15.82Z"/>
  <path d="M416.07,416.06q14.49,1.29,16.53,16.35c7.03,0,14.13-.02,21.24,0,6.08.03,10.13,3.15,10.22,7.82.09,4.87-4.02,8.12-10.37,8.17-1.64.01-3.29,0-5.61,0,0,2.52.07,4.78-.01,7.03-.21,5.75-3.29,8.81-9.09,8.95-4.32.1-8.65.06-12.97.01-6.96-.07-9.84-3.04-9.92-10.14-.02-1.79,0-3.58,0-5.87-2.89,0-5.34.13-7.78-.03-4.88-.32-8.09-3.42-8.16-8.32-.15-10.48-.16-20.96,0-31.43.08-4.64,3.69-8.13,7.8-8.18,4.28-.06,7.86,3.59,8.11,8.41.12,2.3.02,4.61.02,7.21Z"/>
  <path d="M319.71,144.13q1.58-15.71,17.44-15.71c1.16,0,2.33,0,3.49,0,8.84.01,11.37,2.47,11.43,11.13.01,1.46,0,2.91,0,4.88,2.71,0,4.99-.08,7.27.02,4.95.21,8.63,3.56,8.71,7.82.08,4.45-3.72,8.09-8.88,8.13-12.79.09-25.58.03-39.1.03,0,2.66.1,5.08-.02,7.49-.27,5.2-3.33,8.31-8.53,8.47-4.99.15-9.98.16-14.97,0-4.89-.16-8.54-3.79-8.45-8.06.09-4.28,3.76-7.67,8.65-7.88,2.28-.1,4.57-.02,6.78-.02q2.19-15.18,16.18-16.29Z"/>
  <path d="M255.74,96.66c-15.61-1.05-15.66-1.1-15.66-16.5,0-2.66-.15-5.34.07-7.99.37-4.31,3.87-7.66,7.76-7.73,4.1-.07,7.78,3.42,8.11,7.9.18,2.46.03,4.95.03,8.07,2.57,0,4.84-.07,7.1.01,5.56.21,8.84,3.21,8.88,8.65.12,15.49.11,30.97,0,46.46-.04,5.53-3.22,8.68-8.68,8.84-4.83.14-9.66.13-14.49,0-4.98-.13-8.67-3.5-8.77-7.75-.11-4.45,3.69-8.01,8.85-8.2,2.15-.08,4.3-.01,6.79-.01v-31.76Z"/>
  <path d="M240.08,352.41c-2.64,0-4.62.04-6.6,0-5.56-.13-9.52-3.6-9.38-8.15.14-4.42,3.96-7.76,9.21-7.81,7.44-.08,14.88-.02,22.77-.02,0-2.11,0-3.73,0-5.35.06-7.78,2.81-10.6,10.41-10.65,4.32-.02,8.65-.11,12.97.03,4.94.17,8.59,3.65,8.59,7.92,0,4.28-3.65,7.78-8.5,8.02-2.29.11-4.59.02-6.18.02-1.36,4.85-1.39,10.28-4.11,13.15-2.57,2.71-7.97,2.73-13.18,4.24,0,3.49,0,8.24,0,12.98,0,2.83.06,5.66-.01,8.48-.14,5.29-3.48,9.1-7.9,9.13-4.44.03-7.97-3.77-8.06-8.96-.11-5.82-.03-11.64-.03-17.46,0-1.64,0-3.27,0-5.55Z"/>
  <path d="M400.08,224.41c-2.76,0-5.05.09-7.34-.02-4.95-.23-8.61-3.63-8.64-7.9-.02-4.29,3.63-7.97,8.48-8.03,10.32-.13,20.64-.15,30.96,0,5.22.08,8.33,3.3,8.49,8.5.16,4.99.17,9.99,0,14.98-.18,5.19-3.35,8.27-8.58,8.43-4.66.15-9.32.1-13.98.02-6.32-.11-9.28-3.2-9.39-9.67-.03-1.95,0-3.9,0-6.32Z"/>
  <path d="M144.05,304.42c0,3.26.17,5.76-.04,8.23-.37,4.3-3.84,7.65-7.73,7.74-4.1.09-7.92-3.37-8.12-7.85-.23-5.31-.23-10.64-.02-15.96.19-4.86,3.42-7.88,8.34-8.14,2.3-.12,4.62-.02,7.61-.02,0-8-.07-15.75.03-23.5.05-4.09,2.08-7.57,6.08-7.95,2.65-.26,5.78,1.49,8.2,3.09,1.15.76,1.58,3.26,1.61,4.98.15,9.97.13,19.95.05,29.92-.05,6.35-3.16,9.33-9.59,9.45-1.96.04-3.91,0-6.42,0Z"/>
  <path d="M192.08,384.42c0,7.82.04,14.96-.01,22.1-.04,5.96-3.45,10.03-8.17,9.88-4.57-.15-7.78-4.08-7.81-9.73-.05-9.49-.06-18.98,0-28.47.04-6.71,3.06-9.68,9.79-9.76,3.99-.05,7.99-.03,11.99,0,6.07.04,10.12,3.19,10.18,7.87.06,4.73-3.98,8.04-9.93,8.12-1.81.02-3.62,0-6.04,0Z"/>
  <path d="M128.08,224.38c-3.3,0-5.81.18-8.28-.04-4.31-.38-7.64-3.89-7.7-7.79-.06-4.1,3.43-7.88,7.93-8.07,5.32-.22,10.66-.23,15.98,0,4.83.21,7.96,3.49,8.02,8.45.14,10.32.14,20.64,0,30.96-.07,4.91-3.74,8.56-8.01,8.5-4.29-.07-7.81-3.73-7.9-8.62-.13-7.62-.03-15.24-.03-23.39Z"/>
  <path d="M79.81,144.4c-2.76,0-5.23.14-7.68-.03-4.59-.33-8.06-3.86-8.03-7.96.03-4.1,3.53-7.86,8.04-7.93,10.63-.17,21.27-.18,31.9,0,4.59.08,8.05,3.86,8.01,7.95-.04,4.1-3.55,7.64-8.06,7.94-2.45.16-4.92.03-7.64.03-.77,6.67,1.63,15.14-8.54,15.88-5.29.38-7.19-3.69-7.99-15.88Z"/>
  <path d="M112.11,160.34c0-3.23-.18-5.73.04-8.2.38-4.29,3.87-7.63,7.76-7.7,4.09-.07,8,3.4,8.08,7.87.19,10.63.19,21.27.02,31.9-.07,4.63-3.69,8.12-7.8,8.17-4.27.06-7.86-3.59-8.11-8.4-.12-2.3-.02-4.61-.02-7.25-6.45-.92-15.79,1.64-15.68-8.42.1-9.58,8.86-7.71,15.71-7.98Z"/>
  <path d="M400.38,176.41q-1.2,16.01-16.97,16.01c-2.33,0-4.66.1-6.98-.03-4.64-.27-8.18-3.6-8.33-7.67-.16-4.26,3.48-7.98,8.24-8.26,2.31-.14,4.64-.02,7.74-.02,0-2.41-.06-4.66.01-6.9.18-5.83,3.19-8.95,8.93-9.09,4.82-.12,9.64-.14,14.45.01,4.93.15,8.58,3.65,8.58,7.92,0,4.28-3.65,7.78-8.49,8.02-2.29.11-4.59.02-7.19.02Z"/>
  <path d="M271.62,192.42c1.5-12.9,3.2-16.01,8.44-15.98,5.3.03,7,3.16,8.45,15.98,2.36,0,4.8-.12,7.23.02,4.64.27,8.17,3.61,8.31,7.69.14,4.27-3.49,8.14-8.26,8.21-10.47.16-20.94.16-31.4,0-4.63-.07-8.16-3.61-8.28-7.69-.13-4.27,3.51-7.94,8.29-8.22,2.31-.13,4.63-.02,7.23-.02Z"/>
  <path d="M464.08,232.62c0,4.98.1,9.97-.03,14.95-.13,5.18-3.76,8.99-8.17,8.83-4.26-.15-7.71-3.84-7.76-8.73-.11-10.13-.11-20.26,0-30.4.06-5.18,3.75-8.98,8.16-8.83,4.26.15,7.65,3.84,7.77,8.73.12,5.15.03,10.3.03,15.45Z"/>
  <path d="M352.08,208.42c2.94,0,5.25-.1,7.55.02,4.89.27,8.54,3.83,8.42,8.1-.11,4.12-3.62,7.66-8.19,7.82-5.15.18-10.32.2-15.48,0-5.11-.2-8.14-3.46-8.28-8.72-.13-4.82-.13-9.66,0-14.48.14-4.97,3.54-8.65,7.79-8.73,4.45-.08,7.97,3.72,8.16,8.88.08,2.14.01,4.29.01,7.1Z"/>
  <path d="M224.08,288.43c3.09,0,5.57-.15,8.03.03,4.57.35,8.04,3.97,7.95,8.06-.1,4.12-3.6,7.67-8.17,7.84-5.15.19-10.32.2-15.48,0-5.12-.19-8.16-3.45-8.3-8.7-.13-4.82-.13-9.66,0-14.48.13-4.97,3.52-8.65,7.77-8.75,4.45-.1,7.99,3.7,8.18,8.86.08,2.14.01,4.29.01,7.13Z"/>
  <path d="M448.07,144.45c3.24,0,5.74-.17,8.21.04,4.32.36,7.67,3.82,7.77,7.72.1,4.1-3.37,7.94-7.85,8.13-5.32.23-10.66.23-15.97.02-4.86-.19-7.95-3.44-8.11-8.37-.17-4.99-.16-9.99,0-14.98.15-4.94,3.67-8.59,7.95-8.57,4.29.02,7.76,3.68,7.99,8.54.11,2.29.02,4.59.02,7.46Z"/>
  <path d="M448.27,176.43c2.49,0,4.98-.12,7.46.02,4.84.28,8.47,3.91,8.32,8.16-.14,4.09-3.67,7.6-8.21,7.76-5.14.18-10.29.18-15.42,0-4.85-.17-8.47-3.89-8.32-8.14.14-4.09,3.67-7.51,8.21-7.77,2.65-.15,5.31-.03,7.96-.03Z"/>
  <path d="M223.79,400.38c-2.65,0-5.32.18-7.96-.04-4.29-.36-7.63-3.84-7.72-7.72-.1-4.09,3.35-7.93,7.81-8.12,5.46-.23,10.95-.24,16.42.01,4.29.2,7.63,3.82,7.72,7.7.1,4.09-3.36,7.82-7.81,8.14-2.8.2-5.64.04-8.46.03Z"/>
  <path d="M432.09,368.22c0-2.49-.12-4.98.02-7.46.28-4.84,3.91-8.47,8.16-8.32,4.09.14,7.6,3.67,7.76,8.21.18,5.14.18,10.29,0,15.42-.17,4.85-3.89,8.47-8.14,8.32-4.09-.14-7.51-3.67-7.77-8.21-.15-2.65-.03-5.31-.03-7.96Z"/>
  <path d="M288.17,304.41c-2.65,0-5.32.14-7.96-.03-4.61-.3-8.08-3.76-8.11-7.86-.03-4.08,3.45-7.84,7.92-8.02,5.3-.22,10.62-.22,15.92-.01,4.61.18,8.08,3.74,8.11,7.84.03,4.27-3.61,7.82-8.42,8.07-2.48.12-4.98.02-7.46.02Z"/>
  <path d="M336.07,16.43c0,2.65.15,5.32-.03,7.96-.32,4.58-3.88,8.04-7.97,8-4.09-.04-7.75-3.53-7.93-8.03-.2-5.3-.22-10.62,0-15.92.19-4.58,3.86-8.04,7.95-8,4.09.04,7.65,3.53,7.94,8.03.17,2.64.03,5.31.03,7.96Z"/>
  <path d="M56.17,144.41c4.32.05,7.86,3.64,7.88,7.97.02,4.53-3.78,8.2-8.31,8.01-4.31-.18-7.79-3.9-7.67-8.19.12-4.28,3.82-7.84,8.09-7.79Z"/>
  <path d="M104.28,208.39c-4.32.11-8.02-3.34-8.21-7.65-.19-4.46,3.57-8.36,8.05-8.33,4.32.02,7.89,3.59,7.93,7.92.04,4.34-3.44,7.95-7.77,8.05Z"/>
  <path d="M112.05,296.47c-.03,4.35-3.56,7.88-7.91,7.91-4.33.03-7.96-3.48-8.07-7.79-.11-4.47,3.72-8.3,8.19-8.19,4.31.1,7.82,3.74,7.79,8.06Z"/>
  <path d="M144.05,24.66c-.13,4.33-3.75,7.8-8.09,7.73-4.33-.07-7.88-3.66-7.88-7.97,0-4.48,3.91-8.22,8.37-8.01,4.31.21,7.74,3.92,7.61,8.25Z"/>
  <path d="M88.14,320.39c-4.33.03-7.96-3.48-8.07-7.78-.11-4.47,3.72-8.3,8.19-8.19,4.31.1,7.82,3.74,7.79,8.06-.03,4.35-3.56,7.88-7.91,7.92Z"/>
  <path d="M112.05,328.51c-.05,4.34-3.6,7.87-7.94,7.88-4.33.02-7.95-3.51-8.03-7.82-.09-4.47,3.75-8.28,8.22-8.16,4.31.12,7.81,3.77,7.76,8.1Z"/>
  <path d="M400.05,136.5c-.04,4.34-3.59,7.87-7.93,7.89-4.33.02-7.95-3.5-8.04-7.81-.09-4.47,3.74-8.29,8.21-8.17,4.31.12,7.81,3.76,7.77,8.09Z"/>
  <path d="M376.23,240.39c-4.32.08-8-3.39-8.16-7.7-.16-4.46,3.63-8.34,8.1-8.28,4.31.05,7.86,3.64,7.88,7.98.02,4.34-3.48,7.92-7.82,8Z"/>
  <path d="M288.05,8.33c.05,4.34-3.43,7.95-7.76,8.06-4.52.12-8.31-3.64-8.21-8.13.09-4.31,3.71-7.83,8.04-7.81,4.34.02,7.89,3.54,7.94,7.89Z"/>
  <path d="M216.24,352.41c4.31.09,7.83,3.72,7.81,8.04-.02,4.54-3.86,8.17-8.39,7.93-4.3-.22-7.75-3.98-7.59-8.26.16-4.28,3.89-7.81,8.17-7.71Z"/>
  <path d="M32.05,168.34c.04,4.34-3.45,7.94-7.78,8.04-4.52.11-8.3-3.66-8.2-8.15.1-4.28,3.78-7.85,8.06-7.82,4.32.03,7.88,3.6,7.92,7.93Z"/>
  <path d="M192.05,8.33c.05,4.34-3.43,7.95-7.76,8.06-4.52.12-8.31-3.64-8.21-8.13.09-4.31,3.71-7.83,8.04-7.81,4.34.02,7.89,3.54,7.94,7.89Z"/>
  <path d="M39.85,144.39c-4.32-.12-7.83-3.78-7.77-8.08.06-4.29,3.7-7.89,7.99-7.9,4.5-.01,8.19,3.84,7.99,8.36-.19,4.33-3.87,7.74-8.21,7.62Z"/>
  <path d="M240.05,104.45c-.02,4.34-3.54,7.89-7.89,7.94-4.32.05-7.97-3.46-8.09-7.76-.12-4.47,3.69-8.31,8.17-8.21,4.31.09,7.83,3.71,7.81,8.04Z"/>
  <path d="M320.05,40.3c.07,4.34-3.4,7.96-7.73,8.09-4.52.13-8.32-3.6-8.25-8.1.07-4.29,3.73-7.88,8.01-7.87,4.31,0,7.9,3.55,7.97,7.89Z"/>
  <path d="M456.09,384.41c4.32,0,7.9,3.56,7.96,7.89.06,4.53-3.7,8.23-8.24,8.09-4.32-.14-7.82-3.81-7.74-8.11.08-4.29,3.73-7.87,8.02-7.87Z"/>
  <path d="M247.89,400.41c4.3-.1,7.99,3.38,8.16,7.7.17,4.33-3.22,8.05-7.54,8.28-4.51.24-8.4-3.41-8.43-7.91-.03-4.28,3.54-7.96,7.82-8.06Z"/>
  <path d="M151.85,16.39c-4.32-.12-7.83-3.77-7.77-8.08.06-4.51,3.97-8.13,8.48-7.86,4.32.26,7.69,3.99,7.5,8.32-.19,4.33-3.87,7.74-8.21,7.62Z"/>
  <path d="M328.04,192.39c-4.33-.02-7.92-3.57-7.97-7.88-.05-4.47,3.82-8.26,8.29-8.09,4.31.16,7.78,3.84,7.69,8.16-.08,4.34-3.67,7.84-8.01,7.82Z"/>
  <path d="M440.06,400.41c4.31-.01,7.92,3.53,7.99,7.86.08,4.34-3.37,7.98-7.71,8.12-4.52.15-8.33-3.58-8.27-8.08.06-4.29,3.7-7.89,7.98-7.9Z"/>
  <path d="M224.05,424.58c-.09,4.34-3.67,7.83-8.01,7.81-4.33-.02-7.92-3.57-7.97-7.89-.05-4.47,3.83-8.26,8.29-8.09,4.31.16,7.77,3.84,7.69,8.17Z"/>
  <path d="M288.05,424.58c-.09,4.34-3.68,7.83-8.02,7.81-4.33-.03-7.91-3.58-7.96-7.89-.05-4.47,3.83-8.25,8.3-8.08,4.31.16,7.77,3.85,7.68,8.17Z"/>
  <path d="M343.98,416.41c4.31-.05,7.95,3.46,8.07,7.79.12,4.34-3.31,8.01-7.63,8.19-4.52.19-8.36-3.5-8.34-8.01.02-4.29,3.62-7.92,7.91-7.97Z"/>
  <path d="M144.05,104.45c-.02,4.34-3.54,7.89-7.89,7.94-4.32.05-7.97-3.46-8.09-7.76-.12-4.47,3.69-8.31,8.17-8.21,4.31.09,7.83,3.71,7.81,8.04Z"/>
  <path d="M400.05,248.61c-.1,4.33-3.71,7.82-8.04,7.78-4.33-.04-7.9-3.6-7.93-7.92-.03-4.47,3.86-8.24,8.32-8.06,4.31.18,7.76,3.87,7.66,8.2Z"/>
  <path class="cls-1" d="M191.87,96.67v15.41h-15.5v-15.41h15.5Z"/>
  <path class="cls-1" d="M191.77,144.33h-15.3v-15.56h15.3v15.56Z"/>
  <path d="M360.03,352.41c4.31-.03,7.93,3.51,8.02,7.83.09,4.34-3.35,7.99-7.68,8.15-4.52.17-8.35-3.55-8.3-8.05.04-4.29,3.67-7.9,7.96-7.93Z"/>
  <path d="M56.23,80.41c-13.37.07-24.21-10.73-24.16-24.09.05-13.15,10.71-23.83,23.85-23.91,13.36-.08,24.19,10.73,24.15,24.1-.05,13.17-10.67,23.82-23.84,23.9Z"/>
  <path d="M80.07,408.32c.05,13.38-10.77,24.16-24.15,24.09-13.16-.07-23.8-10.74-23.85-23.9-.05-13.35,10.81-24.18,24.16-24.1,13.15.08,23.79,10.75,23.84,23.91Z"/>
  <path d="M384.08,55.75c.34-13.31,11.53-23.79,24.91-23.32,13.11.46,23.39,11.44,23.07,24.65-.32,13.32-11.48,23.77-24.9,23.32-13.09-.44-23.42-11.46-23.08-24.65Z"/>
</svg>