<?xml version="1.0" encoding="UTF-8"?>
<svg id="Layer_2" data-name="Layer 2" xmlns="http://www.w3.org/2000/svg" viewBox="0 0 164.49 97.09">
  <defs>
    <style>
      .cls-1 {
        fill: none;
        stroke: #231f20;
        stroke-miterlimit: 10;
      }
    </style>
  </defs>
  <path class="cls-1" d="M2.51,96.03h.02s-.05,0-.05,0c0,0,.02,0,.03,0Zm-.33,0s-.25-.02-.25-.02l-.21-.04s-.1-.03-.12-.03c0,0-.11-.04-.11-.04l-.09-.05s-.08-.06-.09-.06c0-.01-.06-.06-.07-.07l-.06-.08s-.05-.09-.05-.1l-.03-.1s-.02-.09-.02-.1l-.02-.11v-.12s.06-5.1,.06-5.1l.33-9.47,.87-18.34,.25-7.98,.04-4.41-.09-5.84-.38-10.76L1.31,14.43l-.21-7.78-.03-3.52v-.12s.02-.11,.02-.11l.02-.11s.04-.11,.04-.11c0,0,.05-.1,.05-.1,0,0,.06-.08,.07-.08,0,0,.08-.07,.08-.07l.09-.05,.1-.05,.1-.03,.1-.03,.21-.04,.24-.02,1.46,.03s4.07,.26,4.09,.26c.17,0,.5,0,1.01-.01,0,0,21.24-.4,21.31-.4,0,0,1.81,.07,1.82,.07h1.3s6.88-.39,6.88-.39h.69s.24,0,.24,0l.22,.03s.11,.03,.11,.03l.11,.04,.1,.05s.08,.05,.09,.06l.07,.07s.05,.08,.05,.09c0,0,.03,.1,.03,.11,0,0,.01,.09,.01,.1l-.08,5.48-.13,4.13-.11,1.51c0,.11,0,.22-.01,.33,0,.11,0,.23,0,.34,0,.12,.01,.23,.02,.35,.23,2.5,.35,4.86,.37,7.21,.01,1.95-.05,3.59-.11,5.07l-.02,.5c-.05,1.17-.1,2.09-.07,2.85,.03,1.02,.19,1.67,.53,2.17,.37,.55,.95,.88,1.83,1.03,.46,.08,1,.12,1.73,.12,.42,0,.88-.01,1.39-.03,.79-.03,1.7-.09,2.75-.15,.7-.04,1.46-.09,2.29-.13,1.69-.09,4.31-.22,7.56-.28,1.19-.02,2.3-.03,3.34-.03,1.6,0,3.02,.02,4.28,.05,.94,.02,1.78,.04,2.55,.07,.93,.03,1.74,.05,2.44,.06h.61c1.11,0,1.82-.04,2.37-.16,.52-.11,1.27-.34,1.66-1.09,.25-.49,.33-1.1,.27-2.11-.03-.55-.1-1.21-.19-2l-.13-1.24c-.11-1.1-.27-2.82-.32-4.95-.06-2.24,.01-4.62,.2-7.08,0-.11,.01-.22,.02-.33,0-.12,0-.23,0-.33v-.32s-.08-1.2-.08-1.2l-.17-8.51v-1.11s0-.12,0-.12c0-.01,.01-.09,.01-.11,0,0,.03-.12,.03-.12,0,0,.05-.1,.05-.1,0,0,.07-.08,.07-.09l.08-.06,.1-.06s.11-.04,.12-.05l.12-.03,.1-.02,.22-.02,1.37,.02s6.21,.37,6.21,.37h.9s3.2-.13,3.2-.13l3.65-.23,1.16-.03h.24s.22,.04,.22,.04l.11,.02,.11,.03,.11,.03,.1,.04s.09,.05,.09,.05c.01,.01,.03,.02,.04,.04,.1,.1,.25,.16,.39,.17,0,0,16.4,.29,16.4,.29l13.45-.03,7.47-.14,8.56-.29,9.71-.45,9.03-.5h.3s.25,.03,.25,.03l.25,.04,.22,.06,.1,.03,.14,.05,.09,.04,.12,.07,.1,.07,.09,.07,.08,.07,.07,.07,.07,.09,.06,.09s.07,.12,.08,.13l.05,.1,.08,.21,.03,.1,.07,.27,.02,.1s0,1.18,0,1.19l.06,1.4,.21,2.6s.04,.43,.04,.44c0,0,.62,3.97,.62,3.97l.18,1.47s.06,.75,.06,.75c0,0,.02,.37,.02,.38v.22s-.02,.11-.02,.11l-.03,.1s-.05,.1-.05,.1c0,0-.06,.07-.07,.08l-.09,.07s-.08,.04-.1,.05l-.11,.04s-.09,.02-.1,.02c0,0-.1,.02-.11,.02-.01,0-.16,.02-.17,.02l-3.5-.04-10.19-.33-11.53-.48s-5.92-.16-5.93-.16l-5.39-.03s-10.74,.17-10.75,.17c0,0-.91,.04-.91,.04,0-.01,0-.02,0-.04-.01-.09-.05-.13-.09-.13-.11,0-.31,.18-.53,.21,0,0-.1,.01-.1,.01-.03,0-.14,.03-.15,.03-.03,0-.18,.07-.19,.07,0,0-.08,.04-.09,.04l-.14,.08s-.11,.07-.12,.08c0,0-.11,.09-.12,.09,0,0-.09,.08-.1,.08-.01,0-.09,.09-.1,.1,0,0-.09,.1-.1,.11,0,.01-.16,.22-.17,.23l-.06,.1s-.15,.28-.15,.28c0,0-.1,.24-.11,.24,0,0-.14,.42-.14,.42,0,0-.08,.33-.09,.33l-.07,.34s-.06,.38-.06,.38l-.05,.44s-.05,.8-.05,.81v17.32s.02,.67,.02,.67l.07,.76,.11,.68s.1,.42,.1,.42c0,0,.06,.2,.06,.2l.06,.17,.07,.19s.11,.25,.11,.25l.09,.17s.12,.2,.13,.21c0,0,.16,.21,.16,.22,0,0,.06,.07,.07,.08,0,0,.17,.17,.18,.18l.06,.05,.13,.1s.13,.09,.13,.09c.01,0,.11,.06,.12,.07,.01,0,.19,.09,.19,.09,0,0,.1,.04,.1,.04,.01,0,.12,.04,.13,.04,0,0,.1,.02,.1,.02l.14,.02s.17,.02,.18,.02l5.65-.06,10.2-.31,18.6-.69,5.8-.13,3.31-.02s.13,0,.13,0c.01,0,.12,.01,.13,.01,.01,0,.22,.04,.22,.04l.11,.03s.1,.05,.11,.05c0,0,.08,.06,.09,.07,0,0,.05,.08,.06,.08,0,0,.03,.09,.03,.1v.1s0,.35,0,.35h-.01c-.28,0,.01,.3,0,.6,0,0-.31,4.54-.31,4.54,0,.01-.04,1.36-.04,1.36,0,0,.07,2.23,.07,2.23,0,0,.22,4.41,.22,4.41v.74s0,.04,0,.06c0,0,0,.02-.01,.03,0,0-.22,.08-.24,.08-.01,0-.09,.02-.11,.02l-.25,.03h-.26s-14.32-.22-14.32-.22l-15.02-.3-10.11,.04-2.11,.06s-.48,.03-.49,.03c0,0-.42,.05-.42,.05l-.34,.06s-.54,.12-.54,.12c0,0-.26,.08-.27,.08,0,0-.25,.09-.26,.09,0,0-.24,.1-.25,.1,0,0-.27,.13-.28,.14,0,0-.24,.14-.24,.14,0,0-.18,.13-.18,.13,0,0-.16,.13-.17,.13,0,0-.17,.17-.17,.17,0,0-.15,.18-.16,.18l-.14,.2s-.11,.18-.11,.19c0,.01-.07,.14-.07,.15,0,0-.08,.21-.08,.21,0,0-.07,.23-.07,.24,0,0-.03,.13-.03,.14,0,0-.02,.14-.02,.15,0,0-.02,.25-.02,.25,0,0,.02,4.07,.02,4.07l.68,28.25,.04,4.39v.19s-.02,.23-.02,.23l-.04,.23-.07,.22-.05,.11s-.06,.09-.06,.1l-.07,.08-.1,.09s-.09,.06-.09,.06c0,0-.1,.05-.11,.05l-.1,.03-.1,.03-.1,.02h-.11s-.13,.02-.13,.02l-1.08-.03s-2.85-.22-2.85-.22c0,0-2.91-.27-2.91-.27,0,0-1.66-.08-1.66-.08h-1.11s-2.54,.15-2.54,.15c0,0-3.17,.22-3.17,.22,0,0-.9,.03-.9,.03h-.52s-.23,0-.25-.01c-.01,0-.09-.01-.12-.01-.04,0-.07,0-.11,.01-.04,0-.22,.01-.22,.01l-1.25-.02-5.9-.36-.76-.02s0-.01,0-.02c0-.1-.04-.13-.09-.13-.11,0-.31,.15-.52,.16l-3.06,.15-4.17,.24s-.75,.01-.76,.01c-.01,0-.23,0-.23,0h-.14s-.09-.03-.1-.03c0,0-.12-.03-.13-.03l-.1-.03-.11-.05-.11-.07s-.08-.07-.09-.08c0,0-.06-.08-.06-.08,0-.02-.04-.08-.05-.1l-.04-.11s-.02-.1-.02-.11l-.02-.13,.08-7.1,.19-7.65,.03-.68c.17-3.04,.36-5.54,.53-7.74l.02-.26c.17-2.12,.31-3.95,.33-5.42,.03-1.59-.09-2.66-.38-3.48-.33-.94-.91-1.59-1.78-1.99-.77-.36-1.79-.54-3.29-.59-.35-.01-.73-.02-1.12-.02-1.15,0-2.51,.05-4.04,.11l-.5,.02c-2.04,.08-4.34,.17-7.11,.2-.88,.01-1.8,.02-2.77,.02-2.59,0-5.14-.05-7.79-.15,0,0-.15,.01-.18,.01,0,0-.67,.08-.67,.08-.25,.04-.51,.06-.77,.07-.18,0-.37,0-.56,0h-1.21c-.31,0-.62,0-.92,.02-.34,.03-.64,.07-.91,.14-.32,.08-.61,.18-.86,.33-.29,.16-.54,.36-.75,.6-.22,.25-.4,.56-.54,.9-.02,.05-.03,.1-.04,.16-.08,.93-.14,1.77-.18,2.54-.04,.78-.06,1.48-.06,2.14s0,1.28,.02,1.88c.02,.59,.05,1.17,.08,1.74,.03,.47,.11,1.73,.11,1.73,.04,.59,.08,1.2,.12,1.86,.04,.66,.07,1.36,.09,2.13,.02,.77,.04,1.61,.04,2.54l.28,14.27v.89s-.01,.23-.01,.23l-.03,.25-.03,.14-.04,.14-.03,.1-.04,.1-.05,.1s-.06,.09-.07,.1c0,0-.09,.1-.09,.1,0,0-.08,.07-.09,.07,0,0-.08,.05-.09,.06,0,0-.1,.05-.1,.05l-.1,.04-.1,.03s-.11,.02-.12,.02h-.12s-1.24,0-1.24,0l-6.4-.37s-1.12-.02-1.13-.02c0,0-1.38,.04-1.42,.05l-21.56,.46c-.51,.01-.94,.03-.94,.03,0,0-4.06,.27-4.07,.27,0,0-.82,.03-.84,.03,0,0,0,0,0,0,0-.1-.03-.13-.07-.13-.09,0-.27,.15-.48,.15h-.3Zm83.36-.85h0s-.03,0-.04,0c0,0,.02,0,.03,0Zm73.05-53.7s0,0,0,0ZM113.91,14.99s0,0,0,0Z"/>
</svg>