<?xml version="1.0" encoding="UTF-8"?>
<svg id="Layer_1" data-name="Layer 1" xmlns="http://www.w3.org/2000/svg" viewBox="0 0 164.49 97.09">
  <defs>
    <style>
      .cls-1 {
        fill: none;
        stroke: #231f20;
        stroke-miterlimit: 10;
      }
    </style>
  </defs>
  <path class="cls-1" d="M48.62,60.58c4.07,.16,7.58,.18,10.59,.13s5.53-.14,7.63-.22,3.78-.14,5.12-.09,2.34,.2,3.07,.54,1.2,.87,1.48,1.66,.37,1.86,.35,3.28-.16,3.19-.33,5.39-.38,4.84-.55,7.99c0,.12-.01,.24-.02,.36s0,.24-.01,.35,0,.23-.01,.35,0,.23,0,.35,0,.23,0,.34,0,.23,0,.34,0,.23,0,.34,0,.22,0,.33c0,.11,0,.22,0,.33s0,.22,0,.33,0,.22,0,.33,0,.22,0,.32,0,.21,0,.32,0,.21,0,.32,0,.21,0,.31,0,.21,0,.31c0,.1,0,.21,0,.31s0,.2,0,.3,0,.2,0,.3,0,.2,0,.3,0,.2,0,.3,0,.2,0,.29,0,.19,0,.29,0,.19,0,.29c0,.1,0,.19,0,.28s0,.19,0,.28,0,.19,0,.28,0,.18,0,.28,0,.18,0,.27,0,.18,0,.27,0,.18,0,.27,0,.18,0,.26,0,.17,0,.26,0,.17,0,.26,0,.17,0,.25,0,.17,0,.25,0,.17,0,.25,0,.16,0,.25,0,.16,0,.24,0,.16,0,.24c0,.08,0,.16,0,.24s0,.16,0,.23,0,.15,0,.23,0,.15,0,.23,0,.15,0,.22,0,.15,0,.22,0,.15,0,.22,0,.14,0,.22c0,.07,0,.14,0,.21s0,.14,0,.21,0,.14,0,.21,0,.14,0,.2,0,.13,0,.2,0,.13,0,.2,0,.13,0,.19,0,.13,0,.19c0,.02,0,.03,0,.05s0,.03,0,.05,0,.03,0,.05,0,.03,0,.05,0,.03,0,.05,0,.03,0,.04,0,.03,0,.04,0,.03,0,.04,0,.03,0,.04,0,.03,0,.04,0,.03,0,.04,0,.03,0,.04,0,.03,.01,.04,0,.03,.01,.04,0,.03,.01,.04,0,.02,.01,.04c0,.01,0,.02,.01,.04s0,.02,.01,.04,.01,.02,.02,.03,.01,.02,.02,.03,.01,.02,.02,.03,.01,.02,.02,.03,.01,.02,.02,.03,.01,.02,.02,.03c0,.01,.01,.02,.02,.03s.01,.02,.02,.03,.01,.02,.02,.03,.02,.02,.02,.03,.02,.02,.02,.03,.02,.02,.02,.03,.02,.02,.03,.03,.02,.02,.03,.02c0,0,.02,.02,.03,.02s.02,.02,.03,.02,.02,.02,.03,.02,.02,.01,.03,.02,.02,.01,.03,.02,.02,.01,.03,.02,.02,.01,.03,.02,.02,.01,.03,.02c.01,0,.02,.01,.03,.02s.02,.01,.03,.02,.02,.01,.04,.02,.02,.01,.04,.02,.02,0,.04,.01,.03,0,.04,.01,.03,0,.04,.01,.03,0,.04,.01c.01,0,.03,0,.04,.01s.03,0,.04,.01,.03,0,.04,.01,.03,0,.04,0,.03,0,.04,0,.03,0,.04,0,.03,0,.05,0,.03,0,.05,0,.03,0,.05,0,.03,0,.05,0,.03,0,.05,0,.03,0,.05,0,.03,0,.05,0,.03,0,.05,0,.03,0,.05,0,.04,0,.05,0c.01,0,.03,0,.04,0s.03,0,.04,0,.03,0,.05,0,.03,0,.05,0,.03,0,.05,0,.03,0,.05,0,.03,0,.05,0,.03,0,.05,0c.02,0,.03,0,.05,0s.03,0,.05,0,.03,0,.05,0,.03,0,.05,0,.04,0,.05,0,.04,0,.05,0,.04,0,.05,0,.04,0,.05,0c.02,0,.04,0,.06,0s.04,0,.06,0,.04,0,.06,0,.04,0,.06,0,.04,0,.06,0,.04,0,.06,0,.04,0,.06,0,.04,0,.06,0,.04,0,.06,0,.04,0,.06,0,.04,0,.06,0,.04,0,.06,0,.04,0,.06,0,.04,0,.06,0,.04,0,.07,0,.04,0,.07,0c.02,0,.04,0,.07,0s.04,0,.07,0,.05,0,.07,0,.05,0,.07,0,.05,0,.07,0,.05,0,.07,0,.05,0,.07,0,.05,0,.07,0,.05,0,.07,0,.05,0,.07,0,.05,0,.07,0,.05,0,.07,0,.05,0,.08,0,.05,0,.08,0,.05,0,.08,0,.05,0,.08,0c.03,0,.05,0,.08,0s.05,0,.08,0,.05,0,.08,0,.05,0,.08,0,.05,0,.08,0,.05,0,.08,0,.05,0,.08,0,.06,0,.08,0c.03,0,.06,0,.08,0s.06,0,.08,0,.06,0,.09,0,.06,0,.09,0,.06,0,.09,0,.06,0,.09,0,.06,0,.09,0,.06,0,.09,0c.03,0,.06,0,.09,0s.06,0,.09,0,.06,0,.09,0,.06,0,.09,0,.06,0,.09,0,.06,0,.09,0,.06,0,.08,0,.06,0,.08,0c.03,0,.06,0,.08,0s.05,0,.08,0,.05,0,.08,0,.05,0,.08,0,.05,0,.08,0,.05,0,.08,0,.05,0,.08,0,.05,0,.08,0c.03,0,.05,0,.08,0s.05,0,.08,0,.05,0,.08,0,.05,0,.08,0,.05,0,.07,0,.05,0,.07,0,.05,0,.07,0,.05,0,.07,0c.02,0,.05,0,.07,0s.05,0,.07,0,.05,0,.07,0,.05,0,.07,0,.05,0,.07,0,.05,0,.07,0,.05,0,.07,0,.04,0,.07,0,.04,0,.07,0,.04,0,.07,0,.04,0,.06,0,.04,0,.06,0,.04,0,.06,0,.04,0,.06,0,.04,0,.06,0,.04,0,.06,0c.02,0,.04,0,.06,0s.04,0,.06,0,.04,0,.06,0,.04,0,.06,0,.04,0,.06,0,.04,0,.06,0,.04,0,.06,0,.04,0,.06,0c.02,0,.04,0,.05,0s.04,0,.05,0,.04,0,.05,0,.04,0,.05,0,.03,0,.05,0,.03,0,.05,0,.03,0,.05,0,.03,0,.05,0c.02,0,.03,0,.05,0s.03,0,.05,0,.03,0,.05,0,.03,0,.05,0,.03,0,.05,0,.03,0,.05,0,.03,0,.05,0,.03,0,.04,0c.01,0,.03,0,.04,0s.03,0,.04,0,.03,0,.04,0,.03,0,.04,0,.03,0,.04,0,.03,0,.05,0,.03,0,.05,0,.03,0,.05,0c.02,0,.03,0,.05,0s.03,0,.05,0,.03,0,.05,0,.03,0,.05,0,.03,0,.05,0,.03,0,.05,0,.03,0,.05,0,.03,0,.05,0c.02,0,.03,0,.05,0s.04,0,.05,0,.04,0,.05,0,.04,0,.05,0,.04,0,.05,0,.04,0,.06,0,.04,0,.06,0,.04,0,.06,0,.04,0,.06,0,.04,0,.06,0,.04,0,.06,0,.04,0,.06,0,.04,0,.06,0,.04,0,.06,0,.04,0,.06,0,.04,0,.06,0,.04,0,.06,0,.04,0,.06,0,.04,0,.06,0,.04,0,.06,0,.04,0,.06,0,.04,0,.07,0,.04,0,.07,0,.04,0,.07,0,.04,0,.07,0,.05,0,.07,0,.05,0,.07,0,.05,0,.07,0,.05,0,.07,0,.05,0,.07,0,.05,0,.07,0,.05,0,.07,0,.05,0,.07,0,.05,0,.07,0,.05,0,.07,0,.05,0,.07,0,.05,0,.07,0,.05,0,.08,0,.05,0,.08,0,.05,0,.08,0c.03,0,.05,0,.08,0s.05,0,.08,0,.05,0,.08,0,.05,0,.08,0,.05,0,.08,0,.05,0,.08,0,.05,0,.08,0,.05,0,.08,0c.03,0,.05,0,.08,0s.05,0,.08,0,.05,0,.08,0,.05,0,.08,0,.05,0,.08,0,.05,0,.08,0,.05,0,.08,0,.05,0,.08,0c.03,0,.05,0,.08,0s.05,0,.08,0,.05,0,.08,0,.05,0,.07,0,.05,0,.07,0,.05,0,.07,0,.05,0,.07,0,.05,0,.07,0c.02,0,.05,0,.07,0s.05,0,.07,0,.05,0,.07,0,.05,0,.07,0,.05,0,.07,0,.05,0,.07,0,.04,0,.07,0,.04,0,.07,0c.02,0,.04,0,.07,0s.04,0,.07,0,.04,0,.06,0,.04,0,.06,0,.04,0,.06,0,.04,0,.06,0,.04,0,.06,0,.04,0,.06,0c.02,0,.04,0,.06,0s.04,0,.06,0,.04,0,.06,0,.04,0,.06,0,.04,0,.06,0,.04,0,.06,0,.04,0,.06,0,.04,0,.06,0c.02,0,.04,0,.06,0s.04,0,.05,0,.04,0,.05,0,.04,0,.05,0,.04,0,.05,0,.03,0,.05,0,.03,0,.05,0,.03,0,.05,0c.02,0,.03,0,.05,0s.03,0,.05,0,.03,0,.05,0,.03,0,.05,0,.03,0,.05,0,.03,0,.05,0,.03,0,.05,0,.03,0,.05,0c.01,0,.03,0,.04,0s.03,0,.04,0,.03,0,.04,0,.03,0,.04,0,.03,0,.04,0,.03,0,.04,0,.03,0,.04,0,.03,0,.04,0c.02,0,.05,0,.07,0s.05,0,.07,0,.04,0,.07,0,.04,0,.07,0,.04,0,.06,0,.04,0,.06,0,.04,0,.06,0,.04,0,.06,0c0,0,0,0,0,0s0,0,0,0,0,0,0,0,0,0,0,0,0,0,0,0,0,0,0,0,0,0,0,0,0,0,0,0c0,0,0,0,0,0s0,0,0,0,0,0,0,0,0,0,0,0,0,0,0,0,0,0,0,0,0,0,0,0,0,0,0,0c.02,0,.03,0,.05,0s.03,0,.05,0,.04,0,.05,0,.04,0,.05,0,.04,0,.05,0,.04,0,.06,0,.04,0,.06,0,.04,0,.06,0c.01,0,.03,0,.04,0s.03,0,.04,0,.03,0,.04,0,.03,0,.04,0,.03,0,.04,0,.03,0,.04,0,.03,0,.04,0,.03,0,.04,0c.01,0,.03,0,.04,0s.03,0,.05,0,.03,0,.05,0,.03,0,.05,0,.03,0,.05,0,.03,0,.05,0,.03,0,.05,0,.03,0,.05,0c.02,0,.03,0,.05,0s.03,0,.05,0,.03,0,.05,0,.03,0,.05,0,.03,0,.05,0,.04,0,.05,0,.04,0,.05,0,.04,0,.05,0,.04,0,.06,0,.04,0,.06,0,.04,0,.06,0,.04,0,.06,0,.04,0,.06,0,.04,0,.06,0,.04,0,.06,0,.04,0,.06,0c.02,0,.04,0,.06,0s.04,0,.06,0,.04,0,.06,0,.04,0,.06,0,.04,0,.06,0,.04,0,.06,0,.04,0,.06,0,.04,0,.06,0c.02,0,.04,0,.07,0s.04,0,.07,0,.04,0,.07,0,.04,0,.07,0,.05,0,.07,0,.05,0,.07,0,.05,0,.07,0,.05,0,.07,0c.02,0,.05,0,.07,0s.05,0,.07,0,.05,0,.07,0,.05,0,.07,0,.05,0,.07,0,.05,0,.07,0,.05,0,.07,0,.05,0,.08,0c.03,0,.05,0,.08,0s.05,0,.08,0,.05,0,.08,0,.05,0,.08,0,.05,0,.08,0,.05,0,.08,0,.05,0,.08,0,.05,0,.08,0c.03,0,.05,0,.08,0s.05,0,.08,0,.05,0,.08,0,.05,0,.08,0,.05,0,.08,0,.05,0,.08,0,.05,0,.08,0,.05,0,.08,0c.03,0,.05,0,.08,0s.05,0,.07,0,.05,0,.07,0,.05,0,.07,0,.05,0,.07,0,.05,0,.07,0,.05,0,.07,0,.05,0,.07,0,.05,0,.07,0,.05,0,.07,0,.05,0,.07,0,.05,0,.07,0,.05,0,.07,0,.04,0,.07,0,.04,0,.07,0,.04,0,.07,0,.04,0,.06,0,.04,0,.06,0,.04,0,.06,0,.04,0,.06,0,.04,0,.06,0,.04,0,.06,0,.04,0,.06,0,.04,0,.06,0c.02,0,.04,0,.06,0s.04,0,.06,0,.04,0,.06,0,.04,0,.06,0,.04,0,.06,0,.04,0,.06,0,.04,0,.06,0,.04,0,.06,0,.04,0,.05,0,.04,0,.05,0,.04,0,.05,0,.04,0,.05,0,.03,0,.05,0,.03,0,.05,0,.03,0,.05,0,.03,0,.05,0c.02,0,.03,0,.05,0s.03,0,.05,0,.03,0,.05,0,.03,0,.05,0,.03,0,.05,0,.03,0,.05,0,.03,0,.05,0,.03,0,.04,0c.01,0,.03,0,.04,0s.03,0,.04,0,.03,0,.04,0,.03,0,.04,0,.03,0,.04,0,.03,0,.04,0,.03,0,.04,0,.03,0,.04,0c.02,0,.03,0,.05,0s.03,0,.05,0,.03,0,.05,0,.03,0,.05,0,.03,0,.05,0,.03,0,.05,0,.04,0,.05,0,.04,0,.05,0c.02,0,.04,0,.05,0s.04,0,.05,0,.04,0,.06,0,.04,0,.06,0,.04,0,.06,0,.04,0,.06,0,.04,0,.06,0,.04,0,.06,0c.02,0,.04,0,.06,0s.04,0,.06,0,.04,0,.06,0,.04,0,.06,0,.04,0,.06,0,.04,0,.06,0,.04,0,.06,0,.04,0,.06,0,.04,0,.06,0,.04,0,.07,0,.04,0,.07,0,.04,0,.07,0,.04,0,.07,0,.05,0,.07,0,.05,0,.07,0,.05,0,.07,0,.05,0,.07,0,.05,0,.07,0,.05,0,.07,0,.05,0,.07,0,.05,0,.07,0,.05,0,.07,0,.05,0,.07,0,.05,0,.07,0c.03,0,.05,0,.08,0s.05,0,.08,0,.05,0,.08,0,.05,0,.08,0,.05,0,.08,0,.05,0,.08,0,.05,0,.08,0,.05,0,.08,0,.05,0,.08,0,.05,0,.08,0,.05,0,.08,0,.06,0,.08,0,.06,0,.08,0,.06,0,.08,0,.06,0,.09,0,.06,0,.09,0,.06,0,.09,0,.06,0,.09,0,.06,0,.09,0,.06,0,.09,0,.06,0,.09,0,.06,0,.09,0,.06,0,.09,0,.06,0,.09,0c.03,0,.06,0,.09,0s.06,0,.09,0,.06,0,.09,0,.06,0,.09,0,.06,0,.09,0,.06,0,.09,0,.06,0,.09,0,.06,0,.09,0c.03,0,.06,0,.09,0s.06,0,.08,0,.06,0,.08,0,.06,0,.08,0,.06,0,.08,0,.05,0,.08,0,.05,0,.08,0,.05,0,.08,0,.05,0,.08,0,.05,0,.08,0,.05,0,.08,0,.05,0,.08,0,.05,0,.08,0,.05,0,.08,0,.05,0,.08,0,.05,0,.07,0c.02,0,.05,0,.07,0s.05,0,.07,0,.05,0,.07,0,.05,0,.07,0,.05,0,.07,0,.05,0,.07,0,.05,0,.07,0,.05,0,.07,0c.02,0,.05,0,.07,0s.05,0,.07,0,.04,0,.07,0,.04,0,.07,0,.04,0,.07,0,.04,0,.06,0,.04,0,.06,0,.04,0,.06,0,.04,0,.06,0,.04,0,.06,0,.04,0,.06,0,.04,0,.06,0,.04,0,.06,0,.04,0,.06,0,.04,0,.06,0,.04,0,.06,0c.02,0,.04,0,.06,0s.04,0,.06,0,.04,0,.06,0,.04,0,.06,0,.04,0,.05,0,.04,0,.05,0,.04,0,.05,0,.03,0,.05,0,.03,0,.05,0,.03,0,.05,0,.03,0,.05,0,.03,0,.05,0,.03,0,.05,0,.03,0,.05,0,.03,0,.05,0,.03,0,.05,0c.02,0,.04,0,.06,0s.04,0,.05,0,.04,0,.05,0,.04,0,.05,0,.03,0,.05,0,.03,0,.05,0,.03,0,.05,0,.03,0,.05,0c.02,0,.03,0,.05,0s.03,0,.05,0,.03,0,.05-.01,.03,0,.05-.01,.03,0,.04-.01,.03,0,.04-.01,.03,0,.04-.01,.03-.01,.04-.02,.03-.01,.04-.02,.03-.01,.04-.02,.03-.01,.04-.02,.03-.01,.04-.02,.03-.01,.04-.02,.02-.01,.04-.02,.02-.01,.04-.02,.02-.02,.04-.02c.01,0,.02-.02,.03-.02s.02-.02,.03-.03,.02-.02,.03-.03,.02-.02,.03-.03,.02-.02,.03-.03,.02-.02,.03-.03,.02-.02,.03-.03,.02-.02,.03-.03c0-.01,.02-.02,.03-.03s.02-.02,.03-.03,.02-.02,.03-.03,.02-.02,.02-.04,.02-.02,.02-.04,.02-.02,.02-.04,.01-.03,.02-.04,.01-.03,.02-.04c0-.01,.01-.03,.02-.04s.01-.03,.02-.04,.01-.03,.02-.04,.01-.03,.02-.04,.01-.03,.02-.04,.01-.03,.02-.05,.01-.03,.02-.05,0-.03,.01-.05c0-.02,0-.03,.01-.05s0-.03,.01-.05,0-.03,.01-.05,0-.03,.01-.05,0-.03,0-.05,0-.04,0-.05,0-.04,0-.05,0-.04,0-.06,0-.04,0-.06,0-.04,0-.06,0-.04,0-.06,0-.04,0-.06,0-.04,0-.06,0-.04,0-.06,0-.04,0-.06,0-.04,0-.06c0-.06,0-.13,0-.19s0-.13,0-.19,0-.13,0-.2,0-.13,0-.2,0-.14,0-.2,0-.14,0-.21,0-.14,0-.21,0-.14,0-.21,0-.14,0-.22,0-.15,0-.22,0-.15,0-.22,0-.15,0-.22,0-.15,0-.23,0-.15,0-.23,0-.16,0-.23,0-.16,0-.24c0-.08,0-.16,0-.24s0-.16,0-.24,0-.16,0-.25,0-.17,0-.25,0-.17,0-.25,0-.17,0-.25,0-.17,0-.26,0-.17,0-.26c0-.09,0-.17,0-.26s0-.18,0-.27,0-.18,0-.27,0-.18,0-.27,0-.18,0-.28,0-.18,0-.28,0-.19,0-.28,0-.19,0-.28c0-.1,0-.19,0-.29s0-.19,0-.29,0-.19,0-.29,0-.2,0-.3,0-.2,0-.3,0-.2,0-.3,0-.2,0-.3,0-.2,0-.31,0-.21,0-.31,0-.21,0-.31,0-.21,0-.32,0-.21,0-.32,0-.21,0-.32,0-.22,0-.33,0-.22,0-.33,0-.22,0-.33,0-.22,0-.33,0-.22,0-.34,0-.23,0-.34,0-.23,0-.34,0-.23,0-.35,0-.23,0-.35,0-.23,0-.35,0-.24-.01-.36c0-.12,0-.24-.01-.36s0-.24-.01-.36,0-.24-.01-.36,0-.24-.01-.37,0-.25-.01-.37,0-.25-.01-.37,0-.25-.01-.38,0-.25-.01-.38c0-.13,0-.25-.01-.38s0-.25-.01-.38,0-.25-.01-.37,0-.25-.01-.37,0-.25-.01-.37,0-.24-.01-.36,0-.24-.01-.36,0-.24-.01-.36c0-.12,0-.24-.01-.36s0-.24,0-.35,0-.23,0-.35,0-.23,0-.35,0-.23,0-.34,0-.23,0-.34,0-.23,0-.34,0-.22,0-.33c0-.11,0-.22,0-.33s0-.22,0-.33,0-.22,0-.33,0-.22,0-.32,0-.21,0-.32,0-.21,0-.32,0-.21,0-.31,0-.21,0-.31c0-.1,0-.21,0-.31s0-.2,0-.3,0-.2,0-.3,0-.2,0-.3,0-.2,0-.3,0-.2,0-.29,0-.19,0-.29,0-.19,0-.29c0-.1,0-.19,0-.28s0-.19,0-.28,0-.19,0-.28,0-.18,0-.28,0-.18,0-.27,0-.18,0-.27,0-.18,0-.27,0-.18,0-.26c0-.09,0-.17,0-.26s0-.17,0-.26,0-.17,0-.25,0-.17,0-.25,0-.17,0-.25,0-.16,0-.25,0-.16,0-.24,0-.16,0-.24c0-.08,0-.16,0-.24s0-.16,0-.23,0-.15,0-.23,0-.15,0-.23,0-.15,0-.22,0-.15,0-.22,0-.15,0-.22,0-.14,0-.22c0-.07,0-.14,0-.21s0-.14,0-.21,0-.14,0-.21,0-.14,0-.2,0-.13,0-.2,0-.13,0-.2,0-.13,0-.19,0-.13,0-.19c0-.02,0-.04,0-.07s0-.04,0-.07,0-.04,0-.07,0-.04,0-.06,0-.04,0-.06,0-.04,0-.06,0-.04,.01-.06,0-.04,.01-.06c0-.02,0-.04,.01-.06s.01-.04,.02-.06,.01-.04,.02-.06,.01-.04,.02-.06,.01-.04,.02-.06,.01-.04,.02-.06,.02-.04,.02-.05,.02-.04,.03-.05,.02-.04,.03-.05,.02-.03,.03-.05,.02-.03,.03-.05,.02-.03,.03-.05,.02-.03,.03-.05,.02-.03,.03-.05,.02-.03,.04-.05,.03-.03,.04-.05,.03-.03,.04-.05,.03-.03,.04-.04,.03-.03,.04-.04,.03-.03,.04-.04,.03-.03,.05-.04,.03-.03,.05-.04,.03-.03,.05-.04,.03-.03,.05-.04c.02-.01,.03-.03,.05-.04s.04-.03,.05-.04,.04-.02,.06-.04,.04-.02,.06-.04,.04-.02,.06-.04,.04-.02,.06-.03,.04-.02,.06-.03,.04-.02,.06-.03,.04-.02,.07-.03,.04-.02,.07-.03,.05-.02,.07-.03,.05-.02,.07-.03,.05-.02,.07-.03,.05-.02,.07-.03,.05-.02,.08-.03,.05-.02,.08-.03c.03,0,.05-.02,.08-.02s.05-.02,.08-.02,.05-.02,.08-.02,.06-.01,.08-.02,.06-.01,.09-.02,.06-.01,.09-.02,.06-.01,.09-.02,.06-.01,.09-.02,.06-.01,.09-.02,.06-.01,.09-.02,.06-.01,.1-.02,.06,0,.1-.01,.07,0,.1-.01,.07,0,.1-.01,.07,0,.1-.01,.07,0,.1-.01c.01,0,.03,0,.04,0s.03,0,.05,0,.03,0,.05,0,.03,0,.05,0,.04,0,.06,0,.04,0,.06,0,.04,0,.07,0,.05,0,.07,0c.02,0,.05,0,.07,0s.05,0,.08,0,.05,0,.08,0,.06,0,.09,0,.06,0,.09,0,.06,0,.09,0,.06,0,.1,0,.07,0,.1,0c.03,0,.07,0,.11,0s.07,0,.11,0,.08,0,.11,0,.08,0,.12,0,.08,0,.12,0,.08,0,.13,0,.09,0,.13,0,.09,0,.13,0c.05,0,.09,0,.14,0s.09,0,.14,0,.1,0,.15,0,.1,0,.15,0,.1,0,.15,0,.11,0,.16,0,.11,0,.16,0,.11,0,.17,0c.06,0,.11,0,.17,0s.12,0,.17,0,.12,0,.18,0,.12,0,.18,0,.12,0,.19,0,.13,0,.19,0,.13,0,.2,0,.13,0,.2,0c.07,0,.13,0,.2,0s.14,0,.21,0,.14,0,.21,0,.14,0,.22,0,.15,0,.22,0,.15,0,.22,0,.15,0,.23,0,.15,0,.23,0,.16,0,.24,0,.16,0,.24,0,.16,0,.24,0,.16,0,.25,0,.17,0,.25,0,.17,0,.26,0,.17,0,.26,0,.18,0,.26,0,.18,0,.27,0,.18,0,.27,0,.18,0,.28,0,.19,0,.28,0,.19,0,.28,0,.19,0,.29,0,.19,0,.29,0,.2,0,.3,0c.05,0,.11,0,.16,0s.11,0,.17,0,.11,0,.17,0,.11,0,.17,0,.12,0,.17,0,.12,0,.18,0,.12,0,.18,0,.12,0,.18,0c.06,0,.12,0,.18,0s.12,0,.19,0,.13,0,.19,0,.13,0,.19,0,.13,0,.19,0,.13,0,.2,0,.13,0,.2,0,.13,0,.2,0c.07,0,.14,0,.2,0s.14,0,.21,0,.14,0,.21,0,.14,0,.21,0,.14,0,.21,0,.14,0,.22,0,.15,0,.22,0,.15,0,.22,0c.07,0,.15,0,.22,0s.15,0,.23,0,.15,0,.23,0,.15,0,.23,0,.16,0,.23,0,.16,0,.24,0,.16,0,.24,0,.16,0,.24,0,.16,0,.24,0,.16,0,.25,0,.17,0,.25,0,.17,0,.25,0,.17,0,.25,0,.17,0,.26,0,.17,0,.26,0,.17,0,.26,0,.18,0,.27,0,.18,0,.27,0,.18,0,.27,0,.18,0,.27,0,.18,0,.28,0,.18,0,.28,0,.19,0,.28,0,.19,0,.28,0c.09,0,.19,0,.29,0s.19,0,.29,0,.19,0,.29,0,.19,0,.29,0,.2,0,.3,0,.2,0,.3,0,.2,0,.3,0,.2,0,.3,0c.1,0,.2,0,.31,0s.21,0,.31,0,.21,0,.31,0,.21,0,.31,0,.21,0,.32,0,.21,0,.32,0,.21,0,.32,0,.22,0,.32,0c.11,0,.22,0,.32,0s.21,0,.32,0,.21,0,.32,0,.21,0,.32,0,.21,0,.31,0,.21,0,.31,0,.21,0,.31,0,.2,0,.31,0c.1,0,.2,0,.3,0s.2,0,.3,0,.2,0,.3,0,.2,0,.3,0,.2,0,.29,0,.19,0,.29,0,.19,0,.29,0,.19,0,.28,0c.09,0,.19,0,.28,0s.19,0,.28,0,.19,0,.28,0,.18,0,.27,0,.18,0,.27,0,.18,0,.27,0,.18,0,.27,0,.18,0,.26,0c.09,0,.17,0,.26,0s.17,0,.26,0,.17,0,.26,0,.17,0,.25,0,.17,0,.25,0,.17,0,.25,0,.16,0,.25,0,.16,0,.24,0c.08,0,.16,0,.24,0s.16,0,.24,0,.16,0,.24,0,.16,0,.23,0,.15,0,.23,0,.15,0,.23,0,.15,0,.23,0,.15,0,.22,0,.15,0,.22,0,.15,0,.22,0,.14,0,.22,0,.14,0,.21,0,.14,0,.21,0,.14,0,.21,0,.14,0,.2,0,.14,0,.2,0c.07,0,.13,0,.2,0s.13,0,.2,0,.13,0,.19,0,.13,0,.19,0,.13,0,.19,0,.12,0,.19,0,.12,0,.18,0,.12,0,.18,0c.06,0,.12,0,.18,0s.12,0,.18,0,.12,0,.17,0,.11,0,.17,0,.11,0,.17,0,.11,0,.17,0,.11,0,.16,0,.11,0,.16,0c.02,0,.03,0,.05,0s.03,0,.05,0,.03,0,.05,0,.03,0,.05,0,.03,0,.05,0,.03,0,.04,0,.03,0,.04,0,.03,0,.04,0c.01,0,.03,0,.04,0s.03,0,.04,0,.03,0,.04,0,.03,0,.04,0,.03,0,.04,0,.03,0,.04,0,.03,0,.04,0,.02,0,.04,0c.01,0,.02,0,.04,0s.02,0,.04,0,.02,0,.03,0,.02,0,.03,0,.02,0,.03,0,.02,0,.03,0,.02,0,.03,0,.02,0,.03,0,.02,0,.03,0,.02,0,.03-.01,.02,0,.03-.01,.02,0,.03-.01,.02,0,.03-.01,.02,0,.03-.01,.02,0,.03-.01,.02,0,.02-.01c0,0,.02,0,.02-.01s.02,0,.02-.01,.02,0,.02-.01,.01,0,.02-.01,.01,0,.02-.01,.01,0,.02-.01,.01-.01,.02-.02,.01-.01,.02-.02,.01-.01,.02-.02,.01-.01,.02-.02,.01-.01,.02-.02,.01-.01,.02-.02,0-.01,.01-.02,0-.01,.01-.02,0-.01,.01-.02,0-.01,.01-.02c0,0,0-.01,.01-.02s0-.01,.01-.02,0-.01,.01-.02,0-.01,0-.02,0-.01,0-.02,0-.01,0-.02,0-.01,0-.02,0-.01,0-.02c0,0,0-.01,0-.02s0-.02,0-.02,0-.02,0-.02,0-.02,0-.02,0-.02,0-.02,0-.02,0-.02,0-.02,0-.02,0-.02,0-.03c0-.01,0-.03,0-.04s0-.03,0-.04,0-.03,0-.04,0-.03,0-.04,0-.03,0-.04,0-.03,0-.04,0-.03,0-.04,0-.03,0-.04c0-.01,0-.03,0-.04s0-.03,0-.04,0-.03,0-.04,0-.03,0-.05,0-.03,0-.05,0-.03,0-.05,0-.03,0-.05,0-.03,0-.05c0-.02,0-.03,0-.05s0-.03,0-.05,0-.03,0-.05,0-.03,0-.05,0-.03,0-.05,0-.03,0-.05,0-.03,0-.05,0-.03,0-.05c0-.02,0-.04,0-.05s0-.04,0-.05,0-.04,0-.05,0-.04,0-.05,0-.04,0-.06,0-.04,0-.06,0-.04,0-.06,0-.04,0-.06c0-.02,0-.04,0-.06s0-.04,0-.06,0-.04,0-.06,0-.04,0-.06,0-.04,0-.06,0-.04,0-.06,0-.04,0-.06,0-.04,0-.06c0-.02,0-.04,0-.06s0-.04,0-.06,0-.04,0-.06,0-.04,0-.06,0-.04,0-.07,0-.04,0-.07,0-.04,0-.07,0-.04,0-.07c0-.02,0-.05,0-.07s0-.05,0-.07,0-.05,0-.07,0-.05,0-.07,0-.05,0-.07,0-.05,0-.07,0-.05,0-.07,0-.05,0-.07c0-.02,0-.05,0-.07s0-.05,0-.07,0-.05,0-.07,0-.05,0-.07,0-.05,0-.08,0-.05,0-.08,0-.05,0-.08,0-.05,0-.08c0-.03,0-.05,0-.08s0-.05,0-.08,0-.05,0-.08,0-.05,0-.08,0-.05,0-.07,0-.05,0-.07,0-.05,0-.07,0-.05,0-.07c0-.02,0-.05,0-.07s0-.05,0-.07,0-.05,0-.07,0-.05,0-.07,0-.05,0-.07,0-.05,0-.07,0-.05,0-.07,0-.05,0-.07,0-.04,0-.07,0-.04,0-.07,0-.04,0-.07,0-.04,0-.07,0-.04,0-.06,0-.04,0-.06,0-.04,0-.06,0-.04,0-.06,0-.04,0-.06,0-.04,0-.06,0-.04,0-.06,0-.04,0-.06,0-.04,0-.06,0-.04,0-.06,0-.04,0-.06,0-.04,0-.06c0-.02,0-.04,0-.06s0-.04,0-.06,0-.04,0-.06,0-.04,0-.06,0-.04,0-.05,0-.04,0-.05,0-.04,0-.05,0-.04,0-.05,0-.04,0-.05,0-.03,0-.05,0-.03,0-.05,0-.03,0-.05,0-.03,0-.05,0-.03,0-.05,0-.03,0-.05,0-.03,0-.05c0-.02,0-.03,0-.05s0-.03,0-.05,0-.03,0-.05,0-.03,0-.05,0-.03,0-.05,0-.03,0-.04,0-.03,0-.04,0-.03,0-.04c0-.01,0-.03,0-.04s0-.03,0-.04,0-.03,0-.04,0-.03,0-.04,0-.03,0-.04,0-.03,0-.04,0-.03,0-.04,0-.03,0-.04c0-.01,0-.02,0-.04s0-.02,0-.04,0-.02,0-.04,0-.03,0-.04,0-.03,0-.04,0-.03,0-.04,0-.03,0-.04,0-.03,0-.04c0-.01,0-.03,0-.04s0-.03,0-.04,0-.03,0-.04,0-.03,0-.04,0-.03,0-.04,0-.03,0-.04,0-.03,0-.04,0-.03,0-.04,0-.03,0-.04,0-.03,0-.05,0-.03,0-.05,0-.03,0-.05,0-.03,0-.05,0-.03,0-.05,0-.03,0-.05,0-.03,0-.05,0-.03,0-.05,0-.03,0-.05,0-.03,0-.05,0-.03,0-.05,0-.03,0-.05,0-.03,0-.05,0-.03,0-.05,0-.04,0-.05c0-.02,0-.04,0-.05s0-.04,0-.05,0-.04,0-.05,0-.04,0-.06,0-.04,0-.06,0-.04,0-.06,0-.04,0-.06,0-.04,0-.06c0-.02,0-.04,0-.06s0-.04,0-.06,0-.04,0-.06,0-.04,0-.06,0-.04,0-.06,0-.04,0-.06,0-.04,0-.06,0-.04,0-.06c0-.02,0-.04,0-.06s0-.04,0-.06,0-.04,0-.06,0-.04,0-.06,0-.04,0-.06,0-.04,0-.07,0-.04,0-.07,0-.04,0-.07c0-.02,0-.04,0-.07s0-.04,0-.07,0-.05,0-.07,0-.05,0-.07,0-.05,0-.07,0-.05,0-.07,0-.05,0-.07,0-.05,0-.07c0-.02,0-.05,0-.07s0-.05,0-.07,0-.05,0-.07,0-.05,0-.07,0-.05,0-.07,0-.05,0-.07,0-.04,0-.07,0-.04,0-.07c0-.02,0-.04,0-.07s0-.04,0-.07,0-.04,0-.07,0-.04,0-.06,0-.04,0-.06,0-.04,0-.06,0-.04,0-.06,0-.04,0-.06c0-.02,0-.04,0-.06s0-.04,0-.06,0-.04,0-.06,0-.04,0-.06,0-.04,0-.06,0-.04,0-.06,0-.04,0-.06,0-.04,0-.06,0-.04,0-.06,0-.04,0-.06,0-.04,0-.06,0-.04,0-.06,0-.04,0-.06,0-.04,0-.05,0-.04,0-.05,0-.04,0-.05c0-.02,0-.04,0-.05s0-.04,0-.05,0-.03,0-.05,0-.03,0-.05,0-.03,0-.05,0-.03,0-.05,0-.03,0-.05,0-.03,0-.05c0-.02,0-.03,0-.05s0-.03,0-.05,0-.03,0-.05,0-.03,0-.05,0-.03,0-.05,0-.03,0-.05,0-.03,0-.05,0-.03,0-.04c0-.01,0-.03,0-.04s0-.03,0-.04,0-.03,0-.04,0-.03,0-.04,0-.03,0-.04,0-.03,0-.04,0-.03,0-.04,0-.03,0-.04c0-.01,0-.03,0-.04s0-.03,0-.04,0-.03,0-.04,0-.03,0-.04,0-.03,0-.04,0-.03,0-.04,0-.02,0-.04,0-.02,0-.04c0-.01,0-.02,0-.03s0-.02,0-.03,0-.02,0-.03,0-.02,0-.03,0-.02,0-.03,0-.02,0-.03,0-.02,0-.03,0-.02,0-.03,0-.02,0-.03,0-.02,0-.03,0-.02,0-.03,0-.02,0-.03,0-.02,0-.03,0-.02-.01-.03,0-.02-.01-.03,0-.02-.01-.03c0,0,0-.02-.01-.03s0-.02-.01-.02,0-.02-.01-.02,0-.02-.01-.02-.01-.02-.02-.02-.01-.02-.02-.02-.01-.01-.02-.02-.01-.01-.02-.02c0,0-.01-.01-.02-.02s-.01-.01-.02-.02-.01-.01-.02-.02-.01-.01-.02-.02-.01-.01-.02-.02-.01-.01-.02-.02-.02-.01-.02-.02-.02-.01-.02-.02-.02-.01-.02-.02-.02-.01-.03-.02-.02-.01-.03-.02-.02-.01-.03-.02-.02,0-.03-.01-.02,0-.03-.01-.02,0-.03-.01-.02,0-.03-.01c-.01,0-.02,0-.03-.01s-.02,0-.03-.01-.02,0-.03-.01-.02,0-.03-.01-.02,0-.03-.01-.02,0-.03,0-.02,0-.04,0-.02,0-.04,0c-.01,0-.02,0-.04,0s-.02,0-.04,0-.03,0-.04,0-.03,0-.04,0-.03,0-.04,0-.03,0-.04,0-.03,0-.04,0-.03,0-.04,0c-.01,0-.03,0-.04,0s-.03,0-.04,0-.03,0-.04,0-.03,0-.05,0-.03,0-.05,0-.03,0-.05,0-.03,0-.05,0-.03,0-.05,0c-.07,0-.15,0-.23,0s-.15,0-.23,0-.15,0-.23,0-.16,0-.24,0-.16,0-.24,0-.16,0-.24,0-.16,0-.25,0-.17,0-.25,0-.17,0-.25,0-.17,0-.26,0-.17,0-.26,0-.18,0-.27,0-.18,0-.27,0-.18,0-.27,0-.18,0-.28,0-.19,0-.28,0c-.09,0-.19,0-.28,0s-.19,0-.29,0-.19,0-.29,0-.2,0-.29,0-.2,0-.3,0-.2,0-.3,0-.2,0-.3,0-.2,0-.31,0-.21,0-.31,0-.21,0-.32,0-.21,0-.32,0-.21,0-.32,0-.22,0-.33,0-.22,0-.33,0-.22,0-.33,0-.22,0-.34,0c-.11,0-.23,0-.34,0s-.23,0-.34,0-.23,0-.35,.01-.23,0-.35,.01-.24,0-.35,.01-.24,0-.36,.01-.24,0-.36,.01-.24,0-.36,.01c-.12,0-.25,0-.37,.01s-.25,0-.37,.01-.25,0-.38,.01-.25,0-.38,.01-.25,0-.38,.01-.26,0-.39,.01-.26,0-.39,.01-.26,0-.39,.01c-.13,0-.26,0-.4,.01s-.27,0-.4,.01-.27,0-.4,.02-.27,.01-.41,.02-.27,.01-.41,.02-.28,.01-.41,.02-.28,.01-.42,.02-.28,.01-.42,.02c-.14,0-.28,.01-.43,.02s-.29,.01-.43,.02-.29,.01-.43,.02-.29,.01-.44,.02-.29,.01-.44,.02-.29,.01-.44,.02-.3,.01-.45,.02-.3,.01-.45,.02c-.15,0-.3,.01-.45,.02s-.3,.01-.45,.02-.3,.01-.44,.02-.29,.01-.44,.02-.29,.01-.44,.02-.29,.01-.43,.02-.29,.01-.43,.02-.28,.01-.43,.02c-.14,0-.28,.01-.42,.02s-.28,.01-.42,.02-.28,.01-.41,.02-.27,.01-.41,.02-.27,.01-.41,.02-.27,.01-.4,.02-.27,0-.4,.01-.27,0-.4,.01c-.13,0-.26,0-.39,.01s-.26,0-.39,.01-.26,0-.39,.01-.26,0-.38,.01-.25,0-.38,.01-.25,0-.38,.01-.25,0-.37,.01-.25,0-.37,.01c-.12,0-.24,0-.36,.01s-.24,0-.36,.01-.24,0-.36,.01-.24,0-.35,.01-.23,0-.35,.01-.23,0-.35,.01-.23,0-.34,0-.23,0-.34,0c-.11,0-.22,0-.34,0s-.22,0-.33,0-.22,0-.33,0-.22,0-.33,0-.22,0-.32,0-.21,0-.32,0-.21,0-.32,0-.21,0-.31,0-.21,0-.31,0-.2,0-.3,0-.2,0-.3,0-.2,0-.3,0-.2,0-.29,0-.19,0-.29,0-.19,0-.29,0-.19,0-.28,0c-.09,0-.19,0-.28,0s-.18,0-.28,0-.18,0-.27,0-.18,0-.27,0-.18,0-.27,0-.18,0-.26,0-.17,0-.26,0-.17,0-.25,0-.17,0-.25,0-.17,0-.25,0-.16,0-.24,0-.16,0-.24,0-.16,0-.24,0-.16,0-.23,0-.15,0-.23,0-.15,0-.23,0c-.02,0-.04,0-.07,0s-.04,0-.07,0-.04,0-.06,0-.04,0-.06,0-.04,0-.06-.01-.04,0-.06-.01-.04,0-.06-.01-.04-.01-.06-.02c-.02,0-.04-.01-.06-.02s-.04-.01-.06-.02-.04-.02-.06-.02-.04-.02-.06-.03-.04-.02-.05-.03-.04-.02-.05-.03-.03-.02-.05-.03-.03-.02-.05-.03c-.02-.01-.03-.02-.05-.04s-.03-.03-.05-.04-.03-.03-.05-.04-.03-.03-.05-.04-.03-.03-.05-.05-.03-.03-.04-.05-.03-.03-.04-.05-.03-.03-.04-.05c-.01-.02-.03-.04-.04-.06s-.03-.04-.04-.06-.03-.04-.04-.06-.03-.04-.04-.06-.02-.04-.04-.06-.02-.04-.04-.07-.02-.05-.04-.07-.02-.05-.03-.07c-.01-.02-.02-.05-.03-.07s-.02-.05-.03-.08-.02-.05-.03-.08-.02-.05-.03-.08-.02-.05-.03-.08-.02-.06-.03-.08-.02-.06-.03-.09-.02-.06-.03-.09-.02-.06-.02-.09-.02-.06-.02-.09-.02-.06-.02-.1-.01-.06-.02-.1-.01-.07-.02-.1-.01-.07-.02-.1-.01-.07-.02-.1-.01-.07-.02-.11-.01-.07-.02-.11-.01-.07-.02-.11,0-.08-.01-.11,0-.08-.01-.12,0-.08-.01-.12,0-.08-.01-.12,0-.08,0-.12,0-.08,0-.12c0-.04,0-.08,0-.13s0-.09,0-.13,0-.09,0-.13,0-.09,0-.13,0-.09,0-.14,0-.09,0-.14,0-.09,0-.14,0-.09,0-.14V19.87s0-.08,0-.12,0-.08,0-.11,0-.08,0-.11,0-.07,0-.11,0-.07,0-.11,0-.07,0-.11,0-.07,0-.11,0-.07,0-.1c0-.03,0-.07,0-.1s0-.07,0-.1,0-.07,0-.1,0-.07,0-.1,0-.06,0-.1,0-.06,0-.1,0-.06,.01-.09,0-.06,.01-.09c0-.03,0-.06,.01-.09s0-.06,.01-.09,0-.06,.01-.09,0-.06,.01-.09,0-.06,.01-.08,.01-.06,.02-.08,.01-.05,.02-.08,.01-.05,.02-.08,.01-.05,.02-.08,.01-.05,.02-.08,.01-.05,.02-.08,.01-.05,.02-.07,.01-.05,.02-.07,.01-.05,.02-.07,.01-.05,.02-.07,.02-.05,.02-.07c0-.02,.02-.04,.02-.07s.02-.04,.02-.06,.02-.04,.02-.06,.02-.04,.03-.06,.02-.04,.03-.06,.02-.04,.03-.06,.02-.04,.03-.06,.02-.04,.03-.05c0-.02,.02-.04,.03-.05s.02-.03,.03-.05,.02-.03,.03-.05,.02-.03,.03-.05,.02-.03,.03-.05,.02-.03,.03-.05,.02-.03,.03-.04,.02-.03,.03-.04c.01-.01,.02-.03,.04-.04s.02-.03,.04-.04,.02-.03,.04-.04,.02-.02,.04-.04,.03-.02,.04-.03,.03-.02,.04-.03,.03-.02,.04-.03,.03-.02,.04-.03,.03-.02,.04-.03,.03-.02,.04-.03,.03-.02,.04-.03,.03-.02,.04-.02,.03-.02,.04-.02,.03-.01,.04-.02,.03-.01,.05-.02,.03-.01,.05-.02c0,0,0,0,.01,0s0,0,.01,0,0,0,.02,0,.01,0,.02,0,.01,0,.02,0,.01,0,.02,0,.02,0,.02,0,.02,0,.03,0,.02,0,.03,0,.02,0,.03,0,.02,0,.03,0,.02,0,.04,0,.03,0,.04,0,.03,0,.04,0,.03,0,.04,0,.03,0,.05,0c.02,0,.03,0,.05,0s.03,0,.05,0,.04,0,.05,0,.04,0,.06,0,.04,0,.06,0,.04,0,.06,0,.04,0,.06,0,.04,0,.07,0c.02,0,.04,0,.07,0s.05,0,.07,0,.05,0,.07,0,.05,0,.07,0,.05,0,.08,0,.05,0,.08,0,.05,0,.08,0,.06,0,.08,0c.03,0,.06,0,.09,0s.06,0,.09,0,.06,0,.09,0,.06,0,.09,0,.06,0,.1,0,.07,0,.1,0,.07,0,.1,0,.07,0,.1,0c.03,0,.07,0,.11,0s.07,0,.11,0,.07,0,.11,0,.07,0,.11,0,.08,0,.12,0,.08,0,.12,0,.08,0,.12,0,.08,0,.12,0c.04,0,.08,0,.12,0s.08,0,.13,0,.09,0,.13,0,.09,0,.13,0,.09,0,.13,0,.09,0,.14,0,.09,0,.14,0,.09,0,.14,0c.05,0,.1,0,.14,0s.1,0,.15,0,.1,0,.15,0,.1,0,.15,0,.1,0,.15,0,.1,0,.16,0,.11,0,.16,0,.11,0,.16,0h.08s.08,0,.08,0h.08s.08,0,.08,0h.08s.08,0,.08,0h.08s.08,0,.08,0h.08s.08,0,.08,0h.08s.08,0,.08,0h.08s.08,0,.08,0h.08s.08,0,.08,0h.08s.08,0,.08,0h.08s.08,0,.08,0h.08s.08,0,.08,0h.08s.08,0,.08,0h.08s.08,0,.08,0h.08s.08,0,.08,0h.08s.08,0,.08,0h.08s.08,0,.08,0h.08s.08,0,.08,0h.08s.08,0,.08,0h.08s.08,0,.08,0h.08s.08,0,.08,0h.08s.08,0,.08,0h.08s.08,0,.08,0h.08s.08,0,.08,0h.08s.08,0,.08,0h.08s.08,0,.08,0h.08s.08,0,.08,0h.08s.08,0,.08,0h.08s.08,0,.08,0h.08s.08,0,.08,0h.08s.08,0,.08,0h.08s.08,0,.08,0h.08s.08,0,.08,0c.07,0,.14,0,.21,0s.14,0,.21,0,.14,0,.22,0,.14,0,.22,0,.15,0,.22,0,.15,0,.22,0,.15,0,.23,0,.15,0,.23,0c.08,0,.15,0,.23,0s.16,0,.23,0,.16,0,.24,0,.16,0,.24,0,.16,0,.24,0,.16,0,.25,0,.16,0,.25,0,.17,0,.25,0c.08,0,.17,0,.25,0s.17,0,.26,0,.17,0,.26,0,.17,0,.26,0,.18,0,.26,0,.18,0,.27,0,.18,0,.27,0,.18,0,.27,0c.09,0,.18,0,.28,0s.19,0,.28,0,.19,0,.28,0,.19,0,.28,0,.19,0,.29,0,.19,0,.29,0,.19,0,.29,0,.2,0,.29,0c.1,0,.2,0,.3,0s.2,0,.3,0,.2,0,.3,0,.2,0,.31,0,.21,0,.31,0,.21,0,.31,0,.21,0,.31,0,.21,0,.32,0c.11,0,.21,0,.32,0s.21,0,.32,0,.22,0,.32,0,.22,0,.33,.01,.22,0,.33,.01,.22,0,.33,.01,.22,0,.34,.01,.23,0,.34,.01c.11,0,.23,0,.34,.01s.23,0,.34,.01,.23,0,.35,.01,.23,0,.35,.01,.23,0,.35,.01,.24,0,.36,.01,.24,0,.36,.01,.24,0,.36,.01c.12,0,.24,0,.36,.01s.24,0,.37,.01,.25,0,.37,.02,.25,.01,.37,.02,.25,.01,.37,.02,.25,.01,.38,.02,.25,.01,.38,.02,.25,.01,.38,.02c.14,0,.27,.01,.41,.02s.27,.01,.41,.02,.27,.01,.4,.02,.27,.01,.4,.02,.26,.01,.4,.02,.26,.01,.39,.02,.26,.01,.39,.02,.26,.01,.38,.02,.25,.01,.38,.02,.25,.01,.38,.02,.25,.01,.37,.02,.25,.01,.37,.02,.24,.01,.37,.02,.24,.01,.36,.02,.24,0,.36,.01,.24,0,.36,.01c.12,0,.24,0,.35,.01s.23,0,.35,.01,.23,0,.34,.01,.23,0,.34,.01,.23,0,.34,.01,.22,0,.33,.01,.22,0,.33,.01,.22,0,.33,.01c.11,0,.22,0,.32,.01s.21,0,.32,.01,.21,0,.32,.01,.21,0,.31,.01,.21,0,.31,.01,.2,0,.31,.01,.2,0,.3,0,.2,0,.3,0,.2,0,.29,0,.19,0,.29,0,.19,0,.29,0,.19,0,.28,0,.19,0,.28,0,.18,0,.28,0,.18,0,.27,0,.18,0,.27,0,.18,0,.27,0,.18,0,.26,0,.17,0,.26,0,.17,0,.25,0,.17,0,.25,0,.17,0,.25,0,.16,0,.24,0,.16,0,.24,0,.16,0,.24,0,.16,0,.23,0,.15,0,.23,0,.15,0,.23,0,.15,0,.22,0,.15,0,.22,0,.14,0,.21,0,.14,0,.21,0c.07,0,.14,0,.21,0s.14,0,.2,0,.13,0,.2,0,.13,0,.2,0,.13,0,.19,0,.13,0,.19,0,.12,0,.19,0,.12,0,.18,0c.02,0,.03,0,.05,0s.03,0,.05,0,.03,0,.05,0,.03,0,.05,0,.03,0,.05,0,.03,0,.04,0,.03,0,.04,0,.03,0,.04,0c.01,0,.03,0,.04,0s.03,0,.04,0,.03,0,.04,0,.03,0,.04,0,.03,0,.04,0,.03,0,.04,0,.03,0,.04,0,.02,0,.04,0c.01,0,.02,0,.04-.01s.02,0,.04-.01,.02,0,.03-.01,.02,0,.03-.01,.02,0,.03-.01,.02,0,.03-.01,.02,0,.03-.01,.02,0,.03-.01c.01,0,.02-.01,.03-.02s.02-.01,.03-.02,.02-.01,.03-.02,.02-.01,.03-.02,.02-.01,.03-.02,.02-.01,.03-.02,.02-.01,.03-.02,.02-.01,.02-.02c0,0,.02-.01,.02-.02s.02-.01,.02-.02,.02-.01,.02-.02,.01-.01,.02-.02,.01-.02,.02-.02,.01-.02,.02-.02,.01-.02,.02-.02,.01-.02,.02-.02,.01-.02,.02-.03,.01-.02,.02-.03,.01-.02,.02-.03,.01-.02,.02-.03,0-.02,.01-.03,0-.02,.01-.03,0-.02,.01-.03,0-.02,.01-.03c0-.01,0-.02,.01-.03s0-.02,.01-.03,0-.02,.01-.03,0-.02,0-.03,0-.02,0-.03,0-.02,0-.03,0-.02,0-.03,0-.02,0-.03c0-.01,0-.02,0-.04s0-.02,0-.04,0-.02,0-.04,0-.02,0-.04,0-.03,0-.04,0-.03,0-.04,0-.03,0-.04,0-.03,0-.04c0-.02,0-.03,0-.05s0-.03,0-.05,0-.04,0-.05,0-.04,0-.05,0-.04,0-.06,0-.04,0-.06,0-.04,0-.06,0-.04,0-.06c0-.02,0-.04,0-.06s0-.04,0-.07,0-.04,0-.07,0-.05,0-.07,0-.05,0-.07,0-.05,0-.07,0-.05,0-.07,0-.05,0-.08c0-.03,0-.05,0-.08s0-.05,0-.08,0-.05,0-.08,0-.06,0-.08,0-.06,0-.09,0-.06,0-.09,0-.06,0-.09,0-.06-.01-.09c0-.03,0-.06-.01-.09s0-.06-.01-.09,0-.06-.01-.1,0-.06-.01-.1,0-.07-.01-.1,0-.07-.01-.1,0-.07-.01-.1,0-.07-.01-.1,0-.07-.01-.11,0-.07-.01-.11,0-.07-.01-.11-.01-.07-.02-.11-.01-.08-.02-.11-.01-.08-.02-.12-.01-.08-.02-.12-.01-.08-.02-.12-.01-.08-.02-.12-.01-.08-.02-.12-.01-.08-.02-.12-.01-.08-.02-.13-.01-.09-.02-.13-.01-.09-.02-.13-.01-.09-.02-.13-.01-.09-.02-.13c0-.04-.01-.09-.02-.14s-.01-.09-.02-.14-.01-.09-.02-.14-.01-.09-.02-.14-.02-.09-.02-.14-.02-.1-.02-.14-.02-.1-.02-.15-.02-.1-.02-.15-.02-.1-.02-.15-.02-.1-.02-.15-.02-.1-.03-.15-.02-.1-.03-.15-.02-.1-.03-.16-.02-.11-.03-.16-.02-.11-.03-.16-.02-.11-.03-.16c0-.04,0-.08-.01-.12s0-.08-.01-.11,0-.08-.01-.11,0-.08-.01-.11,0-.07-.01-.11,0-.07-.01-.11,0-.07-.01-.11,0-.07,0-.11,0-.07,0-.11,0-.07,0-.11,0-.07,0-.11,0-.07,0-.11,0-.07,0-.1,0-.07,0-.1,0-.07,0-.1,0-.07,0-.1,0-.07,0-.1,0-.07,0-.1,0-.07,0-.1,0-.07,0-.1,0-.07,0-.1,0-.06,0-.1,0-.06,0-.1,0-.06,0-.09c0-.03,0-.06,0-.09s0-.06,0-.09,0-.06,0-.09,0-.06,0-.09,0-.06,0-.09,0-.06,0-.09,0-.06,0-.09,0-.06,0-.09,0-.06,0-.09,0-.06,0-.09,0-.06,0-.08,0-.06,0-.08,0-.06,0-.08,0-.05,0-.08,0-.05,0-.08,0-.05,0-.08c0-.03,0-.05,0-.08s0-.05,0-.08,0-.05,0-.08,0-.05,0-.08,0-.05,0-.08,0-.05,0-.07,0-.05,0-.07,0-.05,0-.07c0-.02,0-.05,0-.07s0-.05,0-.07,0-.05,0-.07,0-.05,0-.07,0-.05,0-.07,0-.04,0-.07,0-.04,0-.07,0-.04,0-.06c0-.02,0-.04,0-.06s0-.04,0-.06,0-.04,0-.06,0-.04,0-.06,0-.04,0-.06,0-.04,0-.06,0-.04,0-.06,0-.04,0-.06c0-.03,0-.05-.01-.08s0-.05-.01-.07,0-.05-.01-.07-.01-.05-.02-.07-.01-.05-.02-.07-.01-.05-.02-.07-.01-.05-.02-.07-.01-.04-.02-.07c0-.02-.01-.04-.02-.07s-.02-.04-.02-.06-.02-.04-.02-.06-.02-.04-.03-.06-.02-.04-.03-.06-.02-.04-.03-.06-.02-.04-.03-.06-.02-.04-.03-.06c-.01-.02-.02-.04-.03-.05s-.02-.04-.03-.05-.02-.04-.03-.05-.02-.03-.03-.05-.02-.03-.04-.05-.02-.03-.04-.05-.03-.03-.04-.05-.03-.03-.04-.05c-.01-.02-.03-.03-.04-.04s-.03-.03-.04-.04-.03-.03-.04-.04-.03-.03-.04-.04-.03-.03-.05-.04-.03-.03-.05-.04-.03-.02-.05-.04-.03-.02-.05-.04c-.02-.01-.03-.02-.05-.03s-.03-.02-.05-.03-.03-.02-.05-.03-.04-.02-.05-.03-.04-.02-.06-.03-.04-.02-.06-.03-.04-.02-.06-.03-.04-.02-.06-.03c-.02,0-.04-.02-.06-.02s-.04-.02-.06-.02-.04-.01-.06-.02-.04-.01-.06-.02-.04-.01-.06-.02-.04-.01-.07-.02-.04-.01-.07-.02-.05-.01-.07-.01c-.02,0-.05,0-.07-.01s-.05,0-.07-.01-.05,0-.07-.01-.05,0-.07,0-.05,0-.07,0-.05,0-.08,0-.05,0-.08,0-.05,0-.08,0c-.03,0-.05,0-.08,0s-.05,0-.08,0-.05,0-.08,0-.05,0-.08,0-.06,0-.08,0-.06,0-.08,0-.06,0-.09,0-.06,0-.09,0c-.22,.01-.43,.03-.65,.04s-.43,.02-.64,.04-.43,.02-.64,.04-.42,.02-.64,.04-.42,.02-.63,.04-.42,.02-.63,.04-.42,.02-.62,.03-.41,.02-.62,.03-.41,.02-.62,.03-.41,.02-.61,.03-.41,.02-.61,.03-.4,.02-.61,.03-.4,.02-.6,.03-.4,.02-.6,.03-.4,.02-.6,.03-.4,.02-.59,.03-.39,.02-.59,.03-.39,.02-.59,.03-.39,.02-.58,.03-.39,.02-.58,.03-.38,.02-.57,.03-.38,.02-.57,.03-.38,.02-.57,.03-.38,.02-.56,.03c-.19,0-.37,.02-.56,.03s-.37,.02-.56,.02-.37,.02-.55,.02-.37,.02-.55,.02-.36,.02-.55,.02-.36,.02-.54,.02-.36,.01-.54,.02-.36,.01-.53,.02c-.18,0-.35,.01-.53,.02s-.35,.01-.53,.02-.35,.01-.52,.02-.35,.01-.52,.02-.35,.01-.52,.02-.34,.01-.51,.02-.34,.01-.51,.02-.34,.01-.51,.02c-.17,0-.34,.01-.5,.02s-.33,.01-.5,.02-.33,.01-.5,.02-.33,.01-.49,.02-.33,0-.49,.01-.32,0-.48,.01-.32,0-.48,.01-.32,0-.48,.01c-.16,0-.32,0-.47,.01s-.31,0-.47,.01-.31,0-.47,.01-.31,0-.46,.01-.31,0-.46,.01-.3,0-.46,0-.3,0-.45,0-.3,0-.45,0-.3,0-.45,0-.3,0-.44,0-.29,0-.44,0-.29,0-.43,0-.29,0-.43,0-.29,0-.43,0-.28,0-.42,0-.28,0-.42,0c-.1,0-.21,0-.31,0s-.21,0-.31,0-.21,0-.31,0-.21,0-.31,0-.21,0-.31,0-.21,0-.31,0-.21,0-.32,0-.21,0-.32,0-.21,0-.32,0-.21,0-.32,0-.21,0-.32,0-.21,0-.32,0-.21,0-.32,0-.21,0-.32,0-.21,0-.32,0-.22,0-.32,0c-.11,0-.22,0-.32,0s-.22,0-.32,0-.22,0-.33,0-.22,0-.33,0-.22,0-.33,0-.22,0-.33,0-.22,0-.33,0-.22,0-.33,0c-.11,0-.22,0-.33,0s-.22,0-.33,0-.22,0-.33,0-.22,0-.33,0-.22,0-.33,0-.22,0-.33,0-.22,0-.34,0-.22,0-.34,0c-.11,0-.22,0-.34,0s-.23,0-.34,0-.23,0-.34,0-.23,0-.34,0-.23,0-.34,0-.23,0-.34,0-.23,0-.34,0-.23,0-.34,0c-.11,0-.23,0-.34,0s-.23,0-.34,0-.23,0-.35,0-.23,0-.35,0-.23,0-.35,0-.23,0-.35,0-.23,0-.35,0-.23,0-.35,0c-.12,0-.23,0-.35,0s-.23,0-.35,0-.23,0-.35,0-.23,0-.35,0-.24,0-.35,0-.24,0-.35,0-.24,0-.36,0-.24,0-.36,0c-.12,0-.24,0-.36,0s-.24,0-.36,0-.24,0-.36,0-.24,0-.36,0-.24,0-.36,0-.24,0-.36,0-.24,0-.36,0-.24,0-.36,0c-.09,0-.18,0-.27,0s-.18,0-.27,0-.18,0-.27,0-.17,0-.26,0-.17,0-.26,0-.17,0-.25,0-.17,0-.25,0-.16,0-.25,0c-.08,0-.16,0-.24,0s-.16,0-.24,0-.16,0-.23,0-.15,0-.23,0-.15,0-.23,0-.15,0-.22,0-.15,0-.22,0-.14,0-.21,0c-.07,0-.14,0-.21,0s-.14,0-.21,0-.13,0-.2,0-.13,0-.2,0-.13,0-.19,0-.13,0-.19,0-.12,0-.18,0-.12,0-.18,0c-.06,0-.12,0-.18,0s-.12,0-.17,0-.11,0-.17,0-.11,0-.16,0-.11,0-.16,0-.11,0-.16,0-.1,0-.15,0-.1,0-.15,0c-.05,0-.1,0-.14,0s-.09,0-.14,0-.09,0-.14,0-.09,0-.13,0-.09,0-.13,0-.08,0-.12,0-.08,0-.12,0-.08,0-.12,0-.08,0-.11,0-.07,0-.11,0-.07,0-.1,0-.07,0-.1,0-.07,0-.1,0-.06,0-.09,0-.06,0-.09,0-.06,0-.08,0c0,0,0,0,0,0s0,0,0,0,0,0,0,0,0,0,0,0,0,0,0,0,0,0,0,0,0,0,0,0,0,0,0,0c0,0,0,0,0,0s0,0,0,0,0,0,0,0,0,0,0,0,0,0,0,0,0,0,0,0,0,0,0,0,0,0,0,0c-.01,0-.02-.02-.03-.02s-.02-.01-.03-.02-.02-.01-.03-.02-.02-.01-.03-.02-.02-.01-.03-.02-.02-.01-.04-.02-.02-.01-.04-.02-.02-.01-.04-.02c-.01,0-.03-.01-.04-.02s-.03-.01-.04-.02-.03-.01-.04-.02-.03-.01-.04-.01-.03,0-.04-.01-.03,0-.04-.01-.03,0-.04-.01-.03,0-.04-.01c-.02,0-.03,0-.05-.01s-.03,0-.05-.01-.03,0-.05,0-.03,0-.05,0-.03,0-.05,0-.03,0-.05,0-.03,0-.05,0-.03,0-.05,0-.04,0-.05,0-.04,0-.05,0-.04,0-.05,0-.04,0-.06,0-.04,0-.06,0-.04,0-.06,0-.04,0-.06,0-.04,0-.06,0c-.01,0-.03,0-.04,0s-.03,0-.04,0-.03,0-.04,0-.03,0-.04,0-.03,0-.04,0-.03,0-.05,0-.03,0-.05,0-.03,0-.05,0c-.02,0-.03,0-.05,0s-.03,0-.05,0-.03,0-.05,0-.03,0-.05,0-.03,0-.05,0-.03,0-.05,0-.03,0-.05,0-.03,0-.05,0c-.02,0-.03,0-.05,0s-.04,0-.05,0-.04,0-.05,0-.04,0-.05,0-.04,0-.05,0-.04,0-.06,0-.04,0-.06,0-.04,0-.06,0-.04,0-.06,0-.04,0-.06,0-.04,0-.06,0-.04,0-.06,0-.04,0-.06,0-.04,0-.06,0-.04,0-.06,0-.04,0-.06,0c-.02,0-.04,0-.06,0s-.04,0-.06,0-.04,0-.06,0-.04,0-.06,0-.04,0-.07,0-.04,0-.07,0-.04,0-.07,0-.04,0-.07,0c-.02,0-.05,0-.07,0s-.05,0-.07,0-.05,0-.07,0-.05,0-.07,0-.05,0-.07,0-.05,0-.07,0-.05,0-.07,0-.05,0-.07,0-.05,0-.07,0-.05,0-.07,0-.05,0-.07,0-.05,0-.08,0-.05,0-.08,0-.05,0-.08,0-.05,0-.08,0-.05,0-.08,0c-.03,0-.05,0-.08,0s-.05,0-.08,0-.05,0-.08,0-.05,0-.08,0-.05,0-.08,0-.05,0-.08,0-.05,0-.08,0-.06,0-.08,0c-.03,0-.06,0-.08,0s-.05,0-.08,0-.05,0-.08,0-.05,0-.08,0-.05,0-.08,0-.05,0-.08,0-.05,0-.08,0-.05,0-.08,0c-.03,0-.05,0-.08,0s-.05,0-.08,0-.05,0-.08,0-.05,0-.08,0-.05,0-.08,0-.05,0-.07,0-.05,0-.07,0-.05,0-.07,0-.05,0-.07,0-.05,0-.07,0-.05,0-.07,0-.05,0-.07,0-.05,0-.07,0-.05,0-.07,0-.05,0-.07,0-.05,0-.07,0c-.02,0-.04,0-.07,0s-.04,0-.07,0-.04,0-.07,0-.04,0-.07,0-.04,0-.06,0-.04,0-.06,0-.04,0-.06,0-.04,0-.06,0c-.02,0-.04,0-.06,0s-.04,0-.06,0-.04,0-.06,0-.04,0-.06,0-.04,0-.06,0-.04,0-.06,0-.04,0-.06,0-.04,0-.06,0-.04,0-.06,0-.04,0-.06,0-.04,0-.06,0-.04,0-.05,0-.04,0-.05,0-.04,0-.05,0-.04,0-.05,0-.04,0-.05,0c-.02,0-.03,0-.05,0s-.03,0-.05,0-.03,0-.05,0-.03,0-.05,0-.03,0-.05,0-.03,0-.05,0-.03,0-.05,0-.03,0-.05,0c-.02,0-.03,0-.05,0s-.03,0-.05,0-.03,0-.05,0-.03,0-.04,0-.03,0-.04,0-.03,0-.04,0-.03,0-.04,0-.03,0-.04,0c-.01,0-.03,0-.04,0s-.03,0-.04,0-.03,0-.05,0-.03,0-.05,0-.03,0-.05,0-.03,0-.05,0-.03,0-.05,0-.03,0-.05,0c-.02,0-.03,0-.05,0s-.03,0-.05,0-.03,0-.05,0-.03,0-.05,0-.03,0-.05,0-.03,0-.05,0-.04,0-.05,0-.04,0-.05,0c-.02,0-.04,0-.05,0s-.04,0-.06,0-.04,0-.06,0-.04,0-.06,0-.04,0-.06,0-.04,0-.06,0-.04,0-.06,0-.04,0-.06,0-.04,0-.06,0-.04,0-.06,0-.04,0-.06,0-.04,0-.06,0-.04,0-.06,0-.04,0-.06,0-.04,0-.06,0-.04,0-.06,0c-.02,0-.04,0-.06,0s-.04,0-.07,0-.04,0-.07,0-.04,0-.07,0-.04,0-.07,0-.04,0-.07,0-.05,0-.07,0-.05,0-.07,0c-.02,0-.05,0-.07,0s-.05,0-.07,0-.05,0-.07,0-.05,0-.07,0-.05,0-.07,0-.05,0-.07,0-.05,0-.07,0-.05,0-.07,0c-.02,0-.05,0-.07,0s-.05,0-.08,0-.05,0-.08,0-.05,0-.08,0-.05,0-.08,0-.05,0-.08,0-.05,0-.08,0-.05,0-.08,0c-.03,0-.05,0-.08,0s-.05,0-.08,0-.05,0-.08,0-.05,0-.08,0-.05,0-.08,0-.06,0-.08,0-.06,0-.08,0-.06,0-.08,0c-.03,0-.06,0-.08,0s-.06,0-.08,0-.06,0-.08,0-.05,0-.08,0-.05,0-.08,0-.05,0-.08,0-.05,0-.08,0-.05,0-.08,0c-.03,0-.05,0-.08,0s-.05,0-.08,0-.05,0-.08,0-.05,0-.08,0-.05,0-.08,0-.05,0-.08,0-.05,0-.08,0-.05,0-.07,0c-.02,0-.05,0-.07,0s-.05,0-.07,0-.05,0-.07,0-.05,0-.07,0-.05,0-.07,0-.05,0-.07,0-.05,0-.07,0-.05,0-.07,0-.05,0-.07,0-.05,0-.07,0-.05,0-.07,0-.04,0-.07,0-.04,0-.07,0-.04,0-.07,0-.04,0-.07,0-.04,0-.06,0-.04,0-.06,0-.04,0-.06,0-.04,0-.06,0-.04,0-.06,0-.04,0-.06,0-.04,0-.06,0-.04,0-.06,0-.04,0-.06,0c-.02,0-.04,0-.06,0s-.04,0-.06,0-.04,0-.06,0-.04,0-.06,0-.04,0-.06,0-.04,0-.06,0-.04,0-.05,0-.04,0-.05,0c-.02,0-.04,0-.05,0s-.04,0-.05,0-.04,0-.05,0-.03,0-.05,0-.03,0-.05,0-.03,0-.05,0-.03,0-.05,0-.03,0-.05,0c-.02,0-.03,0-.05,0s-.03,0-.05,0-.03,0-.05,0-.03,0-.05,0-.03,0-.05,0-.03,0-.05,0-.03,0-.04,0-.03,0-.04,0c-.02,0-.04,0-.05,0s-.03,0-.05,0-.03,0-.05,0-.03,0-.05,0-.03,0-.05,0-.03,0-.05,0-.03,0-.05,0-.03,0-.05,0c-.02,0-.03,0-.05,0s-.03,0-.05,0-.03,0-.04,0-.03,0-.04,0-.03,0-.04,0-.03,0-.04,0-.03,0-.04,0-.03,0-.04,.01c-.01,0-.03,0-.04,.01s-.03,0-.04,.01-.03,0-.04,.01-.02,0-.04,.01-.02,0-.04,.01-.02,0-.04,.01-.02,0-.03,.01-.02,.01-.03,.02c-.01,0-.02,.01-.03,.02s-.02,.01-.03,.02-.02,.01-.03,.02-.02,.01-.03,.02-.02,.01-.03,.02-.02,.01-.03,.02-.02,.01-.03,.02-.02,.01-.03,.02c0,0-.02,.01-.03,.02s-.02,.01-.03,.02-.02,.02-.02,.02-.02,.02-.02,.02-.02,.02-.02,.02-.01,.02-.02,.02-.01,.02-.02,.03-.01,.02-.02,.03c0,0-.01,.02-.02,.03s-.01,.02-.02,.03-.01,.02-.02,.03-.01,.02-.02,.03-.01,.02-.02,.03-.01,.02-.02,.03,0,.02-.01,.03,0,.02-.01,.03c0,.01,0,.02-.01,.03s0,.02-.01,.03,0,.02-.01,.03,0,.02-.01,.03,0,.02,0,.03,0,.02,0,.04,0,.02,0,.04,0,.02,0,.04c0,.01,0,.02,0,.04s0,.03,0,.04,0,.03,0,.04,0,.03,0,.04,0,.03,0,.04,0,.03,0,.04,0,.03,0,.04,0,.03,0,.04c0,.06,0,.12,0,.18s0,.12,0,.18,0,.12,0,.18,0,.12,0,.19,0,.13,0,.19,0,.13,0,.19,0,.13,0,.2,0,.13,0,.2c0,.07,0,.13,0,.2s0,.14,0,.2,0,.14,0,.21,0,.14,0,.21,0,.14,0,.21,0,.14,0,.22,0,.15,0,.22,0,.15,0,.22,0,.15,0,.22,0,.15,0,.23,0,.15,0,.23,0,.15,0,.23,0,.16,0,.24,0,.16,0,.24,0,.16,0,.24,0,.16,0,.24c0,.08,0,.16,0,.25s0,.17,0,.25,0,.17,0,.25,0,.17,0,.25,0,.17,0,.26,0,.17,0,.26,0,.18,0,.26,0,.18,0,.27c0,.09,0,.18,0,.27s0,.18,0,.27,0,.18,0,.27,0,.18,0,.28,0,.19,0,.28,0,.19,0,.28,0,.19,0,.29,0,.19,0,.29c0,.1,0,.19,.01,.29s.01,.2,.02,.29,.01,.2,.02,.3,.01,.2,.02,.3,.01,.2,.01,.3,0,.2,0,.31,0,.2,0,.31,0,.21-.02,.31c-.21,2.78-.25,5.14-.2,7.14s.19,3.64,.33,4.99,.27,2.4,.32,3.22,0,1.4-.21,1.82-.61,.66-1.27,.79-1.59,.16-2.86,.15-2.91-.08-4.99-.12-4.59-.07-7.64-.02-5.5,.17-7.58,.28-3.72,.23-5.03,.28-2.28,.05-2.99-.07-1.17-.37-1.46-.79-.4-1.03-.43-1.87,.03-1.92,.09-3.3,.13-3.06,.11-5.1-.11-4.44-.37-7.26c0-.11-.02-.21-.02-.32s0-.21,0-.31,0-.21,.01-.31,.01-.21,.02-.31,.02-.2,.02-.31,.02-.2,.03-.3,.02-.2,.02-.3,.01-.2,.02-.3c0-.1,0-.2,.01-.29s0-.2,.01-.29,0-.19,.01-.29,0-.19,0-.29,0-.19,0-.28,0-.19,0-.28,0-.19,0-.28,0-.18,0-.27c0-.09,0-.18,0-.27s0-.18,0-.27,0-.18,0-.27,0-.18,0-.26,0-.17,0-.26,0-.17,0-.26,0-.17,0-.25,0-.17,0-.25c0-.08,0-.17,0-.25s0-.16,0-.25,0-.16,0-.24,0-.16,0-.24,0-.16,0-.24,0-.16,0-.23,0-.16,0-.23,0-.15,0-.23c0-.08,0-.15,0-.23s0-.15,0-.22,0-.15,0-.22,0-.15,0-.22,0-.14,0-.21,0-.14,0-.21,0-.14,0-.21,0-.14,0-.21c0-.07,0-.14,0-.2s0-.13,0-.2,0-.13,0-.2,0-.13,0-.19,0-.13,0-.19,0-.13,0-.19,0-.12,0-.19,0-.12,0-.18c0-.01,0-.03,0-.04s0-.02,0-.04,0-.02,0-.04,0-.02,0-.04,0-.02,0-.04,0-.02,0-.03,0-.02,0-.03,0-.02,0-.03c0-.01,0-.02,0-.03s0-.02,0-.03,0-.02,0-.03,0-.02,0-.03,0-.02-.01-.03,0-.02-.01-.03,0-.02-.01-.03,0-.02-.01-.03c0,0,0-.02-.01-.03s0-.02-.01-.03-.01-.02-.02-.03-.01-.02-.02-.03-.01-.02-.02-.03-.01-.02-.02-.03-.01-.02-.02-.02-.01-.02-.02-.02c0,0-.01-.02-.02-.02s-.01-.02-.02-.02-.01-.01-.02-.02-.02-.01-.02-.02-.02-.01-.02-.02-.02-.01-.02-.02-.02-.01-.03-.02-.02-.01-.03-.02c0,0-.02-.01-.03-.02s-.02-.01-.03-.02-.02-.01-.03-.02-.02-.01-.03-.02-.02-.01-.03-.02-.02-.01-.03-.02-.02-.01-.03-.02-.02,0-.03-.01c-.01,0-.02,0-.03-.01s-.02,0-.03-.01-.02,0-.04-.01-.02,0-.04-.01-.02,0-.04-.01-.03,0-.04-.01-.03,0-.04-.01-.03,0-.04,0-.03,0-.04,0-.03,0-.04,0-.03,0-.04,0-.03,0-.04,0-.03,0-.04,0-.03,0-.04,0-.03,0-.05,0-.03,0-.05,0c-.02,0-.03,0-.05,0s-.03,0-.05,0-.03,0-.05,0-.03,0-.05,0-.03,0-.05,0-.03,0-.05,0-.03,0-.05,0-.04,0-.05,0c-.01,0-.03,0-.04,0s-.03,0-.04,0-.03,0-.04,0-.03,0-.04,0-.03,0-.04,0-.03,0-.05,0-.03,0-.05,0-.03,0-.05,0c-.02,0-.03,0-.05,0s-.03,0-.05,0-.03,0-.05,0-.03,0-.05,0-.03,0-.05,0-.03,0-.05,0-.03,0-.05,0-.04,0-.05,0c-.02,0-.04,0-.05,0s-.04,0-.05,0-.04,0-.06,0-.04,0-.06,0-.04,0-.06,0-.04,0-.06,0-.04,0-.06,0-.04,0-.06,0c-.02,0-.04,0-.06,0s-.04,0-.06,0-.04,0-.06,0-.04,0-.06,0-.04,0-.06,0-.04,0-.06,0-.04,0-.06,0-.04,0-.06,0-.04,0-.07,0-.04,0-.07,0-.04,0-.07,0-.04,0-.07,0-.05,0-.07,0-.05,0-.07,0-.05,0-.07,0-.05,0-.07,0c-.02,0-.05,0-.07,0s-.05,0-.07,0-.05,0-.07,0-.05,0-.07,0-.05,0-.07,0-.05,0-.07,0-.05,0-.08,0-.05,0-.08,0c-.03,0-.05,0-.08,0s-.05,0-.08,0-.05,0-.08,0-.05,0-.08,0-.05,0-.08,0-.05,0-.08,0-.05,0-.08,0-.05,0-.08,0c-.03,0-.05,0-.08,0s-.06,0-.08,0-.06,0-.08,0-.06,0-.08,0-.06,0-.09,0-.06,0-.09,0-.06,0-.09,0-.06,0-.09,0c-.03,0-.06,0-.09,0s-.06,0-.09,0-.06,0-.09,0-.06,0-.09,0-.06,0-.08,0-.06,0-.08,0-.06,0-.08,0-.06,0-.08,0c-.03,0-.05,0-.08,0s-.05,0-.08,0-.05,0-.08,0-.05,0-.08,0-.05,0-.08,0-.05,0-.08,0-.05,0-.08,0-.05,0-.08,0-.05,0-.08,0-.05,0-.08,0-.05,0-.07,0-.05,0-.07,0-.05,0-.07,0-.05,0-.07,0-.05,0-.07,0-.05,0-.07,0-.05,0-.07,0-.05,0-.07,0-.05,0-.07,0-.05,0-.07,0-.04,0-.07,0-.04,0-.07,0-.04,0-.07,0-.04,0-.07,0-.04,0-.06,0-.04,0-.06,0-.04,0-.06,0-.04,0-.06,0-.04,0-.06,0-.04,0-.06,0-.04,0-.06,0-.04,0-.06,0c-.02,0-.04,0-.06,0s-.04,0-.06,0-.04,0-.06,0-.04,0-.06,0-.04,0-.06,0-.04,0-.05,0-.04,0-.05,0-.04,0-.05,0c-.02,0-.04,0-.05,0s-.03,0-.05,0-.03,0-.05,0-.03,0-.05,0-.03,0-.05,0-.03,0-.05,0-.03,0-.05,0-.03,0-.05,0c-.02,0-.03,0-.05,0s-.03,0-.05,0-.03,0-.05,0-.03,0-.04,0-.03,0-.04,0-.03,0-.04,0-.03,0-.04,0-.03,0-.04,0c-.01,0-.03,0-.04,0s-.03,0-.04,0-.03,0-.05,0-.03,0-.05,0-.03,0-.05,0-.03,0-.05,0-.03,0-.05,0-.03,0-.05,0c-.02,0-.03,0-.05,0s-.03,0-.05,0-.03,0-.05,0-.03,0-.05,0-.03,0-.05,0-.04,0-.05,0-.04,0-.05,0-.04,0-.05,0c-.02,0-.04,0-.05,0s-.04,0-.06,0-.04,0-.06,0-.04,0-.06,0-.04,0-.06,0-.04,0-.06,0-.04,0-.06,0-.04,0-.06,0c-.02,0-.04,0-.06,0s-.04,0-.06,0-.04,0-.06,0-.04,0-.06,0-.04,0-.06,0-.04,0-.06,0-.04,0-.06,0-.04,0-.06,0c-.02,0-.04,0-.07,0s-.04,0-.07,0-.04,0-.07,0-.04,0-.07,0-.05,0-.07,0-.05,0-.07,0-.05,0-.07,0-.05,0-.07,0c-.02,0-.39,0-1.01,.02s-1.49,.03-2.54,.05-2.26,.04-3.56,.07-2.68,.05-4.07,.08-2.77,.05-4.07,.08-2.51,.05-3.56,.07-1.92,.04-2.54,.05-.98,.02-1.01,.01c-.03,0-.05,0-.08,0s-.05,0-.08,0-.05,0-.08,0-.05,0-.08,0-.05,0-.08,0-.05,0-.08,0-.05,0-.08,0-.05,0-.08,0c-.03,0-.05,0-.08,0s-.05,0-.08,0-.05,0-.08,0-.05,0-.08,0-.06,0-.08,0-.06,0-.08,0-.06,0-.08,0-.06,0-.09,0c-.03,0-.06,0-.09,0s-.06,0-.08,0-.06,0-.08,0-.06,0-.08,0-.06,0-.08,0-.05,0-.08,0-.05,0-.08,0-.05,0-.08,0c-.03,0-.05,0-.08,0s-.05,0-.08,0-.05,0-.08,0-.05,0-.08,0-.05,0-.08,0-.05,0-.08,0-.05,0-.08,0-.05,0-.07,0-.05,0-.07,0-.05,0-.07,0-.05,0-.07,0-.05,0-.07,0-.05,0-.07,0-.05,0-.07,0-.05,0-.07,0-.05,0-.07,0c-.02,0-.05,0-.07,0s-.05,0-.07,0-.05,0-.07,0-.04,0-.07,0-.04,0-.07,0-.04,0-.07,0-.04,0-.06,0-.04,0-.06,0c-.02,0-.04,0-.06,0s-.04,0-.06,0-.04,0-.06,0-.04,0-.06,0-.04,0-.06,0-.04,0-.06,0-.04,0-.06,0-.04,0-.06,0c-.02,0-.04,0-.06,0s-.04,0-.06,0-.04,0-.06,0-.04,0-.06,0-.04,0-.06,0-.04,0-.05,0-.04,0-.05,0-.04,0-.05,0c-.02,0-.03,0-.05,0s-.03,0-.05,0-.03,0-.05,0-.03,0-.05,0-.03,0-.05,0-.03,0-.05,0-.03,0-.05,0-.03,0-.05,0c-.02,0-.03,0-.05,0s-.03,0-.05,0-.03,0-.05,0-.03,0-.04,0-.03,0-.04,0-.03,0-.04,0-.03,0-.04,0-.03,0-.04,0c-.02,0-.04,0-.06,0s-.04,0-.06,0-.04,0-.06,0-.04,0-.05,0-.04,0-.05,0-.04,0-.05,0-.03,0-.05,0-.03,0-.05,0c-.02,0-.03,0-.05,0s-.03,0-.05,0-.03,0-.05,0-.03,0-.05,0-.03,0-.05,0-.03,0-.05,0-.03,0-.04,.01-.03,0-.04,.01c-.01,0-.03,0-.04,.01s-.03,0-.04,.01-.03,0-.04,.01-.03,0-.04,.01-.03,0-.04,.01-.03,.01-.04,.02-.03,.01-.04,.02-.02,.01-.04,.02c-.01,0-.02,.01-.04,.02s-.02,.01-.03,.02-.02,.01-.03,.02-.02,.01-.03,.02-.02,.01-.03,.02-.02,.01-.03,.02-.02,.01-.03,.02-.02,.02-.03,.02c0,0-.02,.02-.03,.02s-.02,.02-.03,.02-.02,.02-.03,.03-.02,.02-.03,.03-.02,.02-.02,.03-.02,.02-.02,.03-.02,.02-.02,.03-.01,.02-.02,.03c0,0-.01,.02-.02,.03s-.01,.02-.02,.03-.01,.02-.02,.03-.01,.02-.02,.03-.01,.02-.02,.03-.01,.02-.02,.03-.01,.02-.02,.03-.01,.02-.01,.03c0,.01,0,.02-.01,.04s0,.02-.01,.04,0,.02-.01,.04,0,.02-.01,.04,0,.03-.01,.04,0,.03,0,.04,0,.03,0,.04,0,.03,0,.04c0,.01,0,.03,0,.04s0,.03,0,.04,0,.03,0,.04,0,.03,0,.04,0,.03,0,.04,0,.03,0,.04,0,.03,0,.05,0,.03,0,.05c0,.08,0,.16,0,.25s0,.17,0,.25,0,.17,0,.25,0,.17,0,.26,0,.17,0,.26,0,.18,0,.27,0,.18,0,.27,0,.18,0,.27,0,.18,0,.28,0,.19,0,.28,0,.19,0,.29,0,.19,0,.29,0,.2,0,.29,0,.2,0,.3,0,.2,0,.3,0,.2,0,.31,0,.21,0,.31,0,.21,0,.31,0,.21,0,.32,0,.21,0,.32,0,.22,0,.32,0,.22,0,.33,0,.22,0,.33,0,.22,0,.34c0,.11,0,.23,0,.34s0,.23,0,.34,0,.23,.01,.35,0,.23,.01,.35,0,.24,.01,.36,0,.24,.01,.36,0,.24,.01,.36,0,.24,.01,.37c0,.12,0,.25,.01,.37s0,.25,.01,.37,0,.25,.01,.38,0,.25,.01,.38,0,.26,.01,.39,0,.26,.01,.39,0,.26,.01,.39,0,.26,.02,.4c0,.13,.01,.27,.02,.4s.01,.27,.02,.41,.01,.27,.02,.41,.01,.27,.02,.41,.01,.28,.02,.42,.01,.28,.02,.42,.01,.28,.02,.42,.01,.28,.02,.43,.01,.29,.02,.43,.01,.29,.02,.44,.01,.29,.02,.44,.01,.3,.02,.44,.01,.3,.02,.45,.01,.3,.02,.45,.01,.3,.02,.46,.01,.31,.02,.46c0,.15,.01,.31,.02,.46s.01,.31,.02,.47,.01,.31,.02,.47,.01,.32,.02,.47,.02,.32,.02,.48,.02,.32,.02,.48,.02,.32,.02,.49,.02,.33,.02,.49,.02,.33,.02,.49,.02,.32,.02,.49,.02,.32,.02,.48,.02,.32,.02,.48,.02,.32,.02,.47,.01,.31,.02,.47,.01,.31,.02,.47,.01,.31,.02,.46c0,.15,.01,.31,.02,.46s.01,.3,.02,.46,.01,.3,.02,.45,.01,.3,.02,.45,.01,.3,.02,.44,.01,.29,.02,.44,.01,.29,.02,.44,.01,.29,.02,.43c0,.14,.01,.29,.02,.43s.01,.28,.02,.42,.01,.28,.02,.42,.01,.28,.02,.42,.01,.28,.02,.41,.01,.27,.02,.41,.01,.27,.02,.41,.01,.27,.02,.4,.01,.27,.01,.4,0,.26,.01,.39,0,.26,.01,.39,0,.26,.01,.39,0,.26,.01,.38,0,.25,.01,.38,0,.25,.01,.37,0,.25,.01,.37c0,.12,0,.25,.01,.37s0,.24,.01,.36,0,.24,.01,.36,0,.24,.01,.36,0,.23,.01,.35,0,.23,.01,.35,0,.23,0,.34,0,.23,0,.34,0,.22,0,.34,0,.22,0,.33,0,.22,0,.33,0,.22,0,.32,0,.21,0,.32,0,.21,0,.32,0,.21,0,.31,0,.21,0,.31c0,.1,0,.2,0,.31s0,.2,0,.3,0,.2,0,.3,0,.2,0,.29,0,.19,0,.29,0,.19,0,.29,0,.19,0,.28,0,.19,0,.28c0,.09,0,.18,0,.27s0,.18,0,.27,0,.18,0,.27,0,.18,0,.26,0,.17,0,.26,0,.17,0,.25,0,.17,0,.25,0,.17,0,.25,0,.16,0,.23,0,.16,0,.24,0,.16,0,.24,0,.16,0,.25,0,.17,0,.25,0,.17,0,.25,0,.17,0,.26,0,.17,0,.26c0,.09,0,.18,0,.26s0,.18,0,.27,0,.18,0,.27,0,.18,0,.27,0,.18,0,.28,0,.19,0,.28,0,.19,0,.29,0,.19,0,.29c0,.1,0,.19,0,.29s0,.2,0,.3,0,.2,0,.3,0,.2,0,.3,0,.2,0,.31,0,.21,0,.31,0,.21,0,.31,0,.21,0,.32,0,.21,0,.32,0,.22,0,.33,0,.22-.01,.33,0,.22-.01,.33,0,.22-.01,.34,0,.23-.01,.34,0,.23-.01,.34,0,.23-.01,.35c0,.12,0,.23-.01,.35s0,.24-.01,.35,0,.24-.01,.36,0,.24-.01,.36,0,.24-.01,.37,0,.25-.01,.37,0,.25-.01,.37,0,.25-.01,.38-.01,.25-.02,.38-.01,.26-.02,.38-.01,.26-.02,.39-.01,.26-.02,.39-.01,.26-.02,.4-.01,.27-.02,.4-.01,.27-.02,.4-.01,.27-.02,.41c0,.14-.01,.27-.02,.41s-.01,.27-.02,.41-.01,.28-.02,.42-.01,.28-.02,.42-.01,.28-.02,.42-.01,.28-.02,.43-.01,.29-.02,.43-.01,.29-.02,.44c0,.15-.01,.29-.02,.44s-.01,.29-.02,.44-.01,.3-.02,.45-.01,.3-.02,.45-.02,.3-.02,.45-.02,.3-.02,.46-.02,.31-.02,.46-.02,.31-.02,.46c0,.16-.02,.31-.02,.46s-.02,.31-.02,.46-.02,.31-.02,.46-.02,.3-.02,.45-.02,.3-.02,.45-.01,.3-.02,.45-.01,.3-.02,.44-.01,.29-.02,.44c0,.15-.01,.29-.02,.44s-.01,.29-.02,.43-.01,.29-.02,.43-.01,.28-.02,.42-.01,.28-.02,.42-.01,.28-.02,.42-.01,.28-.02,.41-.01,.27-.02,.41c0,.14-.01,.27-.02,.41s-.01,.27-.02,.4-.01,.27-.02,.4-.01,.26-.02,.4-.01,.26-.02,.39-.01,.26-.02,.39-.01,.26-.02,.38-.01,.25-.02,.38c0,.13-.01,.25-.02,.38s0,.25-.01,.37,0,.25-.01,.37,0,.24-.01,.37,0,.24-.01,.36,0,.24-.01,.36,0,.24-.01,.35,0,.23-.01,.35c0,.12,0,.23-.01,.35s0,.23-.01,.34,0,.23-.01,.34,0,.23-.01,.34,0,.22-.01,.33,0,.22-.01,.33,0,.22,0,.33,0,.22,0,.32c0,.11,0,.21,0,.32s0,.21,0,.31,0,.21,0,.31,0,.21,0,.31,0,.2,0,.3,0,.2,0,.3,0,.2,0,.3,0,.2,0,.29c0,.1,0,.19,0,.29s0,.19,0,.29,0,.19,0,.28,0,.19,0,.28,0,.18,0,.27,0,.18,0,.27,0,.18,0,.27,0,.18,0,.26,0,.17,0,.26,0,.17,0,.26,0,.17,0,.25,0,.17,0,.25,0,.16,0,.25,0,.16,0,.24,0,.16,0,.24,0,.16,0,.23c0,.02,0,.03,0,.05s0,.03,0,.05,0,.03,0,.05,0,.03,0,.05,0,.03,0,.05,0,.03,0,.04,0,.03,0,.04,0,.03,0,.04c0,.01,0,.03,0,.04s0,.03,0,.04,0,.03,0,.04,0,.03,.01,.04,0,.03,.01,.04,0,.03,.01,.04,0,.03,.01,.04,0,.02,.01,.04c0,.01,0,.02,.01,.04s.01,.02,.02,.04,.01,.02,.02,.03,.01,.02,.02,.03,.01,.02,.02,.03,.01,.02,.02,.03,.01,.02,.02,.03,.01,.02,.02,.03,.01,.02,.02,.03,.02,.02,.02,.03,.02,.02,.02,.03,.02,.02,.02,.03,.02,.02,.03,.03,.02,.02,.03,.03,.02,.02,.03,.03,.02,.02,.03,.02c0,0,.02,.02,.03,.02s.02,.02,.03,.02,.02,.02,.03,.02,.02,.01,.03,.02,.02,.01,.03,.02,.02,.01,.03,.02,.02,.01,.03,.02,.02,.01,.04,.02c.01,0,.02,.01,.04,.02s.02,.01,.04,.02,.03,.01,.04,.02,.03,.01,.04,.02,.03,0,.04,.01,.03,0,.04,.01,.03,0,.04,.01,.03,0,.04,.01c.01,0,.03,0,.04,.01s.03,0,.04,.01,.03,0,.05,.01,.03,0,.05,0,.03,0,.05,0,.03,0,.05,0,.03,0,.05,0,.03,0,.05,0c.02,0,.03,0,.05,0s.03,0,.05,0,.04,0,.05,0,.04,0,.05,0,.04,0,.05,0,.04,0,.06,0,.04,0,.06,0,.04,0,.06,0c.01,0,.03,0,.04,0s.03,0,.04,0,.03,0,.04,0,.03,0,.04,0,.03,0,.04,0,.03,0,.05,0,.03,0,.05,0,.03,0,.05,0c.02,0,.03,0,.05,0s.03,0,.05,0,.03,0,.05,0,.03,0,.05,0,.03,0,.05,0,.03,0,.05,0,.03,0,.05,0,.03,0,.05,0c.02,0,.03,0,.05,0s.04,0,.05,0,.04,0,.05,0,.04,0,.05,0,.04,0,.05,0,.04,0,.06,0,.04,0,.06,0,.04,0,.06,0c.02,0,.04,0,.06,0s.04,0,.06,0,.04,0,.06,0,.04,0,.06,0,.04,0,.06,0,.04,0,.06,0,.04,0,.06,0,.04,0,.06,0c.02,0,.04,0,.06,0s.04,0,.06,0,.04,0,.06,0,.04,0,.06,0,.04,0,.06,0,.04,0,.07,0,.04,0,.07,0,.04,0,.07,0,.04,0,.07,0,.05,0,.07,0,.05,0,.07,0,.05,0,.07,0,.05,0,.07,0,.05,0,.07,0,.05,0,.07,0,.05,0,.07,0,.05,0,.07,0,.05,0,.07,0,.05,0,.07,0,.05,0,.07,0,.05,0,.07,0,.05,0,.08,0,.05,0,.08,0,.05,0,.08,0c.03,0,.05,0,.08,0s.05,0,.08,0,.05,0,.08,0,.05,0,.08,0,.05,0,.08,0,.05,0,.08,0,.05,0,.08,0,.05,0,.08,0c.03,0,.05,0,.08,0s.05,0,.08,0,.05,0,.08,0,.05,0,.08,0,.05,0,.08,0,.05,0,.08,0,.05,0,.08,0,.05,0,.08,0c.03,0,.05,0,.08,0s.05,0,.08,0,.05,0,.08,0,.05,0,.07,0,.05,0,.07,0,.05,0,.07,0,.05,0,.07,0,.05,0,.07,0,.05,0,.07,0,.05,0,.07,0,.05,0,.07,0,.05,0,.07,0,.05,0,.07,0,.05,0,.07,0,.05,0,.07,0,.04,0,.07,0c.02,0,.38,0,1-.02s1.49-.03,2.53-.05,2.25-.05,3.55-.08,2.68-.06,4.06-.09,2.76-.06,4.06-.09,2.51-.05,3.55-.07,1.91-.04,2.53-.05,.98-.02,1-.02c.02,0,.04,0,.06,0s.04,0,.06,0,.04,0,.06,0,.04,0,.06,0,.04,0,.06,0,.04,0,.06,0,.04,0,.06,0,.04,0,.06,0c.02,0,.04,0,.06,0s.04,0,.06,0,.04,0,.06,0,.04,0,.05,0,.04,0,.05,0,.04,0,.05,0,.04,0,.05,0,.03,0,.05,0c.02,0,.03,0,.05,0s.03,0,.05,0,.03,0,.05,0,.03,0,.05,0,.03,0,.05,0,.03,0,.05,0,.03,0,.05,0,.03,0,.05,0c.02,0,.03,0,.05,0s.03,0,.05,0,.03,0,.05,0,.03,0,.04,0,.03,0,.04,0,.03,0,.04,0,.03,0,.04,0,.03,0,.04,0c.01,0,.03,0,.04,0s.03,0,.04,0,.03,0,.05,0,.03,0,.05,0,.03,0,.05,0,.03,0,.05,0,.03,0,.05,0,.03,0,.05,0c.02,0,.03,0,.05,0s.03,0,.05,0,.03,0,.05,0,.03,0,.05,0,.03,0,.05,0,.04,0,.05,0,.04,0,.05,0,.04,0,.05,0c.02,0,.04,0,.06,0s.04,0,.06,0,.04,0,.06,0,.04,0,.06,0,.04,0,.06,0,.04,0,.06,0,.04,0,.06,0,.04,0,.06,0c.02,0,.04,0,.06,0s.04,0,.06,0,.04,0,.06,0,.04,0,.06,0,.04,0,.06,0,.04,0,.06,0,.04,0,.06,0,.04,0,.07,0,.04,0,.07,0,.04,0,.07,0,.04,0,.07,0,.05,0,.07,0,.05,0,.07,0,.05,0,.07,0,.05,0,.07,0,.05,0,.07,0c.02,0,.05,0,.07,0s.05,0,.07,0,.05,0,.07,0,.05,0,.07,0,.05,0,.07,0,.05,0,.08,0,.05,0,.08,0,.05,0,.08,0c.03,0,.05,0,.08,0s.05,0,.08,0,.05,0,.08,0,.05,0,.08,0,.05,0,.08,0,.05,0,.08,0,.05,0,.08,0,.05,0,.08,0c.03,0,.06,0,.08,0s.06,0,.08,0,.06,0,.08,0,.06,0,.08,0,.06,0,.09,0,.06,0,.09,0,.06,0,.09,0,.06,0,.09,0c.03,0,.06,0,.09,0s.06,0,.09,0,.06,0,.09,0,.06,0,.09,0,.06,0,.08,0,.06,0,.08,0,.06,0,.08,0,.06,0,.08,0c.03,0,.05,0,.08,0s.05,0,.08,0,.05,0,.08,0,.05,0,.08,0,.05,0,.08,0,.05,0,.08,0,.05,0,.08,0,.05,0,.08,0c.03,0,.05,0,.08,0s.05,0,.08,0,.05,0,.08,0,.05,0,.07,0,.05,0,.07,0,.05,0,.07,0,.05,0,.07,0,.05,0,.07,0c.02,0,.05,0,.07,0s.05,0,.07,0,.05,0,.07,0,.05,0,.07,0,.05,0,.07,0,.05,0,.07,0,.04,0,.07,0,.04,0,.07,0,.04,0,.07,0,.04,0,.06,0,.04,0,.06,0,.04,0,.06,0,.04,0,.06,0,.04,0,.06,0,.04,0,.06,0,.04,0,.06,0c.02,0,.04,0,.06,0s.04,0,.06,0,.04,0,.06,0,.04,0,.06,0,.04,0,.06,0,.04,0,.06,0,.04,0,.06,0,.04,0,.06,0c.02,0,.04,0,.05,0s.04,0,.05,0,.04,0,.05,0,.04,0,.05,0,.03,0,.05,0,.03,0,.05,0,.03,0,.05,0,.03,0,.05,0c.02,0,.03,0,.05,0s.03,0,.05,0,.03,0,.05,0,.03,0,.05,0,.03,0,.05,0,.03,0,.05,0,.03,0,.05,0,.03,0,.04,0c.02,0,.04,0,.06,0s.04,0,.06,0,.04,0,.06,0,.04,0,.05,0,.04,0,.05,0,.04,0,.05,0,.03,0,.05,0,.03,0,.05,0,.03,0,.05,0,.03,0,.05-.01,.03,0,.05-.01,.03,0,.05-.01,.03,0,.05-.01,.03,0,.05-.01,.03-.01,.04-.02,.03-.01,.04-.02c.01,0,.03-.01,.04-.02s.03-.01,.04-.02,.03-.01,.04-.02,.03-.01,.04-.02,.03-.01,.04-.02,.03-.02,.04-.02,.03-.02,.04-.02,.02-.02,.04-.03c.01,0,.02-.02,.04-.03s.02-.02,.03-.03,.02-.02,.03-.03,.02-.02,.03-.03,.02-.02,.03-.03,.02-.02,.03-.03,.02-.02,.03-.03,.02-.02,.03-.03c0-.01,.02-.02,.03-.04s.02-.02,.03-.04,.02-.02,.03-.04,.02-.03,.03-.04,.02-.03,.02-.04,.02-.03,.02-.04,.02-.03,.02-.04,.01-.03,.02-.04,.01-.03,.02-.04,.01-.03,.02-.05,.01-.03,.02-.05,.01-.03,.02-.05,.01-.03,.02-.05,.01-.03,.02-.05,.01-.03,.02-.05,.01-.03,.01-.05,0-.04,.01-.05,0-.04,.01-.05,0-.04,.01-.06,0-.04,.01-.06,0-.04,.01-.06,0-.04,0-.06,0-.04,0-.06,0-.04,0-.06c0-.02,0-.04,0-.06s0-.04,0-.06,0-.04,0-.06,0-.04,0-.06,0-.04,0-.07,0-.04,0-.07,0-.05,0-.07,0-.05,0-.07c0-.06,0-.12,0-.19s0-.13,0-.19,0-.13,0-.19,0-.13,0-.2,0-.13,0-.2,0-.13,0-.2,0-.14,0-.21,0-.14,0-.21,0-.14,0-.21,0-.14,0-.21,0-.14,0-.22,0-.15,0-.22,0-.15,0-.22,0-.15,0-.23,0-.15,0-.23,0-.15,0-.23,0-.16,0-.23,0-.16,0-.24,0-.16,0-.24,0-.16,0-.24,0-.16,0-.25,0-.17,0-.25,0-.17,0-.25,0-.17,0-.26c0-.09,0-.17,0-.26s0-.17,0-.26,0-.18,0-.26,0-.18,0-.27,0-.18,0-.27,0-.18,0-.27,0-.18,0-.28,0-.19,0-.28,0-.19,0-.28,0-.19,0-.28,0-.19,0-.29,0-.19,0-.29,0-.2,0-.29,0-.2,0-.3,0-.2,0-.3,0-.2,0-.3c0-.1,0-.2,0-.31s0-.2,0-.31,0-.21,0-.31,0-.21,0-.31,0-.21,0-.32,0-.21,0-.32,0-.21,0-.32,0-.22,0-.33c0-.11,0-.22,0-.33s0-.22,0-.33,0-.22,0-.33,0-.22,0-.34,0-.23,0-.34,0-.23,0-.34,0-.23,0-.35,0-.23-.01-.35c0-.93-.02-1.78-.04-2.55s-.06-1.48-.09-2.14-.08-1.27-.12-1.87-.08-1.16-.11-1.73-.06-1.13-.08-1.72-.03-1.2-.02-1.85,.02-1.35,.06-2.12,.09-1.6,.17-2.52c.11-.29,.26-.53,.44-.73s.38-.35,.6-.47,.47-.21,.72-.27,.53-.1,.82-.12,.58-.03,.87-.03,.6,0,.9,0,.6,0,.89,0,.57-.03,.84-.08h.09s.09-.02,.09-.02h.09s.09-.02,.09-.02h.09s.09-.02,.09-.02h.09s.09-.02,.09-.02Z"/>
</svg>