<?xml version="1.0" encoding="UTF-8"?>
<svg id="Layer_1" data-name="Layer 1" xmlns="http://www.w3.org/2000/svg" viewBox="0 0 11.338583 7.370079">
  <defs>
    <style>
      .cls-1 {
        fill: #010101;
        fill-rule: evenodd;
      }
    </style>
  </defs>
  <path class="cls-1" d="M11.318724,6.167744c-.021785,.99068-.299676,1.202334-.70309,1.202334H.500966c-.485563,0-.504852-.698791-.50054-1.202334H11.318724ZM2.719389,4.513766c.15778,.414436,.223492,.903707,.228906,1.280013H.003279c.006322-.437161,.070737-.882778,.724194-1.304539,.314102-.202782,.968856-.326041,1.710362-.478975,.115961,.137992,.208774,.312522,.281554,.503501ZM7.749329,1.87413c-.296823,.645302-.705554,1.184881-1.203436,1.468064-.434115,.247144-.692522,.644337-.803814,1.061245l-.003209,.014147c-.062211,.240115-.075827,.485923-.046585,.713147,.030408,.236181,.106948,.453653,.223654,.626175,.008461,.012556,.017279,.024903,.026097,.036871H3.200834c-.005803-.416652-.078744-.960375-.254841-1.422944-.057802-.151971-.126529-.29553-.20738-.423686,.439982-.094297,.8976-.203577,1.323837-.348893l.209779,.630904c.027296,.082954,.101632,.121627,.165788,.086386,.064124-.035241,.094175-.131212,.066814-.21404l-.197039-.592734c.116447-.045202,.229457-.093501,.338189-.145568l.234579,.555023c.033294,.078978,.110093,.108192,.171299,.06525,.061206-.043068,.083802-.142136,.050443-.221156l-.220802-.522377c.113562-.06479,.22064-.13456,.319613-.210106l.254063,.480482c.039356,.074374,.1181,.093627,.175708,.042816,.05764-.050769,.07252-.152432,.033196-.226806l-.250043-.472822c.097677-.087056,.193149-.179971,.28606-.277491l.289658,.441348c.045029,.068808,.124876,.077346,.178171,.019211s.059909-.161346,.01488-.230154l-.290274-.442269c.089313-.103002,.17587-.209311,.25912-.317129l.329533,.406193c.05054,.062069,.130581,.059558,.178658-.005692,.048044-.065252,.046131-.168587-.004409-.230614l-.328528-.404936c.082991-.115098,.161995-.23074,.236978-.344541l.364188,.362705c.055144,.05491,.134536,.041854,.177167-.029423,.042565-.071193,.032451-.173693-.02279-.228647l-.35764-.356262c.079036-.127317,.152172-.250576,.218694-.36647l.387627,.30976c.059358,.047211,.137195,.023606,.173763-.052903,.036568-.076637,.018284-.177125-.041074-.224381l-.372358-.297536c.189323-.34881,.296077-.584279,.296077-.584279h.872476c-.06957,.637182-.245083,1.296966-.510687,1.87413Zm-.073784,.711264c.106138-.171057,.203555-.353916,.291506-.545271C8.255413,1.413359,8.443958,.693559,8.514825,0h2.013766c1.051847,0,.778074,2.580706,.4866,2.585393h-3.339645Zm-1.24224,3.208385c-.134796-.04018-.245148-.12987-.327329-.251497-.085163-.12598-.141506-.287452-.164296-.464577-.02279-.17679-.012124-.368397,.036114-.555609l.003858-.012682c.090156-.337551,.303793-.661918,.66623-.868215,.300227-.170847,.57011-.424021,.805921-.732986,.009466,.002846,.019386,.00452,.029501,.00452h3.51746c.24839,.53079,.394305,2.010824,.317117,2.881046H6.433305Z"/>
</svg>